<?xml version="1.0" encoding="UTF-8"?><svg id="Livello_2" xmlns="http://www.w3.org/2000/svg" viewBox="0 0 139.86 120.18"><defs><style>.cls-1{fill:#b6defe;}.cls-2{fill:#1a2854;}</style></defs><g id="Livello_1-2"><path class="cls-2" d="M69.4,100.1c-20.55,0-41.1,0-61.65,0-5.8,0-7.68-1.87-7.68-7.64C.06,64.3,.15,36.15,0,8-.03,2.28,2.46,0,8.05,0c41.27,.01,82.55,0,123.82,0,5.57,0,7.99,2.4,7.99,7.96,0,28.07,0,56.13,0,84.2,0,6.02-1.89,7.91-8.03,7.93-8.99,.02-17.98,0-26.97,0-11.82,0-23.63,0-35.45,0Zm.32-8.18c20.38,0,40.77-.04,61.15,.05,2.23,0,2.89-.52,2.88-2.83-.08-26.53-.09-53.06,0-79.6,0-2.41-.71-2.97-3.02-2.97-40.51,.07-81.02,.07-121.54,0-2.33,0-3.03,.58-3.02,2.98,.09,26.53,.09,53.06,0,79.6,0,2.33,.69,2.83,2.9,2.82,20.21-.08,40.43-.05,60.64-.05Z"/><path class="cls-2" d="M70.25,120.14c-12.24,0-24.48,0-36.71,0-3.04,0-3.63-.74-3-3.68,.85-3.93,3.98-6.51,8.06-6.56,3.51-.04,7.02-.08,10.53,.02,1.71,.05,2.4-.38,2.4-2.25,.02-5.99,.1-5.99,6.24-5.99,9.5,0,19,.05,28.5-.04,2.04-.02,2.85,.41,2.8,2.65-.11,5.61,0,5.61,5.59,5.61,2.31,0,4.62-.06,6.93,.02,4.7,.16,8.31,4.34,7.92,8.99-.14,1.69-1.37,1.22-2.29,1.23-7.7,.03-15.4,.02-23.11,.02-4.62,0-9.24,0-13.86,0Z"/><path class="cls-1" d="M69.72,91.91c-20.21,0-40.43-.03-60.64,.05-2.21,0-2.91-.49-2.9-2.82,.09-26.53,.09-53.06,0-79.6,0-2.39,.69-2.98,3.02-2.98,40.51,.07,81.02,.07,121.54,0,2.32,0,3.03,.56,3.02,2.97-.09,26.53-.09,53.06,0,79.6,0,2.31-.65,2.84-2.88,2.83-20.38-.09-40.77-.05-61.15-.05Z"/></g></svg>