<?xml version="1.0" encoding="UTF-8"?><svg id="Livello_2" xmlns="http://www.w3.org/2000/svg" viewBox="0 0 420.11 361.01"><defs><style>.cls-1{fill:#fefefe;}.cls-2{fill:#b7dffe;}.cls-3{fill:#b6defe;}</style></defs><g id="Layer_2"><path class="cls-2" d="M208.48,300.67c-61.73,0-123.47,0-185.2,0-17.41,0-23.07-5.61-23.07-22.95C.19,193.16,.44,108.6,0,24.04-.09,6.84,7.38,0,24.17,0c123.98,.03,247.96,.01,371.94,.02,16.74,0,23.99,7.22,23.99,23.9,.02,84.31,.01,168.61,0,252.92,0,18.09-5.67,23.76-24.12,23.81-27.01,.07-54.02,.02-81.02,.02-35.5,0-70.99,0-106.49,0Zm.96-24.58c61.23,0,122.46-.11,183.7,.15,6.7,.03,8.68-1.58,8.66-8.51-.25-79.7-.26-159.4,0-239.09,.02-7.24-2.13-8.92-9.08-8.91-121.69,.2-243.38,.2-365.08,0-7.01-.01-9.09,1.75-9.07,8.94,.26,79.7,.26,159.4,0,239.09-.02,6.99,2.08,8.5,8.71,8.47,60.72-.25,121.43-.15,182.15-.15Z"/><path class="cls-3" d="M211.03,360.89c-36.76,0-73.52,0-110.29,0-9.13,0-10.92-2.23-9.01-11.05,2.55-11.8,11.97-19.57,24.2-19.72,10.54-.13,21.09-.25,31.62,.07,5.13,.15,7.2-1.13,7.22-6.77,.06-18,.29-18,18.75-18,28.54,0,57.07,.16,85.61-.13,6.12-.06,8.56,1.23,8.43,7.96-.35,16.84-.01,16.85,16.8,16.85,6.94,0,13.89-.18,20.82,.06,14.11,.49,24.97,13.04,23.79,27-.43,5.07-4.12,3.68-6.87,3.69-23.14,.09-46.27,.05-69.41,.05-13.88,0-27.76,0-41.65,0Z"/><path class="cls-1" d="M209.43,276.09c-60.72,0-121.44-.1-182.15,.15-6.64,.03-8.74-1.48-8.71-8.47,.26-79.7,.26-159.4,0-239.09-.02-7.19,2.06-8.95,9.07-8.94,121.69,.2,243.38,.2,365.08,0,6.96-.01,9.11,1.67,9.08,8.91-.26,79.7-.26,159.4,0,239.09,.02,6.93-1.96,8.53-8.66,8.51-61.23-.26-122.46-.15-183.7-.15Z"/></g></svg>