<?xml version="1.0" encoding="utf-8"?>
<!-- Generator: Adobe Illustrator 26.5.0, SVG Export Plug-In . SVG Version: 6.00 Build 0)  -->
<svg version="1.1" xmlns="http://www.w3.org/2000/svg" xmlns:xlink="http://www.w3.org/1999/xlink" x="0px" y="0px"
	 viewBox="0 0 762.4 314.8" style="enable-background:new 0 0 762.4 314.8;" xml:space="preserve">
<style type="text/css">
	.st0{display:none;}
	.st1{display:inline;fill:#002459;stroke:#000000;stroke-miterlimit:10;}
	.st2{fill:#FFFFFF;}
	.st3{fill:#CF0403;}
	.st4{fill:#74A53E;}
	.st5{fill:#925E2B;}
</style>
<g id="Livello_3" class="st0">
	<rect x="0.8" y="0.5" class="st1" width="762.4" height="313.8"/>
</g>
<g id="Livello_2_00000026121745086213877880000004895297004550930603_">
	<g>
		<path class="st2" d="M249,312.7l-10.3-0.8l-0.1-5.7l8.7,0.8c0.3-0.1,0.7-0.3,1.1-0.3c0.9-0.1,1.8-0.1,2.6-0.3
			c0.4-0.1,0.8-0.1,1.2,0c0.9-0.3,1.7-0.2,2.2-0.1c0.5,0,1.1-0.1,1.7-0.2c0.3,0,0.5-0.1,0.8-0.1l2.9-4.7c-2.6,0.7-5.4,1.2-8.4,1.4
			c-4.8,0.3-9.7,0-14.7-0.9c-5-0.9-10.1-2.3-15.1-4.2c-8.6-3.2-17.1-7.6-25.3-13.2c-3.2-2.2-6.4-4.6-9.3-7l-0.3-0.2
			c-0.2-0.1-0.4-0.4-0.5-0.4c-0.9-0.2-1.6-0.9-2-1.8c-0.1-0.1-0.2-0.1-0.3-0.2c-2.7-2.4-5.4-4.9-7.8-7.5c-8.8-9.1-16-19.2-21.4-30.1
			c-6.3-12.6-10.1-26-11.2-39.9c-0.3-4.2-0.4-8-0.3-11.7c0.1-3,0.3-6.2,0.7-9.4c0.5-4.2,1.1-8,1.9-11.5c1.6-7,3.8-13.2,6.7-18.9
			c3.6-7.1,8.3-13.3,13.9-18.4c7.1-6.5,15.7-11.2,25.5-14.1c4-1.2,8.1-2,12.1-2.5c3.3-0.4,6-0.6,8.5-0.7c2.8-0.1,5.7,0,8.4,0.2
			c1.8,0.2,3.8,0.3,5.7,0.6c3.9,0.5,7.6,1.3,11.1,2.3c6.8,1.9,12.8,4.4,18.2,7.6c3.5,2.1,6.6,4.3,9.2,6.7c-1-1.6-2.2-3.1-3.9-4.8
			c-2-1.9-4.4-3.8-7.2-5.6c-6-3.9-12.6-6.9-20.2-9.3c-4.3-1.4-8.8-2.4-13.2-3.1c-3.1-0.5-6-0.8-8.9-0.9c-5.7-0.3-11.2,0-16.4,1
			c-4,0.7-7.7,1.7-11.2,3c-8,3-15.1,7.7-21.2,13.9c-4.6,4.8-8.5,10.2-11.9,16.7c-3.3,6.3-5.9,13.3-7.9,21.2c-1.1,4.2-2,8.6-2.7,13.1
			c-0.5,3.3-0.8,6.2-1,8.9c-0.3,6.4,0,12.8,1,19c0.7,4.6,1.7,9.3,3,13.8c2.5,8.8,6,17.6,10.5,26.2c6.9,13,15.6,24.8,25.8,35
			c6.9,6.8,14.2,12.7,21.9,17.4c10.8,6.7,21.5,10.8,32.7,12.7c0.4,0.1,0.7,0.1,1.1,0.2c1.1,0.2,2.2,0.4,3.2,0.4l0.1,5.7
			c-1.6,0-3-0.2-4.3-0.5c-0.3-0.1-0.7-0.1-1-0.2c-11.9-2-23.2-6.4-34.7-13.5c-8-5-15.7-11.1-22.9-18.2
			c-10.6-10.6-19.7-22.8-26.8-36.4c-4.7-8.9-8.4-18.1-10.9-27.3c-1.3-4.7-2.4-9.6-3.1-14.4c-1-6.6-1.4-13.3-1-20.2
			c0.1-2.9,0.5-6,1-9.5c0.8-4.7,1.7-9.3,2.9-13.6c2.2-8.3,4.9-15.6,8.4-22.3c3.6-7,7.8-12.9,12.8-18c6.6-6.8,14.4-11.9,23.2-15.2
			c3.8-1.4,7.8-2.5,12.2-3.3c5.6-1,11.6-1.4,17.7-1.1c3.1,0.2,6.2,0.5,9.5,1c4.8,0.8,9.5,1.9,14.1,3.3c8.1,2.6,15.2,5.8,21.6,10
			c3.1,2,5.7,4.1,8,6.3c1.4,1.4,2.6,2.7,3.6,4l8.8-7.9c0.5-0.5,1.1-1,1.7-1.4c0.4-0.3,0.8-0.5,1-0.6l4.1-2l0,4.6
			c0,0.2,0.1,0.8-0.2,1.5c-0.5,1.4-0.9,2.7-1.4,4.1l-0.6,1.8c-0.5,1.5-1,2.9-1.5,4.4c-0.3,0.9-0.8,1.7-1.6,2.4
			c-1.9,1.6-3.8,3.3-5.8,4.9l-2.9,2.5c-1.4,1.2-3.4,1.1-4.6-0.3c-0.3-0.3-0.6-0.7-0.9-1c-0.6-0.7-1.2-1.3-1.7-1.9
			c-2.7-2.8-6-5.4-10-7.7c-5-3-10.5-5.3-16.8-7c-3.3-0.9-6.8-1.6-10.4-2.2c-1.7-0.2-3.4-0.4-5.4-0.6c-2.5-0.2-5.1-0.3-7.8-0.2
			c-2.3,0.1-4.9,0.2-8,0.6c-3.8,0.5-7.5,1.2-11.2,2.3c-8.9,2.7-16.8,7-23.3,12.9c-5.1,4.6-9.4,10.3-12.7,16.8
			c-2.7,5.3-4.8,11.1-6.3,17.6c-0.8,3.3-1.3,6.9-1.8,10.9c-0.4,3-0.5,6.1-0.6,9c-0.1,3.4-0.1,7,0.3,11c1.1,13.1,4.6,25.9,10.6,37.8
			c5.2,10.3,12.1,20,20.4,28.7c2.4,2.5,4.9,4.9,7.5,7.2l0.1,0.1c0.3,0.2,0.7,0.6,1.1,1.1c0.6,0.3,1.1,0.7,1.5,1.1l0.2,0.2
			c2.8,2.3,5.8,4.6,8.9,6.7c7.9,5.4,15.8,9.5,24.1,12.6c4.7,1.7,9.5,3,14.2,3.9c4.5,0.8,9,1.1,13.3,0.8c5.2-0.4,9.7-1.6,13.7-3.9
			c1.5-0.8,3.2-0.4,4.1,1c0.5,0.8,0.6,1.9,0.2,2.8c-0.1,0.2-0.2,0.4-0.3,0.6l-0.1,0.2c-0.1,0.2-0.3,0.5-0.4,0.7l-6.5,10.5
			c-0.2,0.3-0.4,0.7-0.8,1.1c-0.3,0.4-1.2,1.2-2.5,1.4c-0.4,0-0.8,0.1-1.3,0.2c-0.9,0.2-2,0.4-3.1,0.3l-0.2,0l0,0l-2.4,0.4l-0.3-0.1
			c-0.5,0.1-1.1,0.1-1.6,0.2L249,312.7z M252.2,312C252.2,312,252.2,312,252.2,312C252.2,312,252.2,312,252.2,312z M257.9,305.8
			C257.9,305.8,257.9,305.8,257.9,305.8C257.9,305.8,257.9,305.8,257.9,305.8z M189.7,273.1C189.7,273.1,189.7,273.1,189.7,273.1
			C189.7,273.1,189.7,273.1,189.7,273.1z M187.9,271.3C187.9,271.3,188,271.3,187.9,271.3C188,271.3,187.9,271.3,187.9,271.3z
			 M267.2,129.4c0.1,0.1,0.1,0.1,0.2,0.2c0.4,0.5,0.8,0.9,1.3,1.4l1.1-0.9c1.9-1.6,3.8-3.2,5.7-4.9c0.1-0.3,0.2-0.6,0.3-0.9
			l-4.2,3.8c-0.4,0.3-0.8,0.7-1.3,1C269.2,129.7,268.1,129.7,267.2,129.4z M283,117.7C283,117.7,283,117.7,283,117.7
			C283,117.7,283,117.7,283,117.7z"/>
		<path class="st3" d="M238.7,309.1c-1.6,0-3.2-0.3-4.8-0.6c-12.1-2-23.3-6.6-33.7-13.1c-8.2-5.1-15.6-11.1-22.4-17.8
			c-10.6-10.5-19.3-22.5-26.3-35.7c-4.5-8.5-8.1-17.4-10.7-26.7c-1.3-4.6-2.3-9.3-3-14.1c-1-6.5-1.3-13-1-19.6
			c0.1-3.1,0.5-6.1,1-9.2c0.7-4.5,1.6-9,2.8-13.4c2-7.5,4.6-14.8,8.2-21.8c3.3-6.4,7.3-12.2,12.3-17.4c6.3-6.5,13.7-11.4,22.2-14.6
			c3.8-1.4,7.7-2.4,11.7-3.2c5.7-1,11.4-1.3,17.1-1c3.1,0.2,6.1,0.5,9.2,1c4.6,0.7,9.2,1.8,13.7,3.2c7.4,2.3,14.4,5.4,20.9,9.7
			c2.7,1.8,5.3,3.7,7.6,5.9c1.7,1.7,3.3,3.4,4.5,5.5c0.1,0.2,0.2,0.3,0.4,0.4c0.1,0.1,0.3,0.1,0.3,0.1c0.4-0.3,0.7-0.5,1-0.8
			c3.3-3,6.7-6,10-9c0.5-0.5,1.1-0.9,1.6-1.4c0.1-0.1,0.2-0.1,0.3-0.2c0,0.2,0.1,0.4,0,0.6c-0.7,1.9-1.3,3.9-2,5.8
			c-0.5,1.5-1,2.9-1.5,4.4c-0.1,0.4-0.4,0.8-0.7,1.1c-2.9,2.5-5.8,4.9-8.6,7.4c-0.2,0.2-0.5,0.2-0.7-0.1c-0.9-1-1.8-2-2.7-3
			c-3.1-3.3-6.8-5.9-10.6-8.2c-5.5-3.2-11.4-5.6-17.5-7.3c-3.5-1-7.1-1.7-10.7-2.2c-1.8-0.3-3.7-0.4-5.6-0.6
			c-2.7-0.2-5.4-0.3-8.1-0.2c-2.8,0.1-5.5,0.3-8.3,0.6c-4,0.5-7.9,1.3-11.7,2.4c-9.1,2.7-17.3,7.1-24.4,13.5
			c-5.5,5-9.9,10.9-13.3,17.6c-3,5.8-5,11.9-6.5,18.3c-0.8,3.7-1.4,7.4-1.9,11.2c-0.4,3.1-0.5,6.1-0.6,9.2c-0.2,3.8,0,7.6,0.3,11.4
			c1.1,13.7,4.8,26.6,10.9,38.9c5.5,10.9,12.5,20.6,20.9,29.4c2.5,2.5,5,5,7.7,7.3c0.4,0.3,0.8,0.6,1,1.2c0,0.1,0.2,0.2,0.3,0.2
			c0.7,0.2,1.2,0.7,1.8,1.1c2.9,2.4,5.9,4.7,9.1,6.8c7.7,5.3,15.9,9.6,24.7,12.9c4.8,1.8,9.6,3.1,14.6,4c4.6,0.8,9.3,1.1,14,0.8
			c5.2-0.4,10.3-1.6,14.9-4.2c0.1-0.1,0.2-0.1,0.3,0.1c0,0,0,0.1,0,0.2c0,0.1-0.1,0.2-0.2,0.3c-0.2,0.3-0.3,0.6-0.5,0.8
			c-2.1,3.4-4.3,6.9-6.4,10.3c-0.2,0.3-0.4,0.7-0.6,1c-0.2,0.2-0.4,0.4-0.6,0.4c-1.3,0.1-2.6,0.5-4,0.5c-0.4-0.1-0.9-0.1-1.3,0.1
			c-0.3,0-0.6,0.1-1,0.1c-0.1-0.1-0.2-0.2-0.3-0.2c-1,0.2-2,0.3-3,0.4c-0.2,0-0.3,0.2-0.5,0.3c-1.2,0-2.3,0-3.5,0"/>
		<path class="st2" d="M230.6,87.6c-1.9,0-3.5,0-5.1-0.1c-2.4-0.1-5.1-0.3-8.3-0.7c-2.2-0.2-4.2-0.5-6.2-0.8
			c-4-0.6-8.1-1.5-12.1-2.6c-7-1.9-13.7-4.5-20.1-7.7c-7.1-3.6-13.8-8.1-19.9-13.3c-8.7-7.4-16.2-16.3-22.5-26.6
			c-4.6-7.5-8.5-15.7-11.8-25c-0.1-0.2-0.1-0.4-0.2-0.6l0-0.1c-0.3-0.9-0.1-2,0.4-2.8c0.5-0.8,1.3-1.4,2.3-1.5l0.4-0.1
			c0.8-0.1,1.5-0.3,2.3-0.4l0.8-0.1c2-0.3,3.9-0.6,5.9-0.9c1.2-0.2,2.4-0.3,3.6-0.5l0.7-0.1c1.2-0.1,2.4-0.3,3.6-0.4L146,3
			c0.3,0,0.5-0.1,0.8-0.1c1-0.1,2.1-0.1,3.1-0.2c1.7-0.1,3.5-0.3,5.3-0.3c0,0,0.2,0,0.2,0c0.2,0,0.3,0,0.5,0l0.4-0.3H175l0.2,0.5
			c2.4,0.2,4.9,0.4,7.8,0.8c9.7,1.3,18.3,3.5,26.4,6.6c8.4,3.3,15.6,7.4,22.1,12.6c10.8,8.7,18.5,19.8,22.8,33
			c1.3,3.8,2.2,8,2.9,12.2c0.6,4.1,1,8.3,1,12.9c0,0.6,0,1,0,1.5c-0.1,1.3-1,2.5-2.3,2.9l-0.2,0.1c-0.3,0.1-0.8,0.3-1.3,0.3
			l-1.6,0.3c-2.5,0.4-5,0.8-7.6,1c-0.8,0.1-1.6,0.2-2.5,0.2c-1.2,0.1-2.5,0.3-3.7,0.3c-1.8,0.1-3.9,0.2-6.3,0.2
			C232,87.6,231.3,87.6,230.6,87.6z M137.3,14.7c1.7,4.1,3.7,8.1,5.8,12c6.5,11.5,14.7,21.3,24.4,29.2c5.3,4.3,11,8,17.1,11
			c4.5,2.2,9.5,4.1,15.4,5.9c5.6,1.6,11.2,2.8,16.9,3.5c2.5,0.3,5.4,0.6,8.2,0.7c0.3,0,0.6,0,0.9,0c0.3,0,0.6,0,0.9,0l1.8,0
			c0.9,0,1.9,0,2.8,0c1,0,2,0,3,0c2.5-0.1,5-0.2,7.5-0.5c1.9-0.2,3.8-0.5,5.6-0.7l0.1,0c0-0.9-0.1-1.8-0.2-2.7l0-0.5
			c-0.2-2.5-0.7-5.1-1.3-7.9c-1.9-7.7-5-14.9-9.5-21.3c-5.1-7.4-11.4-13.4-18.7-17.6c-3.1-1.8-6.5-3.5-10.2-5.1
			c-8-3.4-16.5-5.6-26-6.8c-0.6-0.1-1.2-0.1-1.9-0.2c-0.7-0.1-1.4-0.2-2.2-0.3c-2.4-0.3-4.8-0.4-7.1-0.5c-2.3-0.1-4.7-0.1-7-0.1
			c-1,0-2,0-3.1,0c-2.2,0-4.3,0.2-6.6,0.3c-1.4,0.1-2.9,0.2-4.3,0.2c-1.5,0.1-3,0.2-4.6,0.4l-0.4,0c-1.7,0.2-3.3,0.4-4.8,0.6
			C139,14.4,138.1,14.6,137.3,14.7z"/>
		<path class="st4" d="M173.3,4.9c0.1,0.1,0.1,0.3,0.2,0.3c0.1,0.1,0.2,0.1,0.4,0.1c3,0.2,5.9,0.5,8.8,0.9
			c8.8,1.2,17.4,3.2,25.7,6.5c7.7,3,14.9,7,21.3,12.2c10.4,8.4,17.7,19,21.9,31.7c1.3,3.9,2.2,7.8,2.8,11.8c0.6,4.1,0.9,8.3,1,12.5
			c0,0.4,0,0.8,0,1.2c0,0.2-0.1,0.4-0.3,0.4c-0.4,0.1-0.7,0.3-1.1,0.3c-3,0.5-5.9,1-9,1.3c-2,0.2-4.1,0.4-6.1,0.6
			c-2.1,0.1-4.1,0.2-6.2,0.2c-2.4,0-4.8,0-7.1-0.1c-2.7-0.1-5.4-0.3-8.1-0.6c-2-0.2-4.1-0.5-6.1-0.8c-4-0.6-7.9-1.5-11.8-2.6
			c-6.8-1.9-13.3-4.4-19.5-7.5c-7-3.5-13.4-7.8-19.4-12.9c-8.7-7.4-16-16.2-21.9-25.9c-4.7-7.8-8.5-16-11.6-24.5
			c-0.1-0.2-0.1-0.4-0.2-0.6c-0.1-0.4,0.1-0.7,0.4-0.7c0.9-0.2,1.8-0.3,2.7-0.5c2.2-0.4,4.4-0.7,6.7-1.1c1.4-0.2,2.8-0.4,4.2-0.5
			c1.7-0.2,3.4-0.4,5.2-0.6c0.3,0,0.5-0.1,0.8-0.1c2.8-0.1,5.6-0.5,8.5-0.5c0.5,0,1,0,1.5-0.1c0.1,0,0.2-0.1,0.3-0.2
			C162.5,4.9,167.9,4.9,173.3,4.9z M160.5,9.8c-3.7,0-7.3,0.4-11,0.6c-1.7,0.1-3.5,0.3-5.2,0.5c-1.7,0.2-3.3,0.4-5,0.6
			c-1.7,0.3-3.4,0.6-5.1,0.9c-0.1,0-0.2,0.1-0.4,0.1c-0.2,0.1-0.4,0.4-0.3,0.6c0.2,0.5,0.4,1.1,0.6,1.6c1.8,4.6,4,9,6.4,13.3
			c6.5,11.5,14.8,21.6,25.1,30c5.4,4.4,11.3,8.2,17.6,11.3c5.1,2.5,10.4,4.4,15.8,6c5.7,1.7,11.4,2.9,17.3,3.6
			c2.8,0.3,5.6,0.7,8.4,0.7c0.6,0,1.3,0.1,1.9,0.1c2.6,0,5.1,0,7.7,0c2.6-0.1,5.1-0.2,7.7-0.5c2.4-0.2,4.8-0.6,7.3-0.9
			c0.2,0,0.5-0.1,0.7-0.3c0.1,0,0.2-0.2,0.2-0.3c0.1-0.2,0.1-0.5,0.1-0.8c0-1.6-0.2-3.2-0.3-4.8c-0.3-2.8-0.7-5.6-1.4-8.3
			c-1.9-8-5.2-15.4-9.9-22.2c-5.2-7.6-11.7-13.8-19.6-18.5c-3.4-2-6.9-3.7-10.5-5.2c-8.6-3.6-17.5-5.9-26.7-7
			c-1.3-0.2-2.7-0.3-4-0.5c-2.4-0.3-4.9-0.5-7.3-0.6C167.4,9.9,163.9,9.9,160.5,9.8z"/>
		<line class="st2" x1="265.5" y1="116.4" x2="265.5" y2="116.4"/>
		<path class="st2" d="M264.6,114.2c-0.9-1.6-1.5-3.3-2.2-4.8l-0.2-0.4c-2-5-3.5-10.2-4.4-15.3c-0.7-4-1.1-8.2-1-12.4
			c0-3.2,0.2-5.9,0.6-8.5c0.8-5.1,2.1-10,3.9-14.6c1.4-3.4,2.9-6.4,4.7-9.2c0.4-0.6,0.9-1.4,1.4-2.1c0.2-0.2,0.3-0.4,0.4-0.6
			c0.6-0.9,1.5-2.1,3.3-2.1c0.9,0,1.5,0.3,2.1,0.6c0.2,0.1,0.4,0.2,0.7,0.3c4,1.8,8.1,3.6,12.1,5.4l3.7,1.7c0.3,0.1,0.6,0.3,0.8,0.4
			l0.2,0.1c0.9,0.5,1.5,1.3,1.6,2.3c0.1,1-0.2,2.1-1,2.8l-0.9,0.8c-0.6,0.5-1.1,1-1.7,1.5c-1.2,1.1-2.4,2.1-3.5,3.2
			c-4,3.9-7.3,8-9.9,12.3c-2.6,4.3-4.5,8.8-5.5,13.4c-0.6,2.5-0.9,4.5-1,6.4c0,0.4-0.1,0.8-0.1,1.3c-0.1,0.8-0.1,1.5-0.1,2.2
			c0,3.7,0.4,7.4,1.2,11.1c0.1,0.3,0.1,0.6,0.2,0.9c0.2,0.8,0.5,1.8,0.5,2.9l0,3"/>
		<path class="st5" d="M267.1,112.9c-0.9-1.6-1.6-3.4-2.3-5.1c-1.9-4.8-3.3-9.7-4.2-14.8c-0.7-3.9-1-7.9-1-11.9
			c0-2.7,0.2-5.4,0.6-8.1c0.7-4.8,1.9-9.4,3.7-13.9c1.2-3,2.7-6,4.5-8.7c0.4-0.6,0.8-1.3,1.3-1.9c1.5-2,1-1.8,3.2-0.8
			c5.3,2.3,10.6,4.7,15.8,7c0.3,0.1,0.6,0.3,0.9,0.4c0.1,0.1,0.2,0.4,0,0.5c-0.3,0.3-0.6,0.5-0.9,0.8c-1.8,1.6-3.6,3.1-5.3,4.8
			c-4,3.9-7.5,8.1-10.3,12.9c-2.7,4.4-4.7,9.1-5.9,14.2c-0.5,2.3-0.9,4.5-1.1,6.8c-0.1,1.2-0.2,2.4-0.2,3.7c0,3.9,0.4,7.8,1.2,11.7
			c0.2,1.1,0.6,2.1,0.6,3.2c-0.1,0-0.3,0-0.4,0c0,0-0.1-0.1-0.1-0.1C267.5,113.3,267.4,113.1,267.1,112.9z"/>
		<path class="st2" d="M270.8,116.7l-0.8,7.9l-5.4-5.2c-0.6-0.8,0.2-4.7,0-6.1"/>
		<path class="st4" d="M267.1,112.9c0.3,0.1,0.3,0.3,0.3,0.6C267.2,113.4,267.1,113.2,267.1,112.9z"/>
	</g>
	<g>
		<path class="st2" d="M456,188c0.7,0,1.5,0.1,2.3,0.4c1.5,0.7,2.4,1.9,2.5,3.6c0.1,1.7-0.4,3.2-1.5,4.4c-0.7,0.9-1.6,1.6-2.6,2.3
			c-0.5,0.3-1,0.6-1.5,0.9c-0.2,0.1-0.2,0.3-0.1,0.5c0.9,1.9,2.1,3.7,3.3,5.4c0.1,0.2,0.3,0.3,0.4,0.4c0.1,0.1,0.2,0.1,0.3,0
			c1.1-1.4,1.8-2.9,2.3-4.6c0.1-0.2,0.1-0.5,0.1-0.8c0-0.3-0.1-0.6-0.4-0.8c-0.2-0.1-0.5-0.2-0.7-0.3c-0.4-0.2-0.5-0.5-0.5-1
			c0-0.2,0-0.4,0.1-0.6c0.1-0.2,0.4-0.3,0.6-0.5c0.1-0.1,0.3-0.1,0.4,0c2.4,0.2,4.7,0.3,7.1,0c0.3,0,0.8,0.3,0.8,0.7
			c0,0.3,0,0.6,0,1c0,0.1-0.1,0.3-0.2,0.3c-0.4,0.1-0.7,0.2-1.1,0.3c-1,0.2-1.8,0.7-2.3,1.6c-0.4,0.6-0.8,1.2-1.1,1.8
			c-1,1.7-1.9,3.5-3.1,5.1c-0.2,0.2-0.2,0.4,0.1,0.7c0.6,0.6,1.3,1.2,2.1,1.6c0.9,0.5,1.9,0.6,3,0.3c0.8-0.3,1.5-0.7,2.2-1.1
			c0.2-0.1,0.4-0.3,0.7-0.3c0.1,0,0.3,0,0.4,0.1c0.2,0.2,0.4,0.5,0.6,0.7c0.6,0.7,0.6,0.8-0.1,1.4c-1,0.8-2,1.6-3,2.4
			c-2,1.5-4,1.5-6.1,0.3c-1-0.5-1.8-1.2-2.6-1.9c-0.3-0.3-0.5-0.3-0.8-0.1c-0.5,0.3-0.9,0.7-1.4,1c-2.3,1.6-4.9,2.2-7.7,1.7
			c-3.3-0.5-5.1-3.3-5.3-5.4c-0.3-2.3,0.4-4.3,1.9-6c0.8-0.9,1.7-1.5,2.7-2.2c0.7-0.4,1.4-0.9,2.1-1.3c0.2-0.1,0.3-0.5,0.2-0.7
			c-0.3-0.8-0.5-1.6-0.8-2.4c-0.3-0.9-0.4-1.8-0.4-2.7c0-1.2,0.3-2.3,1.1-3.2C451.2,188.9,453.3,187.9,456,188z M451.7,211.5
			c1.4-0.1,2.8-0.7,3.9-1.8c0.1-0.1,0.1-0.2,0.1-0.3c-0.1-0.2-0.2-0.3-0.3-0.5c-1.4-1.9-2.7-3.9-3.8-6c-0.1-0.2-0.3-0.4-0.4-0.7
			c-0.1-0.2-0.3-0.2-0.5-0.1c-0.4,0.3-0.9,0.5-1.3,0.9c-0.9,0.7-1.7,1.6-2.1,2.7c-0.4,1-0.4,2,0,3
			C448,210.4,449.7,211.5,451.7,211.5z M452.9,193.4c0,0.4,0,0.8,0.1,1.2c0.1,0.6,0.2,1.1,0.4,1.7c0.4,1.3,0.4,1.4,1.7,0.6
			c0.4-0.2,0.7-0.5,1.1-0.8c1.4-1.2,1.4-2.9,0.9-4.2c-0.6-1.6-2.2-1.9-3.4-0.8c-0.4,0.3-0.6,0.8-0.7,1.3
			C452.9,192.6,452.9,193,452.9,193.4z"/>
		<path class="st2" d="M243.5,200.7c1.5,0,3.1-0.1,4.8-0.1c0.3,0,0.6,0.3,0.7,0.6c0,0.3,0,0.5,0,0.8c0,0.3-0.3,0.6-0.6,0.6
			c-0.8,0.2-1.6,0.4-2.4,0.6c-0.2,0.1-0.4,0.3-0.5,0.5c0,0.4-0.1,0.8-0.1,1.1c0,2.1,0,4.2,0,6.4c0,0.5,0,1,0,1.5
			c0,0.1-0.1,0.2-0.2,0.3c-0.2,0.1-0.3,0.2-0.5,0.2c-2.5,0.5-5,1.2-7.5,1.5c-2.9,0.3-5.8,0.3-8.6-0.5c-4.2-1.3-6.8-4.2-7.8-8.5
			c-0.6-2.7-0.6-5.4,0.2-8c1.5-5,4.8-8.1,9.8-9.4c1-0.3,2-0.4,3-0.5c2.4-0.1,4.7,0.1,7.1,0.5c1.2,0.2,2.4,0.5,3.6,0.7
			c0.2,0,0.4,0.1,0.4,0.4c-0.1,2.2,0.1,4.4,0.2,6.5c0,0.1,0,0.3-0.1,0.4c-0.1,0.2-0.2,0.3-0.4,0.4c-0.5,0.2-1,0.2-1.5,0.1
			c-0.1,0-0.2-0.1-0.3-0.2c-0.2-0.4-0.3-0.8-0.4-1.3c-0.2-0.6-0.4-1.2-0.7-1.8c-0.3-0.8-0.9-1.4-1.7-1.8c-1.2-0.6-2.4-0.9-3.7-1.1
			c-1.7-0.2-3.3-0.1-5,0.4c-1.6,0.5-2.9,1.4-3.9,2.7c-0.8,1.1-1.5,2.3-1.8,3.6c-0.7,2.5-0.8,5.1-0.1,7.6c0.8,3.3,3,5.3,6.1,6.4
			c1,0.4,2.1,0.5,3.2,0.5c1.9,0.1,3.8-0.2,5.7-0.9c0.3-0.1,0.4-0.3,0.5-0.5c0-0.1,0.1-0.3,0.1-0.4c0-2,0-4,0-6c0-0.1,0-0.1,0-0.2
			c-0.1-0.5-0.3-0.8-0.8-1c-0.7-0.2-1.4-0.3-2.1-0.5c-0.6-0.1-0.8-0.5-0.7-1.1c0-0.1,0-0.3,0.1-0.4c0.1-0.2,0.3-0.4,0.6-0.5
			c0.3,0,0.6-0.1,1-0.1C240.5,200.7,241.9,200.7,243.5,200.7z"/>
		<path class="st2" d="M587.2,210.6c0.9,0,2.2,0.1,3.4,0.2c0.5,0,1,0.2,1.5,0.4c0.9,0.4,1.4,1.1,1.7,2c0.6,2.2,0.1,4.1-1.5,5.6
			c-0.9,0.9-1.9,1.5-3.1,2c-2.9,1.2-6,1.5-9.1,0.8c-1.3-0.3-2.4-0.9-3.2-2c-0.7-0.9-1-1.9-0.6-3.1c0.1-0.4,0.3-0.7,0.6-0.9
			c0.5-0.4,1-0.7,1.6-1.1c0.8-0.6,0.8-0.6,0.1-1.2c-0.5-0.5-0.8-1-1-1.6c-0.1-0.6,0-1.2,0.5-1.6c0.7-0.6,1.3-1.2,2-1.8
			c0.1-0.1,0.1-0.4,0-0.5c-0.1-0.1-0.3-0.3-0.4-0.4c-0.2-0.2-0.4-0.4-0.5-0.5c-0.5-0.6-0.9-1.3-1.1-2c-0.9-3.8,0.9-6.9,4.2-8.1
			c1.6-0.6,3.3-0.8,4.9-0.3c1.7,0.5,3.4,0.5,5.2,0.4c0.4,0,0.9,0,1.3,0c0.4,0,0.8,0.6,0.6,1c-0.2,0.5-0.5,1-0.7,1.6
			c-0.1,0.3-0.4,0.3-0.6,0.3c-0.3,0-0.5,0-0.8,0c-0.6,0-0.8,0.2-0.6,0.7c0.3,0.8,0.4,1.6,0.4,2.5c-0.1,2.4-1.2,4.1-3.3,5.3
			c-1,0.5-2,0.9-3.1,0.9c-0.8,0-1.5,0-2.3,0c-0.7,0-1.2,0.4-1.4,1.1c0,0.1,0,0.3,0.1,0.3c0.2,0.1,0.4,0.1,0.5,0.2
			C584,210.7,585.4,210.7,587.2,210.6z M585.6,214.2C585.6,214.2,585.6,214.2,585.6,214.2c-0.7,0-1.4,0-2.1,0c-0.1,0-0.3,0-0.4,0
			c-0.6,0-1.1,0.1-1.5,0.6c-0.4,0.5-0.8,0.9-1.1,1.3c-0.5,0.7-0.3,1.5,0.3,2c0.4,0.3,0.9,0.6,1.4,0.7c1.8,0.5,3.6,0.4,5.3-0.2
			c0.7-0.2,1.4-0.6,2-1.1c0.5-0.5,0.8-1.2,0.7-1.9c0-0.6-0.5-1.3-1.2-1.4c-0.3-0.1-0.6-0.1-1-0.1
			C587.3,214.2,586.5,214.2,585.6,214.2z M587.6,202.9c0-0.5-0.1-1-0.1-1.5c-0.1-0.6-0.3-1.1-0.6-1.6c-0.5-0.7-1.2-1.2-2.1-1.2
			c-0.9-0.1-2.1,0.4-2.6,1.6c-0.6,1.6-0.5,3.3,0.2,4.9c0.1,0.3,0.4,0.7,0.7,0.9c1.1,1.1,3.3,1,4.1-0.6c0.2-0.4,0.4-0.8,0.4-1.3
			C587.6,203.6,587.6,203.2,587.6,202.9z"/>
		<path class="st2" d="M506.5,193.9c0,0.7,0.1,1.8,0.1,2.9c0,0.4-0.3,0.8-0.7,0.8c-0.4,0-0.9,0-1.3,0c-0.1,0-0.2-0.1-0.3-0.2
			c-0.2-0.6-0.3-1.1-0.5-1.7c-0.2-0.6-0.4-1.2-0.6-1.8c-0.4-0.9-1-1.6-1.9-2.1c-0.8-0.5-1.7-0.7-2.5-0.8c-1.8-0.3-3.6-0.2-5.3,0.3
			c-2.1,0.7-3.6,2.1-4.7,4.1c-0.6,1.1-0.9,2.3-1.1,3.5c-0.3,2-0.2,4.1,0.4,6.1c1.1,3.7,4,6.2,8.1,6.6c2.2,0.2,4.4-0.2,6.4-1
			c0.9-0.4,1.9-0.8,2.8-1.2c0.3-0.1,0.6,0,0.8,0.3c0.2,0.4,0.4,0.8,0.7,1.2c0.1,0.2,0,0.6-0.1,0.7c-2.8,1.8-5.8,3.1-9.1,3.5
			c-2.2,0.3-4.5,0.1-6.6-0.7c-3.5-1.2-5.9-3.5-7.2-7c-1.2-3.2-1.4-6.5-0.4-9.8c1.4-4.8,4.7-7.7,9.4-9c1.2-0.3,2.4-0.5,3.6-0.5
			c3.2-0.1,6.4,0.4,9.4,1.5c0.6,0.2,0.6,0.1,0.7,1C506.5,191.5,506.5,192.5,506.5,193.9z"/>
		<path class="st2" d="M345,199.3c0,3.2,0,6.4,0,9.6c0,0.4,0.1,0.9,0.1,1.3c0,0.2,0.4,0.5,0.6,0.4c0.4,0,0.9-0.1,1.3-0.1
			c0.6-0.1,1,0.3,1,0.9c0,0.1,0,0.3,0,0.4c-0.1,0.2-0.1,0.4-0.2,0.5c-0.2,0.1-0.5,0.2-0.7,0.3c-1.7,0.5-3.3,1.1-4.8,1.9
			c-0.6,0.3-1.3-0.1-1.4-0.8c0-0.2,0-0.4,0-0.6c0-0.1-0.2-0.2-0.3-0.1c-0.3,0.2-0.7,0.3-1,0.6c-2.6,2-7.6,1.6-9.6-2.7
			c-0.9-2-1.1-4.2-0.7-6.4c0.5-3.2,2.3-5.5,5-7.2c1.8-1.1,3.7-1.5,5.7-0.9c0.2,0.1,0.5,0.1,0.8,0.1c0.1,0,0.4-0.2,0.4-0.3
			c0-1.3,0.1-2.7-0.1-4c0-0.2-0.4-0.5-0.6-0.5c-0.4,0-0.9,0.1-1.3,0.1c-0.6,0.1-0.9-0.3-1-0.9c0-0.1,0-0.3,0-0.4
			c0-0.3,0.1-0.5,0.4-0.6c0.1,0,0.1-0.1,0.2-0.1c1.8-0.5,3.5-1.2,5.1-2.1c0.4-0.2,0.7-0.1,1.1,0.2c0.2,0.2,0.3,0.4,0.3,0.7
			c0,0.7-0.1,1.4-0.1,2.1C345.1,193.6,345,196.5,345,199.3C345,199.3,345,199.3,345,199.3z M341.3,204.9c0-1.2-0.1-2.3-0.1-3.4
			c0-0.6-0.3-1.1-0.7-1.5c-1.2-1.2-3.5-1.5-5.1-0.3c-1,0.8-1.6,1.8-1.8,3.1c-0.3,1.5-0.3,3.1,0,4.6c0.2,1,0.6,1.8,1.2,2.6
			c0.9,1,2,1.5,3.4,1.3c1.6-0.2,2.9-1.4,3-3C341.2,207.1,341.2,205.9,341.3,204.9z"/>
		<path class="st2" d="M546.6,206.3c0,1.3,0,2.7,0,4c0,0.4,0,0.8,0.1,1.1c0,0.2,0.1,0.3,0.3,0.4c0.5,0.2,1.1,0.4,1.7,0.5
			c0.6,0.1,0.8,0.4,0.7,1.1c0,0.1,0,0.3-0.1,0.4c-0.1,0.2-0.3,0.4-0.6,0.5c-0.2,0-0.4,0.1-0.6,0c-2.2-0.2-4.4-0.2-6.5,0
			c-0.3,0-0.5,0-0.8,0.1c-0.6,0-1-0.4-1.1-1.1c0-0.4,0.2-0.8,0.5-0.9c0.5-0.2,1.1-0.4,1.6-0.6c0.3-0.1,0.4-0.3,0.4-0.6
			c0.1-0.8,0.2-1.5,0.2-2.3c0-2.1,0-4.1,0-6.2c0-0.3,0-0.6-0.1-1c-0.1-1.7-1.6-2.8-3.5-2.2c-1.6,0.5-2.6,1.6-2.8,3.3
			c-0.1,1-0.2,1.9-0.2,2.9c0.1,1.6,0.1,3.2,0.1,4.8c0,0.8,0.4,1.2,1.1,1.4c0.4,0.1,0.9,0.2,1.3,0.4c0.3,0.1,0.4,0.3,0.4,0.6
			c0,0.1,0,0.3,0,0.4c0,0.7-0.3,1.1-1.1,1c-2.4-0.2-4.9-0.2-7.3,0c-0.2,0-0.4,0-0.6-0.1c-0.3-0.1-0.5-0.3-0.5-0.5
			c-0.1-0.2-0.1-0.5-0.1-0.8c0-0.3,0.1-0.5,0.4-0.6c0.5-0.2,1-0.3,1.5-0.4c0.5-0.1,0.7-0.4,0.8-0.9c0.1-1.8,0.2-3.6,0.2-5.4
			c0-1.3,0-2.6-0.1-3.9c0-0.4-0.1-0.8-0.1-1.1c0-0.3-0.3-0.5-0.5-0.5c-0.3,0-0.6,0-1,0c-0.3,0-0.5,0-0.8,0c-0.2,0-0.5-0.3-0.6-0.5
			c0-0.4,0-0.8,0-1.1c0-0.1,0.1-0.2,0.2-0.3c0.2-0.1,0.4-0.1,0.5-0.2c1.7-0.5,3.4-1.1,5-2c0.6-0.3,1.3,0.1,1.3,0.8
			c0,0.2,0,0.4,0,0.6c0,0.1,0.4,0.2,0.5,0.2c0.3-0.2,0.5-0.4,0.8-0.6c1.8-1.3,3.8-1.5,5.9-0.8c1.5,0.5,2.4,1.6,2.8,3.2
			c0.2,0.9,0.3,1.9,0.3,2.9C546.6,203.9,546.6,205.1,546.6,206.3C546.6,206.3,546.6,206.3,546.6,206.3z M536.6,198.2
			c0,0-0.1-0.1-0.1-0.1c0,0-0.1,0.1-0.1,0.1c0.1,0,0.1,0.1,0.2,0.1C536.6,198.3,536.6,198.2,536.6,198.2z"/>
		<path class="st2" d="M281.9,203.3c-0.1,2-0.1,4,0.1,6c0,0.3,0,0.5,0.1,0.8c0.1,0.4,0.4,0.7,0.8,0.6c0.4,0,0.8-0.1,1.1-0.1
			c0.3,0,0.5,0.1,0.7,0.3c0.3,0.4,0.2,0.8,0.1,1.3c0,0.1-0.1,0.2-0.2,0.3c-0.2,0.1-0.5,0.2-0.7,0.3c-1.5,0.4-2.9,1-4.3,1.7
			c-0.5,0.2-0.9,0.5-1.4,0.1c-0.5-0.3-0.4-0.7-0.5-1.2c0-0.2-0.3-0.3-0.4-0.3c-0.1,0.1-0.2,0.1-0.3,0.2c-0.3,0.2-0.5,0.4-0.8,0.6
			c-0.9,0.6-2,1-3.1,0.9c-0.9,0-1.8,0-2.6-0.4c-1.5-0.6-2.4-1.7-2.6-3.3c-0.1-0.6-0.1-1.3-0.1-1.9c0-1.8,0-3.6,0-5.4
			c0-1.2-0.1-2.3-0.2-3.5c0-0.3-0.2-0.6-0.6-0.7c-0.4-0.1-0.9-0.2-1.3-0.3c-0.4-0.1-0.9,0.1-1-0.4c-0.1-0.4-0.1-0.9-0.1-1.3
			c0-0.1,0.1-0.2,0.2-0.3c0.2-0.1,0.4-0.1,0.6-0.1c1.7-0.2,3.3-0.3,5-0.7c0.2-0.1,0.5,0,0.8,0c0.3,0,0.8,0.5,0.8,0.8
			c0,0.3,0,0.6,0,1c-0.1,2.2-0.2,4.5-0.3,6.7c0,1.3,0.1,2.7,0.2,4c0,0.4,0.1,0.8,0.3,1.1c0.4,0.6,1,1,1.7,1.1c1.1,0.1,2-0.1,2.9-0.8
			c0.7-0.5,1.1-1.2,1.3-2.1c0.1-0.6,0.1-1.2,0.1-1.7c0-2,0-4-0.1-6c0-0.1,0-0.3,0-0.4c0-0.5-0.2-0.8-0.8-0.9c-0.5-0.1-1-0.1-1.5-0.2
			c-0.6-0.1-0.7-0.2-0.7-0.9c0-0.2,0-0.4,0-0.6c0-0.3,0.2-0.5,0.5-0.5c0.9-0.1,1.8-0.2,2.7-0.3c0.9-0.1,1.8-0.2,2.7-0.4
			c0.2-0.1,0.5,0,0.8,0c0.3,0,0.8,0.5,0.8,0.8c0,0.8-0.1,1.7-0.1,2.5C282,201,282,202.2,281.9,203.3z"/>
		<path class="st2" d="M384.6,203.5c0,2,0,3.8,0.1,5.7c0,0.3,0.1,0.6,0.1,1c0,0.2,0.3,0.5,0.5,0.5c0.4,0,0.8-0.1,1.1-0.1
			c0.8-0.1,1.2,0.3,1.2,1.1c0,0.4-0.1,0.6-0.5,0.8c-0.1,0-0.1,0.1-0.2,0.1c-0.1,0-0.2,0.1-0.4,0.1c-1.6,0.4-3.2,1-4.6,1.8
			c-0.8,0.4-1.5,0-1.6-0.9c0-0.2,0-0.4,0-0.6c0-0.2-0.1-0.2-0.3-0.1c-0.5,0.3-0.9,0.7-1.4,1c-0.8,0.5-1.6,0.8-2.5,0.8
			c-1,0-1.9,0-2.8-0.3c-1.7-0.6-2.6-1.9-2.9-3.6c-0.1-0.6-0.1-1.2-0.1-1.7c0-1.9,0-3.7,0-5.6c0-1-0.1-1.9-0.2-2.9
			c-0.1-0.8-0.2-1-1-1.1c-0.6-0.1-1.1-0.2-1.7-0.3c-0.1,0-0.2-0.2-0.2-0.3c0-0.4,0-0.9,0-1.3c0-0.1,0.2-0.2,0.3-0.2
			c0.7-0.1,1.4-0.1,2.1-0.2c1.2-0.2,2.4-0.2,3.6-0.6c0.4-0.1,0.8,0,1,0.4c0.1,0.1,0.2,0.3,0.3,0.5c0,0.1,0,0.1,0,0.2
			c-0.4,3.3-0.3,6.7-0.3,10c0,0.5,0,1,0.1,1.5c0.1,0.4,0.2,0.7,0.4,1.1c0.2,0.4,0.6,0.7,1,0.9c2,0.7,4.5-0.5,4.8-2.6
			c0.1-0.5,0.2-1,0.2-1.5c0-2.1-0.1-4.1-0.1-6.2c0-0.3,0-0.5-0.1-0.8c-0.1-0.3-0.2-0.5-0.5-0.5c-0.6-0.1-1.3-0.2-1.9-0.3
			c-0.5-0.1-0.6-0.2-0.6-0.8c0-0.3,0-0.5,0-0.8c0-0.2,0.1-0.4,0.4-0.4c0.9-0.1,1.8-0.2,2.7-0.3c1-0.1,1.9-0.2,2.9-0.4
			c0.2,0,0.4,0,0.6,0c0.4,0,0.9,0.5,0.8,0.9C384.8,199.5,384.7,201.6,384.6,203.5z"/>
		<path class="st2" d="M320.1,212.8c-0.6,0.4-1.2,0.8-1.8,1.1c-1.4,0.9-2.9,1-4.5,0.6c-1.5-0.3-2.5-1.2-3.1-2.6
			c-1-2.6,0.1-5.1,1.8-6.2c0.6-0.4,1.3-0.8,2-1.1c1.7-0.8,3.4-1.6,5.1-2.3c0.3-0.1,0.4-0.3,0.4-0.6c0-0.5-0.1-1-0.2-1.5
			c-0.2-0.7-0.8-1.2-1.5-1.3c-1.3-0.2-2.4,0.1-3.3,1.1c-0.5,0.6-0.9,1.3-1.2,2c-0.2,0.4-0.4,0.5-0.9,0.5c-0.1,0-0.3,0-0.4-0.1
			c-0.6-0.1-0.9-0.5-0.8-1.1c0.1-1,0.3-2,0.4-3.1c0-0.3,0.2-0.5,0.4-0.6c1.6-0.8,3.4-1.3,5.2-1.5c1.2-0.1,2.3-0.1,3.4,0.3
			c1.4,0.5,2.4,1.5,2.8,3c0.3,0.9,0.3,1.9,0.3,2.9c0,1.7-0.1,3.5-0.2,5.2c0,0.9,0,1.8,0,2.7c0,0.2,0.1,0.4,0.1,0.6
			c0.1,0.3,0.5,0.5,0.8,0.4c0.5-0.1,0.9-0.4,1.4-0.7c0.3-0.2,0.6-0.1,0.8,0.2c0.2,0.2,0.3,0.4,0.4,0.6c0.1,0.2,0.2,0.4,0,0.5
			c-1,0.9-1.9,1.7-2.9,2.5c-0.2,0.2-0.5,0.2-0.7,0.3c-0.2,0-0.4,0-0.6,0.1c-1.3,0.1-2.3-0.3-2.9-1.5
			C320.4,213.1,320.2,212.9,320.1,212.8z M320.1,207.1c0-0.7-0.1-1.2-0.1-1.8c0-0.1-0.3-0.3-0.4-0.3c-1.3,0.5-2.5,1.2-3.7,1.9
			c-0.3,0.2-0.5,0.4-0.7,0.6c-0.8,1-0.8,2.4,0,3.3c0.3,0.4,0.8,0.6,1.3,0.6c1.2,0,2.2-0.5,3-1.4c0.3-0.3,0.4-0.6,0.4-1
			C320,208.4,320,207.7,320.1,207.1z"/>
		<path class="st2" d="M359.4,212.8c-0.5,0.3-1,0.6-1.5,1c-1.4,0.9-3,1.2-4.6,0.9c-1.6-0.3-2.8-1.3-3.4-2.8c-0.9-2.2,0-4.9,1.9-6.1
			c0.6-0.4,1.3-0.8,2-1.1c1.6-0.7,3.1-1.5,4.7-2.2c0.7-0.3,0.7-0.5,0.6-1.2c0-0.4-0.1-0.8-0.3-1.1c-0.2-0.7-0.7-1.1-1.4-1.2
			c-1.3-0.3-2.4,0-3.3,1c-0.4,0.4-0.7,0.9-1,1.4c-0.2,0.3-0.3,0.6-0.5,0.8c-0.1,0.1-0.3,0.3-0.5,0.3c-0.4,0-0.8-0.1-1.1-0.2
			c-0.2,0-0.4-0.5-0.4-0.6c0.1-0.4,0.1-0.9,0.2-1.3c0-0.3,0.1-0.5,0.1-0.8c0.1-1.9,0.1-1.6,1.7-2.3c1.2-0.5,2.4-0.8,3.7-1
			c1.1-0.2,2.3-0.1,3.4,0.2c1.8,0.5,2.8,1.7,3.2,3.5c0.2,0.9,0.2,1.8,0.2,2.7c-0.1,1.5-0.1,3.1-0.2,4.6c0,0.9,0,1.8,0,2.7
			c0,0.3,0.1,0.6,0.2,0.9c0.1,0.3,0.5,0.4,0.8,0.4c0.5-0.1,0.9-0.5,1.4-0.7c0.3-0.2,0.6-0.1,0.8,0.2c0.2,0.2,0.3,0.4,0.5,0.6
			c0.1,0.2,0.2,0.4,0,0.5c-0.9,0.8-1.8,1.6-2.7,2.4c-0.3,0.3-0.7,0.4-1.1,0.4c-1.5,0.2-2.7-0.2-3.4-1.6
			C359.6,213,359.5,212.9,359.4,212.8z M359.4,207C359.3,207,359.3,207,359.4,207c0-0.4,0-0.9,0-1.3c0-0.5-0.3-0.7-0.7-0.5
			c-1,0.5-1.9,1-2.9,1.5c-0.4,0.2-0.7,0.5-1.1,0.8c-0.8,0.8-1,1.8-0.7,2.8c0.4,1.1,1.1,1.5,2,1.4c1.1-0.1,1.9-0.6,2.7-1.3
			c0.3-0.3,0.5-0.7,0.5-1.2C359.3,208.4,359.3,207.7,359.4,207z"/>
		<path class="st2" d="M536.1,233.2c1.3,0,2.6-0.1,4-0.1c1,0,1.9,0,2.8,0.4c1.4,0.6,2.3,1.6,2.7,3.1c0.6,2.3-0.3,4.9-2.8,6.2
			c-0.3,0.1-0.6,0.3-0.9,0.4c-0.2,0.1-0.2,0.3-0.1,0.5c1.4,1.8,2.8,3.7,4.2,5.5c0.4,0.5,0.8,0.8,1.4,0.9c0.6,0.2,1.2,0.3,1.9,0.5
			c0.5,0.1,0.7,0.8,0.4,1.3c-0.1,0.1-0.2,0.2-0.3,0.2c-0.3,0-0.5,0-0.8,0c-0.8,0-1.5,0-2.3-0.1c-0.8,0-1.5,0.2-2.3,0
			c-0.4-0.6-0.9-1.3-1.3-1.9c-1.3-1.9-2.7-3.7-4-5.6c-0.5-0.7-1.1-0.8-1.8-0.7c-0.2,0-0.3,0.2-0.4,0.4c0,0.1,0,0.3,0,0.4
			c0,1.7,0.1,3.3,0.1,5c0,0.4,0.1,0.6,0.5,0.7c0.6,0.1,1.1,0.3,1.7,0.4c0.5,0.1,0.7,0.4,0.6,1c0,0.3-0.2,0.5-0.5,0.5
			c-0.1,0-0.1,0-0.2,0c-2.6-0.1-5.1-0.1-7.7,0c-0.5,0-0.8-0.3-0.7-0.9c0-0.1,0-0.1,0-0.2c0.1-0.1,0.2-0.4,0.4-0.4
			c0.7-0.2,1.4-0.3,2.1-0.5c0.3-0.1,0.4-0.3,0.4-0.6c0-0.8,0.1-1.5,0.1-2.3c0-3.7,0-7.3,0-11c0-0.1,0-0.1,0-0.2c0-1-0.2-0.9-1-1.2
			c-0.4-0.1-0.9-0.2-1.3-0.3c-0.5-0.1-0.8-0.6-0.5-1.2c0-0.1,0.2-0.2,0.3-0.3c0.2-0.1,0.5-0.1,0.8-0.1
			C533,233.1,534.5,233.1,536.1,233.2z M536.6,238.5C536.6,238.5,536.5,238.5,536.6,238.5c0,0.9,0,1.8,0,2.7c0,0.3,0.2,0.5,0.5,0.5
			c1,0.2,2.1,0.1,3.1-0.1c1.1-0.3,1.9-1,2.2-2.2c0.2-0.7,0.2-1.4,0-2.1c-0.2-0.9-0.8-1.6-1.7-1.9c-0.6-0.2-1.2-0.3-1.9-0.3
			c-2.3,0.1-2.1-0.2-2.1,2.1C536.6,237.6,536.6,238.1,536.6,238.5z"/>
		<path class="st2" d="M427.8,205.5c0,1.2-0.1,2.4-0.1,3.7c0,0.5,0.1,1,0.1,1.5c0,0.4,0.5,0.6,0.9,0.4c0.5-0.2,0.9-0.5,1.4-0.7
			c0.2-0.1,0.5-0.1,0.7,0.1c0.2,0.2,0.3,0.4,0.5,0.6c0,0.1,0.1,0.1,0.1,0.2c0,0.2,0,0.4-0.1,0.5c-0.8,0.8-1.7,1.5-2.6,2.3
			c-0.3,0.3-0.8,0.5-1.2,0.5c-0.1,0-0.3,0-0.4,0c-1.2,0-2.2-0.3-2.7-1.4c0-0.1-0.1-0.1-0.1-0.2c-0.2-0.3-0.4-0.3-0.6-0.2
			c-0.3,0.2-0.7,0.4-1,0.6c-1.3,0.9-2.8,1.2-4.4,1.1c-1.9-0.2-3.4-1.5-4-3.4c-0.6-2,0.4-4.6,2.2-5.7c0.6-0.4,1.2-0.7,1.9-1
			c1.5-0.7,3-1.4,4.5-2.1c0.2-0.1,0.5-0.2,0.7-0.4c0.1-0.1,0.2-0.2,0.2-0.3c0-0.5-0.1-1-0.2-1.5c-0.2-0.8-0.7-1.2-1.5-1.4
			c-1.3-0.3-2.4,0-3.3,1c-0.6,0.6-1,1.4-1.3,2.1c-0.2,0.3-0.4,0.4-0.8,0.4c-0.1,0-0.3,0-0.4-0.1c-0.8-0.1-1-0.4-0.9-1.2
			c0.1-0.5,0.1-1,0.2-1.5c0.3-2.2,0-1.8,2-2.6c1.1-0.5,2.3-0.7,3.5-0.9c1.2-0.2,2.4-0.1,3.6,0.3c1.4,0.5,2.4,1.4,2.8,2.9
			c0.3,0.8,0.3,1.6,0.3,2.5C427.9,203.1,427.8,204.3,427.8,205.5C427.8,205.5,427.8,205.5,427.8,205.5z M423.9,207.1
			c0-0.8-0.1-1.3-0.1-1.8c0-0.2-0.3-0.3-0.4-0.3c-1.4,0.5-2.7,1.2-3.9,2c-0.2,0.1-0.4,0.3-0.6,0.5c-0.8,0.9-0.8,2.2-0.1,3.2
			c0.3,0.5,0.8,0.8,1.5,0.8c1.2,0,2.2-0.6,3-1.5c0.2-0.2,0.3-0.6,0.4-0.9C423.8,208.5,423.8,207.7,423.9,207.1z"/>
		<path class="st2" d="M518.8,196c1,0.1,2,0.1,2.9,0.4c2.7,0.8,4.4,2.6,5.2,5.2c0.7,2.5,0.7,4.9-0.2,7.4c-1.1,3.1-3.4,5-6.7,5.7
			c-1.6,0.3-3.2,0.3-4.8-0.2c-2.5-0.7-4.2-2.3-5.2-4.8c-0.4-1-0.5-2-0.6-3c-0.1-1.7,0-3.3,0.6-4.9c1.3-3.5,3.8-5.4,7.4-5.8
			C518,196,518.4,196,518.8,196z M523,206c-0.1-1-0.2-1.9-0.3-2.9c-0.2-1.4-0.8-2.6-1.8-3.5c-0.7-0.6-1.5-1-2.4-1.1
			c-1.5-0.1-3.3,0.6-4.1,2.6c-0.2,0.6-0.4,1.2-0.4,1.9c-0.1,1.4-0.1,2.8,0.1,4.2c0.1,1.1,0.4,2.1,1,3.1c0.9,1.5,2.2,2.3,4,2.1
			c0.9-0.1,1.7-0.4,2.4-1.1c0.8-0.7,1.2-1.7,1.4-2.7C522.9,207.8,522.9,206.9,523,206z"/>
		<path class="st2" d="M635.4,205.2c0.1,1.5-0.2,3-0.8,4.4c-1.2,2.8-3.3,4.5-6.3,5.1c-1.5,0.3-3.1,0.3-4.6-0.1
			c-2.2-0.5-3.9-1.8-5-3.8c-0.5-1-0.8-2-1-3.1c-0.2-1.8-0.2-3.6,0.3-5.3c1.2-4.2,4.7-6.1,7.7-6.3c0.8,0,1.7-0.1,2.5,0
			c3.3,0.3,5.9,2.4,6.8,5.6C635.4,202.8,635.5,204,635.4,205.2z M631.1,205.9c0.1-1.1-0.1-2.1-0.4-3.2c-0.3-1.3-0.9-2.4-1.9-3.2
			c-1.9-1.6-4.2-1-5.4,0.3c-0.6,0.6-1,1.4-1.1,2.2c-0.5,2.2-0.3,4.3,0.1,6.5c0.2,0.9,0.6,1.7,1.1,2.4c1.6,2.3,5.4,2.2,6.8-0.4
			c0.2-0.4,0.4-0.9,0.5-1.4C631.1,207.9,631.1,206.9,631.1,205.9z"/>
		<path class="st2" d="M349.8,233.1c1.5,0,3,0,4.4,0c1.3,0,2.6,0.1,3.8,0.4c1.7,0.5,3.1,1.5,4,3.1c0.5,0.8,0.8,1.8,1,2.7
			c0.2,1.6,0.3,3.2-0.2,4.8c-1.1,3.9-3.6,6.4-7.5,7.5c-1,0.3-2.1,0.5-3.2,0.5c-0.7,0-1.4,0-2.1,0c-2.1,0-4.1,0-6.2,0
			c-0.3,0-0.5,0-0.8-0.1c-0.2,0-0.3-0.2-0.4-0.4c-0.2-0.6,0-1,0.7-1.1c0.6-0.1,1.1-0.2,1.7-0.4c0.3-0.1,0.4-0.3,0.5-0.5
			c0-0.4,0.1-0.9,0.1-1.3c0-2.4,0-4.9,0-7.3c0-1.7,0-3.5-0.1-5.2c0-0.3-0.2-0.6-0.6-0.7c-0.6-0.2-1.2-0.3-1.9-0.5
			c-0.5-0.1-0.7-0.6-0.5-1.1c0.1-0.2,0.2-0.3,0.4-0.4c0.4-0.1,0.8-0.1,1.1-0.1C346.1,233.1,348,233.1,349.8,233.1
			C349.8,233.1,349.8,233.1,349.8,233.1z M348.9,242.6c0,1.5,0,3.1,0,4.6c0,0.7,0,1.4,0.1,2.1c0,0.3,0.3,0.6,0.6,0.6
			c1.3,0.2,2.7,0.3,4,0.1c2.4-0.3,4.1-1.7,5.2-3.8c0.4-0.8,0.6-1.7,0.7-2.6c0.3-1.6,0.2-3.2-0.3-4.7c-0.5-1.6-1.6-2.8-3.2-3.3
			c-0.6-0.2-1.2-0.3-1.9-0.4c-1.5-0.1-3.1-0.1-4.6,0c-0.1,0-0.1,0-0.2,0c-0.1,0.1-0.3,0.3-0.3,0.4c-0.1,0.7-0.1,1.4-0.1,2.1
			C348.9,239.4,348.9,241,348.9,242.6z"/>
		<path class="st2" d="M303.5,249.3c0.7,0,1.4,0,2.1,0c0.3,0,0.6,0,1,0.1c1.2,0.3,2.1,1.1,2.2,2.6c0.1,1.4-0.4,2.5-1.4,3.4
			c-1.2,1.1-2.7,1.7-4.3,2c-1.3,0.2-2.6,0.2-3.8,0c-1.1-0.1-2.1-0.6-2.8-1.4c-0.4-0.5-0.7-1.1-0.7-1.7c0-0.5,0.2-1,0.6-1.4
			c0.4-0.4,0.9-0.7,1.4-1.1c0.1-0.1,0.1-0.3,0.1-0.3c-0.2-0.3-0.4-0.5-0.6-0.7c-0.2-0.3-0.3-0.6-0.3-0.9c0-0.4,0-0.8,0.4-1
			c0.4-0.4,0.9-0.8,1.3-1.2c0.2-0.2,0.2-0.4,0-0.6c-0.6-0.6-1.1-1.2-1.3-2.1c-0.7-2.1,0.3-5.1,3.4-6c1-0.3,2-0.4,3-0.2
			c1.5,0.4,3,0.4,4.6,0.3c0.1,0,0.3,0,0.4,0c0.3,0,0.6,0.5,0.5,0.7c-0.1,0.3-0.2,0.6-0.4,0.9c-0.2,0.4-0.4,0.6-0.9,0.5
			c-0.1,0-0.3,0-0.4,0c-0.2,0-0.3,0.2-0.3,0.4c0.1,0.5,0.2,1,0.3,1.5c0.2,2.3-1.4,4.2-3.5,4.7c-0.9,0.2-1.9,0.4-2.9,0.2
			c-0.4-0.1-0.7,0.2-0.9,0.5c-0.1,0.1,0,0.5,0.1,0.5c0.2,0.1,0.5,0.2,0.7,0.2C301.7,249.3,302.6,249.3,303.5,249.3
			C303.5,249.3,303.5,249.3,303.5,249.3z M302.7,251.8C302.7,251.9,302.7,251.9,302.7,251.8c-0.6,0.1-1.3,0.1-1.9,0.1
			c-0.5,0-0.9,0.2-1.2,0.6c-0.3,0.3-0.6,0.7-0.8,1.1c-0.2,0.4-0.1,0.9,0.3,1.2c0.4,0.4,1,0.6,1.5,0.7c0.9,0.1,1.8,0.1,2.7,0
			c0.8-0.1,1.5-0.4,2.1-0.9c0.4-0.4,0.6-0.8,0.7-1.3c0-0.5-0.3-1.1-0.8-1.1C304.3,252,303.5,251.9,302.7,251.8z M304.1,243.8
			c0-0.9,0-1.6-0.4-2.3c-0.2-0.5-0.6-0.9-1.1-1c-1.1-0.4-2.1,0.2-2.5,1.2c-0.4,1.2-0.3,2.4,0.2,3.5c0.1,0.2,0.2,0.3,0.3,0.5
			c0.7,0.8,2.3,0.8,3-0.3C304,244.9,304.1,244.3,304.1,243.8z"/>
		<path class="st2" d="M551.3,211.3c0-0.7,0-1.4,0-2.1c0-0.4,0.4-0.7,0.7-0.8c0.3,0,0.6,0,1,0c0.3,0,0.5,0.2,0.5,0.4
			c0.2,0.5,0.3,1,0.5,1.4c0.7,1.3,1.8,2,3.3,1.9c0.1,0,0.1,0,0.2,0c0.8-0.1,1.5-0.4,1.8-1.2c0.4-0.9,0.1-1.8-0.6-2.5
			c-0.3-0.3-0.6-0.5-0.9-0.7c-0.5-0.3-1.1-0.6-1.7-1c-0.7-0.4-1.4-0.7-2-1.1c-0.5-0.3-1.1-0.7-1.6-1.1c-2-1.6-2-4.3-0.6-6
			c1.1-1.5,2.6-2.3,4.4-2.5c1.8-0.2,3.6-0.1,5.3,0.6c0.9,0.3,1.1,0.3,0.9,1.5c-0.1,0.7-0.1,1.4-0.2,2.1c-0.1,0.4-0.1,0.9-0.2,1.3
			c0,0.1-0.2,0.2-0.3,0.2c-0.5,0-1,0-1.5,0c-0.1,0-0.2-0.1-0.3-0.2c-0.1-0.4-0.2-0.9-0.4-1.3c-0.6-1.6-2.8-2.4-4.3-1.3
			c-0.8,0.6-0.9,1.7-0.2,2.3c0.4,0.4,0.9,0.8,1.4,1.1c0.8,0.5,1.7,0.9,2.5,1.4c0.9,0.4,1.7,0.9,2.4,1.5c0.5,0.4,0.9,0.9,1.2,1.5
			c0.9,1.9,0.8,3.7-0.4,5.4c-0.8,1.1-1.9,1.9-3.2,2.3c-1.4,0.4-2.8,0.5-4.2,0.3c-0.9-0.2-1.9-0.3-2.8-0.7c-0.9-0.3-1.1-0.2-0.9-1.5
			C551.2,212.2,551.2,211.8,551.3,211.3C551.3,211.3,551.3,211.3,551.3,211.3z"/>
		<path class="st2" d="M291,252.1c-1.1,0-2.2,0-3.3,0c-0.5,0-0.7-0.2-0.7-0.7c0-0.5,0.2-0.7,0.6-0.8c0.4-0.1,0.7-0.2,1.1-0.3
			c0.2-0.1,0.3-0.3,0.3-0.4c-0.4-1-0.8-2-1.2-3c-0.1-0.2-0.3-0.4-0.6-0.4c-1.7,0-3.5,0-5.2,0c-0.3,0-0.6,0-1,0
			c-0.3,0-0.5,0.2-0.6,0.4c-0.3,0.6-0.6,1.3-0.8,1.9c-0.5,1.2-0.5,1.2-0.3,1.4c0.3,0.3,0.8,0.3,1.2,0.4c0.5,0.1,0.7,0.7,0.4,1.2
			c0,0.1-0.2,0.2-0.3,0.2c-0.1,0-0.3,0.1-0.4,0.1c-1.8,0-3.6,0-5.4,0c-0.4,0-0.6-0.2-0.6-0.6c-0.1-0.5,0.1-0.8,0.4-0.9
			c0.1,0,0.2-0.1,0.4-0.1c0.7-0.2,1.3-0.6,1.6-1.3c0.4-0.9,0.9-1.7,1.2-2.6c1.8-4,3.5-8.1,5.3-12.1c0.2-0.5,0.4-0.9,0.6-1.4
			c0.1-0.2,0.4-0.3,0.7-0.3c0.6,0,0.8,0.1,1.1,0.6c0.9,2.1,1.7,4.3,2.7,6.4c1.3,3.1,2.7,6.1,4.1,9.1c0.1,0.2,0.2,0.5,0.3,0.7
			c0.2,0.3,0.4,0.5,0.7,0.6c0.4,0.1,0.9,0.3,1.3,0.4c0.4,0.1,0.6,0.5,0.5,0.9c-0.1,0.4-0.3,0.6-0.6,0.6c-0.3,0-0.6,0-1,0
			C292.7,252.1,291.8,252.1,291,252.1C291,252.1,291,252.1,291,252.1z M284.1,244.4C284.1,244.3,284.1,244.3,284.1,244.4
			c0.7-0.1,1.4-0.1,2.1-0.1c0.3,0,0.4-0.2,0.3-0.5c-0.7-1.8-1.5-3.5-2.2-5.3c0-0.1-0.1-0.1-0.1-0.1c-0.1,0-0.3,0.1-0.3,0.2
			c-0.8,1.8-1.5,3.5-2.2,5.3c0,0.1,0,0.1,0,0.2c0.1,0.1,0.1,0.3,0.2,0.3C282.6,244.3,283.4,244.3,284.1,244.4z"/>
		<path class="st2" d="M509.2,248.6c0-0.6,0-1.3,0-1.9c0-0.6,0.3-0.8,1-0.8c0.1,0,0.1,0,0.2,0c0.2,0.1,0.4,0.2,0.4,0.3
			c0.2,0.7,0.4,1.3,0.6,2c0.2,0.6,0.5,1,1,1.4c0.7,0.5,1.5,0.8,2.3,0.8c0.9,0,1.8-0.3,2.5-0.8c0.9-0.7,1.2-2,0.9-2.8
			c-0.2-0.7-0.5-1.3-1.2-1.7c-0.6-0.4-1.3-0.8-2-1.2c-0.7-0.4-1.5-0.7-2.3-1.1c-0.7-0.3-1.4-0.7-2-1.2c-1.7-1.3-2.1-3.5-1.4-5.2
			c0.4-1.1,1.1-2,2.1-2.7c1-0.6,2.1-1,3.2-1.1c1.9-0.2,3.7,0.2,5.5,0.9c0.1,0.1,0.3,0.3,0.3,0.4c0.1,0.2,0,0.4,0,0.6
			c-0.1,1.1-0.1,2.2,0,3.3c0,0.6-0.3,0.9-1,0.9c-0.1,0-0.1,0-0.2,0c-0.3,0-0.5-0.2-0.6-0.4c-0.2-0.6-0.3-1.1-0.5-1.7
			c-0.3-0.8-0.8-1.3-1.6-1.6c-0.9-0.4-1.8-0.4-2.6-0.2c-1.3,0.4-2,1.4-1.9,2.6c0,0.6,0.3,1.1,0.7,1.5c0.4,0.3,0.8,0.6,1.3,0.9
			c0.8,0.4,1.6,0.8,2.4,1.2c1,0.5,2,1,2.8,1.6c0.7,0.6,1.3,1.3,1.6,2.1c0.9,2.1,0.2,4.5-1.2,5.9c-1.1,1.1-2.5,1.7-4.1,1.9
			c-1.8,0.2-3.6,0-5.3-0.6c-0.4-0.1-0.7-0.2-1.1-0.3c-0.2-0.1-0.4-0.4-0.4-0.6c0-0.4,0.1-0.8,0.1-1.2
			C509.2,249.4,509.2,249,509.2,248.6C509.2,248.6,509.2,248.6,509.2,248.6z"/>
		<path class="st2" d="M601.5,199.9c0,1.5,0,3.7,0.1,5.9c0,1,0,2.1,0,3.1c0,0.3,0,0.5,0,0.8c0.1,2.4,0,2.1,2.1,2.8
			c0.1,0,0.2,0.1,0.4,0.1c0.3,0.1,0.5,0.4,0.5,0.8c0,0.2,0,0.4,0,0.6c0,0.2-0.4,0.6-0.6,0.6c-0.2,0-0.4,0-0.6,0
			c-2.4-0.2-4.7-0.2-7.1,0c-0.3,0-0.5,0-0.8,0c-0.2,0-0.5-0.3-0.5-0.5c0-0.3,0-0.5,0-0.8c0-0.3,0.1-0.5,0.4-0.6
			c0.2-0.1,0.5-0.2,0.7-0.2c1.7-0.7,1.7-0.2,1.7-2.4c0-5.5,0-11,0-16.6c0-0.3,0-0.5,0-0.8c-0.1-0.6-0.2-1-1-0.9
			c-0.4,0-0.8,0.1-1.1,0.1c-0.2,0-0.5-0.2-0.6-0.4c-0.2-0.4-0.1-0.7,0-1.1c0-0.1,0-0.1,0.1-0.2c0.1-0.1,0.2-0.1,0.3-0.2
			c1.8-0.6,3.6-1.3,5.3-2.2c0.3-0.2,0.6-0.1,0.9,0.1c0.2,0.2,0.4,0.4,0.4,0.6c-0.1,2-0.2,4-0.3,6C601.6,196,601.6,197.6,601.5,199.9
			z"/>
		<path class="st2" d="M412.2,243.9c0.1-2.8,0-5.3,0-7.8c0-0.4-0.2-0.6-0.6-0.6c-0.1,0-0.3,0-0.4,0c-0.1,0-0.3,0-0.4,0
			c-0.6,0-0.8-0.3-0.7-0.8c0-0.3,0.1-0.5,0.4-0.6c1.4-0.4,2.7-0.9,3.9-1.6c0.3-0.2,0.9,0.2,0.9,0.5c0,0.2,0,0.4,0,0.6
			c-0.1,2-0.2,4-0.2,6c0,0.7,0.1,0.9,0.2,0.8c0.3,0,0.4-0.2,0.6-0.4c0.2-0.1,0.4-0.3,0.6-0.5c0.8-0.6,1.7-0.9,2.7-0.7
			c2.7,0.3,3.8,1.8,4.3,4c0.3,1.4,0.3,2.9-0.2,4.4c-1,2.8-2.9,4.5-5.7,5.2c-1.5,0.4-3.1,0.2-4.5-0.4c-0.2-0.1-0.5-0.2-0.7-0.3
			c-0.2-0.1-0.3-0.3-0.3-0.5c0-1.1,0-2.2,0-3.3C412.2,246.4,412.2,245,412.2,243.9z M415.1,246.7
			C415.1,246.7,415.1,246.7,415.1,246.7c0,0.9,0,1.8,0,2.7c0,0.3,0.2,0.5,0.4,0.6c0.4,0.1,0.9,0.3,1.3,0.3c1.4,0.1,2.7-0.6,3.3-1.9
			c0.2-0.4,0.3-0.8,0.4-1.3c0.2-1.1,0.2-2.2,0-3.2c-0.1-0.6-0.4-1.2-0.8-1.7c-0.7-0.7-1.5-0.9-2.4-0.7c-1,0.2-2.2,1.6-2.1,2.7
			C415.1,245.1,415.1,245.9,415.1,246.7z"/>
		<path class="st2" d="M299.9,205.7c0.1-1.8,0.1-3.4,0.2-5c0-0.3,0-0.5-0.1-0.8c0-0.1-0.2-0.2-0.3-0.2c-0.5,0-1-0.1-1.5-0.1
			c-0.2,0-0.6-0.4-0.6-0.6c0-0.2,0-0.4,0-0.6c0-0.3,0.1-0.5,0.3-0.6c0.2-0.1,0.4-0.3,0.7-0.4c1.1-0.6,2-1.6,2.7-2.7
			c0.4-0.6,0.7-1.2,1-1.9c0.3-0.6,1.1-0.6,1.7-0.3c0.2,0.1,0.4,0.4,0.4,0.6c0,0.7-0.1,1.4-0.2,2.1c0,0.4,0,0.8,0,1.2
			c0,0.1,0.2,0.4,0.4,0.4c0.8,0,1.5,0,2.3,0c0.5,0,1,0,1.5,0c0.4,0,0.7,0.7,0.6,1c-0.3,0.4-0.5,0.9-0.7,1.4
			c-0.2,0.3-0.4,0.4-0.8,0.4c-1,0-1.9,0-2.9-0.1c-0.3,0-0.5,0.2-0.5,0.5c0,1-0.1,2-0.1,3.1c0,1.7,0,3.5-0.1,5.2
			c0,0.8,0.1,1.5,0.3,2.3c0.1,0.2,0.1,0.4,0.2,0.5c0.2,0.3,0.5,0.5,0.8,0.5c0.4,0,0.8,0,1.1-0.1c0.4-0.1,0.8-0.3,1.3-0.5
			c0.3-0.1,0.5,0,0.7,0.2c0.2,0.3,0.4,0.6,0.6,1c0.1,0.1,0,0.4-0.1,0.5c-1,0.6-1.9,1.2-3,1.7c-0.9,0.4-1.7,0.4-2.6,0.4
			c-1.3-0.1-2.5-1.1-2.8-2.3c-0.2-0.7-0.2-1.5-0.3-2.3c0-0.4,0-0.9,0-1.3C299.9,207.6,299.9,206.5,299.9,205.7z"/>
		<path class="st2" d="M288.2,205.5c0-1.9,0-3.7,0.1-5.6c0-0.1-0.2-0.4-0.4-0.4c-0.2,0-0.4,0-0.6,0c-0.3,0-0.5,0-0.8,0
			c-0.3,0-0.7-0.4-0.7-0.8c0-0.2,0-0.4,0-0.6c0-0.2,0.1-0.4,0.3-0.5c0.1-0.1,0.3-0.2,0.5-0.3c1.5-0.8,2.5-2,3.3-3.4
			c0.2-0.3,0.4-0.7,0.5-1c0.4-0.7,0.6-0.8,1.4-0.7c0.4,0,0.8,0.4,0.8,0.7c0,0.6-0.1,1.3-0.1,1.9c-0.2,1.8-0.1,1.9,1.6,1.8
			c0.5,0,1,0,1.5-0.1c0.3,0,0.6,0,1,0c0.4,0,0.8,0.6,0.6,1c-1.2,2.1-0.4,1.8-2.8,1.8c-0.5,0-1,0-1.5,0c-0.3,0-0.6,0.2-0.6,0.6
			c0,0.8,0,1.7,0,2.5c0,1.9-0.1,3.7-0.1,5.6c0,0.6,0.1,1.3,0.1,1.9c0,0.3,0.2,0.6,0.3,0.9c0.2,0.4,0.5,0.5,1,0.5
			c0.3,0,0.5,0,0.8-0.1c0.2-0.1,0.5-0.2,0.7-0.3c0.4-0.1,0.8-0.5,1.3-0.2c0.5,0.3,0.6,0.8,0.8,1.3c0,0.1,0,0.3-0.1,0.3
			c-0.9,0.7-1.9,1.2-3,1.7c-0.8,0.3-1.6,0.4-2.4,0.4c-1.4,0-3.1-1.2-3.2-3c0-0.6-0.1-1.2-0.1-1.7c0-1,0-2.1,0-3.1
			C288.1,206.4,288.1,206,288.2,205.5C288.1,205.5,288.1,205.5,288.2,205.5z"/>
		<path class="st2" d="M255.2,214.3c-1.4,0.1-2.5,0.1-3.5,0.2c-0.3,0-0.5,0-0.8,0c-0.4,0-0.7-0.4-0.8-0.7c0-0.1,0-0.3,0-0.4
			c0-0.5,0.2-0.8,0.6-0.9c0.6-0.2,1.2-0.4,1.8-0.5c0.4-0.1,0.6-0.5,0.6-0.9c0-0.4,0-0.9,0-1.3c0-2.7,0-5.4,0-8.1c0-0.2,0-0.4,0-0.6
			c0-0.5-0.3-0.7-0.7-0.7c-0.5,0-1,0.1-1.5,0.1c-0.4,0-0.7-0.4-0.8-0.7c0-0.3,0-0.5,0-0.8c0-0.2,0.1-0.3,0.3-0.4
			c0.9-0.3,1.7-0.5,2.6-0.8c1-0.4,2-0.8,2.9-1.4c0.4-0.2,1.2,0.4,1.2,0.7c0,0.5-0.1,1-0.1,1.5c0,0.1,0,0.2,0.1,0.2
			c0.1,0,0.2,0,0.3,0c0.3-0.3,0.6-0.6,1-0.9c1.4-1.3,3-1.6,4.8-0.8c0.2,0.1,0.4,0.4,0.3,0.6c-0.2,1.2-0.4,2.4-0.7,3.6
			c0,0.3-0.2,0.4-0.6,0.4c-0.3,0-0.5,0-0.8,0c-0.2,0-0.4-0.2-0.5-0.3c-0.1-0.2-0.2-0.5-0.3-0.7c-0.2-0.5-0.8-0.7-1.3-0.4
			c-1.4,0.9-2.3,2.1-2.5,3.7c-0.1,0.4-0.1,0.9-0.1,1.3c0,1.9,0.1,3.7,0.1,5.6c0,0.2,0,0.4,0.1,0.6c0.1,0.2,0.3,0.5,0.5,0.6
			c0.6,0.3,1.2,0.4,1.8,0.6c0.5,0.1,0.7,0.4,0.7,1c0,0.1,0,0.3,0,0.4c-0.1,0.3-0.4,0.6-0.7,0.6c-0.3,0-0.5,0-0.8,0
			C257.4,214.4,256.2,214.3,255.2,214.3z"/>
		<path class="st2" d="M393.7,214.3c-1.4,0.1-2.5,0.1-3.7,0.2c-0.3,0-0.5,0-0.8,0c-0.3,0-0.6-0.3-0.7-0.6c0-0.2,0-0.4,0-0.6
			c0-0.4,0.2-0.6,0.5-0.7c0.5-0.2,1.1-0.4,1.7-0.5c0.6-0.1,0.9-0.5,0.9-1.1c0-0.1,0-0.3,0-0.4c0-2.9,0-5.9,0-8.8c0-0.3,0-0.6-0.1-1
			c0-0.1-0.2-0.3-0.4-0.4c-0.5,0-1,0-1.5,0c-0.7,0-1.1-0.3-1.1-1c0-0.1,0-0.3,0-0.4c0.1-0.2,0.2-0.3,0.3-0.5c0,0,0.1,0,0.2-0.1
			c1.9-0.5,3.7-1.2,5.3-2.1c0.5-0.3,1.2,0.2,1.2,0.8c0,0.4,0,0.9-0.1,1.3c0,0.2,0,0.3,0.2,0.2c0.1,0,0.1,0,0.2,0
			c0.5-0.4,0.9-0.9,1.4-1.3c1.3-1.1,3.3-1.1,4.5-0.3c0.1,0.1,0.2,0.2,0.2,0.3c-0.2,1.3-0.4,2.6-0.7,4c0,0.1-0.2,0.2-0.3,0.2
			c-0.3,0-0.6,0-1,0c-0.3,0-0.5-0.1-0.6-0.4c-0.1-0.2-0.2-0.5-0.3-0.7c-0.2-0.3-0.7-0.5-1-0.3c-0.2,0.1-0.3,0.2-0.5,0.3
			c-1.3,0.9-2.1,2.2-2.2,3.8c-0.2,1.7-0.1,3.3,0,5c0,0.6,0.1,1.3,0.1,1.9c0,0.4,0.2,0.7,0.6,0.9c0.5,0.2,1.1,0.3,1.7,0.5
			c0.6,0.2,0.8,0.5,0.7,1.2c0,0.1,0,0.1,0,0.2c-0.1,0.4-0.4,0.7-0.8,0.7c-0.3,0-0.5,0-0.8,0C395.8,214.4,394.6,214.3,393.7,214.3z"
			/>
		<path class="st2" d="M566,252.1c-2.1,0-4.1,0-6.2,0c-0.3,0-0.6,0-1,0c-0.3,0-0.5-0.2-0.6-0.6c-0.1-0.5,0.1-0.8,0.5-0.9
			c0.6-0.1,1.1-0.2,1.7-0.4c0.5-0.1,0.7-0.4,0.7-0.8c0-0.6,0.1-1.3,0.1-1.9c0-3.8,0-7.6,0-11.4c0-0.2,0-0.4,0-0.6
			c0-0.2-0.2-0.3-0.3-0.4c-0.6-0.3-1.4-0.4-2-0.5c-0.5-0.1-0.7-0.8-0.4-1.2c0.1-0.1,0.2-0.2,0.3-0.2c0.1,0,0.2-0.1,0.4-0.1
			c2.6,0.1,5.3,0.1,7.9,0c0.3,0,0.5,0.1,0.7,0.3c0.4,0.4,0.2,1.1-0.4,1.2c-0.8,0.2-1.5,0.3-2.3,0.5c-0.3,0.1-0.5,0.3-0.6,0.7
			c0,0.3,0,0.5,0,0.8c0,4.1,0,8.2,0,12.3c0,0.2,0,0.4,0,0.6c0,0.2,0.1,0.3,0.3,0.4c0.1,0,0.1,0,0.2,0c1.9,0,3.7,0,5.6,0
			c0.7,0,1.2-0.3,1.6-0.9c0.4-0.7,0.8-1.4,1.3-2.2c0.3-0.5,1-0.6,1.5-0.2c0.1,0.1,0.2,0.3,0.2,0.5c0,0.1,0,0.3-0.1,0.4
			c-0.2,0.5-0.4,1-0.5,1.4c-0.4,1-0.7,2-1.1,3.1c-0.5,0.3-1,0.2-1.5,0.2c-0.7,0-1.4,0-2.1,0C568.6,252.1,567.3,252.1,566,252.1
			C566,252.1,566,252.1,566,252.1z"/>
		<path class="st2" d="M489.7,245.9c0,1.2,0,2.3,0,3.5c0,0.7,0.2,0.9,0.9,1.1c0.3,0.1,0.6,0.2,0.9,0.3c0.2,0.1,0.4,0.5,0.3,0.8
			c-0.1,0.3-0.3,0.5-0.5,0.5c-0.1,0-0.1,0-0.2,0c-1.9,0-3.7,0-5.6,0c-0.2,0-0.4-0.1-0.5-0.2c-0.3-0.2-0.2-1.1,0.1-1.2
			c0.1,0,0.1-0.1,0.2-0.1c1.6-0.4,1.5-0.6,1.5-2c0-1.7,0-3.3,0-5c0-0.5-0.1-1-0.3-1.5c-0.3-0.5-0.7-0.8-1.2-0.8
			c-1.4-0.2-2.9,0.9-3.1,2.3c0,0.3-0.1,0.6-0.1,1c-0.1,1.7,0,3.5,0.1,5.2c0,0.3,0.2,0.5,0.5,0.6c0.4,0.1,0.7,0.2,1.1,0.4
			c0.4,0.2,0.6,0.6,0.4,1.1c0,0.1-0.2,0.2-0.3,0.2c-0.1,0.1-0.2,0.1-0.4,0.1c-1.9,0-3.7,0-5.6,0c-0.1,0-0.3,0-0.4-0.1
			c-0.1-0.1-0.2-0.2-0.2-0.3c-0.2-0.7,0-1.1,0.5-1.2c0.2,0,0.4-0.1,0.6-0.1c0.5-0.2,0.7-0.4,0.7-1c0-2.4,0-4.8,0-7.1
			c0-0.3-0.3-0.6-0.6-0.6c-0.3,0-0.5,0-0.8,0c-0.1,0-0.3,0-0.4,0c-0.2,0-0.4-0.3-0.4-0.6c0-0.3,0-0.5,0.2-0.7
			c0.1-0.1,0.2-0.2,0.3-0.2c1.3-0.3,2.5-0.9,3.8-1.5c0.4-0.2,0.9,0.1,1,0.6c0,0.1,0,0.3,0,0.4c0,0.3,0.2,0.4,0.4,0.2
			c0.2-0.2,0.4-0.3,0.6-0.5c1.4-1,2.9-1.1,4.4-0.5c1.1,0.4,1.8,1.3,2,2.4c0.1,0.7,0.1,1.4,0.1,2.1
			C489.7,244.3,489.7,245.1,489.7,245.9z"/>
		<path class="st2" d="M462.5,245.6c0-0.7,0.1-1.5,0.3-2.4c0.8-2.8,2.7-4.2,5.5-4.7c1.1-0.2,2.2-0.1,3.2,0.3
			c1.9,0.6,3.1,1.9,3.7,3.8c0.6,1.8,0.5,3.6-0.1,5.3c-0.9,2.8-3.3,4.3-5.9,4.4c-0.9,0-1.8,0-2.7-0.3c-1.9-0.6-3.1-1.8-3.7-3.6
			C462.6,247.6,462.5,247,462.5,245.6z M472.4,245.8c-0.1-0.7-0.1-1.4-0.2-2.1c-0.2-1-0.6-1.9-1.4-2.6c-1.1-1-3.4-1-4.3,0.6
			c-0.2,0.3-0.3,0.6-0.4,0.9c-0.5,1.9-0.4,3.8,0.2,5.7c0.1,0.4,0.3,0.7,0.5,1c1.1,1.8,4.1,1.7,5.1-0.3c0.2-0.4,0.3-0.8,0.4-1.3
			C472.3,247.1,472.4,246.5,472.4,245.8z"/>
		<path class="st2" d="M326.6,252.4c-0.8,0.1-1.7-0.1-2.5-0.5c-1.7-0.7-2.8-2-3.3-3.8c-0.5-1.7-0.5-3.4,0.1-5.1
			c0.8-2.7,2.7-4.1,5.4-4.5c1-0.1,2-0.1,3,0.2c2,0.6,3.3,1.9,3.9,3.9c0.5,1.8,0.5,3.5-0.1,5.3C332.3,250.8,329.8,252.5,326.6,252.4z
			 M330.4,246c0-0.6,0-1.2-0.1-1.7c-0.1-1-0.5-2-1.2-2.8c-0.6-0.7-1.4-1.1-2.4-1c-1.1,0-1.9,0.6-2.5,1.6c-0.3,0.5-0.5,1.1-0.5,1.6
			c0,1,0,2,0,3.1c0,0.8,0.3,1.5,0.6,2.2c0.6,1.2,1.6,1.8,2.9,1.7c1.1-0.1,1.8-0.6,2.3-1.5c0.3-0.5,0.5-1,0.5-1.6
			C330.3,247,330.3,246.5,330.4,246z"/>
		<path class="st2" d="M446.3,252.1c-1.7,0-3.3,0-5,0c-0.3,0-0.7-0.5-0.6-0.9c0-0.1,0.1-0.3,0.1-0.4c0.2-0.3,0.4-0.6,0.7-0.9
			c1.9-2.4,3.8-4.9,5.7-7.3c0.2-0.3,0.5-0.6,0.7-0.9c0.1-0.1,0-0.4-0.1-0.5c-1.2-0.1-2.3,0-3.5,0.1c-0.3,0-0.5,0.2-0.6,0.5
			c-0.2,0.4-0.3,0.8-0.5,1.3c-0.2,0.4-0.6,0.6-1.1,0.5c-0.2-0.1-0.3-0.2-0.4-0.4c0,0-0.1-0.1,0-0.2c0-1.1,0.1-2.2,0.1-3.3
			c0-0.3,0.3-0.6,0.6-0.6c0.3,0,0.5,0,0.8,0c2.7,0.2,5.4,0.2,8.1,0c0.2,0,0.4,0,0.6,0c0.3,0,0.6,0.3,0.6,0.6c0,0.2,0,0.5-0.1,0.7
			c-0.3,0.4-0.6,0.8-0.9,1.2c-1.7,2.2-3.5,4.4-5.2,6.7c-0.3,0.4-0.6,0.8-0.8,1.3c0,0.1,0.1,0.2,0.1,0.3c0.1,0.1,0.2,0.1,0.4,0.1
			c1,0,1.9,0,2.9,0c0.1,0,0.3,0,0.4,0c0.5-0.1,0.8-0.3,1-0.8c0.1-0.4,0.2-0.9,0.4-1.3c0.1-0.5,0.5-0.7,1-0.6
			c0.3,0.1,0.6,0.3,0.6,0.6c0,1.2-0.1,2.3-0.1,3.5c0,0.5-0.3,0.7-0.9,0.7C449.5,252.1,447.9,252,446.3,252.1
			C446.3,252,446.3,252.1,446.3,252.1z"/>
		<path class="st2" d="M409.4,203c0,2.6,0,4.6,0,6.5c0,0.3,0,0.5,0,0.8c0.1,1.4,0.2,1.5,1.6,2c0.2,0.1,0.4,0.1,0.6,0.1
			c0.7,0.3,0.9,0.6,0.7,1.5c-0.1,0.3-0.5,0.6-0.7,0.6c-0.1,0-0.3,0-0.4,0c-2.2-0.3-4.5-0.2-6.7,0c-0.3,0-0.6,0-1,0
			c-0.3,0-0.7-0.4-0.7-0.8c0-0.1,0-0.3,0-0.4c0-0.5,0.2-0.8,0.6-0.9c0.6-0.2,1.1-0.3,1.7-0.5c0.3-0.1,0.5-0.4,0.6-0.7
			c0.1-0.8,0.1-1.5,0.1-2.3c0-2.2,0-4.5,0-6.7c0-0.4,0-0.9-0.1-1.3c0-0.4-0.3-0.7-0.7-0.7c-0.4,0-0.8,0.1-1.1,0.1
			c-0.6,0-0.9-0.3-0.9-1c0-0.1,0-0.3,0-0.4c0-0.3,0.1-0.5,0.4-0.6c0.2-0.1,0.5-0.2,0.7-0.2c1.5-0.5,3-1.1,4.4-1.9
			c0.5-0.2,0.8-0.2,1.2,0.3c0.1,0.1,0.2,0.3,0.2,0.5c0,0.4,0,0.9,0,1.3C409.6,200.1,409.5,201.9,409.4,203z"/>
		<path class="st2" d="M572.2,203.3c0,2.4,0,4.2,0,6.1c0,0.5,0,1,0.1,1.5c0.1,0.5,0.3,1,0.9,1.1c0.5,0.1,1,0.3,1.5,0.5
			c0.4,0.1,0.6,0.4,0.5,0.9c0,0.2,0,0.4-0.1,0.6c-0.1,0.2-0.3,0.4-0.6,0.5c-0.2,0-0.4,0-0.6,0c-2.2-0.2-4.4-0.2-6.5,0
			c-0.2,0-0.4,0-0.6,0c-1,0-1.4-0.4-1.3-1.4c0-0.3,0.2-0.5,0.5-0.6c0.2-0.1,0.4-0.1,0.6-0.2c0.4-0.1,0.7-0.3,1.1-0.4
			c0.4-0.1,0.7-0.4,0.7-0.8c0.1-1,0.2-1.9,0.2-2.9c0-1.9,0-3.7,0-5.6c0-0.7-0.1-1.4-0.2-2.1c0-0.2-0.4-0.5-0.6-0.5c-0.5,0-1,0-1.5,0
			c-0.3,0-0.5-0.2-0.6-0.4c-0.1-0.4-0.2-0.8,0-1.1c0-0.1,0.1-0.2,0.2-0.3c0.2-0.1,0.3-0.2,0.5-0.2c1.5-0.4,2.9-1,4.3-1.7
			c0.2-0.1,0.5-0.2,0.7-0.3c0.4-0.2,1.1,0.3,1.1,0.8c0,0.4,0,0.9,0,1.3C572.4,200.1,572.3,201.9,572.2,203.3z"/>
		<path class="st2" d="M612.8,203.3c0,2.4,0,4.5,0,6.7c0,0.4,0.1,0.8,0.1,1.1c0,0.4,0.2,0.7,0.6,0.9c0.5,0.1,1,0.3,1.5,0.5
			c0.7,0.2,0.9,1.2,0.5,1.7c-0.1,0.1-0.3,0.2-0.5,0.3c-0.2,0.1-0.4,0-0.6,0c-2.1-0.2-4.2-0.2-6.3,0c-0.3,0-0.6,0.1-1,0.1
			c-0.9,0-1.4-0.8-1-1.6c0.1-0.2,0.3-0.3,0.4-0.4c0.5-0.2,1.1-0.4,1.6-0.5c0.4-0.1,0.6-0.4,0.7-0.8c0.1-0.6,0.1-1.1,0.1-1.7
			c0-2.5,0-5,0-7.5c0-0.4-0.1-0.9-0.2-1.3c0-0.2-0.3-0.5-0.6-0.5c-0.5,0-1,0-1.5,0c-0.3,0-0.5-0.2-0.6-0.4c-0.2-0.4-0.2-0.7,0-1.1
			c0-0.1,0.1-0.2,0.2-0.3c0.1-0.1,0.2-0.1,0.3-0.2c1.8-0.4,3.4-1.1,5-2c0.6-0.3,1.4,0.2,1.4,0.9C613,199.2,612.9,201.4,612.8,203.3z
			"/>
		<path class="st2" d="M437.5,244.4c0,1.4,0.1,2.9,0.1,4.4c0,0.3,0.2,0.5,0.5,0.5c0.3,0,0.6,0,1,0c0.4,0,0.6,0.3,0.7,0.8
			c0,0.2-0.1,0.4-0.2,0.5c-0.2,0.1-0.3,0.2-0.5,0.3c-1.2,0.3-2.3,0.8-3.4,1.3c-0.5,0.3-0.9,0.1-1.1-0.5c0-0.1-0.1-0.2-0.1-0.4
			c-0.1-0.2-0.4-0.3-0.6-0.2c-0.2,0.1-0.5,0.2-0.7,0.4c-1.2,0.7-2.4,0.8-3.7,0.3c-1-0.4-1.6-1.1-1.8-2.1c-0.1-0.5-0.1-1-0.1-1.5
			c0-1.2,0-2.4,0-3.7c0-0.6,0-1.3-0.1-1.9c-0.2-1.7-0.1-1.5-1.7-1.8c-0.1,0-0.3-0.1-0.3-0.2c-0.1-0.1-0.2-0.2-0.2-0.3
			c0-0.1,0.1-0.2,0.2-0.3c0.1-0.1,0.2-0.1,0.4-0.1c1.1-0.1,2.2-0.2,3.2-0.4c0.5-0.1,0.9,0.1,0.8,0.8c-0.3,1.9-0.2,3.8-0.2,5.8
			c0,0.6,0,1.2,0.1,1.7c0,0.4,0.2,0.9,0.3,1.3c0.2,0.6,0.7,0.9,1.3,1.1c0.7,0.2,1.4,0.1,2.1-0.2c0.3-0.2,0.5-0.3,0.7-0.6
			c0.5-0.9,0.7-1.8,0.7-2.8c0-1.5-0.1-3.1-0.1-4.6c0-0.5-0.3-0.7-0.6-0.9c-0.3-0.2-0.7-0.3-1.1-0.4c-0.1,0-0.2-0.2-0.2-0.3
			c0-0.1,0.1-0.3,0.2-0.3c0.8-0.2,1.5-0.7,2.4-0.7c0.5,0,1-0.2,1.5-0.3c0.5-0.1,0.9,0.3,0.9,0.8
			C437.6,241.2,437.5,242.7,437.5,244.4z"/>
		<path class="st2" d="M377.9,252.4c-1.6,0-2.8-0.2-4-0.7c-0.3-0.1-0.4-0.3-0.4-0.6c0.1-0.8,0.1-1.7,0.2-2.5
			c0.1-0.8,0.5-1.1,1.3-0.9c0.1,0,0.3,0.1,0.3,0.2c0.2,0.3,0.3,0.7,0.4,1.1c0.5,1.1,1.6,1.6,2.7,1.5c0.5-0.1,1-0.3,1.2-0.8
			c0.2-0.6,0.2-1.2-0.2-1.6c-0.2-0.3-0.5-0.5-0.9-0.7c-0.6-0.4-1.2-0.7-1.8-1c-0.6-0.4-1.2-0.7-1.8-1.1c-0.4-0.3-0.8-0.7-1-1.2
			c-0.6-1.1-0.4-2.2,0.3-3.3c0.4-0.7,1-1.2,1.7-1.5c2-0.9,4-0.7,5.9,0.2c0.1,0,0.2,0.2,0.2,0.3c-0.1,1-0.2,1.9-0.3,2.9
			c0,0.2-0.3,0.4-0.6,0.4c-0.3,0-0.5-0.1-0.8-0.1c-0.1,0-0.2-0.1-0.3-0.2c-0.1-0.2-0.1-0.5-0.2-0.7c-0.5-1.4-1.8-1.6-2.8-1.3
			c-0.3,0.1-0.5,0.3-0.7,0.6c-0.2,0.3-0.2,0.6-0.1,0.9c0.2,0.3,0.4,0.6,0.6,0.7c0.6,0.4,1.3,0.8,2,1.2c0.7,0.4,1.5,0.8,2.1,1.3
			c1.9,1.4,1.8,4,0.5,5.4c-0.9,1-1.9,1.5-3.2,1.6C378.1,252.4,377.8,252.4,377.9,252.4z"/>
		<path class="st2" d="M315.5,240.1c0.4-0.3,0.7-0.5,1.1-0.8c0.8-0.5,1.7-0.5,2.6-0.2c0.3,0.1,0.4,0.3,0.4,0.6
			c-0.1,0.8-0.3,1.6-0.4,2.5c0,0.3-0.2,0.4-0.5,0.5c-0.3,0-0.5,0-0.7-0.2c-0.1-0.1-0.1-0.2-0.2-0.3c-0.5-0.7-0.9-0.8-1.5-0.2
			c-0.9,0.7-1.4,1.7-1.4,2.8c-0.1,1.6-0.1,3.2,0.1,4.8c0,0.4,0.3,0.6,0.6,0.7c0.4,0.2,0.9,0.3,1.3,0.4c0.3,0.1,0.4,0.5,0.4,0.8
			c-0.1,0.4-0.3,0.6-0.6,0.6c-2.1,0-4.1,0-6.2,0c-0.3,0-0.5-0.2-0.5-0.5c-0.1-0.6,0.1-0.9,0.6-1c0.3-0.1,0.6-0.2,0.9-0.3
			c0.4-0.1,0.6-0.4,0.6-0.9c0-1.2,0.1-2.4,0.1-3.7c0-1.1,0-2.2-0.1-3.3c0-0.6-0.3-0.8-0.8-0.8c-0.2,0-0.4,0.1-0.6,0.1
			c-0.6,0-0.9-0.4-0.8-1c0-0.1,0.1-0.2,0.2-0.3c0.2-0.1,0.3-0.2,0.5-0.2c1.1-0.3,2.2-0.7,3.2-1.3c0.2-0.1,0.4-0.2,0.7-0.1
			c0.4,0.1,0.5,0.4,0.6,0.7c0,0.2-0.1,0.5-0.1,0.7c0,0.1,0,0.2,0.1,0.2c0.1,0,0.2,0,0.3,0C315.4,240.3,315.4,240.2,315.5,240.1z"/>
		<path class="st2" d="M396.1,252.1c-1,0-2.1,0-3.1,0c-0.3,0-0.5-0.3-0.6-0.7c0-0.3,0.1-0.6,0.3-0.7c0.4-0.1,0.9-0.3,1.3-0.4
			c0.4-0.1,0.6-0.4,0.6-0.8c0-1.7,0-3.3,0-5c0-0.7,0-1.4,0-2.1c0-0.4-0.3-0.6-0.8-0.6c-0.3,0-0.6,0-1,0c-0.2,0-0.4-0.3-0.5-0.5
			c0-0.3,0-0.5,0.2-0.7c0.1-0.1,0.3-0.2,0.5-0.3c1.2-0.3,2.3-0.8,3.4-1.4c0.5-0.3,1,0,1.1,0.6c0,0.2,0,0.4,0.1,0.6
			c0,0.1,0.2,0.2,0.3,0.1c0.3-0.2,0.6-0.4,0.9-0.7c0.8-0.6,1.8-0.7,2.7-0.4c0.5,0.2,0.7,0.4,0.6,1c-0.1,0.7-0.2,1.4-0.4,2.1
			c-0.1,0.3-0.3,0.4-0.5,0.5c-0.3,0.1-0.7,0-0.8-0.3c-0.1-0.2-0.1-0.4-0.2-0.5c-0.2-0.3-0.7-0.4-1-0.2c-0.7,0.5-1.3,1.1-1.5,1.9
			c-0.1,0.3-0.2,0.6-0.2,0.9c-0.1,1.7-0.2,3.3,0.1,5c0.1,0.4,0.3,0.7,0.7,0.8c0.3,0.1,0.6,0.1,0.9,0.2c0.5,0.1,0.6,0.5,0.5,1.1
			c0,0.2-0.2,0.4-0.4,0.4c-0.3,0-0.5,0-0.8,0C397.8,252.1,397,252.1,396.1,252.1C396.1,252.1,396.1,252.1,396.1,252.1z"/>
		<path class="st2" d="M385.5,245.7c0-1.3,0-2.7,0-4c0-0.3-0.2-0.4-0.5-0.5c-0.3,0-0.5,0-0.8,0c-0.3,0-0.5-0.3-0.5-0.5
			c0-0.2,0-0.5,0.1-0.7c0.1-0.1,0.3-0.2,0.5-0.3c1-0.6,1.8-1.4,2.3-2.5c0.1-0.3,0.3-0.6,0.4-0.8c0.2-0.3,0.5-0.4,1-0.4
			c0.3,0,0.5,0.3,0.5,0.5c0,0.4,0,0.8,0,1.2c0,0.4,0,0.8,0,1.2c0,0.2,0.2,0.4,0.3,0.4c0.8,0,1.5,0,2.3,0c0.2,0,0.4,0.1,0.6,0.1
			c0.1,0,0.3,0.4,0.3,0.5c-0.1,0.5-0.3,0.8-0.6,1.2c-0.1,0.1-0.3,0.2-0.5,0.3c-0.2,0-0.5,0-0.8,0c-2-0.1-1.8-0.1-1.9,1.7
			c-0.1,1.5,0,3.1-0.1,4.6c0,0.6,0.1,1.3,0.3,1.9c0.1,0.3,0.6,0.6,0.9,0.6c0.4-0.1,0.9-0.2,1.3-0.4c0.4-0.1,0.7,0,1,0.4
			c0,0.1,0.1,0.1,0.1,0.2c0.1,0.2,0.1,0.6-0.1,0.7c-0.9,0.6-1.9,1.1-2.9,1.4c-1.7,0.4-3.1-0.6-3.3-2.3c0-0.2,0-0.4,0-0.6
			C385.5,248.1,385.5,246.9,385.5,245.7C385.5,245.7,385.5,245.7,385.5,245.7z"/>
		<path class="st2" d="M370.1,244.4c0,1.7,0,3.3,0,5c0,0.5,0.3,0.8,0.8,1c0.2,0.1,0.5,0.1,0.7,0.2c0.6,0.2,0.7,0.7,0.5,1.2
			c0,0.1-0.2,0.2-0.3,0.3c-0.1,0-0.3,0-0.4,0c-1.7,0-3.5,0-5.2,0c-0.3,0-0.5,0-0.8-0.1c-0.1,0-0.2-0.1-0.3-0.2
			c-0.2-0.5-0.1-1,0.3-1.1c0.1,0,0.1,0,0.2-0.1c1.5-0.3,1.6-0.7,1.6-2c0-2.1,0-4.2,0-6.3c0-0.4-0.3-0.6-0.8-0.7c-0.1,0-0.3,0-0.4,0
			c-0.2,0-0.4,0-0.6,0c-0.2,0-0.4-0.3-0.4-0.6c0-0.3,0-0.5,0.2-0.7c0,0,0.1-0.1,0.2-0.1c1.4-0.4,2.7-0.9,3.9-1.6
			c0.2-0.1,0.7,0.2,0.8,0.4c0,0.2,0.1,0.4,0.1,0.6C370.1,241.2,370.1,242.8,370.1,244.4C370,244.4,370,244.4,370.1,244.4z"/>
		<path class="st2" d="M497.6,244.9c0,1.2,0.1,2.9,0.1,4.6c0,0.4,0.2,0.6,0.5,0.7c0.3,0.1,0.6,0.2,0.9,0.3c0.5,0.2,0.7,0.5,0.5,1.1
			c0,0.2-0.2,0.3-0.3,0.4c-0.1,0.1-0.2,0-0.4,0c-1.7,0-3.5,0-5.2,0c-0.2,0-0.4,0-0.6,0c-0.3,0-0.4-0.2-0.5-0.5
			c-0.1-0.5,0.1-0.8,0.4-0.9c0.4-0.1,0.7-0.2,1.1-0.4c0.2-0.1,0.4-0.3,0.5-0.6c0-0.3,0.1-0.5,0.1-0.8c0.1-2.2,0.1-4.4,0-6.5
			c0-0.5-0.3-0.7-0.9-0.8c-0.2,0-0.4,0-0.6,0c-0.5,0-0.8-0.4-0.7-0.9c0-0.2,0.2-0.4,0.3-0.5c0.5-0.2,1-0.3,1.5-0.5
			c0.8-0.3,1.6-0.7,2.5-1.1c0.3-0.1,0.9,0.2,0.9,0.5c0,0.2,0,0.4,0,0.6C497.7,241.3,497.7,242.8,497.6,244.9z"/>
		<path class="st2" d="M459,245.1c0,1.1,0.1,2.8,0.1,4.4c0,0.4,0.2,0.6,0.5,0.7c0.3,0.1,0.6,0.2,0.9,0.3c0.6,0.2,0.8,0.6,0.5,1.2
			c0,0.1-0.1,0.2-0.3,0.3c-0.1,0.1-0.2,0.1-0.4,0.1c-1.8,0-3.6,0-5.4,0c-0.2,0-0.4,0-0.6-0.1c-0.2,0-0.3-0.2-0.3-0.4
			c-0.1-0.6,0-0.8,0.6-1c0.1,0,0.2-0.1,0.4-0.1c0.7-0.1,1.1-0.5,1.1-1.3c0-1.7,0.1-3.3,0.1-5c0-0.4,0-0.9,0-1.3c0-1-0.2-1.3-1.2-1.2
			c-0.2,0-0.4,0-0.6-0.1c-0.1,0-0.2-0.1-0.3-0.2c-0.2-0.4-0.1-1,0.3-1.1c1.3-0.4,2.5-0.9,3.7-1.5c0.4-0.2,1,0.2,0.9,0.6
			C459.2,241,459.1,242.8,459,245.1z"/>
		<path class="st2" d="M406.5,252.1c-1,0-1.9,0-2.9,0c-0.4,0-0.7-0.4-0.6-0.8c0-0.3,0.1-0.5,0.4-0.6c0.4-0.2,0.8-0.3,1.3-0.5
			c0.2-0.1,0.4-0.3,0.5-0.6c0-0.2,0.1-0.4,0.1-0.6c0-2.2,0-4.5,0-6.7c0-0.5-0.2-0.7-0.7-0.7c-0.3,0-0.6,0-1,0
			c-0.3,0-0.5-0.4-0.5-0.7c0-0.2,0.2-0.6,0.3-0.6c0.2-0.1,0.5-0.1,0.7-0.2c1.1-0.4,2.1-0.8,3.2-1.4c0.4-0.2,1,0.2,1,0.6
			c0,0.2,0,0.4,0,0.6c-0.3,2.7-0.2,5.4-0.2,8.1c0,0.4,0,0.8,0,1.2c0,0.8,0.4,1.2,1.1,1.4c0.2,0,0.4,0.1,0.6,0.2
			c0.4,0.1,0.6,0.5,0.5,0.9c-0.1,0.3-0.4,0.6-0.7,0.6c-0.6,0-1.3,0-1.9,0C407.1,252,406.8,252,406.5,252.1
			C406.5,252,406.5,252.1,406.5,252.1z"/>
		<path class="st2" d="M570.3,187.6c1.4-0.1,2.3,0.9,2.4,2.2c0.1,1.3-1.1,2.5-2.4,2.5c-1.2,0-2.4-1.1-2.3-2.3
			C568.1,188.6,569,187.5,570.3,187.6z"/>
		<path class="st2" d="M409.9,189.8c0,1.3-1,2.4-2.3,2.4c-1.3,0-2.5-1-2.4-2.4c0-1.3,1-2.3,2.4-2.3
			C408.9,187.6,409.9,188.5,409.9,189.8z"/>
		<path class="st2" d="M608.7,189.8c0-1.2,1-2.3,2.3-2.3c1.3,0,2.3,1,2.3,2.3c0,1.3-1.2,2.5-2.5,2.4
			C609.6,192.2,608.7,191.1,608.7,189.8z"/>
		<path class="st2" d="M553.6,252.4c-1,0-1.8-0.9-1.7-1.9c0.1-1.1,0.8-1.7,1.9-1.7c1,0,1.8,0.9,1.7,1.9
			C555.4,251.5,554.7,252.5,553.6,252.4z"/>
		<path class="st2" d="M525.7,252.4c-0.9,0.1-1.8-0.8-1.8-1.8c0-1,0.8-1.8,1.8-1.8c1,0,1.8,0.8,1.8,1.8
			C527.5,251.7,526.5,252.5,525.7,252.4z"/>
		<path class="st2" d="M580,252.4c-0.8,0.1-1.9-0.6-1.9-1.8c0-1,0.7-1.7,1.6-1.8c1.2-0.1,1.9,0.8,2,1.7
			C581.8,251.4,581,252.5,580,252.4z"/>
		<path class="st2" d="M406.6,232.4c0.9-0.1,1.7,0.8,1.7,1.7c0,1-0.8,1.9-1.8,1.8c-0.9-0.1-1.7-0.9-1.7-1.8
			C404.9,233.1,405.6,232.4,406.6,232.4z"/>
		<path class="st2" d="M496.3,232.4c0.9,0,1.7,0.8,1.7,1.7c0,0.9-0.9,1.8-1.9,1.8c-0.9-0.1-1.6-0.9-1.6-1.8
			C494.6,233.2,495.4,232.3,496.3,232.4z"/>
		<path class="st2" d="M457.7,232.4c0.9,0,1.7,0.7,1.8,1.6c0.1,0.9-0.7,1.9-1.8,1.8c-0.9,0-1.7-0.8-1.7-1.7
			C456,233.1,456.8,232.3,457.7,232.4z"/>
		<path class="st2" d="M368.8,235.8c-0.9,0.1-1.7-0.7-1.8-1.6c-0.1-0.9,0.6-1.8,1.5-1.8c1-0.1,1.9,0.7,1.9,1.7
			C370.4,234.9,369.6,235.8,368.8,235.8z"/>
		<path class="st2" d="M536.6,198.2c0,0,0,0.1-0.1,0.1c-0.1,0-0.1-0.1-0.2-0.1c0,0,0.1-0.1,0.1-0.1
			C536.5,198.1,536.6,198.2,536.6,198.2z"/>
	</g>
</g>
</svg>
