<?xml version="1.0" encoding="utf-8"?>
<!-- Generator: Adobe Illustrator 26.5.0, SVG Export Plug-In . SVG Version: 6.00 Build 0)  -->
<svg version="1.1" xmlns="http://www.w3.org/2000/svg" xmlns:xlink="http://www.w3.org/1999/xlink" x="0px" y="0px"
	 viewBox="0 0 139.9 120.2" style="enable-background:new 0 0 139.9 120.2;" xml:space="preserve">
<style type="text/css">
	.st0{fill:#1A2854;}
	.st1{fill:#B6DEFE;}
	.st2{fill:#FFFFFF;}
	.st3{fill:#CF0403;}
	.st4{fill:#74A53E;}
	.st5{fill:#925E2B;}
</style>
<g id="Livello_3">
</g>
<g id="Livello_2_00000017479807069619841630000010289927693284968862_">
	<g id="Livello_1-2">
		<path class="st0" d="M-274.6,86.3c-20.5,0-41.1,0-61.6,0c-5.8,0-7.7-1.9-7.7-7.6c0-28.2,0.1-56.3-0.1-84.5c0-5.7,2.5-8,8-8
			c41.3,0,82.6,0,123.8,0c5.6,0,8,2.4,8,8c0,28.1,0,56.1,0,84.2c0,6-1.9,7.9-8,7.9c-9,0-18,0-27,0C-251,86.3-262.8,86.3-274.6,86.3
			L-274.6,86.3z M-274.3,78.1c20.4,0,40.8,0,61.1,0.1c2.2,0,2.9-0.5,2.9-2.8c-0.1-26.5-0.1-53.1,0-79.6c0-2.4-0.7-3-3-3
			c-40.5,0.1-81,0.1-121.5,0c-2.3,0-3,0.6-3,3c0.1,26.5,0.1,53.1,0,79.6c0,2.3,0.7,2.8,2.9,2.8C-314.7,78.1-294.5,78.1-274.3,78.1
			L-274.3,78.1z"/>
		<path class="st0" d="M-273.8,106.3c-12.2,0-24.5,0-36.7,0c-3,0-3.6-0.7-3-3.7c0.9-3.9,4-6.5,8.1-6.6c3.5,0,7-0.1,10.5,0
			c1.7,0.1,2.4-0.4,2.4-2.2c0-6,0.1-6,6.2-6c9.5,0,19,0.1,28.5,0c2,0,2.8,0.4,2.8,2.7c-0.1,5.6,0,5.6,5.6,5.6c2.3,0,4.6-0.1,6.9,0
			c4.7,0.2,8.3,4.3,7.9,9c-0.1,1.7-1.4,1.2-2.3,1.2c-7.7,0-15.4,0-23.1,0C-264.5,106.4-269.1,106.4-273.8,106.3L-273.8,106.3z"/>
		<path class="st1" d="M-274.3,78.1c-20.2,0-40.4,0-60.6,0.1c-2.2,0-2.9-0.5-2.9-2.8c0.1-26.5,0.1-53.1,0-79.6c0-2.4,0.7-3,3-3
			c40.5,0.1,81,0.1,121.5,0c2.3,0,3,0.6,3,3c-0.1,26.5-0.1,53.1,0,79.6c0,2.3-0.6,2.8-2.9,2.8C-233.5,78.1-253.9,78.1-274.3,78.1
			L-274.3,78.1z"/>
	</g>
	<g>
		<path class="st2" d="M80.7,120.1l-0.2-0.1c-0.2,0-0.3,0-0.5-0.1c-0.2-0.1-0.5-0.1-0.8-0.1c-0.1,0-0.4,0-0.4,0
			c-0.6,0-1.1-0.1-1.6-0.2l-0.4-0.1c-4.6-0.8-8.9-2.5-13.3-5.2c-3.1-1.9-6-4.3-8.8-7c-4.1-4.1-7.5-8.8-10.3-14
			c-1.8-3.4-3.2-6.9-4.2-10.5c-0.5-1.8-0.9-3.7-1.2-5.5c-0.4-2.5-0.5-5.1-0.4-7.7c0.1-1.1,0.2-2.3,0.4-3.7c0.3-1.8,0.7-3.6,1.1-5.2
			c0.8-3.2,1.9-6,3.2-8.6c1.4-2.7,3-5,4.9-7c2.5-2.6,5.6-4.6,9-5.9c1.5-0.6,3-1,4.7-1.3c1.7-0.3,3.4-0.5,5.2-0.5c0.5,0,1.1,0,1.6,0
			c1.2,0.1,2.4,0.2,3.7,0.4c1.8,0.3,3.7,0.7,5.4,1.3c3.1,1,5.8,2.2,8.3,3.8c1.2,0.8,2.2,1.6,3.1,2.4c0.5,0.5,0.9,0.9,1.2,1.3
			l3.1-2.8c0.2-0.2,0.4-0.4,0.6-0.6c0.2-0.2,0.4-0.2,0.4-0.3l1.9-0.8l0,2c0,0.1,0,0.3-0.1,0.6c-0.2,0.5-1.3,3.9-1.3,3.9
			c-0.1,0.4-0.4,0.7-0.7,1l-3.3,2.8c-0.3,0.2-0.6,0.4-1,0.4c-0.4,0-0.8-0.2-1.1-0.5l-0.3-0.4c-0.2-0.2-0.4-0.5-0.6-0.7
			c-1-1.1-2.3-2-3.8-2.9c-1.9-1.1-4-2-6.4-2.7c-1.2-0.3-2.6-0.6-3.9-0.8c-0.7-0.1-1.4-0.2-2-0.2c-0.7-0.1-1.5-0.1-2.3-0.1
			c-0.2,0-0.4,0-0.7,0c-0.9,0-1.8,0.1-3,0.2c-1.4,0.2-2.8,0.5-4.2,0.9c-3.4,1-6.3,2.6-8.8,4.9c-1.9,1.8-3.5,3.9-4.8,6.3
			c-1,2-1.8,4.2-2.4,6.7c-0.3,1.3-0.5,2.6-0.7,4.1c-0.1,1.1-0.2,2.3-0.2,3.4c-0.1,1.3,0,2.7,0.1,4.2c0.4,5,1.8,9.8,4,14.3
			c2,3.9,4.6,7.6,7.8,10.9c0.9,0.9,1.9,1.8,2.8,2.7c0.1,0.1,0.3,0.3,0.5,0.5c0.2,0.1,0.4,0.3,0.6,0.4l0.1,0.1
			c1.1,0.9,2.2,1.7,3.4,2.5c3,2.1,6,3.6,9.1,4.8c1.8,0.7,3.6,1.2,5.4,1.5c1.2,0.2,2.5,0.3,3.7,0.3c0.4,0,0.9,0,1.3,0
			c1.9-0.1,3.6-0.6,5.1-1.4L89,112l0.4,0c0.5,0,0.9,0.3,1.2,0.7l0.4,0.6l-0.3,0.7c0,0.1-0.1,0.2-0.1,0.3c-0.1,0.1-0.1,0.2-0.2,0.4
			l-2.5,3.9c-0.1,0.2-0.2,0.4-0.4,0.5c-0.3,0.3-0.7,0.6-1.1,0.6c-0.2,0-0.3,0-0.5,0.1c-0.3,0.1-0.7,0.1-1.1,0.1l-0.2,0l-1,0.1
			l-0.1,0c-0.2,0-0.3,0-0.5,0.1l-0.2,0.1H80.7z"/>
		<path class="st3" d="M84.2,118.5c-0.1,0-0.2,0-0.4,0.1c0,0-0.1-0.1-0.1-0.1c-0.4,0.1-0.8,0.1-1.1,0.1c-0.1,0-0.1,0.1-0.2,0.1
			c-0.4,0-0.9,0-1.3,0c-0.1,0-0.1-0.1-0.2-0.1c-0.2,0-0.4,0-0.6-0.1c-0.5-0.1-1-0.1-1.5-0.1c-0.6,0-1.2-0.1-1.8-0.2
			c-4.6-0.8-8.9-2.5-12.9-5c-3.1-1.9-6-4.2-8.6-6.8c-4-4-7.4-8.6-10-13.6c-1.7-3.3-3.1-6.7-4.1-10.2c-0.5-1.8-0.9-3.6-1.2-5.4
			c-0.4-2.5-0.5-5-0.4-7.5c0.1-1.2,0.2-2.3,0.4-3.5c0.3-1.7,0.6-3.4,1.1-5.1c0.7-2.9,1.7-5.7,3.1-8.3c1.3-2.4,2.8-4.7,4.7-6.6
			c2.4-2.5,5.2-4.3,8.5-5.6c1.4-0.5,2.9-0.9,4.5-1.2c2.2-0.4,4.3-0.5,6.5-0.4c1.2,0.1,2.3,0.2,3.5,0.4c1.8,0.3,3.5,0.7,5.2,1.2
			c2.8,0.9,5.5,2.1,8,3.7c1,0.7,2,1.4,2.9,2.3c0.7,0.6,1.3,1.3,1.7,2.1c0,0.1,0.1,0.1,0.1,0.2c0,0,0.1,0,0.1,0
			c0.1-0.1,0.3-0.2,0.4-0.3c1.3-1.1,2.6-2.3,3.8-3.4c0.2-0.2,0.4-0.4,0.6-0.5c0,0,0.1,0,0.1-0.1c0,0.1,0,0.1,0,0.2
			c-0.3,0.7-0.5,1.5-0.8,2.2c-0.2,0.6-0.4,1.1-0.6,1.7c-0.1,0.2-0.1,0.3-0.3,0.4c-1.1,0.9-2.2,1.9-3.3,2.8c-0.1,0.1-0.2,0.1-0.2,0
			c-0.3-0.4-0.7-0.8-1-1.2c-1.2-1.2-2.6-2.3-4.1-3.1c-2.1-1.2-4.3-2.1-6.7-2.8c-1.3-0.4-2.7-0.7-4.1-0.9c-0.7-0.1-1.4-0.2-2.1-0.2
			c-1-0.1-2.1-0.1-3.1-0.1c-1.1,0-2.1,0.1-3.2,0.2c-1.5,0.2-3,0.5-4.5,0.9c-3.5,1-6.6,2.7-9.3,5.2c-2.1,1.9-3.8,4.2-5.1,6.7
			c-1.1,2.2-1.9,4.6-2.5,7c-0.3,1.4-0.5,2.8-0.7,4.3c-0.1,1.2-0.2,2.3-0.2,3.5c-0.1,1.4,0,2.9,0.1,4.3c0.4,5.2,1.8,10.2,4.2,14.8
			c2.1,4.2,4.8,7.9,8,11.2c0.9,1,1.9,1.9,2.9,2.8c0.1,0.1,0.3,0.2,0.4,0.4c0,0,0.1,0.1,0.1,0.1c0.3,0.1,0.5,0.3,0.7,0.4
			c1.1,0.9,2.3,1.8,3.5,2.6c2.9,2,6.1,3.7,9.4,4.9c1.8,0.7,3.7,1.2,5.6,1.5c1.8,0.3,3.6,0.4,5.3,0.3c2-0.1,3.9-0.6,5.7-1.6
			c0.1,0,0.1,0,0.1,0c0,0,0,0,0,0.1c0,0,0,0.1-0.1,0.1c-0.1,0.1-0.1,0.2-0.2,0.3c-0.8,1.3-1.6,2.6-2.5,3.9c-0.1,0.1-0.1,0.3-0.2,0.4
			c-0.1,0.1-0.2,0.1-0.2,0.1c-0.5,0-1,0.2-1.5,0.2C84.5,118.5,84.4,118.5,84.2,118.5z"/>
		<path class="st2" d="M75.7,34.2c-0.6,0-1.3,0-1.9,0c-0.9,0-1.9-0.1-3.2-0.3c-0.8-0.1-1.6-0.2-2.4-0.3c-1.5-0.2-3.1-0.6-4.7-1
			c-2.7-0.7-5.3-1.7-7.7-3c-2.7-1.4-5.3-3.1-7.7-5.1c-3.3-2.8-6.2-6.3-8.6-10.2c-1.8-2.9-3.2-6-4.5-9.6c0-0.1-0.1-0.2-0.1-0.2
			c-0.1-0.5-0.1-1,0.2-1.3c0.2-0.4,0.6-0.6,1-0.7l0.2,0c0.3-0.1,0.6-0.1,0.9-0.2l0.2,0c0.8-0.1,1.5-0.3,2.3-0.4
			c0.5-0.1,0.9-0.1,1.4-0.2l2.2-0.3c0.2,0,0.3,0,0.4,0c0.4,0,0.8-0.1,1.2-0.1c0.7-0.1,1.3-0.1,2-0.1c0,0,0.1,0,0.2,0L47.2,1h7.5
			l0.1,0.2c0.9,0.1,1.8,0.2,2.8,0.3c3.7,0.5,7,1.3,10.1,2.5c3.2,1.3,6,2.9,8.5,4.9c4.2,3.4,7.1,7.6,8.8,12.7
			c0.5,1.5,0.9,3.1,1.1,4.7c0.2,1.6,0.4,3.2,0.4,4.9c0,0.2,0,0.4,0,0.6c-0.1,0.6-0.5,1.1-1,1.3c-0.3,0.1-0.4,0.1-0.6,0.2l-0.6,0.1
			c-0.9,0.2-1.9,0.3-2.9,0.4c-0.3,0-0.6,0.1-0.9,0.1c-0.5,0-1,0.1-1.4,0.1c-0.7,0-1.5,0.1-2.4,0.1L75.7,34.2z M40.5,6.3
			c0.6,1.4,1.3,2.9,2.1,4.2c2.5,4.4,5.6,8.1,9.2,11.1c2,1.6,4.2,3,6.5,4.2c1.7,0.8,3.6,1.6,5.8,2.2c2.1,0.6,4.3,1.1,6.4,1.3
			c1,0.1,2.1,0.2,3.1,0.3c0.1,0,0.2,0,0.4,0c0.1,0,0.2,0,0.3,0l1.8,0c0.4,0,0.8,0,1.2,0c0.9,0,1.9-0.1,2.8-0.2
			c0.6-0.1,1.3-0.2,1.9-0.2c0-0.3,0-0.5-0.1-0.8l0-0.2c-0.1-1-0.3-1.9-0.5-3c-0.7-2.9-1.9-5.6-3.6-8c-1.9-2.8-4.3-5-7.1-6.7
			c-1.2-0.7-2.4-1.3-3.9-1.9c-3-1.3-6.3-2.1-9.8-2.6L56.3,6c-0.3,0-0.6-0.1-0.8-0.1c-0.9-0.1-1.8-0.2-2.7-0.2c-0.9,0-1.8,0-2.7-0.1
			l-1.2,0c-0.8,0-1.6,0.1-2.5,0.1c-0.5,0-1.1,0.1-1.6,0.1c-0.6,0-1.1,0.1-1.7,0.2l-0.2,0c-0.6,0.1-1.2,0.1-1.8,0.2
			C40.9,6.2,40.7,6.3,40.5,6.3z"/>
		<path class="st4" d="M53.8,2.4c0,0,0,0.1,0.1,0.1c0,0,0.1,0,0.1,0c1.1,0.1,2.2,0.2,3.4,0.3c3.4,0.5,6.6,1.2,9.8,2.5
			c2.9,1.2,5.7,2.7,8.1,4.6c4,3.2,6.8,7.2,8.4,12.1c0.5,1.5,0.8,3,1.1,4.5c0.2,1.6,0.4,3.2,0.4,4.8c0,0.1,0,0.3,0,0.4
			c0,0.1,0,0.1-0.1,0.2c-0.1,0-0.3,0.1-0.4,0.1c-1.1,0.2-2.3,0.4-3.4,0.5c-0.8,0.1-1.6,0.2-2.3,0.2c-0.8,0-1.6,0.1-2.4,0.1
			c-0.9,0-1.8,0-2.7,0c-1,0-2.1-0.1-3.1-0.2c-0.8-0.1-1.6-0.2-2.3-0.3c-1.5-0.2-3-0.6-4.5-1c-2.6-0.7-5.1-1.7-7.5-2.9
			c-2.7-1.3-5.1-3-7.4-4.9c-3.3-2.8-6.1-6.2-8.4-9.9c-1.8-3-3.2-6.1-4.4-9.4c0-0.1,0-0.1-0.1-0.2c0-0.1,0-0.3,0.2-0.3
			c0.3-0.1,0.7-0.1,1-0.2c0.8-0.1,1.7-0.3,2.5-0.4c0.5-0.1,1.1-0.1,1.6-0.2c0.7-0.1,1.3-0.2,2-0.2c0.1,0,0.2,0,0.3,0
			c1.1-0.1,2.1-0.2,3.2-0.2c0.2,0,0.4,0,0.6,0c0,0,0.1-0.1,0.1-0.1C49.7,2.4,51.8,2.4,53.8,2.4z M49,4.2c-1.4,0-2.8,0.2-4.2,0.2
			c-0.7,0-1.3,0.1-2,0.2c-0.6,0.1-1.3,0.2-1.9,0.2c-0.7,0.1-1.3,0.2-2,0.3c0,0-0.1,0-0.1,0c-0.1,0-0.2,0.1-0.1,0.2
			c0.1,0.2,0.1,0.4,0.2,0.6c0.7,1.8,1.5,3.5,2.5,5.1c2.5,4.4,5.6,8.2,9.6,11.5c2.1,1.7,4.3,3.1,6.7,4.3c1.9,1,4,1.7,6,2.3
			c2.2,0.6,4.4,1.1,6.6,1.4c1.1,0.1,2.1,0.3,3.2,0.3c0.2,0,0.5,0,0.7,0c1,0,2,0,2.9,0c1,0,2-0.1,2.9-0.2c0.9-0.1,1.8-0.2,2.8-0.4
			c0.1,0,0.2-0.1,0.3-0.1c0,0,0.1-0.1,0.1-0.1c0-0.1,0-0.2,0-0.3c0-0.6-0.1-1.2-0.1-1.8c-0.1-1.1-0.3-2.1-0.5-3.2
			c-0.7-3.1-2-5.9-3.8-8.5c-2-2.9-4.5-5.3-7.5-7.1c-1.3-0.8-2.6-1.4-4-2C64.1,6,60.7,5.1,57.2,4.7c-0.5-0.1-1-0.1-1.5-0.2
			c-0.9-0.1-1.9-0.2-2.8-0.2C51.6,4.3,50.3,4.3,49,4.2z"/>
		<path class="st5" d="M78.8,118.5c0.5,0,1,0,1.5,0.1c0.2,0,0.4,0,0.6,0.1c0.1,0,0.1,0.1,0.2,0.1c-0.5,0-1,0-1.5,0c0,0,0-0.1,0-0.1
			c-0.1,0-0.1,0-0.2-0.1C79.2,118.6,79,118.5,78.8,118.5z"/>
		<path class="st5" d="M82.4,118.8c0.1,0,0.1-0.1,0.2-0.1c0.4,0,0.8-0.1,1.1-0.1c0,0,0.1,0,0.1,0.1c-0.1,0.1,0,0.1,0,0.2
			C83.4,118.8,82.9,118.8,82.4,118.8z"/>
		<path class="st2" d="M87.5,42.2c-0.8-1.9-1.3-3.9-1.7-5.9c-0.3-1.6-0.4-3.2-0.4-4.8c0-1.3,0.1-2.3,0.2-3.3c0.3-2,0.8-3.9,1.5-5.6
			c0.5-1.3,1.1-2.5,1.8-3.6c0.2-0.3,0.4-0.6,0.6-0.8l0.2-0.2c0.2-0.3,0.7-0.9,1.5-0.9c0.4,0,0.7,0.1,0.9,0.3l0.3,0.1
			c1.5,0.7,3.1,1.4,4.6,2l1.4,0.6c0.1,0,0.2,0.1,0.3,0.2l0.6,0.3l0.2,0.8c0.1,0.5-0.1,1-0.5,1.3l-0.9,0.9c-0.5,0.4-0.9,0.8-1.3,1.2
			c-1.5,1.5-2.7,3-3.7,4.7c-1,1.6-1.7,3.3-2.1,5c-0.2,0.9-0.3,1.7-0.4,2.4c0,0.2,0,0.3,0,0.5c0,0.3,0,0.5,0,0.8
			c0,1.4,0.2,2.8,0.4,4.2c0,0.1,0,0.2,0.1,0.3c0.1,0.3,1,2.3,1,2.7l-1.5,3.1l-1.8-3.2"/>
		<path class="st2" d="M88.3,45.2l1.4,0.1"/>
		<path class="st5" d="M88.8,41.7c-0.7-1.8-1.3-3.7-1.6-5.6c-0.3-1.5-0.4-3-0.4-4.5c0-1,0.1-2.1,0.2-3.1c0.3-1.8,0.7-3.6,1.4-5.3
			c0.5-1.2,1-2.3,1.7-3.3c0.2-0.2,0.3-0.5,0.5-0.7c0.6-0.8,0.4-0.7,1.2-0.3c2,0.9,4,1.8,6,2.7c0.1,0,0.2,0.1,0.3,0.2
			c0.1,0,0.1,0.1,0,0.2c-0.1,0.1-0.2,0.2-0.3,0.3c-0.7,0.6-1.4,1.2-2,1.8C94.4,25.4,93,27,92,28.8c-1,1.7-1.8,3.5-2.2,5.4
			c-0.2,0.9-0.4,1.7-0.4,2.6c0,0.5-0.1,0.9-0.1,1.4c0,1.5,0.2,3,0.5,4.5c0.1,0.4,0.2,0.8,0.2,1.2c0,0,0.1,1.3,0,1.3"/>
		<path class="st5" d="M84.2,118.5c0.2-0.1,0.3-0.1,0.5,0C84.5,118.6,84.4,118.6,84.2,118.5z"/>
	</g>
</g>
</svg>
