<?xml version="1.0" encoding="UTF-8"?><svg id="Livello_2" xmlns="http://www.w3.org/2000/svg" xmlns:xlink="http://www.w3.org/1999/xlink" viewBox="0 0 1952.49 361.01"><defs><style>.cls-1{clip-path:url(#clippath);}.cls-2{fill:#b6defe;}.cls-3{fill:#1a2854;}.cls-4{clip-path:url(#clippath-1);}.cls-5{clip-path:url(#clippath-4);}.cls-6{clip-path:url(#clippath-3);}.cls-7{clip-path:url(#clippath-2);}.cls-8{clip-path:url(#clippath-5);}</style><clipPath id="clippath"><path class="cls-3" d="M640.8,147.44h-100.76c-2.46,0-4.46,2.17-4.46,4.86v20.15c0,2.68,2,4.86,4.46,4.86h75.83c2.46,0,4.46,2.17,4.46,4.86v33.72c0,2.68-2,4.86-4.46,4.86h-75.83c-2.46,0-4.46,2.17-4.46,4.86v63.58c0,2.68-2,4.86-4.46,4.86h-30.96c-2.46,0-4.46-2.17-4.46-4.86V108.87c0-2.68,2-4.86,4.46-4.86h140.64c2.46,0,4.46,2.17,4.46,4.86v33.72c0,2.68-2,4.86-4.46,4.86Z"/></clipPath><clipPath id="clippath-1"><path class="cls-3" d="M817.27,294.03h-92.43c-1.77,0-3.38-1.14-4.09-2.91l-13.55-33.72c-1.29-3.21,.87-6.8,4.09-6.8h43.6c3.22,0,5.38-3.61,4.08-6.82l-24.24-59.62c-1.57-3.85-6.59-3.85-8.16,0l-43.48,106.98c-.71,1.76-2.31,2.89-4.08,2.89h-37.39c-2.46,0-4.46-2.17-4.46-4.86v-33.72c0-2.68,2-4.86,4.46-4.86h10.33c1.76,0,3.36-1.13,4.08-2.89l57.23-140.8c.71-1.76,2.31-2.89,4.08-2.89h26.6c1.76,0,3.36,1.13,4.08,2.89l73.32,180.3c1.31,3.21-.85,6.82-4.08,6.82Z"/></clipPath><clipPath id="clippath-2"><path class="cls-3" d="M987.87,291.23c0,2.68-2,4.86-4.46,4.86h-57.86c-24.1,0-44.66-9.27-61.69-27.82-14.92-16.25-23.31-35.45-25.16-57.6-2.64-31.58,9.28-62.94,31.66-83.24,15.69-14.23,34.09-21.35,55.19-21.35h57.86c2.46,0,4.46,2.17,4.46,4.86v33.72c0,2.68-2,4.86-4.46,4.86h-57.86c-13.13,0-24.3,5.02-33.53,15.06-9.22,10.04-13.83,22.22-13.83,36.51s4.61,26.47,13.83,36.51c9.22,10.04,20.4,15.06,33.53,15.06h57.86c2.46,0,4.46,2.17,4.46,4.86v33.72Z"/></clipPath><clipPath id="clippath-3"><path class="cls-3" d="M1062.87,296.08h-30.96c-2.46,0-4.46-2.17-4.46-4.86V110.92c0-2.68,2-4.86,4.46-4.86h30.96c2.46,0,4.46,2.17,4.46,4.86v180.3c0,2.68-2,4.86-4.46,4.86Z"/></clipPath><clipPath id="clippath-4"><path class="cls-3" d="M1254.24,296.08h-140.64c-2.46,0-4.46-2.17-4.46-4.86V110.92c0-2.68,2-4.86,4.46-4.86h30.96c2.46,0,4.46,2.17,4.46,4.86V247.8c0,2.68,2,4.86,4.46,4.86h100.76c2.46,0,4.46,2.17,4.46,4.86v33.72c0,2.68-2,4.86-4.46,4.86Z"/></clipPath><clipPath id="clippath-5"><path class="cls-3" d="M1435.65,296.08h-140.64c-2.46,0-4.46-2.17-4.46-4.86V110.92c0-2.68,2-4.86,4.46-4.86h140.64c2.46,0,4.46,2.17,4.46,4.86v33.72c0,2.68-2,4.86-4.46,4.86h-100.76c-2.46,0-4.46,2.17-4.46,4.86v20.15c0,2.68,2,4.86,4.46,4.86h75.83c2.46,0,4.46,2.17,4.46,4.86v33.72c0,2.68-2,4.86-4.46,4.86h-75.83c-2.46,0-4.46,2.17-4.46,4.86v20.15c0,2.68,2,4.86,4.46,4.86h100.76c2.46,0,4.46,2.17,4.46,4.86v33.72c0,2.68-2,4.86-4.46,4.86Z"/></clipPath></defs><g id="Layer_2"><g><path class="cls-3" d="M1509.18,296.48V134.24h48.62c14.25,0,27.03,3.03,38.34,9.08,11.31,6.06,20.13,14.73,26.46,26.02,6.33,11.29,9.5,24.14,9.5,38.55v14.93c0,14.49-3.15,27.34-9.44,38.55-6.29,11.22-15.15,19.87-26.58,25.96-11.43,6.09-24.55,9.14-39.36,9.14h-47.54Zm14.69-150.65v139.06h32.97c18.31,0,33.01-5.67,44.08-17.01,11.07-11.34,16.6-26.67,16.6-46v-14.28c0-18.66-5.46-33.6-16.37-44.83-10.91-11.23-25.28-16.88-43.12-16.95h-34.16Z"/><path class="cls-3" d="M1753.11,256.59c0-8.99-3.39-16.1-10.15-21.34-6.77-5.24-19.15-10.21-37.15-14.93-18-4.72-31.14-9.86-39.42-15.43-11.79-7.87-17.68-18.2-17.68-30.98s5.47-22.49,16.42-30.25c10.95-7.76,24.94-11.64,41.99-11.64,11.54,0,21.88,2.08,31,6.24,9.12,4.16,16.19,9.96,21.2,17.38,5.02,7.43,7.53,15.71,7.53,24.85h-14.81c0-11.1-4.06-20.02-12.18-26.77-8.12-6.74-19.03-10.12-32.73-10.12s-23.89,2.77-31.77,8.32c-7.88,5.54-11.83,12.78-11.83,21.71,0,8.26,3.54,14.99,10.63,20.2,7.09,5.21,18.43,9.8,34.04,13.78,15.61,3.98,27.43,8.11,35.48,12.38,8.04,4.27,14.1,9.38,18.16,15.32,4.06,5.94,6.09,12.96,6.09,21.06,0,12.78-5.48,23.03-16.42,30.75-10.95,7.73-25.38,11.59-43.3,11.59-12.26,0-23.51-2.04-33.74-6.13-10.23-4.08-18-9.81-23.29-17.16-5.3-7.35-7.94-15.78-7.94-25.29h14.69c0,11.44,4.58,20.47,13.74,27.08,9.16,6.61,21.34,9.92,36.55,9.92,13.54,0,24.41-2.79,32.61-8.36,8.2-5.57,12.3-12.96,12.3-22.17Z"/><path class="cls-3" d="M1804.37,134.24l64.14,143.19,64.38-143.19h19.59v162.24h-14.69v-70.65l1.19-72.43-64.74,143.07h-11.35l-64.5-142.52,1.2,71.43v71.09h-14.69V134.24h19.47Z"/></g><path class="cls-3" d="M208.48,300.67c-61.73,0-123.47,0-185.2,0-17.41,0-23.07-5.61-23.07-22.95C.19,193.16,.44,108.6,0,24.04-.09,6.84,7.38,0,24.17,0c123.98,.03,247.96,.01,371.94,.02,16.74,0,23.99,7.22,23.99,23.9,.02,84.31,.01,168.61,0,252.92,0,18.09-5.67,23.76-24.12,23.81-27.01,.07-54.02,.02-81.02,.02-35.5,0-70.99,0-106.49,0Zm.96-24.58c61.23,0,122.46-.11,183.7,.15,6.7,.03,8.68-1.58,8.66-8.51-.25-79.7-.26-159.4,0-239.09,.02-7.24-2.13-8.92-9.08-8.91-121.69,.2-243.38,.2-365.08,0-7.01-.01-9.09,1.75-9.07,8.94,.26,79.7,.26,159.4,0,239.09-.02,6.99,2.08,8.5,8.71,8.47,60.72-.25,121.43-.15,182.15-.15Z"/><path class="cls-3" d="M211.03,360.89c-36.76,0-73.52,0-110.29,0-9.13,0-10.92-2.23-9.01-11.05,2.55-11.8,11.97-19.57,24.2-19.72,10.54-.13,21.09-.25,31.62,.07,5.13,.15,7.2-1.13,7.22-6.77,.06-18,.29-18,18.75-18,28.54,0,57.07,.16,85.61-.13,6.12-.06,8.56,1.23,8.43,7.96-.35,16.84-.01,16.85,16.8,16.85,6.94,0,13.89-.18,20.82,.06,14.11,.49,24.97,13.04,23.79,27-.43,5.07-4.12,3.68-6.87,3.69-23.14,.09-46.27,.05-69.41,.05-13.88,0-27.76,0-41.65,0Z"/><path class="cls-2" d="M209.43,276.09c-60.72,0-121.44-.1-182.15,.15-6.64,.03-8.74-1.48-8.71-8.47,.26-79.7,.26-159.4,0-239.09-.02-7.19,2.06-8.95,9.07-8.94,121.69,.2,243.38,.2,365.08,0,6.96-.01,9.11,1.67,9.08,8.91-.26,79.7-.26,159.4,0,239.09,.02,6.93-1.96,8.53-8.66,8.51-61.23-.26-122.46-.15-183.7-.15Z"/><g><g><path class="cls-3" d="M640.8,147.44h-100.76c-2.46,0-4.46,2.17-4.46,4.86v20.15c0,2.68,2,4.86,4.46,4.86h75.83c2.46,0,4.46,2.17,4.46,4.86v33.72c0,2.68-2,4.86-4.46,4.86h-75.83c-2.46,0-4.46,2.17-4.46,4.86v63.58c0,2.68-2,4.86-4.46,4.86h-30.96c-2.46,0-4.46-2.17-4.46-4.86V108.87c0-2.68,2-4.86,4.46-4.86h140.64c2.46,0,4.46,2.17,4.46,4.86v33.72c0,2.68-2,4.86-4.46,4.86Z"/><g class="cls-1"><rect class="cls-3" x="496.46" y="66.86" width="1138.24" height="254.9"/></g></g><g><path class="cls-3" d="M817.27,294.03h-92.43c-1.77,0-3.38-1.14-4.09-2.91l-13.55-33.72c-1.29-3.21,.87-6.8,4.09-6.8h43.6c3.22,0,5.38-3.61,4.08-6.82l-24.24-59.62c-1.57-3.85-6.59-3.85-8.16,0l-43.48,106.98c-.71,1.76-2.31,2.89-4.08,2.89h-37.39c-2.46,0-4.46-2.17-4.46-4.86v-33.72c0-2.68,2-4.86,4.46-4.86h10.33c1.76,0,3.36-1.13,4.08-2.89l57.23-140.8c.71-1.76,2.31-2.89,4.08-2.89h26.6c1.76,0,3.36,1.13,4.08,2.89l73.32,180.3c1.31,3.21-.85,6.82-4.08,6.82Z"/><g class="cls-4"><rect class="cls-3" x="460.45" y="66.86" width="1138.24" height="254.9"/></g></g><g><path class="cls-3" d="M987.87,291.23c0,2.68-2,4.86-4.46,4.86h-57.86c-24.1,0-44.66-9.27-61.69-27.82-14.92-16.25-23.31-35.45-25.16-57.6-2.64-31.58,9.28-62.94,31.66-83.24,15.69-14.23,34.09-21.35,55.19-21.35h57.86c2.46,0,4.46,2.17,4.46,4.86v33.72c0,2.68-2,4.86-4.46,4.86h-57.86c-13.13,0-24.3,5.02-33.53,15.06-9.22,10.04-13.83,22.22-13.83,36.51s4.61,26.47,13.83,36.51c9.22,10.04,20.4,15.06,33.53,15.06h57.86c2.46,0,4.46,2.17,4.46,4.86v33.72Z"/><g class="cls-7"><rect class="cls-3" x="421.29" y="68.91" width="1138.24" height="254.9"/></g></g><g><path class="cls-3" d="M1062.87,296.08h-30.96c-2.46,0-4.46-2.17-4.46-4.86V110.92c0-2.68,2-4.86,4.46-4.86h30.96c2.46,0,4.46,2.17,4.46,4.86v180.3c0,2.68-2,4.86-4.46,4.86Z"/><g class="cls-6"><rect class="cls-3" x="383.6" y="68.91" width="1138.24" height="254.9"/></g></g><g><path class="cls-3" d="M1254.24,296.08h-140.64c-2.46,0-4.46-2.17-4.46-4.86V110.92c0-2.68,2-4.86,4.46-4.86h30.96c2.46,0,4.46,2.17,4.46,4.86V247.8c0,2.68,2,4.86,4.46,4.86h100.76c2.46,0,4.46,2.17,4.46,4.86v33.72c0,2.68-2,4.86-4.46,4.86Z"/><g class="cls-5"><rect class="cls-3" x="348.14" y="68.91" width="1138.24" height="254.9"/></g></g><g><path class="cls-3" d="M1435.65,296.08h-140.64c-2.46,0-4.46-2.17-4.46-4.86V110.92c0-2.68,2-4.86,4.46-4.86h140.64c2.46,0,4.46,2.17,4.46,4.86v33.72c0,2.68-2,4.86-4.46,4.86h-100.76c-2.46,0-4.46,2.17-4.46,4.86v20.15c0,2.68,2,4.86,4.46,4.86h75.83c2.46,0,4.46,2.17,4.46,4.86v33.72c0,2.68-2,4.86-4.46,4.86h-75.83c-2.46,0-4.46,2.17-4.46,4.86v20.15c0,2.68,2,4.86,4.46,4.86h100.76c2.46,0,4.46,2.17,4.46,4.86v33.72c0,2.68-2,4.86-4.46,4.86Z"/><g class="cls-8"><rect class="cls-3" x="302.71" y="68.91" width="1138.24" height="254.9"/></g></g></g></g></svg>