<?xml version="1.0" encoding="utf-8"?>
<!-- Generator: Adobe Illustrator 26.5.0, SVG Export Plug-In . SVG Version: 6.00 Build 0)  -->
<svg version="1.1" id="Livello_2_00000180347406780584964060000003696776176313382031_"
	 xmlns="http://www.w3.org/2000/svg" xmlns:xlink="http://www.w3.org/1999/xlink" x="0px" y="0px" viewBox="0 0 1952.5 361"
	 style="enable-background:new 0 0 1952.5 361;" xml:space="preserve">
<style type="text/css">
	.st0{fill:#CF0403;}
	.st1{fill:#74A53E;}
	.st2{fill:#925E2B;}
	.st3{fill:#D00A09;}
	.st4{fill:#FFFFFF;}
	.st5{fill:#0E0B0B;}
</style>
<g>
	<path class="st0" d="M226.6,359.8c-0.4,0.1-0.8,0.1-1.2,0.2c-0.1-0.1-0.3-0.2-0.4-0.2c-1.2,0.3-2.3,0.4-3.5,0.5
		c-0.2,0-0.4,0.2-0.6,0.3c-1.4,0-2.7,0-4.1,0c-0.2-0.1-0.4-0.3-0.6-0.4c-0.6-0.1-1.2-0.1-1.8-0.2c-1.6-0.4-3.2-0.4-4.8-0.4
		c-1.9,0-3.8-0.4-5.7-0.7c-14.4-2.4-27.6-7.9-40-15.5c-9.7-6-18.5-13.1-26.6-21.2c-12.6-12.5-23-26.7-31.2-42.4
		c-5.4-10.1-9.7-20.7-12.7-31.8c-1.5-5.5-2.7-11.1-3.6-16.7c-1.2-7.7-1.6-15.5-1.2-23.3c0.2-3.7,0.6-7.3,1.2-10.9
		c0.9-5.3,2-10.6,3.3-15.9c2.3-8.9,5.4-17.6,9.7-25.8c3.9-7.6,8.7-14.5,14.6-20.6c7.5-7.7,16.3-13.5,26.3-17.3
		c4.5-1.7,9.1-2.9,13.9-3.8c6.7-1.2,13.5-1.5,20.3-1.2c3.7,0.2,7.3,0.6,10.9,1.2c5.5,0.9,10.9,2.1,16.2,3.8
		c8.8,2.8,17.1,6.4,24.8,11.5c3.2,2.1,6.2,4.4,9,7c2,2,3.9,4.1,5.3,6.5c0.1,0.2,0.3,0.4,0.4,0.5c0.1,0.1,0.3,0.1,0.4,0.1
		c0.4-0.3,0.9-0.6,1.2-1c4-3.6,7.9-7.1,11.9-10.7c0.6-0.6,1.3-1.1,1.9-1.7c0.1-0.1,0.3-0.1,0.4-0.2c0,0.2,0.1,0.5,0,0.7
		c-0.8,2.3-1.6,4.6-2.4,6.9c-0.6,1.7-1.2,3.5-1.8,5.2c-0.2,0.5-0.5,0.9-0.9,1.3c-3.4,2.9-6.8,5.8-10.3,8.8c-0.3,0.2-0.5,0.2-0.8-0.1
		c-1.1-1.2-2.1-2.4-3.2-3.6c-3.7-3.9-8-7-12.6-9.8c-6.5-3.9-13.5-6.6-20.8-8.7c-4.2-1.2-8.4-2-12.7-2.7c-2.2-0.3-4.4-0.5-6.6-0.7
		c-3.2-0.3-6.4-0.4-9.6-0.3c-3.3,0.1-6.5,0.4-9.8,0.8c-4.7,0.6-9.3,1.5-13.9,2.9c-10.8,3.2-20.5,8.4-28.9,16.1
		c-6.6,6-11.8,13-15.8,20.9c-3.5,6.9-6,14.2-7.7,21.7c-1,4.4-1.7,8.8-2.2,13.3c-0.4,3.6-0.6,7.3-0.8,10.9c-0.2,4.5,0,9,0.3,13.5
		c1.3,16.2,5.7,31.6,13,46.1c6.5,12.9,14.8,24.5,24.8,34.9c2.9,3,5.9,5.9,9.1,8.7c0.5,0.4,1,0.7,1.2,1.4c0,0.1,0.2,0.3,0.3,0.3
		c0.8,0.2,1.5,0.8,2.1,1.4c3.5,2.9,7.1,5.6,10.8,8.1c9.2,6.3,18.9,11.5,29.3,15.3c5.7,2.1,11.4,3.7,17.4,4.8c5.5,1,11.1,1.4,16.6,1
		c6.2-0.4,12.2-1.9,17.7-5c0.2-0.1,0.3-0.1,0.4,0.1c0,0.1,0,0.1,0,0.2c-0.1,0.1-0.1,0.3-0.2,0.4c-0.2,0.3-0.4,0.7-0.6,1
		c-2.5,4.1-5.1,8.1-7.6,12.2c-0.2,0.4-0.5,0.8-0.8,1.1c-0.2,0.2-0.5,0.4-0.8,0.5c-1.6,0.1-3.1,0.6-4.8,0.6
		C227.7,359.5,227.1,359.5,226.6,359.8z"/>
	<path class="st1" d="M132.2-1.5c0.1,0.1,0.1,0.3,0.2,0.4c0.1,0.1,0.3,0.1,0.4,0.1c3.5,0.2,7,0.6,10.5,1c10.5,1.4,20.7,3.8,30.5,7.7
		c9.1,3.6,17.7,8.3,25.3,14.5c12.4,10,21.1,22.5,26,37.6c1.5,4.6,2.6,9.2,3.3,14c0.7,4.9,1.1,9.8,1.2,14.8c0,0.5,0,0.9,0,1.4
		c0,0.2-0.1,0.4-0.4,0.5c-0.4,0.1-0.9,0.3-1.3,0.4c-3.5,0.6-7.1,1.2-10.6,1.5c-2.4,0.2-4.9,0.5-7.3,0.7c-2.4,0.2-4.9,0.2-7.3,0.2
		c-2.8,0-5.6,0-8.5-0.1c-3.2-0.1-6.4-0.4-9.6-0.8c-2.4-0.3-4.8-0.6-7.2-1c-4.7-0.8-9.4-1.8-14.1-3.1c-8-2.2-15.8-5.2-23.2-8.9
		c-8.3-4.2-15.9-9.3-23-15.3c-10.4-8.8-18.9-19.2-26-30.8c-5.6-9.2-10.1-19-13.7-29.1c-0.1-0.2-0.1-0.4-0.2-0.7
		c-0.1-0.4,0.1-0.8,0.5-0.9c1-0.2,2.1-0.4,3.1-0.6c2.6-0.4,5.3-0.9,7.9-1.3c1.7-0.2,3.3-0.4,5-0.6c2-0.2,4.1-0.5,6.1-0.7
		c0.3,0,0.6-0.1,0.9-0.1c3.3-0.2,6.7-0.6,10-0.6c0.6,0,1.2-0.1,1.8-0.1c0.1,0,0.2-0.2,0.4-0.3C119.4-1.5,125.8-1.5,132.2-1.5z
		 M117,4.3c-4.4,0-8.7,0.5-13,0.7c-2.1,0.1-4.1,0.3-6.2,0.5c-2,0.2-3.9,0.5-5.9,0.8c-2,0.3-4.1,0.7-6.1,1c-0.1,0-0.3,0.1-0.4,0.2
		C85.1,7.6,84.9,8,85,8.2c0.2,0.6,0.5,1.3,0.7,1.9c2.2,5.5,4.7,10.7,7.6,15.8c7.8,13.7,17.6,25.6,29.7,35.6
		c6.5,5.3,13.4,9.8,20.9,13.5c6,3,12.3,5.3,18.8,7.2c6.7,2,13.6,3.4,20.6,4.3c3.3,0.4,6.7,0.8,10,0.9c0.8,0,1.5,0.1,2.3,0.1
		c3,0,6.1,0.1,9.1,0c3-0.1,6.1-0.3,9.1-0.6c2.9-0.3,5.7-0.7,8.6-1.1c0.3,0,0.6-0.2,0.9-0.3c0.1-0.1,0.2-0.2,0.3-0.3
		c0.1-0.3,0.1-0.6,0.1-0.9c0-1.9-0.2-3.8-0.4-5.7c-0.3-3.4-0.9-6.7-1.7-9.9c-2.3-9.5-6.2-18.3-11.7-26.4c-6.2-9-13.8-16.4-23.3-22
		c-4-2.4-8.2-4.4-12.5-6.2c-10.2-4.3-20.8-7-31.7-8.3c-1.6-0.2-3.2-0.4-4.8-0.6c-2.9-0.4-5.8-0.5-8.7-0.7C125.1,4.4,121,4.4,117,4.3
		z"/>
	<path class="st2" d="M209.8,359.6c1.6,0,3.2,0,4.8,0.4c0.6,0.1,1.2,0.1,1.8,0.2c0.2,0,0.4,0.2,0.6,0.4c-1.5,0-3.1,0-4.6,0
		c0-0.1,0-0.3-0.1-0.4c-0.2-0.1-0.4-0.2-0.6-0.2C211,359.9,210.4,359.7,209.8,359.6z"/>
	<path class="st2" d="M221,360.5c0.2-0.1,0.4-0.3,0.6-0.3c1.2-0.1,2.4-0.2,3.5-0.5c0.1,0,0.3,0.1,0.4,0.2c-0.2,0.3-0.2,0.5,0.1,0.6
		C224.1,360.5,222.6,360.5,221,360.5z"/>
	<path class="st2" d="M243.5,126.8c-1.1-1.9-1.9-4-2.7-6c-2.3-5.7-4-11.5-5-17.5c-0.8-4.7-1.2-9.4-1.1-14.1c0-3.2,0.2-6.4,0.7-9.6
		c0.8-5.7,2.3-11.2,4.4-16.5c1.5-3.6,3.2-7.1,5.3-10.4c0.5-0.8,1-1.5,1.5-2.3c1.8-2.4,1.2-2.1,3.8-1c6.3,2.8,12.5,5.6,18.8,8.4
		c0.3,0.2,0.7,0.3,1,0.5c0.2,0.1,0.2,0.5,0,0.6c-0.3,0.3-0.7,0.6-1,0.9c-2.1,1.9-4.2,3.7-6.3,5.7c-4.7,4.6-8.9,9.7-12.3,15.3
		c-3.2,5.3-5.5,10.8-6.9,16.8c-0.6,2.7-1.1,5.4-1.3,8.1c-0.1,1.4-0.3,2.9-0.3,4.3c0,4.7,0.5,9.3,1.5,13.8c0.3,1.3,0.7,2.5,0.8,3.8
		c-0.2,0-0.3,0-0.5,0c0,0-0.1-0.2-0.1-0.2C243.9,127.2,243.9,126.9,243.5,126.8z"/>
	<path class="st1" d="M244,127.6c0.2,0,0.3,0,0.5,0c0.1,0,0.1,0.1,0.2,0.1c0.3,0.6,0.4,1.2,0.5,2C244.5,129.1,244.1,128.5,244,127.6
		z"/>
	<path class="st2" d="M226.6,359.8c0.5-0.3,1-0.2,1.5-0.1C227.7,359.8,227.2,360,226.6,359.8z"/>
	<path class="st1" d="M243.5,126.8c0.3,0.1,0.4,0.4,0.4,0.7C243.6,127.3,243.5,127.1,243.5,126.8z"/>
</g>
<g>
	<g>
		<path class="st3" d="M1216.8,89c2.6,0.1,5.7,0.2,8.6,1.6c5.6,2.7,8.7,7,9.2,13.3c0.4,6.2-1.5,11.6-5.4,16.4c-2.7,3.3-6,6-9.6,8.3
			c-1.8,1.2-3.6,2.3-5.4,3.4c-0.7,0.5-0.7,1.1-0.4,1.8c3.3,7.1,7.6,13.6,12,20c0.4,0.6,1,1,1.4,1.5c0.4,0.5,0.7,0.4,1.2-0.1
			c4.1-5,6.6-10.9,8.4-17c0.3-0.9,0.3-1.9,0.3-2.8c0.1-1.3-0.5-2.3-1.6-3c-0.8-0.5-1.7-0.8-2.5-1.2c-1.6-0.7-1.8-2-1.7-3.5
			c0.1-0.7,0-1.5,0.3-2.1c0.5-0.7,1.3-1.3,2.1-1.8c0.4-0.2,0.9-0.2,1.4-0.2c8.7,0.9,17.5,1,26.2,0c1.3-0.1,2.9,1.2,3,2.5
			c0.1,1.2,0.1,2.3-0.1,3.5c0,0.4-0.5,0.9-0.8,1.1c-1.3,0.5-2.7,0.9-4.1,1.1c-3.7,0.7-6.6,2.6-8.6,5.7c-1.4,2.2-2.8,4.4-4,6.7
			c-3.5,6.4-7.2,12.8-11.6,18.7c-0.7,0.9-0.6,1.6,0.3,2.4c2.4,2.3,4.9,4.4,7.9,6c3.5,1.9,7.1,2.3,11,0.9c2.9-1,5.6-2.5,8.3-4
			c0.8-0.5,1.6-1,2.5-1.3c0.4-0.1,1,0,1.3,0.3c0.9,0.8,1.6,1.7,2.4,2.6c2.2,2.6,2.2,2.9-0.4,5c-3.7,3-7.4,5.9-11.1,8.8
			c-7.3,5.5-14.8,5.4-22.5,1.1c-3.5-2-6.7-4.4-9.7-7.1c-1.2-1.1-1.9-1.1-3.1-0.3c-1.7,1.2-3.4,2.5-5.2,3.7c-8.6,5.8-18.1,8-28.4,6.4
			c-12.1-1.9-18.7-12.2-19.7-19.8c-1.1-8.6,1.3-15.9,7.1-22.2c2.9-3.2,6.3-5.7,9.9-8c2.6-1.7,5.3-3.2,7.9-4.8
			c0.7-0.4,1.1-1.7,0.8-2.5c-1-2.9-2-5.8-3-8.7c-1.2-3.2-1.3-6.5-1.4-9.8c-0.1-4.4,1.2-8.4,3.9-11.9
			C1199.3,92.5,1206.9,88.9,1216.8,89z M1201.1,175.9c5.1-0.4,10.3-2.5,14.5-6.6c0.3-0.2,0.3-0.9,0.2-1.3c-0.2-0.6-0.7-1.2-1.1-1.8
			c-5.2-7-9.8-14.4-13.9-22.1c-0.4-0.8-0.9-1.6-1.4-2.4c-0.4-0.6-1.3-0.8-1.8-0.5c-1.6,1-3.2,2-4.7,3.2c-3.4,2.7-6.1,5.9-7.6,10
			c-1.3,3.7-1.4,7.4-0.1,11.1C1187.2,171.8,1193.5,176,1201.1,175.9z M1205.3,109.1c0.1,1.5,0.2,2.9,0.4,4.2
			c0.4,2.1,0.9,4.1,1.6,6.1c1.6,4.6,1.6,5,6.2,2.1c1.4-0.9,2.7-1.9,3.9-3c5-4.3,5.3-10.8,3.5-15.5c-2.3-5.9-8.2-6.9-12.5-3.1
			c-1.4,1.3-2.3,2.9-2.7,4.8C1205.5,106.4,1205.4,107.8,1205.3,109.1z"/>
		<path class="st3" d="M433.5,136.2c5.4-0.1,11.5-0.2,17.7-0.3c1.1,0,2.3,1,2.5,2.2c0.1,0.9,0.2,1.9,0.1,2.8c0,1.2-0.9,2.1-2.2,2.4
			c-3,0.7-6,1.4-8.9,2.2c-0.9,0.3-1.7,1-1.8,2c-0.2,1.4-0.3,2.8-0.3,4.2c0,7.8,0.1,15.6,0.1,23.4c0,1.9,0,3.8-0.1,5.7
			c0,0.4-0.4,0.9-0.7,1.1c-0.6,0.4-1.3,0.7-1.9,0.8c-9.3,1.7-18.4,4.5-27.8,5.6c-10.6,1.2-21.2,1.3-31.6-2
			c-15.6-4.9-25.1-15.4-28.8-31.2c-2.3-9.9-2.1-19.8,0.7-29.5c5.4-18.3,17.7-29.7,36-34.7c3.7-1,7.4-1.5,11.2-1.7
			c8.8-0.5,17.5,0.3,26.1,2c4.4,0.9,8.8,1.7,13.2,2.6c0.6,0.1,1.4,0.5,1.4,1.4c-0.2,8,0.5,16.1,0.9,24.1c0,0.5,0,1-0.2,1.4
			c-0.3,0.6-0.8,1.3-1.3,1.5c-1.8,0.9-3.7,0.8-5.5,0.3c-0.4-0.1-0.9-0.5-1.1-0.8c-0.6-1.5-1.1-3.1-1.6-4.7c-0.8-2.2-1.6-4.4-2.5-6.6
			c-1.2-3-3.4-5.1-6.2-6.6c-4.2-2.3-8.9-3.3-13.5-4c-6.2-0.9-12.3-0.4-18.3,1.5c-5.7,1.9-10.6,5.1-14.4,9.9c-3.1,4-5.4,8.3-6.7,13.2
			c-2.7,9.3-2.8,18.7-0.5,28.1c3,12,10.9,19.5,22.4,23.6c3.9,1.4,7.9,1.7,11.9,1.9c7.2,0.3,14.1-0.7,20.9-3.3c1-0.4,1.5-1,1.7-2
			c0.1-0.5,0.2-0.9,0.2-1.4c0.1-7.3,0.1-14.7,0.1-22c0-0.2-0.1-0.5-0.1-0.7c-0.2-1.8-1.2-3.1-3-3.5c-2.5-0.6-5.1-1.2-7.6-1.7
			c-2.2-0.5-3-1.7-2.7-4.2c0.1-0.5,0.2-0.9,0.4-1.4c0.4-0.9,1.1-1.6,2.1-1.8c1.2-0.2,2.3-0.2,3.5-0.2
			C422.3,135.9,427.5,136,433.5,136.2z"/>
		<path class="st3" d="M1700.5,172.5c3.5,0.2,8,0.4,12.5,0.6c1.9,0.1,3.7,0.8,5.4,1.6c3.2,1.5,5.3,4,6.2,7.3c2.2,8,0.3,15-5.6,20.8
			c-3.2,3.2-7.1,5.6-11.3,7.2c-10.8,4.3-22,5.4-33.4,2.9c-4.8-1.1-8.8-3.4-11.8-7.3c-2.6-3.3-3.8-7.1-2.4-11.3
			c0.5-1.4,1.1-2.6,2.3-3.5c1.9-1.4,3.8-2.8,5.8-4.1c2.8-2,2.9-2.1,0.4-4.5c-1.8-1.7-3-3.6-3.5-6c-0.4-2.2,0-4.3,1.7-5.8
			c2.4-2.2,4.9-4.4,7.4-6.6c0.5-0.5,0.5-1.3,0-1.8c-0.5-0.5-1.1-0.9-1.6-1.4c-0.7-0.7-1.4-1.3-2-2c-2-2.1-3.4-4.7-4-7.4
			c-3.2-14,3.2-25.3,15.3-29.8c5.9-2.2,12-2.9,18.2-1.2c6.3,1.7,12.6,1.9,19,1.5c1.6-0.1,3.3-0.2,5-0.2c1.6,0,3,2.2,2.3,3.6
			c-0.9,1.9-1.8,3.9-2.7,5.8c-0.5,0.9-1.3,1.3-2.3,1.2c-0.9,0-1.9-0.1-2.8-0.1c-2.1,0-2.8,0.7-2.1,2.4c1.1,2.9,1.5,5.9,1.5,9
			c-0.2,8.8-4.5,15.3-12,19.5c-3.5,2-7.4,3.2-11.5,3.3c-2.8,0.1-5.7,0-8.5,0c-2.5,0-4.3,1.3-5.1,4c-0.1,0.4,0.1,1.1,0.4,1.2
			c0.6,0.3,1.3,0.5,2,0.6C1688.7,172.8,1694.1,173.1,1700.5,172.5z M1694.8,185.8C1694.8,185.8,1694.8,185.8,1694.8,185.8
			c-2.6-0.1-5.2-0.1-7.8-0.1c-0.5,0-0.9,0-1.4,0c-2.3-0.1-4.2,0.5-5.6,2.3c-1.3,1.7-2.8,3.2-4,4.9c-1.8,2.7-1.2,5.6,1.2,7.5
			c1.5,1.2,3.2,2,5,2.6c6.6,1.9,13.1,1.3,19.6-0.6c2.7-0.8,5.3-2.1,7.3-4.2c1.9-2,2.9-4.3,2.8-7c-0.1-2.3-2-4.6-4.2-5.1
			c-1.2-0.2-2.3-0.4-3.5-0.4C1700.9,185.8,1697.9,185.8,1694.8,185.8z M1702.2,144c-0.1-1.9-0.2-3.8-0.4-5.7
			c-0.2-2.2-1.1-4.1-2.2-5.9c-1.8-2.7-4.3-4.3-7.6-4.6c-3.4-0.3-7.8,1.5-9.5,6c-2.4,6-1.8,12.1,0.6,17.9c0.5,1.3,1.5,2.4,2.4,3.4
			c3.9,4.1,12.1,3.8,15-2.3c0.7-1.5,1.3-3,1.4-4.7C1702.1,146.8,1702.2,145.4,1702.2,144z"/>
		<path class="st3" d="M1403.2,111.1c0.1,2.6,0.3,6.6,0.5,10.6c0,1.3-1.3,2.9-2.6,2.9c-1.6,0.1-3.3,0-4.9-0.1c-0.4,0-0.9-0.5-1-0.9
			c-0.6-2-1.1-4.1-1.7-6.1c-0.7-2.3-1.4-4.5-2.2-6.7c-1.3-3.5-3.8-5.9-7-7.7c-2.9-1.7-6.1-2.4-9.4-3c-6.6-1.3-13.2-0.8-19.6,1.3
			c-7.8,2.5-13.4,7.8-17.2,15c-2.1,4-3.4,8.4-4,12.8c-0.9,7.6-0.9,15.1,1.3,22.5c4.2,13.8,14.9,22.9,30,24.3
			c8.1,0.7,16-0.6,23.6-3.7c3.5-1.4,6.9-3,10.4-4.6c1.2-0.5,2.2-0.2,2.9,1.1c0.8,1.4,1.6,2.9,2.4,4.3c0.4,0.7,0.1,2.2-0.5,2.6
			c-10.3,6.6-21.3,11.3-33.5,12.8c-8.3,1-16.5,0.4-24.5-2.4c-12.8-4.5-21.9-12.9-26.7-25.7c-4.5-11.9-5.1-24.1-1.5-36.2
			c5.2-17.5,17.2-28.3,34.6-33.3c4.3-1.2,8.8-1.7,13.3-1.9c12-0.5,23.5,1.7,34.8,5.6c2.1,0.7,2.4,0.5,2.4,3.6
			C1403.2,102.1,1403.2,105.8,1403.2,111.1z"/>
		<path class="st3" d="M807.8,131c0,11.8,0,23.6,0,35.5c0,1.6,0.3,3.3,0.5,4.9c0.1,0.8,1.3,1.7,2.1,1.6c1.6-0.1,3.3-0.3,4.9-0.5
			c2.2-0.2,3.6,1,3.7,3.2c0,0.5,0.1,1,0,1.4c-0.2,0.6-0.4,1.4-0.9,1.8c-0.7,0.6-1.7,0.9-2.6,1.2c-6.1,1.8-12.1,4.1-17.7,7.1
			c-2.3,1.2-4.7-0.4-5-3.1c-0.1-0.7,0-1.4-0.2-2.1c-0.1-0.3-0.9-0.6-1.1-0.5c-1.3,0.6-2.5,1.3-3.6,2.1c-9.4,7.4-28.2,5.9-35.2-9.9
			c-3.4-7.5-3.9-15.5-2.6-23.6c1.9-11.8,8.5-20.3,18.4-26.4c6.5-3.9,13.5-5.6,21.1-3.5c0.9,0.3,1.9,0.2,2.8,0.3
			c0.5,0.1,1.5-0.8,1.5-1.2c-0.1-5,0.3-9.9-0.4-14.9c-0.1-0.6-1.4-1.8-2-1.7c-1.6,0.1-3.3,0.3-4.9,0.5c-2,0.2-3.5-1.1-3.7-3.4
			c0-0.5,0-0.9,0-1.4c0-1.1,0.5-1.8,1.5-2.2c0.2-0.1,0.4-0.2,0.7-0.3c6.6-1.9,12.9-4.5,19-7.7c1.4-0.7,2.7-0.5,3.9,0.6
			c0.7,0.7,1.2,1.5,1.2,2.5c-0.1,2.6-0.2,5.2-0.3,7.8c-0.4,10.6-0.8,21.3-1.2,31.9C807.5,131,807.6,131,807.8,131z M793.9,151.7
			c-0.2-4.6-0.3-8.6-0.5-12.6c-0.1-2.3-1.1-4.1-2.7-5.6c-4.5-4.3-13-5.5-18.9-1.1c-3.8,2.8-5.9,6.7-6.8,11.3
			c-1.1,5.6-1.1,11.3,0,16.9c0.7,3.5,2.1,6.7,4.5,9.5c3.4,3.8,7.5,5.5,12.6,4.8c5.9-0.7,10.5-5.1,11.1-11.1
			C793.6,159.6,793.7,155.4,793.9,151.7z"/>
		<path class="st3" d="M1550.8,156.7c0,5,0,9.9,0,14.9c0,1.4,0.1,2.8,0.4,4.2c0.1,0.6,0.4,1.3,1.2,1.6c2,0.9,4,1.3,6.1,1.8
			c2.3,0.5,2.9,1.5,2.7,4.2c0,0.5,0,1-0.2,1.4c-0.4,0.9-1.1,1.6-2.1,1.8c-0.7,0.1-1.4,0.2-2.1,0.1c-8-0.9-16.1-0.6-24.1,0
			c-0.9,0.1-1.9,0.2-2.8,0.2c-2.4,0.1-3.8-1.4-3.9-4c-0.1-1.6,0.6-2.9,2-3.4c2-0.7,4-1.4,6-2.1c1-0.3,1.5-1.1,1.6-2.1
			c0.2-2.8,0.6-5.7,0.6-8.5c0.1-7.6,0-15.1,0-22.7c0-1.2-0.2-2.4-0.3-3.5c-0.5-6.4-6-10.2-12.9-8c-5.9,1.9-9.6,5.9-10.3,12.3
			c-0.4,3.5-0.8,7.1-0.6,10.6c0.2,5.9,0.5,11.8,0.6,17.7c0,2.8,1.5,4.3,4,5c1.6,0.4,3.2,0.9,4.8,1.3c1,0.3,1.5,1.1,1.6,2.1
			c0.1,0.5,0,0.9,0,1.4c-0.1,2.7-1.3,3.9-4,3.7c-9-0.9-18-0.7-27,0.1c-0.7,0.1-1.4-0.1-2.1-0.2c-1-0.2-1.7-0.9-2-1.8
			c-0.3-0.9-0.3-1.8-0.4-2.8c0-1,0.5-1.9,1.5-2.2c1.8-0.6,3.6-1,5.4-1.6c1.7-0.5,2.8-1.5,2.9-3.5c0.5-6.6,0.9-13.2,0.8-19.9
			c-0.1-4.7-0.1-9.5-0.3-14.2c0-1.4-0.3-2.8-0.4-4.2c-0.1-0.9-1-1.7-1.9-1.7c-1.2,0-2.4,0-3.5,0.1c-0.9,0-1.9,0.1-2.8,0
			c-0.7,0-2-1-2-1.7c-0.1-1.4-0.2-2.8-0.1-4.2c0-0.3,0.5-0.8,0.8-1c0.6-0.3,1.3-0.4,2-0.6c6.4-1.8,12.6-4.1,18.4-7.3
			c2.2-1.2,4.7,0.4,4.9,3.1c0.1,0.7,0.1,1.4,0.2,2.1c0,0.4,1.5,0.8,1.9,0.6c0.9-0.7,1.9-1.4,2.8-2.1c6.7-4.7,14-5.7,21.6-2.9
			c5.5,2,9,6,10.2,11.8c0.7,3.5,1.1,7,1,10.6c-0.1,4.5,0,9,0,13.5C1550.8,156.7,1550.8,156.7,1550.8,156.7z M1514.1,126.8
			c-0.1-0.2-0.3-0.3-0.4-0.5c-0.2,0.1-0.3,0.3-0.5,0.4c0.2,0.2,0.4,0.3,0.7,0.5C1513.9,127.1,1514,127,1514.1,126.8z"/>
		<path class="st3" d="M575.2,145.7c-0.3,7.3-0.3,14.7,0.2,22c0.1,0.9,0.2,1.9,0.3,2.8c0.2,1.4,1.5,2.4,3.1,2.3
			c1.4-0.1,2.8-0.3,4.2-0.5c1.1-0.1,1.9,0.5,2.5,1.2c1.1,1.4,0.9,3.1,0.5,4.8c-0.1,0.4-0.5,0.8-0.9,1c-0.8,0.4-1.7,0.7-2.7,1
			c-5.5,1.4-10.8,3.5-15.8,6.2c-1.7,0.9-3.2,1.9-5.2,0.5c-1.7-1.2-1.6-2.7-1.7-4.3c0-0.6-1-1.2-1.5-1c-0.4,0.2-0.9,0.4-1.2,0.7
			c-1,0.7-1.9,1.4-2.9,2.1c-3.4,2.4-7.2,3.5-11.3,3.4c-3.3-0.1-6.6-0.1-9.8-1.4c-5.5-2.3-8.7-6.4-9.8-12.1c-0.4-2.3-0.5-4.7-0.5-7.1
			c-0.1-6.6,0.1-13.3-0.1-19.9c-0.1-4.3-0.4-8.5-0.7-12.7c-0.1-1.3-0.8-2.2-2.1-2.5c-1.6-0.4-3.2-0.7-4.9-1
			c-1.3-0.3-3.2,0.3-3.7-1.3c-0.5-1.5-0.3-3.2-0.2-4.9c0-0.3,0.5-0.8,0.9-1c0.7-0.2,1.4-0.3,2.1-0.3c6.1-0.6,12.2-1.1,18.3-2.5
			c0.9-0.2,1.9-0.1,2.8-0.1c1.1,0,2.8,1.8,2.8,2.8c0,1.2-0.1,2.4-0.2,3.5c-0.3,8.3-0.8,16.5-0.9,24.8c-0.1,5,0.4,9.9,0.7,14.9
			c0.1,1.4,0.4,2.8,1.2,4c1.5,2.3,3.5,3.7,6.3,4c3.9,0.4,7.5-0.4,10.7-2.9c2.6-2,4.2-4.5,4.6-7.7c0.3-2.1,0.5-4.2,0.5-6.4
			c0-7.3-0.2-14.7-0.3-22c0-0.5,0-0.9-0.1-1.4c-0.2-2-0.9-2.8-3.1-3.2c-1.9-0.3-3.8-0.5-5.6-0.7c-2.3-0.3-2.6-0.7-2.6-3.2
			c0-0.7,0-1.4,0.1-2.1c0-1,0.8-1.7,1.7-1.9c3.3-0.4,6.6-0.8,9.9-1.1c3.3-0.3,6.6-0.6,9.8-1.5c0.9-0.2,1.9-0.1,2.8,0
			c1.1,0.1,2.8,1.8,2.8,2.9c-0.2,3.1-0.3,6.1-0.4,9.2C575.4,137.2,575.3,141.5,575.2,145.7z"/>
		<path class="st3" d="M953.6,146.4c0.1,7.3,0.2,14.2,0.3,21c0,1.2,0.2,2.3,0.4,3.5c0.1,0.8,1.3,1.8,2,1.7c1.4-0.1,2.8-0.2,4.2-0.4
			c2.9-0.3,4.3,1.1,4.3,4.2c0,1.5-0.5,2.4-1.7,2.8c-0.2,0.1-0.4,0.2-0.7,0.3c-0.4,0.2-0.9,0.4-1.3,0.5c-6,1.4-11.6,3.9-17.1,6.8
			c-3,1.6-5.7,0.1-5.9-3.3c0-0.7,0-1.4-0.1-2.1c-0.1-0.6-0.4-0.8-1-0.4c-1.8,1.2-3.5,2.4-5.3,3.6c-2.8,1.8-5.9,2.9-9.3,3
			c-3.5,0-7,0.1-10.5-1.2c-6.2-2.3-9.5-6.8-10.5-13.1c-0.4-2.1-0.3-4.2-0.3-6.4c0-6.9,0-13.7,0-20.6c0-3.5-0.2-7.1-0.6-10.6
			c-0.3-3.1-0.9-3.7-3.8-4.2c-2.1-0.4-4.2-0.7-6.3-1.1c-0.4-0.1-0.8-0.6-0.9-1c-0.1-1.6-0.1-3.3,0-4.9c0-0.3,0.6-0.8,0.9-0.9
			c2.6-0.3,5.2-0.4,7.8-0.8c4.4-0.7,9-0.8,13.3-2.1c1.5-0.4,2.8,0.2,3.8,1.3c0.4,0.5,0.7,1.2,0.9,1.8c0.1,0.2,0.1,0.5,0,0.7
			c-1.5,12.3-1.3,24.6-1,36.9c0,1.9,0.1,3.8,0.4,5.7c0.2,1.4,0.8,2.7,1.4,4c0.8,1.5,2.1,2.6,3.7,3.2c7.3,2.6,16.5-1.9,17.7-9.5
			c0.3-1.9,0.8-3.7,0.8-5.6c0-7.6-0.2-15.1-0.3-22.7c0-0.9-0.2-1.9-0.4-2.8c-0.2-1-0.8-1.8-1.8-1.9c-2.3-0.4-4.7-0.7-7-1
			c-1.7-0.2-2.3-0.9-2.3-2.9c0-0.9,0-1.9,0.2-2.8c0.1-0.7,0.5-1.3,1.4-1.4c3.3-0.4,6.6-0.8,9.9-1.2c3.5-0.4,7.1-0.7,10.5-1.6
			c0.7-0.2,1.4-0.1,2.1,0c1.4,0.1,3.2,2,3.1,3.4C954.3,131.7,953.9,139.3,953.6,146.4z"/>
		<path class="st3" d="M715.8,180.7c-2.3,1.4-4.5,2.8-6.7,4.2c-5.1,3.2-10.8,3.6-16.5,2.4c-5.4-1.1-9.4-4.6-11.5-9.7
			c-3.9-9.4,0.5-18.7,6.5-22.8c2.3-1.6,4.8-3,7.4-4.2c6.2-2.9,12.4-5.8,18.7-8.6c1-0.5,1.5-1.2,1.5-2.2c-0.1-1.9-0.3-3.8-0.8-5.6
			c-0.8-2.8-2.9-4.3-5.6-4.8c-4.8-0.9-8.9,0.4-12.1,4.2c-1.9,2.2-3.2,4.7-4.4,7.2c-0.8,1.6-1.6,2-3.4,1.8c-0.5-0.1-0.9-0.1-1.4-0.2
			c-2.4-0.5-3.3-1.7-3-3.9c0.5-3.7,1-7.5,1.5-11.2c0.1-1,0.8-1.7,1.7-2.2c6.1-2.8,12.4-4.7,19-5.5c4.3-0.5,8.5-0.2,12.6,1.2
			c5.3,1.9,8.7,5.5,10.2,10.9c1,3.5,1.2,7,1.1,10.6c-0.2,6.4-0.4,12.8-0.6,19.2c-0.1,3.3,0,6.6,0.1,9.9c0,0.7,0.3,1.4,0.5,2.1
			c0.3,1,1.7,1.7,2.9,1.4c1.9-0.4,3.4-1.7,5-2.6c1.1-0.6,2.2-0.4,3.1,0.7c0.6,0.7,1.2,1.5,1.7,2.3c0.4,0.6,0.6,1.4,0,2
			c-3.5,3.2-7,6.3-10.7,9.3c-0.7,0.6-1.7,0.8-2.6,1c-0.7,0.2-1.4,0.2-2.1,0.2c-4.6,0.3-8.4-1.1-10.6-5.5
			C716.9,181.6,716.3,181.2,715.8,180.7z M715.7,159.8c-0.1-2.4-0.2-4.5-0.3-6.6c0-0.5-1.1-1.3-1.5-1.1c-4.8,1.9-9.4,4.3-13.7,7.1
			c-1,0.6-1.8,1.5-2.6,2.4c-3,3.5-3,8.8-0.1,12.3c1.3,1.5,2.8,2.4,4.9,2.4c4.5,0,8.1-2,11.1-5.3c1-1,1.5-2.4,1.7-3.8
			C715.3,164.6,715.5,162,715.7,159.8z"/>
		<path class="st3" d="M860.8,180.6c-1.9,1.2-3.7,2.3-5.4,3.5c-5.2,3.5-11,4.3-17,3.3c-6-1-10.2-4.6-12.5-10.4
			c-3.2-8-0.1-17.9,7.1-22.6c2.4-1.5,4.9-2.9,7.4-4.1c5.7-2.7,11.5-5.4,17.4-8c2.5-1.1,2.7-1.7,2.4-4.4c-0.2-1.4-0.5-2.8-0.9-4.1
			c-0.8-2.5-2.7-3.9-5.1-4.4c-4.7-1-9,0.1-12.2,3.8c-1.4,1.6-2.5,3.4-3.6,5.2c-0.6,1-1,2.2-1.7,3.1c-0.4,0.5-1.2,1-1.8,1
			c-1.4-0.1-2.8-0.4-4.2-0.8c-0.6-0.1-1.5-1.7-1.4-2.3c0.2-1.6,0.5-3.3,0.8-4.9c0.1-0.9,0.2-1.9,0.3-2.8c0.5-7,0.2-6,6.4-8.5
			c4.4-1.8,9-2.9,13.6-3.7c4.2-0.7,8.4-0.5,12.6,0.7c6.6,1.9,10.5,6.1,11.8,12.8c0.6,3.3,0.9,6.5,0.8,9.9c-0.2,5.7-0.4,11.3-0.6,17
			c-0.1,3.3-0.1,6.6-0.1,9.9c0,1.2,0.4,2.3,0.7,3.4c0.3,1,1.8,1.6,2.9,1.4c1.9-0.4,3.4-1.7,5-2.6c1.1-0.6,2.1-0.4,3.1,0.7
			c0.6,0.7,1.2,1.5,1.7,2.3c0.4,0.6,0.6,1.4,0,1.9c-3.3,3-6.7,6-10,8.9c-1.1,1-2.4,1.4-3.9,1.5c-5.4,0.6-9.9-0.6-12.5-5.9
			C861.6,181.3,861.2,181,860.8,180.6z M860.6,159.1c0,0-0.1,0-0.1,0c0-1.6,0-3.3,0-4.9c0-2-1-2.7-2.6-1.9
			c-3.6,1.8-7.1,3.6-10.6,5.5c-1.4,0.8-2.8,1.8-3.9,2.9c-3,2.9-3.7,6.5-2.4,10.4c1.3,3.9,4.1,5.4,7.5,5.1c4-0.3,7.1-2.2,9.8-4.9
			c1.2-1.2,1.9-2.7,2-4.4C860.3,164.3,860.4,161.7,860.6,159.1z"/>
		<path class="st3" d="M1113,153.9c-0.1,4.5-0.2,9-0.2,13.5c0,1.9,0.2,3.8,0.5,5.6c0.2,1.4,1.9,2.3,3.3,1.6c1.7-0.8,3.3-1.7,5-2.6
			c0.8-0.4,1.9-0.2,2.5,0.5c0.6,0.7,1.2,1.5,1.7,2.2c0.1,0.2,0.4,0.4,0.3,0.6c0,0.7,0.1,1.6-0.3,2c-3.1,2.9-6.3,5.7-9.5,8.5
			c-1.3,1.1-2.8,1.7-4.6,1.7c-0.5,0-0.9,0.1-1.4,0.1c-4.3,0.2-7.9-1.1-10.1-5.2c-0.1-0.2-0.2-0.4-0.4-0.6c-0.8-1.1-1.4-1.2-2.3-0.7
			c-1.2,0.8-2.4,1.5-3.6,2.3c-4.9,3.5-10.3,4.5-16.1,4c-7.1-0.6-12.7-5.5-14.7-12.5c-2.1-7.5,1.3-17,8.2-21c2.2-1.3,4.5-2.6,6.8-3.7
			c5.5-2.6,11.2-5.2,16.7-7.7c0.8-0.4,1.7-0.8,2.5-1.3c0.3-0.2,0.6-0.8,0.6-1.2c-0.1-1.9-0.2-3.8-0.7-5.6c-0.6-2.8-2.7-4.5-5.4-5.1
			c-4.7-1-8.9,0.2-12.3,3.8c-2.1,2.3-3.5,5-4.8,7.8c-0.6,1.2-1.6,1.6-2.9,1.5c-0.5,0-0.9-0.1-1.4-0.2c-2.8-0.5-3.6-1.5-3.3-4.3
			c0.2-1.9,0.5-3.8,0.7-5.6c1-8,0.2-6.5,7.3-9.4c4.2-1.7,8.6-2.7,13-3.4c4.5-0.7,9-0.5,13.3,1c5.3,1.8,8.8,5.3,10.5,10.7
			c0.9,3,1.1,6,1.1,9.1C1113.2,144.9,1113.1,149.4,1113,153.9C1113,153.9,1113,153.9,1113,153.9z M1098.6,159.6
			c-0.1-2.9-0.2-4.8-0.3-6.6c0-0.6-1-1.2-1.6-1c-5.1,2-9.8,4.5-14.3,7.5c-0.8,0.5-1.4,1.2-2,2c-2.8,3.3-3.1,8.3-0.5,11.8
			c1.3,1.8,3,2.9,5.4,2.9c4.6,0,8.2-2.1,11.1-5.4c0.7-0.8,1.3-2,1.4-3.1C1098.1,164.7,1098.3,161.7,1098.6,159.6z"/>
		<path class="st3" d="M1448.4,118.8c3.8,0.2,7.3,0.3,10.7,1.4c9.8,3.1,16.2,9.6,19.1,19.3c2.7,9.1,2.5,18.2-0.7,27.2
			c-4.2,11.6-12.4,18.6-24.6,21.1c-6,1.2-11.8,0.9-17.5-0.6c-9.3-2.6-15.6-8.5-19-17.5c-1.4-3.6-1.9-7.3-2.2-11.1
			c-0.4-6.2-0.1-12.3,2-18.2c4.7-12.7,13.9-19.8,27.5-21.3C1445.3,118.9,1447,118.9,1448.4,118.8z M1464,155.5
			c-0.4-3.6-0.6-7.1-1.2-10.6c-0.9-5-2.9-9.5-6.8-12.9c-2.5-2.3-5.4-3.8-8.8-4.1c-5.5-0.5-12.3,2.2-15.1,9.5
			c-0.8,2.2-1.4,4.5-1.6,6.9c-0.5,5.2-0.4,10.4,0.2,15.6c0.5,4,1.5,7.9,3.6,11.4c3.3,5.7,8,8.4,14.6,7.9c3.5-0.2,6.4-1.6,8.9-3.9
			c2.9-2.7,4.4-6.1,5.1-9.9C1463.5,162.1,1463.7,158.8,1464,155.5z"/>
		<path class="st3" d="M1878.4,152.6c0.2,5.5-0.7,11.1-3,16.3c-4.6,10.2-12.3,16.5-23.3,18.8c-5.7,1.2-11.3,1.1-16.9-0.2
			c-8.3-2-14.5-6.6-18.5-14.1c-1.9-3.6-3.1-7.5-3.6-11.4c-0.8-6.6-0.7-13.2,1.2-19.7c4.4-15.4,17.3-22.6,28.3-23.1
			c3.1-0.1,6.2-0.2,9.2,0.1c12.2,1,21.7,8.9,25.2,20.6C1878.2,143.9,1878.5,148.1,1878.4,152.6z M1862.5,155.1
			c0.2-4-0.5-7.9-1.3-11.8c-1.1-4.7-3.4-8.8-7.1-11.9c-7-5.7-15.3-3.7-19.9,1c-2.2,2.3-3.5,5-4.2,8c-1.8,8-1.2,16,0.4,23.9
			c0.6,3.2,2.1,6.2,4,9c6,8.5,19.7,8,25-1.6c0.9-1.6,1.5-3.5,2-5.3C1862.3,162.7,1862.6,159,1862.5,155.1z"/>
		<path class="st3" d="M1568.4,175.2c0-2.6,0-5.2,0-7.8c0-1.4,1.4-2.7,2.8-2.8c1.2-0.1,2.4,0,3.5,0c1,0.1,1.7,0.6,2,1.6
			c0.6,1.8,1.1,3.6,1.9,5.3c2.4,5,6.6,7.2,12,7.1c0.2,0,0.5,0,0.7,0c2.9-0.5,5.6-1.3,6.8-4.4c1.4-3.5,0.3-6.5-2.1-9.1
			c-0.9-1-2.1-1.9-3.3-2.6c-2-1.3-4.1-2.4-6.1-3.5c-2.5-1.4-5-2.6-7.5-4.1c-2-1.2-4-2.6-5.8-4.1c-7.3-6.1-7.2-15.8-2.3-22.3
			c4-5.4,9.5-8.5,16.1-9.4c6.7-0.9,13.2-0.3,19.5,2.1c3.2,1.3,4.2,1,3.3,5.6c-0.5,2.5-0.5,5.2-0.8,7.8c-0.2,1.6-0.5,3.3-0.9,4.9
			c-0.1,0.4-0.6,0.9-0.9,0.9c-1.9,0-3.7,0-5.6-0.2c-0.3,0-0.8-0.5-1-0.9c-0.5-1.6-0.9-3.2-1.4-4.7c-2.1-5.8-10.4-8.8-16-4.8
			c-2.9,2.1-3.4,6.1-0.8,8.6c1.5,1.5,3.2,2.8,5,3.9c3,1.8,6.2,3.4,9.3,5.1c3.1,1.7,6.2,3.4,8.9,5.7c1.8,1.5,3.5,3.2,4.5,5.4
			c3.5,7,2.8,13.8-1.6,20.1c-2.9,4.2-7,7.1-11.9,8.4c-5,1.4-10.2,2-15.4,1c-3.5-0.7-7-1.2-10.3-2.4c-3.4-1.2-4.2-0.9-3.4-5.5
			c0.3-1.6,0.3-3.3,0.4-4.9C1568.2,175.2,1568.3,175.2,1568.4,175.2z"/>
		<path class="st3" d="M1753.4,133.1c0.1,5.5,0.2,13.5,0.3,21.6c0,3.8,0,7.6,0,11.4c0,0.9,0,1.9,0,2.8c0.5,8.7,0.2,7.7,7.9,10.1
			c0.5,0.1,0.9,0.3,1.3,0.4c1.1,0.4,1.7,1.3,1.7,2.8c0,0.7,0,1.4-0.1,2.1c-0.1,0.9-1.5,2.3-2.4,2.3c-0.7,0-1.4,0.1-2.1,0
			c-8.7-0.8-17.5-0.8-26.2-0.1c-0.9,0.1-1.9-0.1-2.8-0.1c-0.7-0.1-1.9-1.1-2-1.8c-0.1-0.9-0.2-1.9-0.1-2.8c0-1,0.5-1.8,1.4-2.2
			c0.9-0.4,1.8-0.6,2.7-0.9c6.2-2.4,6.3-0.9,6.4-9c0.1-20.4,0-40.7,0-61.1c0-0.9,0-1.9-0.1-2.8c-0.2-2.2-0.8-3.5-3.6-3.2
			c-1.4,0.2-2.8,0.4-4.2,0.5c-0.6,0.1-2-0.9-2.3-1.5c-0.6-1.4-0.5-2.7-0.2-4.1c0.1-0.2,0.1-0.5,0.3-0.6c0.4-0.3,0.8-0.5,1.2-0.7
			c6.7-2.4,13.3-4.9,19.7-8.1c1.1-0.6,2.3-0.2,3.3,0.5c0.8,0.6,1.5,1.3,1.4,2.3c-0.3,7.3-0.7,14.7-1,22
			C1753.8,118.8,1753.7,124.7,1753.4,133.1z"/>
		<path class="st3" d="M641.5,154.4c0.3-6.8,0.5-12.7,0.7-18.6c0-0.9,0-1.9-0.2-2.8c-0.1-0.4-0.6-0.9-1-0.9
			c-1.9-0.2-3.8-0.2-5.6-0.3c-0.9-0.1-2.2-1.3-2.4-2.3c-0.1-0.7-0.1-1.4-0.1-2.1c0-0.9,0.2-1.9,1.2-2.4c0.8-0.4,1.6-1,2.5-1.4
			c4.2-2.4,7.5-5.8,10-9.9c1.4-2.2,2.6-4.5,3.7-6.8c1.1-2.2,4.2-2.2,6.2-1.1c0.9,0.5,1.4,1.4,1.3,2.4c-0.2,2.6-0.5,5.2-0.7,7.8
			c-0.1,1.4-0.1,2.8-0.1,4.2c0,0.5,0.8,1.4,1.3,1.4c2.8,0,5.7,0,8.5,0c1.9,0,3.8,0,5.7,0.1c1.6,0.1,2.8,2.5,2,3.8
			c-0.9,1.6-1.7,3.4-2.6,5c-0.6,1.2-1.6,1.6-2.9,1.5c-3.5-0.1-7.1-0.1-10.6-0.2c-0.9,0-1.8,0.8-1.8,1.7c-0.2,3.8-0.4,7.5-0.5,11.3
			c-0.1,6.4-0.1,12.8-0.3,19.1c-0.1,2.9,0.3,5.7,1.1,8.4c0.2,0.7,0.5,1.3,0.9,1.9c0.7,1,1.7,1.8,2.9,1.7c1.4,0,2.8-0.2,4.2-0.5
			c1.6-0.4,3.1-1.2,4.6-1.7c1-0.3,2,0.1,2.5,0.9c0.8,1.1,1.5,2.4,2.1,3.7c0.2,0.5,0,1.6-0.5,1.9c-3.5,2.4-7.2,4.5-11.1,6.1
			c-3.2,1.3-6.4,1.6-9.7,1.3c-4.7-0.5-9.2-4-10.2-8.6c-0.6-2.7-0.8-5.6-1.1-8.4c-0.1-1.6,0-3.3,0-5
			C641.5,161.6,641.5,157.5,641.5,154.4z"/>
		<path class="st3" d="M598.1,153.8c0.1-6.9,0.2-13.7,0.3-20.6c0-0.5-0.8-1.3-1.4-1.3c-0.7,0-1.4-0.1-2.1-0.1c-0.9,0-1.9,0-2.8,0
			c-1.3-0.1-2.5-1.3-2.7-2.8c-0.1-0.7-0.2-1.4,0-2.1c0.1-0.6,0.5-1.3,0.9-1.8c0.5-0.5,1.2-0.8,1.8-1.1c5.4-2.9,9.2-7.3,12.1-12.6
			c0.7-1.2,1.3-2.5,2-3.8c1.4-2.6,2.1-2.9,5.1-2.6c1.4,0.2,2.9,1.5,2.8,2.7c-0.1,2.4-0.2,4.7-0.5,7.1c-0.9,6.8-0.5,6.9,5.9,6.8
			c1.9,0,3.8-0.2,5.7-0.2c1.2,0,2.4,0,3.5,0.1c1.6,0.1,3,2.4,2.3,3.7c-4.4,7.7-1.4,6.8-10.4,6.6c-1.9,0-3.8-0.1-5.7-0.1
			c-1.3,0-2.1,0.8-2.2,2.2c-0.1,3.1-0.1,6.1-0.2,9.2c-0.1,6.9-0.2,13.7-0.3,20.6c0,2.4,0.2,4.7,0.5,7.1c0.2,1.1,0.7,2.2,1.2,3.3
			c0.7,1.3,2,2,3.5,2c0.9,0,1.9-0.1,2.8-0.3c0.9-0.2,1.8-0.7,2.7-1c1.5-0.4,2.9-1.8,4.7-0.8c1.8,1.1,2.4,2.9,2.9,4.7
			c0.1,0.3-0.1,1-0.4,1.2c-3.4,2.5-7.2,4.5-11.1,6.2c-2.9,1.3-5.9,1.6-9,1.5c-5.2-0.1-11.3-4.5-11.8-11.2c-0.2-2.1-0.4-4.2-0.4-6.4
			c-0.1-3.8,0-7.6,0-11.3c0-1.7,0-3.3,0-5C597.9,153.8,598,153.8,598.1,153.8z"/>
		<path class="st3" d="M476.7,186c-5,0.3-9,0.5-13.1,0.7c-0.9,0-1.9,0.1-2.8,0.1c-1.3,0-2.7-1.4-2.9-2.7c-0.1-0.5-0.1-0.9-0.1-1.4
			c0-1.8,0.6-2.8,2.1-3.3c2.3-0.7,4.5-1.3,6.8-2c1.5-0.5,2.2-1.7,2.3-3.2c0.1-1.7,0.1-3.3,0.1-5c0-9.9,0-19.9,0-29.8
			c0-0.7,0-1.4-0.1-2.1c-0.1-1.7-1-2.7-2.6-2.7c-1.9,0-3.8,0.2-5.7,0.2c-1.3,0-2.7-1.3-2.9-2.7c-0.1-0.9-0.1-1.9,0.1-2.8
			c0.1-0.7,0.4-1.3,1.3-1.5c3.2-1,6.3-1.9,9.4-3c3.8-1.3,7.4-3.1,10.8-5.2c1.5-0.9,4.3,1.3,4.3,2.6c-0.1,1.9-0.2,3.8-0.3,5.6
			c0,0.2,0.1,0.6,0.3,0.6c0.4,0.1,0.9,0.2,1.1,0c1.2-1.1,2.4-2.3,3.6-3.4c5.2-4.9,11.2-5.8,17.7-3c0.8,0.3,1.4,1.4,1.2,2.3
			c-0.8,4.4-1.6,8.8-2.4,13.2c-0.2,1-0.9,1.5-2,1.5c-0.9,0-1.9,0.1-2.8-0.1c-0.6-0.1-1.4-0.6-1.7-1.1c-0.5-0.8-0.6-1.8-1-2.6
			c-0.9-1.9-3-2.5-4.7-1.4c-5.1,3.2-8.3,7.6-9.2,13.6c-0.2,1.6-0.4,3.3-0.4,5c0.1,6.9,0.2,13.7,0.4,20.6c0,0.7,0.1,1.5,0.4,2.1
			c0.4,0.8,1,1.8,1.7,2.1c2.1,1.1,4.4,1.6,6.8,2c1.9,0.4,2.5,1.5,2.4,3.7c0,0.5-0.1,0.9-0.2,1.4c-0.2,1-1.5,2.2-2.5,2.2
			c-0.9,0-1.9,0-2.8,0C484.7,186.4,480.2,186.2,476.7,186z"/>
		<path class="st3" d="M987.1,186c-5,0.3-9.3,0.5-13.5,0.7c-0.9,0-1.9,0-2.8-0.1c-1-0.1-2.2-1.2-2.4-2.3c-0.1-0.7-0.2-1.4-0.2-2.1
			c0-1.5,0.6-2.4,1.8-2.7c2-0.6,4-1.3,6.1-1.8c2.1-0.5,3.2-1.8,3.3-4c0-0.5,0-0.9,0-1.4c0-10.9,0-21.7,0-32.6c0-1.2,0-2.4-0.3-3.5
			c-0.1-0.6-0.9-1.3-1.4-1.3c-1.9-0.1-3.7,0-5.6,0c-2.7,0.1-3.9-1.1-3.9-3.8c0-0.5-0.1-1,0.1-1.4c0.2-0.6,0.6-1.2,1-1.7
			c0.1-0.2,0.4-0.2,0.7-0.2c6.9-1.8,13.5-4.3,19.6-7.9c1.7-1,4.6,0.8,4.5,2.9c0,1.6-0.1,3.3-0.3,4.9c0,0.6,0.2,0.9,0.7,0.9
			c0.2,0,0.5,0,0.6-0.1c1.7-1.6,3.4-3.3,5.2-4.8c4.9-4,12-3.9,16.6-1.2c0.3,0.2,0.6,0.8,0.6,1.2c-0.8,4.9-1.6,9.8-2.6,14.6
			c-0.1,0.3-0.7,0.7-1.1,0.7c-1.2,0.1-2.4,0.1-3.5,0.1c-1-0.1-1.7-0.5-2-1.6c-0.3-0.9-0.6-1.8-1-2.6c-0.6-1.2-2.5-1.8-3.7-1.2
			c-0.6,0.3-1.3,0.6-1.8,1c-4.9,3.5-7.7,8.1-8.3,14.2c-0.6,6.1-0.2,12.3-0.1,18.4c0,2.4,0.3,4.7,0.4,7.1c0.1,1.5,0.9,2.7,2.4,3.2
			c2,0.7,4.1,1.2,6.1,1.7c2.2,0.6,2.9,1.7,2.6,4.3c0,0.2-0.1,0.5-0.1,0.7c-0.3,1.4-1.6,2.6-3,2.5c-0.9,0-1.9-0.1-2.8-0.2
			C994.8,186.4,990.5,186.2,987.1,186z"/>
		<path class="st3" d="M1045.1,144.5c0,9.7,0,16.8,0,23.9c0,0.9,0.1,1.9,0.1,2.8c0.3,5.2,0.6,5.6,5.9,7.4c0.7,0.2,1.4,0.3,2.1,0.5
			c2.7,0.9,3.5,2.2,2.6,5.5c-0.3,1-1.7,2-2.7,2.1c-0.5,0-0.9,0.1-1.4,0c-8.3-1-16.5-0.6-24.8,0c-1.2,0.1-2.4,0.1-3.5,0.1
			c-1.2,0-2.6-1.4-2.7-2.8c-0.1-0.5-0.1-0.9-0.1-1.4c0-1.8,0.6-2.8,2.1-3.3c2-0.6,4.1-1.2,6.1-1.9c1.2-0.4,2-1.3,2.1-2.6
			c0.2-2.8,0.5-5.7,0.5-8.5c0.1-8.3,0.1-16.6,0-24.9c0-1.7-0.2-3.3-0.3-5c-0.1-1.6-1.2-2.7-2.7-2.6c-1.4,0.1-2.8,0.2-4.2,0.3
			c-2,0.1-3.4-1.3-3.5-3.5c0-0.5,0-0.9,0-1.4c0.1-1,0.5-1.8,1.5-2.2c0.9-0.3,1.8-0.6,2.7-0.8c5.7-1.7,11.1-4,16.3-6.8
			c1.7-0.9,3.1-0.6,4.4,1c0.4,0.5,0.9,1.2,0.9,1.8c0.1,1.6-0.1,3.3-0.2,5C1045.7,133.9,1045.3,140.5,1045.1,144.5z"/>
		<path class="st3" d="M1645.3,145.5c0,8.7,0,15.6,0,22.4c0,1.9,0.1,3.8,0.4,5.7c0.2,2,1,3.6,3.3,4.1c1.8,0.4,3.6,1.1,5.4,1.7
			c1.4,0.5,2.1,1.6,1.9,3.4c0,0.7-0.1,1.4-0.4,2.1c-0.4,0.9-1.1,1.5-2.1,1.7c-0.7,0.1-1.4,0.2-2.1,0.1c-8-0.9-16.1-0.6-24.1,0
			c-0.7,0-1.4,0.1-2.1,0.2c-3.7,0.2-5.1-1.4-4.7-5.2c0.1-1,0.7-1.7,1.7-2.1c0.7-0.3,1.4-0.4,2-0.6c1.3-0.4,2.7-0.9,4-1.3
			c1.5-0.5,2.4-1.5,2.5-3c0.3-3.5,0.6-7.1,0.6-10.6c0.1-6.9,0.1-13.7,0-20.6c0-2.6-0.4-5.2-0.7-7.8c-0.1-0.7-1.3-1.7-2-1.7
			c-1.9,0-3.8,0.2-5.6,0.1c-1,0-1.8-0.7-2.2-1.6c-0.5-1.3-0.6-2.8-0.1-4.1c0.2-0.4,0.5-0.8,0.9-1c0.6-0.4,1.3-0.6,1.9-0.8
			c5.5-1.4,10.7-3.7,15.8-6.2c0.8-0.4,1.7-0.9,2.5-1.2c1.4-0.6,4.2,1.2,4.2,2.8c0.1,1.6,0,3.3-0.1,5
			C1645.9,133.7,1645.6,140.6,1645.3,145.5z"/>
		<path class="st3" d="M1795.1,145.5c0,8.9,0,16.7,0,24.5c0,1.4,0.2,2.8,0.4,4.2c0.2,1.5,0.8,2.7,2.4,3.2c1.8,0.5,3.6,1.1,5.4,1.7
			c2.4,0.8,3.4,4.3,1.7,6.4c-0.4,0.5-1.1,0.8-1.8,1c-0.7,0.2-1.4,0.2-2.1,0.1c-7.8-0.8-15.6-0.6-23.4,0c-1.2,0.1-2.4,0.2-3.5,0.2
			c-3.2,0.1-5-2.9-3.7-6c0.2-0.6,0.9-1.1,1.5-1.3c2-0.7,4-1.4,6.1-1.9c1.6-0.4,2.3-1.6,2.5-3.1c0.3-2.1,0.5-4.2,0.5-6.4
			c0.1-9.2,0.1-18.5,0.1-27.7c0-1.6-0.4-3.3-0.7-4.9c-0.1-0.8-1.3-1.7-2.1-1.7c-1.9,0-3.8,0.2-5.6,0.1c-1,0-1.8-0.7-2.2-1.6
			c-0.6-1.3-0.6-2.7-0.1-4.1c0.1-0.4,0.6-0.7,0.9-1c0.4-0.3,0.8-0.5,1.3-0.6c6.5-1.6,12.5-4.2,18.4-7.4c2.2-1.2,5.1,0.6,5,3.1
			C1795.8,130.6,1795.4,138.6,1795.1,145.5z"/>
		<path class="st3" d="M1638.5,87.6c5-0.2,8.5,3.1,8.9,8.1c0.4,4.8-4,9.2-8.7,9.2c-4.5,0-8.7-4.1-8.6-8.6
			C1630.2,91.4,1633.6,87.5,1638.5,87.6z"/>
		<path class="st3" d="M1047.1,96c0,4.7-3.7,8.7-8.3,8.8c-5,0.1-9.1-3.8-9-8.9c0.2-4.7,3.5-8.4,8.7-8.4
			C1043.4,87.6,1046.9,91.1,1047.1,96z"/>
		<path class="st3" d="M1779.8,95.9c0.1-4.6,3.8-8.5,8.7-8.3c4.8,0.2,8.6,3.8,8.6,8.4c0,4.9-4.3,9.1-9.1,8.8
			C1783.3,104.5,1779.7,100.6,1779.8,95.9z"/>
		<path class="st4" d="M1514.1,126.8c-0.1,0.1-0.2,0.3-0.2,0.4c-0.2-0.2-0.4-0.3-0.7-0.5c0.2-0.1,0.3-0.3,0.5-0.4
			C1513.8,126.5,1514,126.7,1514.1,126.8z"/>
	</g>
	<g>
		<path class="st5" d="M1512,233c4.7-0.1,9.6-0.3,14.6-0.3c3.6,0,7.1,0.2,10.5,1.6c5.2,2.1,8.4,5.8,9.8,11.3
			c2.1,8.6-1.2,18.1-10.3,22.7c-1.1,0.5-2.1,1-3.2,1.5c-0.6,0.3-0.8,1.1-0.3,1.8c5.2,6.8,10.4,13.5,15.5,20.3
			c1.3,1.8,3.1,2.9,5.2,3.5c2.3,0.6,4.6,1.2,6.9,1.7c1.7,0.4,2.5,2.9,1.4,4.7c-0.2,0.4-0.7,0.7-1.1,0.8c-0.9,0.1-1.9,0.2-2.8,0.1
			c-2.8,0-5.7-0.1-8.5-0.2c-2.8-0.1-5.6,0.7-8.4-0.1c-1.6-2.3-3.1-4.7-4.8-7c-4.9-6.9-10-13.8-14.8-20.8c-1.7-2.5-4-3.1-6.8-2.8
			c-0.7,0.1-1.3,0.6-1.3,1.4c0,0.5-0.1,0.9-0.1,1.4c0.1,6.2,0.2,12.3,0.4,18.5c0,1.6,0.5,2.2,1.9,2.6c2.1,0.5,4.1,1,6.2,1.4
			c1.9,0.4,2.5,1.5,2.2,3.7c-0.1,1.1-0.9,1.9-1.7,2c-0.2,0-0.5,0.1-0.7,0.1c-9.5-0.3-18.9-0.3-28.4,0c-1.9,0.1-2.9-1.1-2.7-3.2
			c0-0.2,0-0.5,0.1-0.7c0.4-0.5,0.8-1.4,1.3-1.5c2.5-0.7,5-1.3,7.6-1.9c1.1-0.3,1.5-1.1,1.5-2.1c0.1-2.8,0.3-5.7,0.3-8.5
			c0-13.5-0.1-27-0.1-40.5c0-0.2,0-0.5,0-0.7c0-3.6-0.9-3.4-3.6-4.3c-1.6-0.5-3.2-0.6-4.9-0.9c-2-0.4-2.8-2.3-1.8-4.5
			c0.2-0.4,0.6-0.9,0.9-1c0.9-0.2,1.9-0.3,2.8-0.3C1500.3,232.7,1506,232.9,1512,233z M1513.5,252.7c0,0-0.1,0-0.1,0
			c0,3.3,0,6.6,0,9.9c0,1,0.8,1.7,1.7,1.9c3.8,0.8,7.6,0.4,11.3-0.5c4.2-1,7-3.8,8.2-8c0.7-2.5,0.8-5.2,0.1-7.7
			c-0.9-3.4-2.9-5.8-6.3-7.1c-2.3-0.8-4.6-1.2-7-1.1c-8.5,0.3-7.9-0.6-7.9,7.6C1513.5,249.4,1513.5,251,1513.5,252.7z"/>
		<path class="st5" d="M825.1,232.7c5.4,0,10.9,0,16.3,0c4.7,0,9.4,0.2,14.1,1.6c6.4,1.9,11.3,5.6,14.7,11.5c1.8,3.1,3,6.5,3.5,10
			c0.9,5.9,1,11.8-0.6,17.6c-3.9,14.6-13.4,23.5-27.6,27.7c-3.9,1.1-7.8,1.8-11.9,1.7c-2.6-0.1-5.2-0.1-7.8-0.1
			c-7.6,0-15.1,0-22.7,0c-0.9,0-1.9,0.1-2.8-0.2c-0.6-0.2-1.2-0.8-1.4-1.4c-0.7-2.3,0.1-3.6,2.5-4.1c2.1-0.4,4.2-0.9,6.2-1.4
			c1-0.2,1.6-1,1.7-2c0.2-1.6,0.3-3.3,0.4-4.9c0.1-9,0.2-18,0.2-27c0-6.4-0.1-12.8-0.2-19.2c0-1.3-0.7-2.2-2-2.5
			c-2.3-0.6-4.6-1.2-6.9-1.8c-1.7-0.4-2.5-2.1-1.8-3.9c0.2-0.6,0.9-1.3,1.4-1.4c1.4-0.2,2.8-0.2,4.2-0.2c6.9,0.1,13.7,0.2,20.6,0.3
			C825.1,232.9,825.1,232.8,825.1,232.7z M821.6,267.6c0,5.7,0,11.3,0,17c0,2.6,0.1,5.2,0.2,7.8c0,1.2,1,2.2,2.2,2.4
			c4.9,0.8,9.9,1,14.8,0.3c8.8-1.2,15.1-6.1,19.1-14.1c1.5-3,2.2-6.2,2.7-9.5c1-5.9,0.6-11.8-1.1-17.5c-1.8-6.1-5.8-10.2-11.8-12.3
			c-2.2-0.8-4.6-1.2-6.9-1.5c-5.6-0.5-11.3-0.3-17,0.1c-0.2,0-0.5,0-0.7,0.2c-0.5,0.5-1.2,1-1.2,1.6c-0.2,2.6-0.3,5.2-0.4,7.8
			C821.5,255.8,821.6,261.7,821.6,267.6z"/>
		<path class="st5" d="M654.3,292.5c2.6,0,5.2,0,7.8,0c1.2,0,2.4,0.1,3.5,0.4c4.6,1.2,7.6,4.1,8,9.6c0.3,5.1-1.5,9.3-5.2,12.6
			c-4.5,4.1-10,6.2-15.9,7.2c-4.7,0.8-9.4,0.8-14.1,0.1c-4.1-0.5-7.7-2.1-10.5-5.3c-1.6-1.8-2.6-3.9-2.6-6.4c0-2,0.7-3.7,2.2-5
			c1.6-1.4,3.4-2.5,5-3.9c0.3-0.2,0.4-1,0.2-1.3c-0.7-1-1.5-1.8-2.3-2.7c-0.8-0.9-1.1-2.1-1.2-3.3c-0.1-1.4,0.1-2.8,1.3-3.9
			c1.6-1.4,3.2-2.8,4.7-4.2c0.8-0.7,0.8-1.5,0-2.4c-2.2-2.2-4-4.6-4.9-7.6c-2.4-7.6,1.1-18.9,12.6-22.1c3.6-1,7.4-1.6,11.2-0.6
			c5.6,1.4,11.2,1.5,16.9,1c0.5,0,0.9,0,1.4,0c1,0,2.1,1.7,1.7,2.6c-0.4,1.1-0.9,2.2-1.4,3.3c-0.6,1.4-1.6,2.2-3.3,2
			c-0.5-0.1-0.9,0-1.4,0.1c-0.7,0.1-1.2,0.7-1.1,1.4c0.3,1.9,0.8,3.7,1,5.6c0.6,8.6-5.3,15.3-12.8,17.3c-3.4,0.9-6.9,1.5-10.5,0.9
			c-1.5-0.2-2.7,0.6-3.5,2c-0.2,0.4,0,1.7,0.5,1.8c0.9,0.3,1.8,0.7,2.7,0.7C647.6,292.4,650.9,292.5,654.3,292.5
			C654.3,292.6,654.3,292.5,654.3,292.5z M651.1,301.8c0,0.1,0,0.1,0,0.2c-2.4,0-4.7,0-7.1,0c-1.8,0-3.2,0.8-4.3,2.1
			c-1.1,1.3-2.1,2.6-2.9,3.9c-0.8,1.3-0.3,3.4,0.9,4.5c1.6,1.5,3.6,2.3,5.7,2.6c3.3,0.5,6.6,0.5,9.9-0.1c2.8-0.5,5.5-1.5,7.6-3.4
			c1.4-1.3,2.4-2.9,2.4-4.9c0-1.9-1.3-3.9-3.1-4.1C657.2,302.2,654.2,302.1,651.1,301.8z M656.4,272.3c0-3.5-0.2-6-1.4-8.4
			c-0.9-1.7-2.2-3.1-4.1-3.8c-4-1.3-7.7,0.6-9.1,4.5c-1.6,4.5-1.1,8.9,0.9,13.1c0.3,0.6,0.8,1.1,1.3,1.7c2.5,3.1,8.7,3.1,10.9-1.1
			C656.1,276.2,656.4,273.9,656.4,272.3z"/>
		<path class="st5" d="M608.1,302.7c-4,0-8,0-12.1,0c-1.7,0-2.5-0.8-2.6-2.6c-0.1-1.8,0.6-2.6,2.2-3.1c1.4-0.4,2.7-0.8,4.1-1.2
			c0.7-0.2,1.2-1.1,1-1.7c-1.5-3.7-2.9-7.5-4.5-11.2c-0.4-0.9-1.2-1.5-2.2-1.5c-6.4-0.1-12.8-0.1-19.2-0.1c-1.2,0-2.4,0-3.5,0.1
			c-1,0.1-1.8,0.7-2.2,1.6c-1.1,2.4-2.1,4.8-3.1,7.2c-1.8,4.5-1.8,4.6-1.2,5.2c1.3,1.3,3,1.2,4.6,1.6c1.8,0.5,2.6,2.6,1.6,4.6
			c-0.2,0.4-0.6,0.7-1,0.9c-0.4,0.2-0.9,0.2-1.4,0.2c-6.6,0-13.2,0-19.9,0c-1.4,0-2.1-0.7-2.4-2.1c-0.3-1.8,0.3-3,1.6-3.4
			c0.4-0.1,0.9-0.2,1.4-0.3c2.7-0.6,4.7-2.2,5.9-4.7c1.5-3.2,3.1-6.4,4.6-9.6c6.6-14.9,13.1-29.9,19.6-44.8c0.8-1.7,1.5-3.5,2.3-5.2
			c0.4-0.9,1.4-1.2,2.4-1.2c2.3-0.1,3.1,0.4,3.9,2.3c3.3,7.8,6.4,15.8,9.8,23.5c4.9,11.2,10,22.4,15.1,33.6c0.4,0.9,0.8,1.7,1.2,2.6
			c0.6,1.1,1.4,1.9,2.6,2.3c1.6,0.5,3.1,1,4.7,1.5c1.4,0.5,2.1,1.9,1.8,3.4c-0.3,1.4-1.1,2.2-2.4,2.2c-1.2,0-2.4,0-3.5,0
			C614.2,302.7,611.2,302.7,608.1,302.7C608.1,302.7,608.1,302.7,608.1,302.7z M582.8,274.3c0-0.1,0-0.2,0-0.3c2.6,0,5.2,0,7.8,0
			c1.1,0,1.5-0.8,1.1-1.9c-2.7-6.5-5.5-13-8.2-19.5c-0.1-0.2-0.3-0.5-0.4-0.4c-0.4,0.2-1.1,0.3-1.2,0.6c-2.8,6.5-5.5,13-8.2,19.5
			c-0.1,0.2-0.1,0.5,0,0.7c0.2,0.4,0.5,1,0.7,1C577.2,274,580,274.1,582.8,274.3z"/>
		<path class="st5" d="M1412.8,290c0-2.4,0-4.7,0-7.1c0.1-2.2,1.3-3.1,3.8-3.1c0.2,0,0.5-0.1,0.7,0c0.6,0.3,1.4,0.6,1.6,1.1
			c0.9,2.4,1.6,4.9,2.4,7.4c0.7,2.1,1.9,3.8,3.7,5.1c2.5,1.9,5.5,2.9,8.6,3c3.4,0.1,6.5-1,9.3-3c3.3-2.4,4.2-7.3,3.3-10.2
			c-0.8-2.6-2-4.8-4.3-6.3c-2.4-1.6-4.8-3-7.3-4.3c-2.7-1.4-5.5-2.7-8.3-3.9c-2.6-1.2-5-2.7-7.2-4.4c-6.3-4.8-7.6-12.8-5.2-19.1
			c1.6-4.1,4.1-7.4,7.8-9.8c3.6-2.3,7.6-3.8,11.9-4.2c7-0.6,13.6,0.8,20.1,3.2c0.5,0.2,1,0.9,1.2,1.5c0.2,0.6,0.1,1.4,0.1,2.1
			c-0.2,4-0.3,8-0.1,12c0.1,2.3-1.1,3.2-3.6,3.2c-0.2,0-0.5,0-0.7-0.1c-1.1-0.1-1.9-0.6-2.1-1.6c-0.6-2-1-4.1-1.8-6.1
			c-1-2.8-3-4.7-5.8-5.9c-3.2-1.4-6.5-1.6-9.7-0.7c-4.8,1.3-7.4,5.3-7.1,9.4c0.2,2.3,1,4.2,2.7,5.6c1.4,1.2,3,2.3,4.7,3.2
			c2.9,1.5,6,2.8,8.9,4.3c3.6,1.7,7.2,3.5,10.4,6c2.7,2.1,4.7,4.7,6,7.8c3.2,7.7,0.8,16.5-4.4,21.6c-4.2,4.1-9.3,6.4-15.1,7.1
			c-6.7,0.8-13.2-0.1-19.6-2.1c-1.4-0.4-2.7-0.8-4.1-1.3c-0.8-0.2-1.5-1.4-1.5-2.2c0.1-1.4,0.2-2.8,0.3-4.2c0-1.4,0-2.8,0-4.3
			C1412.6,290,1412.7,290,1412.8,290z"/>
		<path class="st5" d="M1055.1,272.6c0.5-10.4,0.1-19.6-0.2-28.9c0-1.5-0.8-2.2-2.1-2.3c-0.5,0-0.9,0-1.4,0c-0.5,0-0.9,0.1-1.4,0.1
			c-2.1,0-2.9-0.9-2.8-3.1c0.1-1,0.5-1.9,1.5-2.2c5-1.5,9.8-3.5,14.4-5.9c1.1-0.6,3.2,0.6,3.3,1.8c0.1,0.7,0.1,1.4,0.1,2.1
			c-0.3,7.3-0.6,14.7-0.8,22c-0.1,2.7,0.2,3.2,0.9,3.1c1.1-0.1,1.5-0.9,2.3-1.4c0.8-0.5,1.4-1.3,2.1-1.9c2.9-2.4,6.4-3.1,10-2.7
			c10,1.3,14.2,6.5,16,14.7c1.2,5.3,1,10.8-0.8,16.1c-3.6,10.2-10.6,16.7-21,19.3c-5.7,1.4-11.3,0.6-16.7-1.5
			c-0.9-0.3-1.7-0.8-2.6-1.2c-0.7-0.3-1.1-1.1-1.1-1.7c0-4,0.1-8,0.1-12.1C1054.9,281.8,1055,276.6,1055.1,272.6z M1065.8,283
			C1065.7,283,1065.7,283,1065.8,283c-0.1,3.3-0.1,6.6,0,9.9c0,1,0.7,1.8,1.7,2.1c1.6,0.5,3.2,1,4.8,1.1c5.2,0.5,9.9-2.1,12.1-6.8
			c0.7-1.5,1.2-3.1,1.5-4.7c0.7-4,0.6-8,0-12c-0.4-2.4-1.4-4.5-3.1-6.2c-2.5-2.6-5.4-3.4-9-2.5c-3.7,0.9-8,6-7.9,9.9
			C1065.8,276.8,1065.8,279.9,1065.8,283z"/>
		<path class="st5" d="M1622.2,302.7c-7.6,0-15.1,0-22.7,0c-1.2,0-2.4,0-3.5,0c-1.2,0-2-0.9-2.2-2.3c-0.3-1.7,0.4-2.9,1.9-3.2
			c2.1-0.5,4.2-0.9,6.2-1.4c1.9-0.4,2.4-1.6,2.5-3c0.1-2.4,0.2-4.7,0.2-7.1c0-14,0-27.9,0-41.9c0-0.7-0.1-1.4-0.2-2.1
			c0-0.8-0.7-1.3-1.3-1.6c-2.4-1.2-5-1.3-7.5-1.9c-1.9-0.5-2.7-2.9-1.5-4.6c0.3-0.4,0.7-0.7,1.1-0.8c0.4-0.2,0.9-0.2,1.4-0.2
			c9.7,0.4,19.4,0.3,29.1,0c1,0,1.9,0.2,2.5,1c1.3,1.6,0.6,4.1-1.4,4.5c-2.8,0.6-5.6,1.1-8.3,1.7c-1.3,0.3-2,1.3-2.1,2.5
			c-0.1,0.9-0.1,1.9-0.1,2.8c0,15.1,0,30.3,0,45.4c0,0.7,0,1.4,0.1,2.1c0.1,0.7,0.5,1.3,1.3,1.5c0.2,0.1,0.5,0.2,0.7,0.2
			c6.9,0,13.7,0,20.6,0c2.6,0,4.5-1.2,5.8-3.4c1.5-2.7,3.1-5.3,4.6-8c1-1.7,3.8-2.1,5.6-0.8c0.5,0.4,0.7,1.1,0.9,1.8
			c0.1,0.4-0.1,0.9-0.3,1.4c-0.6,1.8-1.3,3.5-2,5.3c-1.3,3.8-2.6,7.6-4,11.3c-1.7,1.1-3.7,0.6-5.5,0.6c-2.6,0.1-5.2-0.1-7.8-0.1
			C1631.6,302.6,1626.9,302.6,1622.2,302.7C1622.2,302.6,1622.2,302.6,1622.2,302.7z"/>
		<path class="st5" d="M1340.7,279.8c0,4.3-0.1,8.5,0,12.8c0,2.5,0.9,3.4,3.1,4.1c1.1,0.3,2.3,0.6,3.4,1c0.9,0.3,1.4,1.9,1.1,3.1
			c-0.2,1-1,1.8-1.9,1.9c-0.2,0-0.5,0.1-0.7,0.1c-6.9,0-13.7,0-20.6,0c-0.6,0-1.4-0.3-1.9-0.7c-1-0.9-0.6-3.9,0.5-4.5
			c0.2-0.1,0.4-0.2,0.6-0.3c5.8-1.6,5.5-2.3,5.6-7.4c0.2-6.2,0.1-12.3,0.1-18.5c0-1.9-0.3-3.8-1.2-5.5c-1-1.7-2.5-2.8-4.5-3.1
			c-5.1-0.8-10.8,3.4-11.4,8.4c-0.1,1.2-0.5,2.3-0.5,3.5c-0.5,6.4-0.1,12.8,0.5,19.1c0.1,1,0.8,1.7,1.7,2.1c1.3,0.5,2.7,0.9,4,1.4
			c1.6,0.6,2.2,2.3,1.4,4.1c-0.2,0.4-0.6,0.7-1,0.9c-0.4,0.2-0.9,0.3-1.4,0.3c-6.9,0-13.7,0-20.6,0c-0.5,0-1-0.1-1.4-0.3
			c-0.4-0.2-0.8-0.6-0.9-1c-0.9-2.5,0.1-4,2-4.4c0.7-0.1,1.4-0.3,2.1-0.5c1.9-0.6,2.7-1.5,2.7-3.6c0.1-8.8,0.1-17.5,0.1-26.3
			c0-1.3-1-2.3-2.2-2.3c-0.9,0-1.9,0.1-2.8,0.1c-0.5,0-0.9-0.1-1.4-0.1c-0.7-0.1-1.5-1.2-1.7-2.1c-0.1-1,0-1.9,0.8-2.5
			c0.4-0.3,0.8-0.6,1.2-0.7c4.8-1.2,9.4-3.2,13.9-5.4c1.6-0.7,3.2,0.3,3.5,2.2c0.1,0.5,0,1,0.1,1.4c0.1,1,0.7,1.3,1.3,0.9
			c0.7-0.6,1.4-1.2,2.2-1.8c5-3.6,10.5-4.2,16.2-2c4,1.5,6.6,4.7,7.2,9c0.4,2.6,0.4,5.2,0.5,7.8
			C1340.8,274.1,1340.7,277,1340.7,279.8z"/>
		<path class="st5" d="M1240.6,278.9c0.1-2.7,0.2-5.7,1.1-8.7c3-10.2,10-15.7,20.3-17.2c4-0.6,8-0.2,11.9,1
			c7.1,2.3,11.6,7.1,13.8,14.1c2.1,6.5,1.8,13.1-0.3,19.5c-3.4,10.2-12,16-21.8,16.4c-3.3,0.1-6.6,0-9.8-1.1
			c-6.8-2.1-11.3-6.5-13.7-13.2C1240.9,286.3,1240.6,284,1240.6,278.9z M1277,279.6c-0.2-2.5-0.3-5.1-0.7-7.6
			c-0.6-3.8-2.4-7.1-5.3-9.7c-4.2-3.8-12.6-3.5-16,2.3c-0.6,1-1.1,2.1-1.4,3.2c-2,7-1.4,14,0.7,20.9c0.4,1.3,1.2,2.6,1.9,3.8
			c4.2,6.8,15,6.3,18.7-1c0.7-1.5,1.3-3.1,1.5-4.7C1276.7,284.4,1276.8,282.1,1277,279.6z"/>
		<path class="st5" d="M739.5,304c-3,0.3-6.2-0.5-9.3-1.7c-6.3-2.5-10.4-7.3-12.1-13.9c-1.7-6.3-1.7-12.6,0.2-18.9
			c3.1-9.8,10.1-15.1,20-16.6c3.7-0.5,7.5-0.2,11.2,0.8c7.4,2.2,12.2,7,14.5,14.2c2,6.5,1.8,13.1-0.3,19.5
			C760.4,297.9,751.1,304.4,739.5,304z M753.3,280.1c-0.1-2.2-0.1-4.3-0.3-6.4c-0.4-3.8-1.7-7.3-4.3-10.2c-2.3-2.6-5.2-3.9-8.8-3.8
			c-4.2,0.2-7.2,2.1-9.1,5.7c-1,1.9-1.7,3.9-1.7,6.1c0,3.8-0.1,7.5,0.1,11.3c0.2,2.8,1.1,5.5,2.4,8.1c2.3,4.4,5.8,6.6,10.9,6.2
			c3.9-0.3,6.7-2.2,8.5-5.4c1.1-1.8,1.8-3.8,2-6C753.1,283.9,753.2,282,753.3,280.1z"/>
		<path class="st5" d="M1180.8,302.7c-6.2,0-12.3,0-18.5,0c-1.2,0-2.5-2-2.2-3.2c0.1-0.5,0.2-1,0.4-1.3c0.8-1.2,1.6-2.3,2.5-3.5
			c7-9,13.9-18,20.9-27c0.9-1.1,1.7-2.3,2.5-3.4c0.4-0.5,0-1.7-0.5-1.7c-4.3-0.4-8.5-0.1-12.7,0.3c-1,0.1-1.7,0.8-2.1,1.7
			c-0.6,1.5-1.2,3.1-1.8,4.6c-0.6,1.6-2.1,2.3-4.1,1.7c-0.6-0.2-1-0.9-1.5-1.4c-0.1-0.2-0.2-0.4-0.2-0.7c0.1-4,0.2-8,0.4-12.1
			c0-1.2,1.2-2.3,2.3-2.3c0.9,0,1.9-0.1,2.8-0.1c9.9,0.6,19.9,0.6,29.8,0c0.7,0,1.4,0,2.1,0c0.9,0,2.3,1.3,2.3,2.3
			c0,0.9,0.1,2-0.3,2.7c-1,1.6-2.2,3.1-3.4,4.6c-6.4,8.2-12.9,16.3-19.3,24.6c-1.1,1.5-2.1,3.1-3,4.7c-0.1,0.2,0.2,0.9,0.5,1.2
			c0.3,0.3,0.9,0.5,1.3,0.5c3.6,0,7.1,0,10.7-0.1c0.5,0,0.9-0.1,1.4-0.2c1.7-0.4,3.1-1.3,3.7-3c0.5-1.6,0.8-3.2,1.3-4.8
			c0.5-1.8,1.8-2.5,3.9-2.1c1.3,0.2,2.3,1.2,2.3,2.3c-0.1,4.3-0.3,8.5-0.5,12.8c-0.1,2-1.1,2.8-3.3,2.7c-5.9-0.1-11.8-0.2-17.8-0.3
			C1180.8,302.6,1180.8,302.6,1180.8,302.7z"/>
		<path class="st5" d="M1148.1,274.3c0.1,5,0.2,10.7,0.4,16.3c0,1,0.8,1.7,1.8,1.8c1.2,0,2.4-0.1,3.5-0.1c1.6,0,2.4,1,2.5,2.8
			c0.1,0.8-0.3,1.4-0.9,1.8c-0.6,0.4-1.2,0.8-1.9,1c-4.4,1-8.5,2.9-12.5,4.9c-2,1-3.4,0.3-4.2-2c-0.2-0.4-0.2-0.9-0.4-1.3
			c-0.3-0.8-1.6-1.2-2.4-0.8c-0.8,0.4-1.7,0.9-2.5,1.4c-4.3,2.7-8.9,2.9-13.6,1.2c-3.7-1.3-5.9-3.9-6.6-7.7
			c-0.4-1.8-0.4-3.8-0.4-5.7c-0.1-4.5,0-9,0-13.5c0-2.4,0-4.7-0.3-7.1c-0.7-6.4-0.5-5.6-6.1-6.7c-0.4-0.1-0.9-0.3-1.3-0.6
			c-0.3-0.3-0.6-0.8-0.6-1.2c0-0.4,0.4-0.9,0.7-1.1c0.3-0.3,0.8-0.4,1.3-0.4c4-0.3,8-0.6,12-1.5c1.7-0.4,3.2,0.3,2.8,2.9
			c-0.9,7.1-0.9,14.2-0.9,21.3c0,2.1,0,4.3,0.2,6.4c0.2,1.6,0.6,3.3,1.1,4.8c0.8,2.2,2.5,3.5,4.6,4c2.6,0.6,5.2,0.5,7.6-0.8
			c1.1-0.6,1.9-1.2,2.6-2.3c1.9-3.1,2.7-6.5,2.7-10.2c-0.1-5.7-0.2-11.4-0.2-17c0-1.7-1.1-2.6-2.3-3.4c-1.2-0.7-2.6-1-3.9-1.6
			c-0.3-0.1-0.6-0.7-0.6-1.1c0-0.4,0.4-1,0.8-1.1c2.9-0.8,5.5-2.5,8.7-2.5c1.9,0,3.7-0.7,5.6-1c1.7-0.3,3.3,1.2,3.2,2.9
			C1148.6,262.7,1148.4,268.2,1148.1,274.3z"/>
		<path class="st5" d="M928.4,304c-6,0.1-10.4-0.9-14.6-2.6c-1-0.4-1.4-1.2-1.3-2.2c0.2-3.1,0.5-6.1,0.7-9.2c0.3-3,1.7-4.1,4.7-3.3
			c0.4,0.1,0.9,0.4,1.1,0.8c0.6,1.3,1.1,2.6,1.6,3.9c1.8,4.2,6,6,9.8,5.4c2-0.3,3.7-1.1,4.4-3.1c0.8-2.1,0.6-4.2-0.9-6
			c-0.9-1.1-2-2-3.2-2.8c-2.2-1.4-4.6-2.5-6.8-3.8c-2.2-1.3-4.5-2.7-6.6-4.2c-1.5-1.1-2.8-2.6-3.6-4.3c-2.1-4.2-1.5-8.3,1.1-12.1
			c1.6-2.4,3.7-4.3,6.3-5.5c7.4-3.5,14.7-2.7,21.9,0.7c0.3,0.2,0.7,0.7,0.7,1.1c-0.3,3.5-0.6,7.1-1,10.6c-0.1,0.9-1.1,1.6-2.1,1.6
			c-0.9-0.1-1.9-0.2-2.8-0.4c-0.4-0.1-0.9-0.4-1-0.8c-0.3-0.9-0.4-1.8-0.7-2.7c-2-5.2-6.7-5.8-10.5-4.7c-1.2,0.3-2,1.3-2.6,2.3
			c-0.7,1.1-0.8,2.3-0.2,3.3c0.6,1,1.3,2,2.2,2.7c2.3,1.6,4.8,2.9,7.3,4.4c2.6,1.6,5.4,3,7.9,4.8c7.1,5.1,6.6,14.8,2,20.1
			c-3.1,3.5-7.1,5.4-11.7,6.1C929.3,304.1,928.1,304,928.4,304z"/>
		<path class="st5" d="M698.4,258.4c1.3-0.9,2.6-2,4.1-2.8c3.1-1.8,6.3-1.8,9.5-0.6c0.9,0.4,1.6,1.3,1.5,2.1c-0.5,3-1,6.1-1.5,9.1
			c-0.2,1-0.9,1.6-1.9,1.8c-1,0.1-1.9,0.1-2.6-0.7c-0.3-0.3-0.5-0.8-0.8-1.2c-1.7-2.6-3.2-2.8-5.6-0.8c-3.2,2.8-5,6.2-5.1,10.5
			c-0.2,5.9-0.2,11.8,0.3,17.7c0.1,1.3,0.9,2.2,2.1,2.6c1.5,0.6,3.2,0.9,4.7,1.4c1,0.3,1.6,1.7,1.4,2.9c-0.2,1.4-1.1,2.2-2.3,2.2
			c-7.6,0-15.1,0-22.7,0c-0.9,0-1.7-0.8-1.9-1.8c-0.4-2.2,0.2-3.2,2.2-3.8c1.1-0.3,2.3-0.6,3.4-1c1.5-0.5,2.3-1.7,2.3-3.2
			c0.1-4.5,0.3-9,0.3-13.5c0-4-0.1-8-0.2-12c-0.1-2.2-1-3.1-3-3c-0.7,0-1.4,0.2-2.1,0.3c-2.3,0.1-3.4-1.3-2.8-3.7
			c0.1-0.4,0.4-0.9,0.7-1.1c0.6-0.4,1.2-0.7,1.9-0.9c4.1-1.1,8-2.7,11.8-4.7c0.8-0.4,1.7-0.9,2.7-0.5c1.3,0.4,1.7,1.5,2.1,2.6
			c-0.2,0.9-0.4,1.7-0.5,2.6c0,0.2,0.1,0.6,0.2,0.6c0.4,0,0.8,0.1,1.1-0.1C698,259.3,698.2,258.8,698.4,258.4z"/>
		<path class="st5" d="M995.8,302.7c-3.8,0-7.6,0-11.4,0c-1,0-2-1.2-2.1-2.5c-0.1-1,0.4-2.2,1.1-2.4c1.5-0.5,3.1-1,4.7-1.6
			c1.4-0.5,2.4-1.4,2.4-3.1c0-6.2,0.1-12.3,0.1-18.5c0-2.6-0.1-5.2-0.1-7.8c0-1.6-1-2.4-2.8-2.3c-1.2,0-2.3,0.1-3.5,0.1
			c-0.6,0-1.6-1.2-1.7-2c-0.2-1-0.1-1.9,0.7-2.6c0.6-0.4,1.2-0.8,1.9-0.9c4.4-1.2,8.5-2.9,12.5-5c2-1,3.8,0,4.1,2.2
			c0.1,0.7,0,1.4,0.2,2.1c0.1,0.3,0.8,0.6,1,0.5c1.2-0.8,2.3-1.7,3.4-2.5c3.1-2.2,6.5-2.7,10.1-1.6c2,0.6,2.6,1.6,2.2,3.7
			c-0.5,2.6-0.9,5.1-1.3,7.7c-0.2,1.1-0.9,1.6-1.9,1.9c-1.1,0.3-2.6-0.2-3.1-1.1c-0.4-0.6-0.5-1.3-0.9-1.9c-0.8-1.2-2.5-1.5-3.8-0.7
			c-2.7,1.7-4.6,4-5.6,7.1c-0.4,1.1-0.8,2.3-0.8,3.4c-0.5,6.1-0.6,12.3,0.3,18.4c0.2,1.6,1.2,2.6,2.6,3.1c1.1,0.4,2.3,0.5,3.4,0.9
			c1.7,0.5,2.4,1.8,1.9,3.9c-0.2,0.7-0.7,1.3-1.4,1.4c-0.9,0.1-1.9,0.1-2.8,0.1C1001.9,302.7,998.9,302.7,995.8,302.7
			C995.8,302.7,995.8,302.7,995.8,302.7z"/>
		<path class="st5" d="M956.5,279.2c0-5,0-9.9,0-14.9c0-1-0.7-1.6-1.8-1.7c-0.9-0.1-1.9,0-2.8-0.1c-1-0.2-1.7-1-1.8-1.9
			c-0.1-0.8,0.1-1.9,0.5-2.7c0.3-0.6,1.1-0.9,1.7-1.2c3.8-2.2,6.6-5.3,8.6-9.2c0.5-1,1.1-2.1,1.7-3.1c0.7-1.3,1.8-1.7,3.7-1.3
			c1,0.2,1.8,0.9,1.8,1.9c0,1.4-0.1,2.8-0.1,4.2c0,1.4-0.1,2.8-0.1,4.2c0,0.6,0.7,1.5,1.3,1.5c2.8,0,5.7,0,8.5,0.1
			c0.7,0,1.4,0.2,2,0.4c0.4,0.1,1,1.3,0.9,1.8c-0.2,1.7-1.2,3.1-2.1,4.4c-0.3,0.5-1.1,0.9-1.7,1c-0.9,0.2-1.9,0.1-2.8,0.1
			c-7.2-0.3-6.6-0.5-6.9,6.2c-0.3,5.7-0.2,11.4-0.3,17c0,2.4,0.3,4.7,1.1,7c0.4,1.2,2.2,2.3,3.4,2c1.6-0.4,3.2-0.9,4.8-1.3
			c1.7-0.5,2.4-0.1,3.5,1.5c0.1,0.2,0.2,0.4,0.4,0.6c0.5,0.9,0.4,2.1-0.3,2.5c-3.4,2.2-6.8,4.2-10.8,5.1c-6.1,1.4-11.6-2.3-12.3-8.5
			c-0.1-0.7-0.1-1.4-0.1-2.1c0-4.5,0-9,0-13.5C956.4,279.2,956.5,279.2,956.5,279.2z"/>
		<path class="st5" d="M899.6,274.3c0,6.1,0,12.3,0,18.4c0,2,1.1,3,2.8,3.6c0.9,0.3,1.8,0.5,2.7,0.8c2,0.7,2.7,2.4,1.7,4.5
			c-0.2,0.4-0.6,0.8-1,0.9c-0.4,0.2-0.9,0.1-1.4,0.1c-6.4,0-12.7,0-19.1,0c-0.9,0-1.9-0.1-2.8-0.3c-0.4-0.1-0.8-0.5-1-0.9
			c-0.9-1.7-0.4-3.6,1.2-4.2c0.2-0.1,0.4-0.2,0.7-0.2c5.4-1.2,5.7-2.4,5.8-7.2c0.1-7.8,0-15.6-0.1-23.3c0-1.5-1.1-2.4-2.8-2.4
			c-0.5,0-0.9,0-1.4,0c-0.7,0-1.4-0.1-2.1-0.2c-0.7-0.1-1.5-1.2-1.6-2.2c-0.1-1,0.1-1.9,0.8-2.6c0.2-0.2,0.4-0.3,0.6-0.4
			c5-1.3,9.8-3.4,14.4-5.8c0.7-0.4,2.7,0.6,2.9,1.5c0.2,0.7,0.3,1.4,0.3,2c-0.2,5.9-0.5,11.8-0.7,17.7
			C899.4,274.3,899.5,274.3,899.6,274.3z"/>
		<path class="st5" d="M1369.9,276.4c0.1,4.3,0.2,10.7,0.3,17.1c0,1.4,0.9,2.1,2,2.6c1.1,0.4,2.3,0.7,3.4,1.1
			c1.8,0.6,2.4,1.8,1.9,3.9c-0.2,0.6-0.7,1.1-1.3,1.5c-0.3,0.2-0.9,0.2-1.4,0.2c-6.4,0-12.8,0-19.2,0c-0.7,0-1.4-0.1-2.1-0.1
			c-1-0.1-1.6-0.7-1.8-1.9c-0.3-1.8,0.2-3,1.6-3.4c1.3-0.5,2.7-0.8,4-1.3c0.9-0.4,1.5-1.1,1.7-2.1c0.2-0.9,0.3-1.9,0.4-2.8
			c0.5-8,0.3-16.1,0-24.1c-0.1-2-1-2.7-3.2-2.8c-0.7,0-1.4,0.1-2.1,0c-1.9-0.1-2.9-1.4-2.5-3.4c0.1-0.6,0.6-1.5,1.1-1.7
			c1.7-0.7,3.6-1.1,5.3-1.9c3-1.3,6-2.7,9.1-4c1.1-0.5,3.1,0.7,3.2,1.9c0,0.7,0.1,1.4,0,2.1C1370.3,262.9,1370.1,268.6,1369.9,276.4
			z"/>
		<path class="st5" d="M1227.7,276.9c0.1,4,0.2,10.2,0.3,16.3c0,1.3,0.7,2.2,1.9,2.7c1.1,0.4,2.2,0.7,3.3,1.1
			c2.1,0.7,2.8,2.2,1.9,4.5c-0.2,0.4-0.5,0.8-0.9,1c-0.4,0.2-0.9,0.2-1.4,0.2c-6.6,0-13.3,0-19.9,0c-0.7,0-1.4-0.2-2.1-0.3
			c-0.9-0.1-1.1-0.9-1.2-1.5c-0.5-2.1,0.1-3.1,2.1-3.8c0.4-0.1,0.9-0.2,1.4-0.3c2.7-0.5,4.2-2,4.2-4.8c0.1-6.1,0.2-12.3,0.3-18.4
			c0-1.7-0.1-3.3-0.2-5c-0.1-3.8-0.7-4.7-4.5-4.4c-0.7,0.1-1.4-0.1-2.1-0.3c-0.4-0.1-0.8-0.5-1-0.9c-0.9-1.6-0.3-3.7,1.3-4.1
			c4.8-1.3,9.4-3.2,13.8-5.6c1.4-0.8,3.5,0.7,3.5,2.4C1228.2,262,1227.9,268.4,1227.7,276.9z"/>
		<path class="st5" d="M1033.8,302.7c-3.5,0-7.1,0-10.6,0c-1.4,0-2.5-1.3-2.4-2.9c0-1,0.5-1.8,1.5-2.2c1.5-0.6,3.1-1,4.6-1.7
			c0.9-0.4,1.6-1,1.7-2.1c0.1-0.7,0.2-1.4,0.2-2.1c0-8.3,0-16.5,0-24.8c0-1.9-0.8-2.6-2.5-2.7c-1.2-0.1-2.4,0-3.5-0.1
			c-0.9-0.1-1.9-1.4-2-2.6c0-0.9,0.6-2.2,1.2-2.4c0.9-0.3,1.8-0.5,2.7-0.8c4.1-1.3,7.9-3,11.7-5c1.3-0.7,3.6,0.8,3.6,2.3
			c0,0.7,0,1.4,0,2.1c-1.1,9.9-0.9,19.8-0.9,29.7c0,1.4,0.2,2.8,0.1,4.2c-0.1,2.8,1.4,4.4,4,5c0.7,0.2,1.4,0.3,2,0.6
			c1.4,0.5,2.2,1.9,1.8,3.4c-0.3,1.1-1.4,2-2.6,2c-2.4,0-4.7-0.1-7.1-0.1c-1.2,0-2.4,0-3.5,0
			C1033.8,302.6,1033.8,302.6,1033.8,302.7z"/>
		<path class="st5" d="M1576.2,304c-3.6-0.1-6.7-3.4-6.3-7c0.4-4,3-6.4,7-6.2c3.6,0.2,6.7,3.4,6.4,6.9
			C1583,300.6,1580.3,304.4,1576.2,304z"/>
		<path class="st5" d="M1473.4,304.1c-3.3,0.2-6.7-2.9-6.6-6.6c0.1-3.8,2.8-6.6,6.6-6.6c3.8,0,6.6,2.9,6.6,6.6
			C1480.1,301.3,1476.5,304.3,1473.4,304.1z"/>
		<path class="st5" d="M1673.7,304c-3.1,0.3-6.8-2.2-6.9-6.5c-0.1-3.6,2.5-6.4,6-6.7c4.4-0.3,7,3,7.3,6.1
			C1680.5,300.1,1677.3,304.1,1673.7,304z"/>
		<path class="st5" d="M1034.2,230c3.4-0.2,6.4,3.1,6.3,6.1c0,3.7-3.1,6.9-6.6,6.6c-3.2-0.2-6.3-3.5-6.1-6.6
			C1027.9,232.8,1030.8,230,1034.2,230z"/>
		<path class="st5" d="M1365,230c3.4,0,6.3,2.9,6.4,6.2c0.1,3.5-3.5,6.8-6.9,6.5c-3.4-0.3-5.9-3.2-5.9-6.6
			C1358.7,233,1361.6,229.8,1365,230z"/>
		<path class="st5" d="M1222.6,230c3.4-0.1,6.4,2.6,6.6,6c0.2,3.3-2.7,6.8-6.6,6.8c-3.4-0.1-6.1-3-6.2-6.4
			C1216.4,232.8,1219.6,229.8,1222.6,230z"/>
		<path class="st5" d="M894.8,242.8c-3.2,0.2-6.4-2.6-6.6-5.9c-0.3-3.4,2.3-6.5,5.7-6.8c3.7-0.3,7,2.5,7.1,6.2
			C901,239.4,898.1,242.5,894.8,242.8z"/>
		<path class="st4" d="M698.4,258.4c-0.3,0.4-0.4,0.8-0.8,1c-0.3,0.2-0.8,0.1-1.1,0.1c-0.1,0-0.2-0.4-0.2-0.6
			c0.1-0.9,0.3-1.7,0.5-2.6C697.4,257.1,697.9,257.8,698.4,258.4z"/>
	</g>
</g>
</svg>
