<?xml version="1.0" encoding="utf-8"?>
<!-- Generator: Adobe Illustrator 26.5.0, SVG Export Plug-In . SVG Version: 6.00 Build 0)  -->
<svg version="1.1" id="Livello_2_00000006702198377982141680000008335271089834144156_"
	 xmlns="http://www.w3.org/2000/svg" xmlns:xlink="http://www.w3.org/1999/xlink" x="0px" y="0px" viewBox="0 0 420.1 361"
	 style="enable-background:new 0 0 420.1 361;" xml:space="preserve">
<style type="text/css">
	.st0{fill:#CF0403;}
	.st1{fill:#74A53E;}
	.st2{fill:#925E2B;}
</style>
<g>
	<path class="st0" d="M262.8,360.2c-0.4,0.1-0.8,0.1-1.1,0.2c-0.1-0.1-0.3-0.2-0.4-0.2c-1.2,0.3-2.3,0.4-3.5,0.5
		c-0.2,0-0.4,0.2-0.6,0.3c-1.4,0-2.7,0-4.1,0c-0.2-0.1-0.4-0.3-0.6-0.4c-0.6-0.1-1.2-0.1-1.8-0.2c-1.6-0.4-3.1-0.4-4.7-0.4
		c-1.9,0-3.8-0.4-5.6-0.7c-14.4-2.4-27.5-7.9-39.9-15.5c-9.7-6-18.5-13.1-26.5-21.1c-12.6-12.5-22.9-26.6-31.1-42.2
		c-5.3-10.1-9.6-20.6-12.7-31.7c-1.5-5.5-2.7-11.1-3.6-16.7c-1.2-7.7-1.6-15.4-1.2-23.2c0.2-3.6,0.6-7.3,1.2-10.9
		c0.9-5.3,2-10.6,3.3-15.8c2.3-8.9,5.4-17.6,9.7-25.8c3.9-7.5,8.7-14.5,14.6-20.6c7.5-7.7,16.2-13.5,26.3-17.3
		c4.5-1.7,9.1-2.9,13.8-3.7c6.7-1.2,13.4-1.5,20.2-1.2c3.6,0.2,7.3,0.6,10.9,1.2c5.5,0.9,10.9,2.1,16.2,3.8
		c8.7,2.8,17,6.4,24.7,11.4c3.2,2.1,6.2,4.4,9,7c2,2,3.9,4.1,5.3,6.5c0.1,0.2,0.3,0.4,0.4,0.5c0.1,0.1,0.3,0.1,0.4,0.1
		c0.4-0.3,0.8-0.6,1.2-1c4-3.6,7.9-7.1,11.9-10.7c0.6-0.6,1.3-1.1,1.9-1.6c0.1-0.1,0.3-0.1,0.4-0.2c0,0.2,0.1,0.5,0,0.7
		c-0.8,2.3-1.6,4.6-2.4,6.9c-0.6,1.7-1.2,3.4-1.8,5.2c-0.2,0.5-0.5,0.9-0.9,1.3c-3.4,2.9-6.8,5.8-10.2,8.7c-0.3,0.2-0.5,0.2-0.8-0.1
		c-1.1-1.2-2.1-2.4-3.2-3.6c-3.7-3.9-8-7-12.6-9.7c-6.5-3.8-13.5-6.6-20.7-8.7c-4.2-1.2-8.4-2-12.7-2.6c-2.2-0.3-4.4-0.5-6.6-0.7
		c-3.2-0.3-6.4-0.4-9.6-0.3c-3.3,0.1-6.5,0.4-9.8,0.8c-4.7,0.6-9.3,1.5-13.8,2.9c-10.8,3.2-20.5,8.4-28.8,16
		c-6.5,6-11.7,12.9-15.8,20.8c-3.5,6.9-6,14.1-7.7,21.6c-1,4.4-1.7,8.8-2.2,13.3c-0.4,3.6-0.6,7.3-0.8,10.9c-0.2,4.5,0,9,0.3,13.4
		c1.3,16.2,5.7,31.5,12.9,46c6.5,12.9,14.8,24.4,24.8,34.8c2.9,3,5.9,5.9,9.1,8.7c0.5,0.4,1,0.7,1.1,1.4c0,0.1,0.2,0.3,0.3,0.3
		c0.8,0.2,1.4,0.8,2.1,1.4c3.5,2.9,7,5.6,10.7,8.1c9.1,6.2,18.8,11.4,29.2,15.3c5.6,2.1,11.4,3.7,17.3,4.8c5.5,1,11,1.4,16.6,1
		c6.2-0.4,12.1-1.9,17.6-5c0.2-0.1,0.3-0.1,0.4,0.1c0,0.1,0,0.1,0,0.2c-0.1,0.1-0.1,0.3-0.2,0.4c-0.2,0.3-0.4,0.7-0.6,1
		c-2.5,4.1-5.1,8.1-7.6,12.2c-0.2,0.4-0.5,0.8-0.8,1.1c-0.2,0.2-0.5,0.4-0.8,0.5c-1.6,0.1-3.1,0.6-4.7,0.6
		C263.8,360,263.3,360,262.8,360.2z"/>
	<path class="st1" d="M168.6,0c0.1,0.1,0.1,0.3,0.2,0.4c0.1,0.1,0.3,0.1,0.4,0.1c3.5,0.2,7,0.6,10.4,1c10.4,1.4,20.6,3.8,30.4,7.6
		c9.1,3.6,17.6,8.3,25.2,14.4c12.4,10,21,22.5,25.9,37.5c1.5,4.6,2.6,9.2,3.3,14c0.7,4.9,1.1,9.8,1.2,14.8c0,0.5,0,0.9,0,1.4
		c0,0.2-0.1,0.4-0.4,0.5c-0.4,0.1-0.9,0.3-1.3,0.4c-3.5,0.6-7,1.2-10.6,1.5c-2.4,0.2-4.8,0.5-7.3,0.7c-2.4,0.2-4.9,0.2-7.3,0.2
		c-2.8,0-5.6,0-8.4-0.1c-3.2-0.1-6.4-0.4-9.5-0.8c-2.4-0.3-4.8-0.6-7.2-1c-4.7-0.8-9.4-1.8-14-3.1c-8-2.2-15.7-5.2-23.1-8.9
		c-8.2-4.2-15.9-9.3-22.9-15.3c-10.3-8.8-18.9-19.1-25.9-30.7c-5.6-9.2-10-18.9-13.7-29c-0.1-0.2-0.1-0.4-0.2-0.7
		c-0.1-0.4,0.1-0.8,0.5-0.9c1-0.2,2.1-0.4,3.1-0.6c2.6-0.4,5.2-0.9,7.9-1.3c1.7-0.2,3.3-0.4,5-0.6c2-0.2,4.1-0.5,6.1-0.7
		c0.3,0,0.6-0.1,0.9-0.1c3.3-0.2,6.7-0.6,10-0.6c0.6,0,1.2-0.1,1.8-0.1c0.1,0,0.2-0.2,0.4-0.3C155.8,0,162.2,0,168.6,0z M153.5,5.8
		c-4.3,0-8.7,0.5-13,0.7c-2,0.1-4.1,0.3-6.1,0.5c-2,0.2-3.9,0.5-5.9,0.8c-2,0.3-4,0.7-6.1,1c-0.1,0-0.3,0.1-0.4,0.2
		c-0.3,0.1-0.5,0.5-0.4,0.7c0.2,0.6,0.5,1.3,0.7,1.9c2.2,5.4,4.7,10.7,7.6,15.8c7.8,13.6,17.5,25.6,29.7,35.5
		c6.4,5.3,13.4,9.8,20.9,13.4c6,3,12.3,5.2,18.7,7.1c6.7,2,13.5,3.4,20.5,4.3c3.3,0.4,6.6,0.8,10,0.9c0.8,0,1.5,0.1,2.3,0.1
		c3,0,6.1,0.1,9.1,0c3-0.1,6.1-0.3,9.1-0.6c2.9-0.3,5.7-0.7,8.6-1.1c0.3,0,0.6-0.2,0.8-0.3c0.1-0.1,0.2-0.2,0.3-0.3
		c0.1-0.3,0.1-0.6,0.1-0.9c0-1.9-0.2-3.8-0.4-5.7c-0.3-3.3-0.9-6.6-1.7-9.9c-2.3-9.5-6.2-18.3-11.7-26.3c-6.2-9-13.8-16.4-23.2-21.9
		c-4-2.3-8.2-4.4-12.4-6.2c-10.1-4.3-20.7-6.9-31.6-8.3c-1.6-0.2-3.2-0.4-4.8-0.6c-2.9-0.4-5.8-0.5-8.6-0.7
		C161.5,5.8,157.5,5.9,153.5,5.8z"/>
	<path class="st2" d="M246,360.1c1.6,0,3.2,0,4.7,0.4c0.6,0.1,1.2,0.1,1.8,0.2c0.2,0,0.4,0.2,0.6,0.4c-1.5,0-3,0-4.6,0
		c0-0.1,0-0.3-0.1-0.4c-0.2-0.1-0.4-0.2-0.6-0.2C247.2,360.3,246.6,360.2,246,360.1z"/>
	<path class="st2" d="M257.2,361c0.2-0.1,0.4-0.3,0.6-0.3c1.2-0.1,2.4-0.2,3.5-0.5c0.1,0,0.3,0.1,0.4,0.2c-0.2,0.2-0.2,0.5,0.1,0.6
		C260.2,361,258.7,361,257.2,361z"/>
	<path class="st2" d="M279.6,127.9c-1.1-1.9-1.9-4-2.7-6c-2.3-5.7-3.9-11.5-5-17.5c-0.8-4.7-1.2-9.3-1.1-14.1c0-3.2,0.2-6.4,0.7-9.5
		c0.8-5.7,2.3-11.2,4.4-16.5c1.5-3.6,3.2-7.1,5.3-10.3c0.5-0.8,1-1.5,1.5-2.3c1.8-2.4,1.1-2.1,3.8-1c6.3,2.8,12.5,5.6,18.7,8.3
		c0.3,0.2,0.7,0.3,1,0.5c0.2,0.1,0.2,0.5,0,0.6c-0.3,0.3-0.7,0.6-1,0.9c-2.1,1.9-4.2,3.7-6.2,5.7c-4.7,4.6-8.8,9.6-12.2,15.3
		c-3.2,5.2-5.5,10.8-6.9,16.8c-0.6,2.7-1.1,5.4-1.3,8.1c-0.1,1.4-0.3,2.9-0.3,4.3c0,4.6,0.5,9.3,1.5,13.8c0.3,1.3,0.7,2.5,0.8,3.8
		c-0.2,0-0.3,0-0.5,0c0,0-0.1-0.2-0.1-0.2C280,128.3,280,128,279.6,127.9z"/>
	<path class="st1" d="M280.1,128.8c0.2,0,0.3,0,0.5,0c0.1,0,0.1,0.1,0.2,0.1c0.3,0.6,0.4,1.2,0.5,2
		C280.6,130.2,280.2,129.6,280.1,128.8z"/>
	<path class="st2" d="M262.8,360.2c0.5-0.3,1-0.2,1.5-0.1C263.8,360.3,263.3,360.4,262.8,360.2z"/>
	<path class="st1" d="M279.6,127.9c0.3,0.1,0.4,0.4,0.4,0.7C279.7,128.4,279.6,128.2,279.6,127.9z"/>
</g>
</svg>
