<?xml version="1.0" encoding="utf-8"?>
<!-- Generator: Adobe Illustrator 26.5.0, SVG Export Plug-In . SVG Version: 6.00 Build 0)  -->
<svg version="1.1" xmlns="http://www.w3.org/2000/svg" xmlns:xlink="http://www.w3.org/1999/xlink" x="0px" y="0px"
	 viewBox="0 0 1952.5 361" style="enable-background:new 0 0 1952.5 361;" xml:space="preserve">
<style type="text/css">
	.st0{display:none;}
	.st1{display:inline;fill:#19213B;}
	.st2{fill:#FFFFFF;}
	.st3{fill:#CF0403;}
	.st4{fill:#74A53E;}
	.st5{fill:#925E2B;}
</style>
<g id="Livello_3" class="st0">
	<rect y="-0.5" class="st1" width="1952.5" height="361"/>
</g>
<g id="Livello_2_00000086660104751845247060000016979016254965616035_">
	<g>
		<path class="st2" d="M219.9,358.8c-0.1,0.1-0.1,0.1-0.2,0.1"/>
		<path class="st2" d="M207.7,358.2c-1.5,0-3-0.3-4.4-0.5c-0.4-0.1-0.8-0.1-1.2-0.2c-13.6-2.3-26.6-7.3-39.8-15.4
			c-9.2-5.7-18.1-12.8-26.4-21c-12.3-12.2-22.7-26.3-30.9-42c-5.4-10.3-9.7-20.8-12.6-31.5c-1.5-5.4-2.7-11-3.6-16.6
			c-1.2-7.5-1.6-15.3-1.2-23.1c0.2-3.3,0.5-6.9,1.2-10.9c0.9-5.4,2-10.7,3.3-15.7c2.5-9.6,5.6-18,9.6-25.7c4.1-8,8.9-14.7,14.6-20.6
			c7.5-7.7,16.4-13.6,26.4-17.3c4.3-1.6,8.9-2.9,13.9-3.8c4.9-0.9,10.1-1.3,15.4-1.3c1.6,0,3.2,0,4.9,0.1c3.5,0.2,7.1,0.6,10.9,1.2
			c5.5,0.9,10.9,2.1,16.1,3.8c9.3,2.9,17.4,6.7,24.7,11.4c3.5,2.3,6.5,4.6,9,7.1c2.2,2.1,3.9,4.1,5.2,6.2c0.1-0.1,0.1-0.1,0.2-0.2
			c2.3-2,11.7-10.5,11.7-10.5c0.6-0.6,1.3-1.1,1.9-1.6c0.2-0.2,0.5-0.3,0.6-0.4l2-1l0.1,2.2c0,0.3,0.1,0.7-0.1,1.1
			c-0.5,1.6-1.1,3.2-1.6,4.8l-0.7,2c-0.6,1.7-1.2,3.4-1.7,5.1c-0.3,0.8-0.7,1.4-1.3,1.9c-2.2,1.9-4.5,3.8-6.7,5.7l-3.4,2.9
			c-0.5,0.4-0.9,0.5-1.3,0.5c-0.5,0-1.1-0.2-1.4-0.7c-0.3-0.4-0.7-0.8-1-1.2c-0.7-0.8-1.4-1.6-2.1-2.3c-3.3-3.4-7.3-6.5-12.1-9.3
			c-6-3.5-12.6-6.3-20.1-8.4c-3.9-1.1-8-2-12.3-2.6c-2-0.3-4-0.5-6.4-0.7c-2.4-0.2-4.8-0.3-7.2-0.3c-0.7,0-1.4,0-2,0
			c-2.8,0.1-5.8,0.3-9.5,0.7c-4.5,0.5-9,1.5-13.4,2.8c-10.7,3.2-20.1,8.4-27.9,15.5c-6.1,5.6-11.2,12.3-15.2,20.1
			c-3.2,6.3-5.7,13.2-7.5,21c-0.9,3.9-1.6,8.1-2.2,12.9c-0.4,3.6-0.6,7.2-0.7,10.7c-0.2,4.1-0.1,8.4,0.3,13.1
			c1.3,15.6,5.5,30.6,12.6,44.8c6.1,12.2,14.3,23.6,24.2,33.9c2.8,2.9,5.8,5.8,8.9,8.5l0.2,0.2c0.3,0.3,0.8,0.7,1.2,1.3
			c0.8,0.3,1.4,0.8,1.9,1.2l0.2,0.2c3.3,2.7,6.8,5.4,10.5,7.9c9.4,6.4,18.7,11.3,28.5,14.9c5.6,2.1,11.2,3.6,16.8,4.6
			c4,0.7,7.9,1.1,11.8,1.1c1.4,0,2.8,0,4.2-0.1c6.4-0.4,11.8-2,16.8-4.7c0.3-0.2,0.6-0.2,0.9-0.2c0.6,0,1.1,0.3,1.4,0.8
			c0.3,0.5,0.3,1.1,0.1,1.5c-0.1,0.2-0.2,0.3-0.3,0.5l-0.1,0.2c-0.2,0.3-0.3,0.5-0.5,0.8c-2.5,4-7.7,12.3-7.7,12.3
			c-0.2,0.3-0.4,0.7-0.7,1c-0.2,0.3-0.8,0.8-1.7,0.9c-0.5,0-1.1,0.1-1.7,0.2c-0.9,0.2-1.8,0.3-2.8,0.3c-0.1,0-0.3,0-0.4,0l-0.1,0
			l-0.1,0c-0.2,0-0.3,0-0.4,0c-0.1,0-0.2,0-0.2,0l-0.2,0.1l-8.4,0.6"/>
		<path class="st3" d="M207.9,356.8c-1.9,0-3.7-0.4-5.6-0.7c-14.2-2.4-27.1-7.8-39.3-15.3c-9.5-5.9-18.2-12.9-26.1-20.8
			c-12.4-12.3-22.5-26.2-30.7-41.6c-5.3-10-9.5-20.3-12.5-31.2c-1.5-5.4-2.7-10.9-3.5-16.5c-1.2-7.6-1.5-15.2-1.2-22.8
			c0.2-3.6,0.6-7.2,1.2-10.7c0.8-5.3,1.9-10.5,3.3-15.6c2.3-8.8,5.3-17.3,9.5-25.4c3.8-7.4,8.5-14.2,14.4-20.3
			c7.4-7.6,16-13.3,25.9-17c4.4-1.7,9-2.9,13.6-3.7c6.6-1.2,13.2-1.5,19.9-1.2c3.6,0.2,7.2,0.6,10.7,1.1c5.4,0.9,10.7,2.1,15.9,3.7
			c8.6,2.7,16.8,6.3,24.4,11.3c3.1,2,6.1,4.3,8.8,6.9c2,1.9,3.8,4,5.2,6.4c0.1,0.2,0.3,0.4,0.4,0.5c0.1,0.1,0.3,0.1,0.4,0.1
			c0.4-0.3,0.8-0.6,1.2-1c3.9-3.5,7.8-7,11.7-10.5c0.6-0.6,1.2-1.1,1.9-1.6c0.1-0.1,0.3-0.1,0.4-0.2c0,0.2,0.1,0.5,0,0.6
			c-0.8,2.3-1.6,4.5-2.3,6.8c-0.6,1.7-1.2,3.4-1.7,5.1c-0.2,0.5-0.4,0.9-0.9,1.3c-3.4,2.9-6.7,5.7-10.1,8.6
			c-0.3,0.2-0.5,0.2-0.8-0.1c-1-1.2-2-2.4-3.1-3.5c-3.7-3.8-7.9-6.9-12.4-9.6c-6.4-3.8-13.3-6.5-20.4-8.5c-4.1-1.2-8.3-2-12.5-2.6
			c-2.1-0.3-4.3-0.5-6.5-0.7c-3.1-0.3-6.3-0.3-9.4-0.3c-3.2,0.1-6.4,0.4-9.6,0.7c-4.6,0.6-9.2,1.5-13.6,2.8
			c-10.6,3.2-20.2,8.3-28.4,15.8c-6.4,5.9-11.6,12.7-15.5,20.5c-3.5,6.8-5.9,13.9-7.6,21.3c-1,4.3-1.7,8.7-2.2,13.1
			c-0.4,3.6-0.6,7.2-0.7,10.8c-0.2,4.4,0,8.8,0.3,13.2c1.3,15.9,5.6,31,12.7,45.3c6.4,12.7,14.6,24.1,24.4,34.3
			c2.9,3,5.8,5.8,8.9,8.5c0.4,0.4,1,0.7,1.1,1.3c0,0.1,0.2,0.3,0.3,0.3c0.8,0.2,1.4,0.8,2.1,1.3c3.4,2.8,6.9,5.5,10.6,8
			c9,6.1,18.5,11.3,28.8,15c5.6,2.1,11.2,3.6,17.1,4.7c5.4,1,10.9,1.3,16.3,1c6.1-0.4,12-1.9,17.3-4.9c0.2-0.1,0.3-0.1,0.4,0.1
			c0,0.1,0,0.1,0,0.2c-0.1,0.1-0.1,0.3-0.2,0.4c-0.2,0.3-0.4,0.6-0.6,1c-2.5,4-5,8-7.5,12c-0.2,0.4-0.5,0.8-0.7,1.1
			c-0.2,0.2-0.5,0.4-0.7,0.5c-1.6,0.1-3.1,0.6-4.7,0.6c-0.5-0.1-1-0.1-1.5,0.1c-0.4,0.1-0.8,0.1-1.1,0.2c-0.1-0.1-0.3-0.2-0.4-0.2
			c-1.1,0.3-2.3,0.4-3.5,0.4c-0.2,0-0.4,0.2-0.5,0.3c-1.3,0-2.7,0-4,0c-0.2-0.1-0.4-0.3-0.5-0.3c-0.6-0.1-1.2-0.1-1.8-0.2"/>
		<path class="st2" d="M198.4,96.6c-2.2,0-4.1,0-5.9-0.1c-2.8-0.1-5.8-0.3-9.5-0.7c-2.5-0.3-4.9-0.6-7.2-1c-4.6-0.7-9.3-1.8-14-3
			c-8-2.2-15.7-5.2-23.1-8.9c-8.2-4.2-15.9-9.3-22.9-15.2c-9.9-8.5-18.6-18.8-25.8-30.6C84.9,28.4,80.4,19,76.5,8.3
			c-0.1-0.2-0.1-0.4-0.2-0.6l-0.1-0.2c-0.2-0.6-0.1-1.2,0.2-1.7c0.3-0.5,0.8-0.8,1.4-0.9l0.5-0.1c0.9-0.2,1.7-0.3,2.6-0.5l0.9-0.2
			c2.3-0.4,4.6-0.7,6.9-1.1c1.4-0.2,2.8-0.4,4.1-0.5l0.8-0.1c1.4-0.2,2.8-0.3,4.2-0.5l1.8-0.2l0.3,0c0.2,0,0.5-0.1,0.7-0.1
			c1.2-0.1,2.4-0.2,3.7-0.3c2-0.2,4-0.3,6-0.3c0,0,0.3,0,0.3,0c0.4,0,0.8,0,1.3-0.1c0,0,0.4-0.3,0.4-0.3h20.2l0.3,0.5
			c3,0.2,6.2,0.5,10,1c11.2,1.5,21.1,4,30.3,7.6c9.6,3.8,17.9,8.5,25.2,14.4c12.3,9.9,21.1,22.6,26,37.6c1.4,4.4,2.5,9.1,3.3,14
			c0.7,4.7,1.1,9.5,1.2,14.7c0,0.6,0,1.1,0,1.5c-0.1,0.8-0.6,1.5-1.3,1.7l-0.3,0.1c-0.4,0.1-0.7,0.3-1.2,0.3l-1.9,0.3
			c-2.8,0.5-5.7,1-8.7,1.2c-1,0.1-1.9,0.2-2.9,0.3c-1.4,0.1-2.8,0.3-4.3,0.4c-2.1,0.1-4.4,0.2-7.3,0.2
			C200.1,96.6,199.2,96.6,198.4,96.6z M87,12.1c0.1,0.3,0.2,0.7,0.4,1c2.1,5.3,4.6,10.4,7.4,15.4c7.7,13.6,17.5,25.2,28.9,34.6
			c6.3,5.1,13.1,9.5,20.3,13.1c5.3,2.6,11.3,4.9,18.2,7c6.6,2,13.3,3.4,20,4.1c3,0.4,6.4,0.8,9.7,0.8c0.3,0,0.7,0,1,0
			c0.4,0,0.8,0,1.2,0l2.1,0c1.1,0,2.2,0,3.3,0c1.2,0,2.4,0,3.6,0c2.9-0.1,5.9-0.2,8.9-0.5c2.2-0.2,4.5-0.5,6.6-0.8l1.8-0.2
			c0,0,0-0.1,0-0.1c0-1.6-0.2-3.2-0.3-4.9l-0.1-0.6c-0.3-3.1-0.8-6.2-1.6-9.5c-2.2-9.2-6-17.8-11.3-25.5c-6.1-8.9-13.6-16-22.4-21.1
			c-3.7-2.2-7.7-4.2-12.1-6c-9.5-4-19.6-6.7-30.8-8.1c-0.7-0.1-1.5-0.2-2.2-0.3c-0.8-0.1-1.7-0.2-2.5-0.3c-2.8-0.4-5.7-0.5-8.4-0.6
			c-2.8-0.1-5.6-0.1-8.3-0.2c-1.2,0-2.4,0-3.6,0c-2.6,0-5.2,0.2-7.8,0.4c-1.7,0.1-3.3,0.2-5,0.3c-1.8,0.1-3.7,0.3-5.5,0.5l-0.5,0.1
			c-2,0.2-3.9,0.5-5.7,0.7c-1.5,0.2-2.9,0.5-4.4,0.7L87,12.1z"/>
		<path class="st4" d="M131.7,2.1c0.1,0.1,0.1,0.3,0.2,0.4c0.1,0.1,0.3,0.1,0.4,0.1c3.4,0.2,6.9,0.6,10.3,1
			c10.3,1.4,20.3,3.7,30,7.5c9,3.5,17.3,8.1,24.9,14.2c12.2,9.8,20.7,22.1,25.6,37c1.5,4.5,2.5,9.1,3.2,13.7
			c0.7,4.8,1.1,9.7,1.2,14.5c0,0.4,0,0.9,0,1.3c0,0.2-0.1,0.4-0.4,0.5c-0.4,0.1-0.8,0.3-1.3,0.4c-3.5,0.6-6.9,1.2-10.4,1.5
			c-2.4,0.2-4.8,0.5-7.2,0.7c-2.4,0.2-4.8,0.2-7.2,0.2c-2.8,0-5.5,0-8.3-0.1c-3.1-0.1-6.3-0.4-9.4-0.7c-2.4-0.3-4.8-0.6-7.1-1
			c-4.7-0.8-9.3-1.8-13.8-3c-7.9-2.2-15.5-5.1-22.8-8.8c-8.1-4.1-15.6-9.1-22.6-15c-10.2-8.7-18.6-18.8-25.5-30.3
			c-5.5-9.1-9.9-18.6-13.5-28.6c-0.1-0.2-0.1-0.4-0.2-0.6c-0.1-0.4,0.1-0.8,0.5-0.8c1-0.2,2.1-0.4,3.1-0.6c2.6-0.4,5.2-0.8,7.8-1.2
			c1.6-0.2,3.3-0.4,4.9-0.6c2-0.2,4-0.5,6-0.7c0.3,0,0.6-0.1,0.9-0.1c3.3-0.2,6.6-0.6,9.9-0.6c0.6,0,1.2-0.1,1.8-0.1
			c0.1,0,0.2-0.2,0.3-0.3C119.1,2.1,125.4,2.1,131.7,2.1z M116.7,7.8c-4.3,0-8.5,0.5-12.8,0.6c-2,0.1-4,0.3-6,0.5
			C96,9.2,94,9.5,92.1,9.8c-2,0.3-4,0.7-6,1c-0.1,0-0.3,0.1-0.4,0.2c-0.3,0.1-0.5,0.5-0.4,0.7c0.2,0.6,0.5,1.3,0.7,1.9
			c2.1,5.4,4.7,10.5,7.5,15.6c7.6,13.4,17.2,25.2,29.2,35c6.3,5.2,13.2,9.6,20.5,13.2c5.9,2.9,12.1,5.2,18.4,7
			c6.6,2,13.3,3.4,20.2,4.2c3.3,0.4,6.5,0.8,9.8,0.9c0.7,0,1.5,0.1,2.2,0.1c3,0,6,0.1,9,0c3-0.1,6-0.3,9-0.6
			c2.8-0.3,5.6-0.7,8.5-1.1c0.3,0,0.6-0.2,0.8-0.3c0.1-0.1,0.2-0.2,0.3-0.3c0.1-0.3,0.1-0.6,0.1-0.9c0-1.9-0.2-3.7-0.4-5.6
			c-0.3-3.3-0.9-6.5-1.6-9.7c-2.3-9.3-6.1-18-11.5-25.9c-6.1-8.8-13.6-16.1-22.9-21.6c-3.9-2.3-8-4.3-12.3-6.1
			c-10-4.2-20.4-6.8-31.2-8.2c-1.6-0.2-3.1-0.3-4.7-0.5c-2.8-0.4-5.7-0.5-8.5-0.6C124.7,7.9,120.7,7.9,116.7,7.8z"/>
		<path class="st2" d="M241.4,130.3l-0.9,0l-0.4-1.1l0,0l-0.2-0.4c-1-1.8-1.8-3.7-2.5-5.6l-0.2-0.5c-2.3-5.7-4-11.6-5-17.5
			c-0.8-4.6-1.2-9.3-1.1-14.1c0-3.7,0.2-6.7,0.7-9.6c0.9-5.8,2.4-11.4,4.5-16.5c1.6-3.8,3.3-7.2,5.3-10.4c0.5-0.7,1-1.5,1.6-2.3
			c0.2-0.3,0.4-0.5,0.5-0.7c0.7-0.9,1.2-1.7,2.3-1.7c0.6,0,1,0.2,1.7,0.5c0.2,0.1,0.5,0.3,0.9,0.4c4.6,2,9.3,4.1,13.9,6.2l4.5,2
			c0.3,0.1,0.6,0.3,0.8,0.4l0.2,0.1c0.5,0.3,0.8,0.7,0.9,1.3c0.1,0.6-0.1,1.2-0.5,1.6l-1,0.9c-0.6,0.6-1.3,1.2-1.9,1.7
			c-1.4,1.2-2.8,2.5-4.2,3.8c-4.7,4.6-8.7,9.6-11.8,14.8c-3.1,5.2-5.4,10.6-6.7,16.1c-0.7,3-1.1,5.4-1.2,7.7c0,0.5-0.1,1-0.1,1.4
			c-0.1,1-0.1,1.9-0.1,2.7c0,4.4,0.5,8.9,1.4,13.3c0.1,0.4,0.2,0.7,0.3,1.1c0.2,0.9,0.5,1.8,0.5,2.9l0,1.5L241.4,130.3z"/>
		<path class="st5" d="M241,128.1c-1.1-1.9-1.8-3.9-2.6-5.9c-2.2-5.6-3.9-11.3-4.9-17.2c-0.8-4.6-1.2-9.2-1.1-13.9
			c0-3.2,0.2-6.3,0.7-9.4c0.8-5.6,2.2-11,4.4-16.2c1.4-3.5,3.2-7,5.2-10.2c0.5-0.8,1-1.5,1.5-2.2c1.8-2.4,1.1-2.1,3.7-1
			c6.2,2.7,12.3,5.5,18.5,8.2c0.3,0.2,0.7,0.3,1,0.5c0.2,0.1,0.2,0.4,0,0.6c-0.3,0.3-0.7,0.6-1,0.9c-2.1,1.9-4.2,3.7-6.1,5.6
			c-4.6,4.5-8.7,9.5-12.1,15c-3.1,5.2-5.4,10.7-6.8,16.5c-0.6,2.6-1.1,5.3-1.3,8c-0.1,1.4-0.3,2.8-0.2,4.3c0,4.6,0.5,9.1,1.4,13.6
			c0.3,1.2,0.7,2.4,0.7,3.7c-0.2,0-0.3,0-0.4,0c0,0-0.1-0.2-0.1-0.2C241.4,128.5,241.4,128.2,241,128.1z"/>
		<path class="st2" d="M241.5,132c-0.6-0.8-1.2-1.7-1.4-2.8l-0.2-1.7l2.6,0.1l0.3,0.3c0.1,0,0.4,0.2,0.6,0.7
			c0.3,0.8,0.5,1.5,0.6,2.4l0.3,4.5L241.5,132z"/>
		<path class="st4" d="M241.5,128.9c0.1,0,0.3,0,0.4,0c0.1,0,0.1,0.1,0.2,0.1c0.3,0.6,0.4,1.2,0.5,2
			C242,130.4,241.6,129.7,241.5,128.9z"/>
		<path class="st2" d="M240.7,130c-0.8-0.5-1.2-1.2-1-2.1l0.3-1.8l1.7,0.7c0.8,0.4,1.3,1.1,1.2,2.1l-0.1,2.3L240.7,130z"/>
		<path class="st4" d="M241,128.1c0.3,0.1,0.4,0.4,0.4,0.7C241.1,128.6,241,128.4,241,128.1z"/>
	</g>
	<g>
		<path class="st3" d="M137.2-613.1c-0.4,0.1-0.8,0.1-1.2,0.2c-0.1-0.1-0.3-0.2-0.4-0.2c-1.2,0.3-2.3,0.4-3.5,0.5
			c-0.2,0-0.4,0.2-0.6,0.3c-1.4,0-2.7,0-4.1,0c-0.2-0.1-0.4-0.3-0.6-0.4c-0.6-0.1-1.2-0.1-1.8-0.2c-1.6-0.4-3.2-0.4-4.8-0.4
			c-1.9,0-3.8-0.4-5.7-0.7c-14.4-2.4-27.6-7.9-40-15.5c-9.7-6-18.5-13.1-26.6-21.2c-12.6-12.5-23-26.7-31.2-42.4
			c-5.4-10.1-9.7-20.7-12.7-31.8c-1.5-5.5-2.7-11.1-3.6-16.7c-1.2-7.7-1.6-15.5-1.2-23.3c0.2-3.7,0.6-7.3,1.2-10.9
			c0.9-5.3,2-10.6,3.3-15.9c2.3-8.9,5.4-17.6,9.7-25.8c3.9-7.6,8.7-14.5,14.6-20.6c7.5-7.7,16.3-13.5,26.3-17.3
			c4.5-1.7,9.1-2.9,13.9-3.8c6.7-1.2,13.5-1.5,20.3-1.2c3.7,0.2,7.3,0.6,10.9,1.2c5.5,0.9,10.9,2.1,16.2,3.8
			c8.8,2.8,17.1,6.4,24.8,11.5c3.2,2.1,6.2,4.4,9,7c2,2,3.9,4.1,5.3,6.5c0.1,0.2,0.3,0.4,0.4,0.5c0.1,0.1,0.3,0.1,0.4,0.1
			c0.4-0.3,0.9-0.6,1.2-1c4-3.6,7.9-7.1,11.9-10.7c0.6-0.6,1.3-1.1,1.9-1.7c0.1-0.1,0.3-0.1,0.4-0.2c0,0.2,0.1,0.5,0,0.7
			c-0.8,2.3-1.6,4.6-2.4,6.9c-0.6,1.7-1.2,3.5-1.8,5.2c-0.2,0.5-0.5,0.9-0.9,1.3c-3.4,2.9-6.8,5.8-10.3,8.8
			c-0.3,0.2-0.5,0.2-0.8-0.1c-1.1-1.2-2.1-2.4-3.2-3.6c-3.7-3.9-8-7-12.6-9.8c-6.5-3.9-13.5-6.6-20.8-8.7c-4.2-1.2-8.4-2-12.7-2.7
			c-2.2-0.3-4.4-0.5-6.6-0.7c-3.2-0.3-6.4-0.4-9.6-0.3c-3.3,0.1-6.5,0.4-9.8,0.8c-4.7,0.6-9.3,1.5-13.9,2.9
			c-10.8,3.2-20.5,8.4-28.9,16.1c-6.6,6-11.8,13-15.8,20.9c-3.5,6.9-6,14.2-7.7,21.7c-1,4.4-1.7,8.8-2.2,13.3
			c-0.4,3.6-0.6,7.3-0.8,10.9c-0.2,4.5,0,9,0.3,13.5c1.3,16.2,5.7,31.6,13,46.1c6.5,12.9,14.8,24.5,24.8,34.9c2.9,3,5.9,5.9,9.1,8.7
			c0.5,0.4,1,0.7,1.2,1.4c0,0.1,0.2,0.3,0.3,0.3c0.8,0.2,1.5,0.8,2.1,1.4c3.5,2.9,7.1,5.6,10.8,8.1c9.2,6.3,18.9,11.5,29.3,15.3
			c5.7,2.1,11.4,3.7,17.4,4.8c5.5,1,11.1,1.4,16.6,1c6.2-0.4,12.2-1.9,17.7-5c0.2-0.1,0.3-0.1,0.4,0.1c0,0.1,0,0.1,0,0.2
			c-0.1,0.1-0.1,0.3-0.2,0.4c-0.2,0.3-0.4,0.7-0.6,1c-2.5,4.1-5.1,8.1-7.6,12.2c-0.2,0.4-0.5,0.8-0.8,1.1c-0.2,0.2-0.5,0.4-0.8,0.5
			c-1.6,0.1-3.1,0.6-4.8,0.6C138.2-613.3,137.7-613.3,137.2-613.1z"/>
		<path class="st4" d="M42.8-974.3c0.1,0.1,0.1,0.3,0.2,0.4c0.1,0.1,0.3,0.1,0.4,0.1c3.5,0.2,7,0.6,10.5,1
			c10.5,1.4,20.7,3.8,30.5,7.7c9.1,3.6,17.7,8.3,25.3,14.5c12.4,10,21.1,22.5,26,37.6c1.5,4.6,2.6,9.2,3.3,14
			c0.7,4.9,1.1,9.8,1.2,14.8c0,0.5,0,0.9,0,1.4c0,0.2-0.1,0.4-0.4,0.5c-0.4,0.1-0.9,0.3-1.3,0.4c-3.5,0.6-7.1,1.2-10.6,1.5
			c-2.4,0.2-4.9,0.5-7.3,0.7c-2.4,0.2-4.9,0.2-7.3,0.2c-2.8,0-5.6,0-8.5-0.1c-3.2-0.1-6.4-0.4-9.6-0.8c-2.4-0.3-4.8-0.6-7.2-1
			c-4.7-0.8-9.4-1.8-14.1-3.1c-8-2.2-15.8-5.2-23.2-8.9c-8.3-4.2-15.9-9.3-23-15.3c-10.4-8.8-18.9-19.2-26-30.8
			c-5.6-9.2-10.1-19-13.7-29.1c-0.1-0.2-0.1-0.4-0.2-0.7c-0.1-0.4,0.1-0.8,0.5-0.9c1-0.2,2.1-0.4,3.1-0.6c2.6-0.4,5.3-0.9,7.9-1.3
			c1.7-0.2,3.3-0.4,5-0.6c2-0.2,4.1-0.5,6.1-0.7c0.3,0,0.6-0.1,0.9-0.1c3.4-0.2,6.7-0.6,10-0.6c0.6,0,1.2-0.1,1.8-0.1
			c0.1,0,0.2-0.2,0.4-0.3C29.9-974.3,36.3-974.3,42.8-974.3z M27.6-968.5c-4.4,0-8.7,0.5-13,0.7c-2.1,0.1-4.1,0.3-6.2,0.5
			c-2,0.2-3.9,0.5-5.9,0.8c-2,0.3-4.1,0.7-6.1,1c-0.1,0-0.3,0.1-0.4,0.2c-0.3,0.1-0.5,0.5-0.4,0.7c0.2,0.6,0.5,1.3,0.7,1.9
			c2.2,5.5,4.7,10.7,7.6,15.8c7.8,13.7,17.6,25.6,29.7,35.6c6.5,5.3,13.4,9.8,20.9,13.5c6,3,12.3,5.3,18.8,7.2
			c6.7,2,13.6,3.4,20.6,4.3c3.3,0.4,6.7,0.8,10,0.9c0.8,0,1.5,0.1,2.3,0.1c3,0,6.1,0.1,9.1,0c3-0.1,6.1-0.3,9.1-0.6
			c2.9-0.3,5.7-0.7,8.6-1.1c0.3,0,0.6-0.2,0.9-0.3c0.1-0.1,0.2-0.2,0.3-0.3c0.1-0.3,0.1-0.6,0.1-0.9c0-1.9-0.2-3.8-0.4-5.7
			c-0.3-3.4-0.9-6.7-1.7-9.9c-2.3-9.5-6.2-18.3-11.7-26.4c-6.2-9-13.8-16.4-23.3-22c-4-2.4-8.2-4.4-12.5-6.2
			c-10.2-4.3-20.8-7-31.7-8.3c-1.6-0.2-3.2-0.4-4.8-0.6c-2.9-0.4-5.8-0.5-8.7-0.7C35.6-968.4,31.6-968.4,27.6-968.5z"/>
		<path class="st5" d="M120.3-613.2c1.6,0,3.2,0,4.8,0.4c0.6,0.1,1.2,0.1,1.8,0.2c0.2,0,0.4,0.2,0.6,0.4c-1.5,0-3.1,0-4.6,0
			c0-0.1,0-0.3-0.1-0.4c-0.2-0.1-0.4-0.2-0.6-0.2C121.6-613,121-613.1,120.3-613.2z"/>
		<path class="st5" d="M131.6-612.3c0.2-0.1,0.4-0.3,0.6-0.3c1.2-0.1,2.4-0.2,3.5-0.5c0.1,0,0.3,0.1,0.4,0.2
			c-0.2,0.3-0.2,0.5,0.1,0.6C134.6-612.3,133.1-612.3,131.6-612.3z"/>
		<path class="st5" d="M154.1-846.1c-1.1-1.9-1.9-4-2.7-6c-2.3-5.7-4-11.5-5-17.5c-0.8-4.7-1.2-9.4-1.1-14.1c0-3.2,0.2-6.4,0.7-9.6
			c0.8-5.7,2.3-11.2,4.4-16.5c1.5-3.6,3.2-7.1,5.3-10.4c0.5-0.8,1-1.5,1.5-2.3c1.8-2.4,1.2-2.1,3.8-1c6.3,2.8,12.5,5.6,18.8,8.4
			c0.3,0.2,0.7,0.3,1,0.5c0.2,0.1,0.2,0.5,0,0.6c-0.3,0.3-0.7,0.6-1,0.9c-2.1,1.9-4.2,3.7-6.3,5.7c-4.7,4.6-8.9,9.7-12.3,15.3
			c-3.2,5.3-5.5,10.8-6.9,16.8c-0.6,2.7-1.1,5.4-1.3,8.1c-0.1,1.4-0.3,2.9-0.3,4.3c0,4.7,0.5,9.3,1.5,13.8c0.3,1.3,0.7,2.5,0.8,3.8
			c-0.2,0-0.3,0-0.5,0c0,0-0.1-0.2-0.1-0.2C154.5-845.7,154.4-845.9,154.1-846.1z"/>
		<path class="st4" d="M154.5-845.2c0.2,0,0.3,0,0.5,0c0.1,0,0.1,0.1,0.2,0.1c0.3,0.6,0.4,1.2,0.5,2
			C155.1-843.7,154.6-844.4,154.5-845.2z"/>
		<path class="st5" d="M137.2-613.1c0.5-0.3,1-0.2,1.5-0.1C138.2-613,137.7-612.9,137.2-613.1z"/>
		<path class="st4" d="M154.1-846.1c0.3,0.1,0.4,0.4,0.4,0.7C154.2-845.5,154-845.7,154.1-846.1z"/>
	</g>
	<g>
		<g>
			<path class="st2" d="M1207.6,88.5c2.6,0.1,5.7,0.2,8.6,1.6c5.6,2.7,8.7,7,9.2,13.3c0.4,6.2-1.5,11.6-5.4,16.4
				c-2.7,3.3-6,6-9.6,8.3c-1.8,1.2-3.6,2.3-5.4,3.4c-0.7,0.5-0.7,1.1-0.4,1.8c3.3,7.1,7.6,13.6,12,20c0.4,0.6,1,1,1.4,1.5
				c0.4,0.5,0.7,0.4,1.2-0.1c4.1-5,6.6-10.9,8.4-17c0.3-0.9,0.3-1.9,0.3-2.8c0.1-1.3-0.5-2.3-1.6-3c-0.8-0.5-1.7-0.8-2.5-1.2
				c-1.6-0.7-1.8-2-1.7-3.5c0.1-0.7,0-1.5,0.3-2.1c0.5-0.7,1.3-1.3,2.1-1.8c0.4-0.2,0.9-0.2,1.4-0.2c8.7,0.9,17.5,1,26.2,0
				c1.3-0.1,2.9,1.2,3,2.5c0.1,1.2,0.1,2.3-0.1,3.5c0,0.4-0.5,0.9-0.8,1.1c-1.3,0.5-2.7,0.9-4.1,1.1c-3.7,0.7-6.6,2.6-8.6,5.7
				c-1.4,2.2-2.8,4.4-4,6.7c-3.5,6.4-7.2,12.8-11.6,18.7c-0.7,0.9-0.6,1.6,0.3,2.4c2.4,2.3,4.9,4.4,7.9,6c3.5,1.9,7.1,2.3,11,0.9
				c2.9-1,5.6-2.5,8.3-4c0.8-0.5,1.6-1,2.5-1.3c0.4-0.1,1,0,1.3,0.3c0.9,0.8,1.6,1.7,2.4,2.6c2.2,2.6,2.2,2.9-0.4,5
				c-3.7,3-7.4,5.9-11.1,8.8c-7.3,5.5-14.8,5.4-22.5,1.1c-3.5-2-6.7-4.4-9.7-7.1c-1.2-1.1-1.9-1.1-3.1-0.3c-1.7,1.2-3.4,2.5-5.2,3.7
				c-8.6,5.8-18.1,8-28.4,6.4c-12.1-1.9-18.7-12.2-19.7-19.8c-1.1-8.6,1.3-15.9,7.1-22.2c2.9-3.2,6.3-5.7,9.9-8
				c2.6-1.7,5.3-3.2,7.9-4.8c0.7-0.4,1.1-1.7,0.8-2.5c-1-2.9-2-5.8-3-8.7c-1.2-3.2-1.3-6.5-1.4-9.8c-0.1-4.4,1.2-8.4,3.9-11.9
				C1190.2,92,1197.8,88.4,1207.6,88.5z M1191.9,175.4c5.1-0.4,10.3-2.5,14.5-6.6c0.3-0.2,0.3-0.9,0.2-1.3c-0.2-0.6-0.7-1.2-1.1-1.8
				c-5.2-7-9.8-14.4-13.9-22.1c-0.4-0.8-0.9-1.6-1.4-2.4c-0.4-0.6-1.3-0.8-1.8-0.5c-1.6,1-3.2,2-4.7,3.2c-3.4,2.7-6.1,5.9-7.6,10
				c-1.3,3.7-1.4,7.4-0.1,11.1C1178.1,171.3,1184.4,175.5,1191.9,175.4z M1196.2,108.6c0.1,1.5,0.2,2.9,0.4,4.2
				c0.4,2.1,0.9,4.1,1.6,6.1c1.6,4.6,1.6,5,6.2,2.1c1.4-0.9,2.7-1.9,3.9-3c5-4.3,5.3-10.8,3.5-15.5c-2.3-5.9-8.2-6.9-12.5-3.1
				c-1.4,1.3-2.3,2.9-2.7,4.8C1196.3,105.9,1196.3,107.3,1196.2,108.6z"/>
			<path class="st2" d="M424.4,135.7c5.4-0.1,11.5-0.2,17.7-0.3c1.1,0,2.3,1,2.5,2.2c0.1,0.9,0.2,1.9,0.1,2.8c0,1.2-0.9,2.1-2.2,2.4
				c-3,0.7-6,1.4-8.9,2.2c-0.9,0.3-1.7,1-1.8,2c-0.2,1.4-0.3,2.8-0.3,4.2c0,7.8,0.1,15.6,0.1,23.4c0,1.9,0,3.8-0.1,5.7
				c0,0.4-0.4,0.9-0.7,1.1c-0.6,0.4-1.3,0.7-1.9,0.8c-9.3,1.7-18.4,4.5-27.8,5.6c-10.6,1.2-21.2,1.3-31.6-2
				c-15.6-4.9-25.1-15.4-28.8-31.2c-2.3-9.9-2.1-19.8,0.7-29.5c5.4-18.3,17.7-29.7,36-34.7c3.7-1,7.4-1.5,11.2-1.7
				c8.8-0.5,17.5,0.3,26.1,2c4.4,0.9,8.8,1.7,13.2,2.6c0.6,0.1,1.4,0.5,1.4,1.4c-0.2,8,0.5,16.1,0.9,24.1c0,0.5,0,1-0.2,1.4
				c-0.3,0.6-0.8,1.3-1.3,1.5c-1.8,0.9-3.7,0.8-5.5,0.3c-0.4-0.1-0.9-0.5-1.1-0.8c-0.6-1.5-1.1-3.1-1.6-4.7
				c-0.8-2.2-1.6-4.4-2.5-6.6c-1.2-3-3.4-5.1-6.2-6.6c-4.2-2.3-8.9-3.3-13.5-4c-6.2-0.9-12.3-0.4-18.3,1.5
				c-5.7,1.9-10.6,5.1-14.4,9.9c-3.1,4-5.4,8.3-6.7,13.2c-2.7,9.3-2.8,18.7-0.5,28.1c3,12,10.9,19.5,22.4,23.6
				c3.9,1.4,7.9,1.7,11.9,1.9c7.2,0.3,14.1-0.7,20.9-3.3c1-0.4,1.5-1,1.7-2c0.1-0.5,0.2-0.9,0.2-1.4c0.1-7.3,0.1-14.7,0.1-22
				c0-0.2-0.1-0.5-0.1-0.7c-0.2-1.8-1.2-3.1-3-3.5c-2.5-0.6-5.1-1.2-7.6-1.7c-2.2-0.5-3-1.7-2.7-4.2c0.1-0.5,0.2-0.9,0.4-1.4
				c0.4-0.9,1.1-1.6,2.1-1.8c1.2-0.2,2.3-0.2,3.5-0.2C413.2,135.4,418.4,135.5,424.4,135.7z"/>
			<path class="st2" d="M1691.4,172c3.5,0.2,8,0.4,12.5,0.6c1.9,0.1,3.7,0.8,5.4,1.6c3.2,1.5,5.3,4,6.2,7.3c2.2,8,0.3,15-5.6,20.8
				c-3.2,3.2-7.1,5.6-11.3,7.2c-10.8,4.3-22,5.4-33.4,2.9c-4.8-1.1-8.8-3.4-11.8-7.3c-2.6-3.3-3.8-7.1-2.4-11.3
				c0.5-1.4,1.1-2.6,2.3-3.5c1.9-1.4,3.8-2.8,5.8-4.1c2.8-2,2.9-2.1,0.4-4.5c-1.8-1.7-3-3.6-3.5-6c-0.4-2.2,0-4.3,1.7-5.8
				c2.4-2.2,4.9-4.4,7.4-6.6c0.5-0.5,0.5-1.3,0-1.8c-0.5-0.5-1.1-0.9-1.6-1.4c-0.7-0.7-1.4-1.3-2-2c-2-2.1-3.4-4.7-4-7.4
				c-3.2-14,3.2-25.3,15.3-29.8c5.9-2.2,12-2.9,18.2-1.2c6.3,1.7,12.6,1.9,19,1.5c1.6-0.1,3.3-0.2,5-0.2c1.6,0,3,2.2,2.3,3.6
				c-0.9,1.9-1.8,3.9-2.7,5.8c-0.5,0.9-1.3,1.3-2.3,1.2c-0.9,0-1.9-0.1-2.8-0.1c-2.1,0-2.8,0.7-2.1,2.4c1.1,2.9,1.5,5.9,1.5,9
				c-0.2,8.8-4.5,15.3-12,19.5c-3.5,2-7.4,3.2-11.5,3.3c-2.8,0.1-5.7,0-8.5,0c-2.5,0-4.3,1.3-5.1,4c-0.1,0.4,0.1,1.1,0.4,1.2
				c0.6,0.3,1.3,0.5,2,0.6C1679.5,172.3,1684.9,172.6,1691.4,172z M1685.6,185.3C1685.6,185.3,1685.6,185.3,1685.6,185.3
				c-2.6-0.1-5.2-0.1-7.8-0.1c-0.5,0-0.9,0-1.4,0c-2.3-0.1-4.2,0.5-5.6,2.3c-1.3,1.7-2.8,3.2-4,4.9c-1.8,2.7-1.2,5.6,1.2,7.5
				c1.5,1.2,3.2,2,5,2.6c6.6,1.9,13.1,1.3,19.6-0.6c2.7-0.8,5.3-2.1,7.3-4.2c1.9-2,2.9-4.3,2.8-7c-0.1-2.3-2-4.6-4.2-5.1
				c-1.2-0.2-2.3-0.4-3.5-0.4C1691.8,185.3,1688.7,185.3,1685.6,185.3z M1693.1,143.5c-0.1-1.9-0.2-3.8-0.4-5.7
				c-0.2-2.2-1.1-4.1-2.2-5.9c-1.8-2.7-4.3-4.3-7.6-4.6c-3.4-0.3-7.8,1.5-9.5,6c-2.4,6-1.8,12.1,0.6,17.9c0.5,1.3,1.5,2.4,2.4,3.4
				c3.9,4.1,12.1,3.8,15-2.3c0.7-1.5,1.3-3,1.4-4.7C1692.9,146.3,1693,144.9,1693.1,143.5z"/>
			<path class="st2" d="M1394,110.6c0.1,2.6,0.3,6.6,0.5,10.6c0,1.3-1.3,2.9-2.6,2.9c-1.6,0.1-3.3,0-4.9-0.1c-0.4,0-0.9-0.5-1-0.9
				c-0.6-2-1.1-4.1-1.7-6.1c-0.7-2.3-1.4-4.5-2.2-6.7c-1.3-3.5-3.8-5.9-7-7.7c-2.9-1.7-6.1-2.4-9.4-3c-6.6-1.3-13.2-0.8-19.6,1.3
				c-7.8,2.5-13.4,7.8-17.2,15c-2.1,4-3.4,8.4-4,12.8c-0.9,7.6-0.9,15.1,1.3,22.5c4.2,13.8,14.9,22.9,30,24.3
				c8.1,0.7,16-0.6,23.6-3.7c3.5-1.4,6.9-3,10.4-4.6c1.2-0.5,2.2-0.2,2.9,1.1c0.8,1.4,1.6,2.9,2.4,4.3c0.4,0.7,0.1,2.2-0.5,2.6
				c-10.3,6.6-21.3,11.3-33.5,12.8c-8.3,1-16.5,0.4-24.5-2.4c-12.8-4.5-21.9-12.9-26.7-25.7c-4.5-11.9-5.1-24.1-1.5-36.2
				c5.2-17.5,17.2-28.3,34.6-33.3c4.3-1.2,8.8-1.7,13.3-1.9c12-0.5,23.5,1.7,34.8,5.6c2.1,0.7,2.4,0.5,2.4,3.6
				C1394,101.6,1394,105.3,1394,110.6z"/>
			<path class="st2" d="M798.6,130.5c0,11.8,0,23.6,0,35.5c0,1.6,0.3,3.3,0.5,4.9c0.1,0.8,1.3,1.7,2.1,1.6c1.6-0.1,3.3-0.3,4.9-0.5
				c2.2-0.2,3.6,1,3.7,3.2c0,0.5,0.1,1,0,1.4c-0.2,0.6-0.4,1.4-0.9,1.8c-0.7,0.6-1.7,0.9-2.6,1.2c-6.1,1.8-12.1,4.1-17.7,7.1
				c-2.3,1.2-4.7-0.4-5-3.1c-0.1-0.7,0-1.4-0.2-2.1c-0.1-0.3-0.9-0.6-1.1-0.5c-1.3,0.6-2.5,1.3-3.6,2.1c-9.4,7.4-28.2,5.9-35.2-9.9
				c-3.4-7.5-3.9-15.5-2.6-23.6c1.9-11.8,8.5-20.3,18.4-26.4c6.5-3.9,13.5-5.6,21.1-3.5c0.9,0.3,1.9,0.2,2.8,0.3
				c0.5,0.1,1.5-0.8,1.5-1.2c-0.1-5,0.3-9.9-0.4-14.9c-0.1-0.6-1.4-1.8-2-1.7c-1.6,0.1-3.3,0.3-4.9,0.5c-2,0.2-3.5-1.1-3.7-3.4
				c0-0.5,0-0.9,0-1.4c0-1.1,0.5-1.8,1.5-2.2c0.2-0.1,0.4-0.2,0.7-0.3c6.6-1.9,12.9-4.5,19-7.7c1.4-0.7,2.7-0.5,3.9,0.6
				c0.7,0.7,1.2,1.5,1.2,2.5c-0.1,2.6-0.2,5.2-0.3,7.8c-0.4,10.6-0.8,21.3-1.2,31.9C798.4,130.5,798.5,130.5,798.6,130.5z
				 M784.8,151.2c-0.2-4.6-0.3-8.6-0.5-12.6c-0.1-2.3-1.1-4.1-2.7-5.6c-4.5-4.3-13-5.5-18.9-1.1c-3.8,2.8-5.9,6.7-6.8,11.3
				c-1.1,5.6-1.1,11.3,0,16.9c0.7,3.5,2.1,6.7,4.5,9.5c3.4,3.8,7.5,5.5,12.6,4.8c5.9-0.7,10.5-5.1,11.1-11.1
				C784.5,159.1,784.6,154.9,784.8,151.2z"/>
			<path class="st2" d="M1541.6,156.2c0,5,0,9.9,0,14.9c0,1.4,0.1,2.8,0.4,4.2c0.1,0.6,0.4,1.3,1.2,1.6c2,0.9,4,1.3,6.1,1.8
				c2.3,0.5,2.9,1.5,2.7,4.2c0,0.5,0,1-0.2,1.4c-0.4,0.9-1.1,1.6-2.1,1.8c-0.7,0.1-1.4,0.2-2.1,0.1c-8-0.9-16.1-0.6-24.1,0
				c-0.9,0.1-1.9,0.2-2.8,0.2c-2.4,0.1-3.8-1.4-3.9-4c-0.1-1.6,0.6-2.9,2-3.4c2-0.7,4-1.4,6-2.1c1-0.3,1.5-1.1,1.6-2.1
				c0.2-2.8,0.6-5.7,0.6-8.5c0.1-7.6,0-15.1,0-22.7c0-1.2-0.2-2.4-0.3-3.5c-0.5-6.4-6-10.2-12.9-8c-5.9,1.9-9.6,5.9-10.3,12.3
				c-0.4,3.5-0.8,7.1-0.6,10.6c0.2,5.9,0.5,11.8,0.6,17.7c0,2.8,1.5,4.3,4,5c1.6,0.4,3.2,0.9,4.8,1.3c1,0.3,1.5,1.1,1.6,2.1
				c0.1,0.5,0,0.9,0,1.4c-0.1,2.7-1.3,3.9-4,3.7c-9-0.9-18-0.7-27,0.1c-0.7,0.1-1.4-0.1-2.1-0.2c-1-0.2-1.7-0.9-2-1.8
				c-0.3-0.9-0.3-1.8-0.4-2.8c0-1,0.5-1.9,1.5-2.2c1.8-0.6,3.6-1,5.4-1.6c1.7-0.5,2.8-1.5,2.9-3.5c0.5-6.6,0.9-13.2,0.8-19.9
				c-0.1-4.7-0.1-9.5-0.3-14.2c0-1.4-0.3-2.8-0.4-4.2c-0.1-0.9-1-1.7-1.9-1.7c-1.2,0-2.4,0-3.5,0.1c-0.9,0-1.9,0.1-2.8,0
				c-0.7,0-2-1-2-1.7c-0.1-1.4-0.2-2.8-0.1-4.2c0-0.3,0.5-0.8,0.8-1c0.6-0.3,1.3-0.4,2-0.6c6.4-1.8,12.6-4.1,18.4-7.3
				c2.2-1.2,4.7,0.4,4.9,3.1c0.1,0.7,0.1,1.4,0.2,2.1c0,0.4,1.5,0.8,1.9,0.6c0.9-0.7,1.9-1.4,2.8-2.1c6.7-4.7,14-5.7,21.6-2.9
				c5.5,2,9,6,10.2,11.8c0.7,3.5,1.1,7,1,10.6c-0.1,4.5,0,9,0,13.5C1541.7,156.2,1541.7,156.2,1541.6,156.2z M1504.9,126.3
				c-0.1-0.2-0.3-0.3-0.4-0.5c-0.2,0.1-0.3,0.3-0.5,0.4c0.2,0.2,0.4,0.3,0.7,0.5C1504.8,126.6,1504.9,126.5,1504.9,126.3z"/>
			<path class="st2" d="M566,145.2c-0.3,7.3-0.3,14.7,0.2,22c0.1,0.9,0.2,1.9,0.3,2.8c0.2,1.4,1.5,2.4,3.1,2.3
				c1.4-0.1,2.8-0.3,4.2-0.5c1.1-0.1,1.9,0.5,2.5,1.2c1.1,1.4,0.9,3.1,0.5,4.8c-0.1,0.4-0.5,0.8-0.9,1c-0.8,0.4-1.7,0.7-2.7,1
				c-5.5,1.4-10.8,3.5-15.8,6.2c-1.7,0.9-3.2,1.9-5.2,0.5c-1.7-1.2-1.6-2.7-1.7-4.3c0-0.6-1-1.2-1.5-1c-0.4,0.2-0.9,0.4-1.2,0.7
				c-1,0.7-1.9,1.4-2.9,2.1c-3.4,2.4-7.2,3.5-11.3,3.4c-3.3-0.1-6.6-0.1-9.8-1.4c-5.5-2.3-8.7-6.4-9.8-12.1
				c-0.4-2.3-0.5-4.7-0.5-7.1c-0.1-6.6,0.1-13.3-0.1-19.9c-0.1-4.3-0.4-8.5-0.7-12.7c-0.1-1.3-0.8-2.2-2.1-2.5
				c-1.6-0.4-3.2-0.7-4.9-1c-1.3-0.3-3.2,0.3-3.7-1.3c-0.5-1.5-0.3-3.2-0.2-4.9c0-0.3,0.5-0.8,0.9-1c0.7-0.2,1.4-0.3,2.1-0.3
				c6.1-0.6,12.2-1.1,18.3-2.5c0.9-0.2,1.9-0.1,2.8-0.1c1.1,0,2.8,1.8,2.8,2.8c0,1.2-0.1,2.4-0.2,3.5c-0.3,8.3-0.8,16.5-0.9,24.8
				c-0.1,5,0.4,9.9,0.7,14.9c0.1,1.4,0.4,2.8,1.2,4c1.5,2.3,3.5,3.7,6.3,4c3.9,0.4,7.5-0.4,10.7-2.9c2.6-2,4.2-4.5,4.6-7.7
				c0.3-2.1,0.5-4.2,0.5-6.4c0-7.3-0.2-14.7-0.3-22c0-0.5,0-0.9-0.1-1.4c-0.2-2-0.9-2.8-3.1-3.2c-1.9-0.3-3.8-0.5-5.6-0.7
				c-2.3-0.3-2.6-0.7-2.6-3.2c0-0.7,0-1.4,0.1-2.1c0-1,0.8-1.7,1.7-1.9c3.3-0.4,6.6-0.8,9.9-1.1c3.3-0.3,6.6-0.6,9.8-1.5
				c0.9-0.2,1.9-0.1,2.8,0c1.1,0.1,2.8,1.8,2.8,2.9c-0.2,3.1-0.3,6.1-0.4,9.2C566.3,136.7,566.1,141,566,145.2z"/>
			<path class="st2" d="M944.4,145.9c0.1,7.3,0.2,14.2,0.3,21c0,1.2,0.2,2.3,0.4,3.5c0.1,0.8,1.3,1.8,2,1.7c1.4-0.1,2.8-0.2,4.2-0.4
				c2.9-0.3,4.3,1.1,4.3,4.2c0,1.5-0.5,2.4-1.7,2.8c-0.2,0.1-0.4,0.2-0.7,0.3c-0.4,0.2-0.9,0.4-1.3,0.5c-6,1.4-11.6,3.9-17.1,6.8
				c-3,1.6-5.7,0.1-5.9-3.3c0-0.7,0-1.4-0.1-2.1c-0.1-0.6-0.4-0.8-1-0.4c-1.8,1.2-3.5,2.4-5.3,3.6c-2.8,1.8-5.9,2.9-9.3,3
				c-3.5,0-7,0.1-10.5-1.2c-6.2-2.3-9.5-6.8-10.5-13.1c-0.4-2.1-0.3-4.2-0.3-6.4c0-6.9,0-13.7,0-20.6c0-3.5-0.2-7.1-0.6-10.6
				c-0.3-3.1-0.9-3.7-3.8-4.2c-2.1-0.4-4.2-0.7-6.3-1.1c-0.4-0.1-0.8-0.6-0.9-1c-0.1-1.6-0.1-3.3,0-4.9c0-0.3,0.6-0.8,0.9-0.9
				c2.6-0.3,5.2-0.4,7.8-0.8c4.4-0.7,9-0.8,13.3-2.1c1.5-0.4,2.8,0.2,3.8,1.3c0.4,0.5,0.7,1.2,0.9,1.8c0.1,0.2,0.1,0.5,0,0.7
				c-1.5,12.3-1.3,24.6-1,36.9c0,1.9,0.1,3.8,0.4,5.7c0.2,1.4,0.8,2.7,1.4,4c0.8,1.5,2.1,2.6,3.7,3.2c7.3,2.6,16.5-1.9,17.7-9.5
				c0.3-1.9,0.8-3.7,0.8-5.6c0-7.6-0.2-15.1-0.3-22.7c0-0.9-0.2-1.9-0.4-2.8c-0.2-1-0.8-1.8-1.8-1.9c-2.3-0.4-4.7-0.7-7-1
				c-1.7-0.2-2.3-0.9-2.3-2.9c0-0.9,0-1.9,0.2-2.8c0.1-0.7,0.5-1.3,1.4-1.4c3.3-0.4,6.6-0.8,9.9-1.2c3.5-0.4,7.1-0.7,10.5-1.6
				c0.7-0.2,1.4-0.1,2.1,0c1.4,0.1,3.2,2,3.1,3.4C945.1,131.2,944.8,138.8,944.4,145.9z"/>
			<path class="st2" d="M706.7,180.2c-2.3,1.4-4.5,2.8-6.7,4.2c-5.1,3.2-10.8,3.6-16.5,2.4c-5.4-1.1-9.4-4.6-11.5-9.7
				c-3.9-9.4,0.5-18.7,6.5-22.8c2.3-1.6,4.8-3,7.4-4.2c6.2-2.9,12.4-5.8,18.7-8.6c1-0.5,1.5-1.2,1.5-2.2c-0.1-1.9-0.3-3.8-0.8-5.6
				c-0.8-2.8-2.9-4.3-5.6-4.8c-4.8-0.9-8.9,0.4-12.1,4.2c-1.9,2.2-3.2,4.7-4.4,7.2c-0.8,1.6-1.6,2-3.4,1.8c-0.5-0.1-0.9-0.1-1.4-0.2
				c-2.4-0.5-3.3-1.7-3-3.9c0.5-3.7,1-7.5,1.5-11.2c0.1-1,0.8-1.7,1.7-2.2c6.1-2.8,12.4-4.7,19-5.5c4.3-0.5,8.5-0.2,12.6,1.2
				c5.3,1.9,8.7,5.5,10.2,10.9c1,3.5,1.2,7,1.1,10.6c-0.2,6.4-0.4,12.8-0.6,19.2c-0.1,3.3,0,6.6,0.1,9.9c0,0.7,0.3,1.4,0.5,2.1
				c0.3,1,1.7,1.7,2.9,1.4c1.9-0.4,3.4-1.7,5-2.6c1.1-0.6,2.2-0.4,3.1,0.7c0.6,0.7,1.2,1.5,1.7,2.3c0.4,0.6,0.6,1.4,0,2
				c-3.5,3.2-7,6.3-10.7,9.3c-0.7,0.6-1.7,0.8-2.6,1c-0.7,0.2-1.4,0.2-2.1,0.2c-4.6,0.3-8.4-1.1-10.6-5.5
				C707.8,181.1,707.2,180.7,706.7,180.2z M706.6,159.3c-0.1-2.4-0.2-4.5-0.3-6.6c0-0.5-1.1-1.3-1.5-1.1c-4.8,1.9-9.4,4.3-13.7,7.1
				c-1,0.6-1.8,1.5-2.6,2.4c-3,3.5-3,8.8-0.1,12.3c1.3,1.5,2.8,2.4,4.9,2.4c4.5,0,8.1-2,11.1-5.3c1-1,1.5-2.4,1.7-3.8
				C706.2,164.1,706.4,161.5,706.6,159.3z"/>
			<path class="st2" d="M851.6,180.1c-1.9,1.2-3.7,2.3-5.4,3.5c-5.2,3.5-11,4.3-17,3.3c-6-1-10.2-4.6-12.5-10.4
				c-3.2-8-0.1-17.9,7.1-22.6c2.4-1.5,4.9-2.9,7.4-4.1c5.7-2.7,11.5-5.4,17.4-8c2.5-1.1,2.7-1.7,2.4-4.4c-0.2-1.4-0.5-2.8-0.9-4.1
				c-0.8-2.5-2.7-3.9-5.1-4.4c-4.7-1-9,0.1-12.2,3.8c-1.4,1.6-2.5,3.4-3.6,5.2c-0.6,1-1,2.2-1.7,3.1c-0.4,0.5-1.2,1-1.8,1
				c-1.4-0.1-2.8-0.4-4.2-0.8c-0.6-0.1-1.5-1.7-1.4-2.3c0.2-1.6,0.5-3.3,0.8-4.9c0.1-0.9,0.2-1.9,0.3-2.8c0.5-7,0.2-6,6.4-8.5
				c4.4-1.8,9-2.9,13.6-3.7c4.2-0.7,8.4-0.5,12.6,0.7c6.6,1.9,10.5,6.1,11.8,12.8c0.6,3.3,0.9,6.5,0.8,9.9c-0.2,5.7-0.4,11.3-0.6,17
				c-0.1,3.3-0.1,6.6-0.1,9.9c0,1.2,0.4,2.3,0.7,3.4c0.3,1,1.8,1.6,2.9,1.4c1.9-0.4,3.4-1.7,5-2.6c1.1-0.6,2.1-0.4,3.1,0.7
				c0.6,0.7,1.2,1.5,1.7,2.3c0.4,0.6,0.6,1.4,0,1.9c-3.3,3-6.7,6-10,8.9c-1.1,1-2.4,1.4-3.9,1.5c-5.4,0.6-9.9-0.6-12.5-5.9
				C852.4,180.8,852,180.5,851.6,180.1z M851.4,158.6c0,0-0.1,0-0.1,0c0-1.6,0-3.3,0-4.9c0-2-1-2.7-2.6-1.9
				c-3.6,1.8-7.1,3.6-10.6,5.5c-1.4,0.8-2.8,1.8-3.9,2.9c-3,2.9-3.7,6.5-2.4,10.4c1.3,3.9,4.1,5.4,7.5,5.1c4-0.3,7.1-2.2,9.8-4.9
				c1.2-1.2,1.9-2.7,2-4.4C851.1,163.8,851.2,161.2,851.4,158.6z"/>
			<path class="st2" d="M1103.8,153.4c-0.1,4.5-0.2,9-0.2,13.5c0,1.9,0.2,3.8,0.5,5.6c0.2,1.4,1.9,2.3,3.3,1.6
				c1.7-0.8,3.3-1.7,5-2.6c0.8-0.4,1.9-0.2,2.5,0.5c0.6,0.7,1.2,1.5,1.7,2.2c0.1,0.2,0.4,0.4,0.3,0.6c0,0.7,0.1,1.6-0.3,2
				c-3.1,2.9-6.3,5.7-9.5,8.5c-1.3,1.1-2.8,1.7-4.6,1.7c-0.5,0-0.9,0.1-1.4,0.1c-4.3,0.2-7.9-1.1-10.1-5.2c-0.1-0.2-0.2-0.4-0.4-0.6
				c-0.8-1.1-1.4-1.2-2.3-0.7c-1.2,0.8-2.4,1.5-3.6,2.3c-4.9,3.5-10.3,4.5-16.1,4c-7.1-0.6-12.7-5.5-14.7-12.5
				c-2.1-7.5,1.3-17,8.2-21c2.2-1.3,4.5-2.6,6.8-3.7c5.5-2.6,11.2-5.2,16.7-7.7c0.8-0.4,1.7-0.8,2.5-1.3c0.3-0.2,0.6-0.8,0.6-1.2
				c-0.1-1.9-0.2-3.8-0.7-5.6c-0.6-2.8-2.7-4.5-5.4-5.1c-4.7-1-8.9,0.2-12.3,3.8c-2.1,2.3-3.5,5-4.8,7.8c-0.6,1.2-1.6,1.6-2.9,1.5
				c-0.5,0-0.9-0.1-1.4-0.2c-2.8-0.5-3.6-1.5-3.3-4.3c0.2-1.9,0.5-3.8,0.7-5.6c1-8,0.2-6.5,7.3-9.4c4.2-1.7,8.6-2.7,13-3.4
				c4.5-0.7,9-0.5,13.3,1c5.3,1.8,8.8,5.3,10.5,10.7c0.9,3,1.1,6,1.1,9.1C1104,144.4,1103.9,148.9,1103.8,153.4
				C1103.8,153.4,1103.8,153.4,1103.8,153.4z M1089.4,159.1c-0.1-2.9-0.2-4.8-0.3-6.6c0-0.6-1-1.2-1.6-1c-5.1,2-9.8,4.5-14.3,7.5
				c-0.8,0.5-1.4,1.2-2,2c-2.8,3.3-3.1,8.3-0.5,11.8c1.3,1.8,3,2.9,5.4,2.9c4.6,0,8.2-2.1,11.1-5.4c0.7-0.8,1.3-2,1.4-3.1
				C1088.9,164.2,1089.2,161.2,1089.4,159.1z"/>
			<path class="st2" d="M1439.3,118.3c3.8,0.2,7.3,0.3,10.7,1.4c9.8,3.1,16.2,9.6,19.1,19.3c2.7,9.1,2.5,18.2-0.7,27.2
				c-4.2,11.6-12.4,18.6-24.6,21.1c-6,1.2-11.8,0.9-17.5-0.6c-9.3-2.6-15.6-8.5-19-17.5c-1.4-3.6-1.9-7.3-2.2-11.1
				c-0.4-6.2-0.1-12.3,2-18.2c4.7-12.7,13.9-19.8,27.5-21.3C1436.2,118.4,1437.9,118.4,1439.3,118.3z M1454.9,155
				c-0.4-3.6-0.6-7.1-1.2-10.6c-0.9-5-2.9-9.5-6.8-12.9c-2.5-2.3-5.4-3.8-8.8-4.1c-5.5-0.5-12.3,2.2-15.1,9.5
				c-0.8,2.2-1.4,4.5-1.6,6.9c-0.5,5.2-0.4,10.4,0.2,15.6c0.5,4,1.5,7.9,3.6,11.4c3.3,5.7,8,8.4,14.6,7.9c3.5-0.2,6.4-1.6,8.9-3.9
				c2.9-2.7,4.4-6.1,5.1-9.9C1454.3,161.6,1454.5,158.3,1454.9,155z"/>
			<path class="st2" d="M1869.3,152.1c0.2,5.5-0.7,11.1-3,16.3c-4.6,10.2-12.3,16.5-23.3,18.8c-5.7,1.2-11.3,1.1-16.9-0.2
				c-8.3-2-14.5-6.6-18.5-14.1c-1.9-3.6-3.1-7.5-3.6-11.4c-0.8-6.6-0.7-13.2,1.2-19.7c4.4-15.4,17.3-22.6,28.3-23.1
				c3.1-0.1,6.2-0.2,9.2,0.1c12.2,1,21.7,8.9,25.2,20.6C1869,143.4,1869.4,147.6,1869.3,152.1z M1853.3,154.6
				c0.2-4-0.5-7.9-1.3-11.8c-1.1-4.7-3.4-8.8-7.1-11.9c-7-5.7-15.3-3.7-19.9,1c-2.2,2.3-3.5,5-4.2,8c-1.8,8-1.2,16,0.4,23.9
				c0.6,3.2,2.1,6.2,4,9c6,8.5,19.7,8,25-1.6c0.9-1.6,1.5-3.5,2-5.3C1853.2,162.2,1853.5,158.5,1853.3,154.6z"/>
			<path class="st2" d="M1559.2,174.7c0-2.6,0-5.2,0-7.8c0-1.4,1.4-2.7,2.8-2.8c1.2-0.1,2.4,0,3.5,0c1,0.1,1.7,0.6,2,1.6
				c0.6,1.8,1.1,3.6,1.9,5.3c2.4,5,6.6,7.2,12,7.1c0.2,0,0.5,0,0.7,0c2.9-0.5,5.6-1.3,6.8-4.4c1.4-3.5,0.3-6.5-2.1-9.1
				c-0.9-1-2.1-1.9-3.3-2.6c-2-1.3-4.1-2.4-6.1-3.5c-2.5-1.4-5-2.6-7.5-4.1c-2-1.2-4-2.6-5.8-4.1c-7.3-6.1-7.2-15.8-2.3-22.3
				c4-5.4,9.5-8.5,16.1-9.4c6.7-0.9,13.2-0.3,19.5,2.1c3.2,1.3,4.2,1,3.3,5.6c-0.5,2.5-0.5,5.2-0.8,7.8c-0.2,1.6-0.5,3.3-0.9,4.9
				c-0.1,0.4-0.6,0.9-0.9,0.9c-1.9,0-3.7,0-5.6-0.2c-0.3,0-0.8-0.5-1-0.9c-0.5-1.6-0.9-3.2-1.4-4.7c-2.1-5.8-10.4-8.8-16-4.8
				c-2.9,2.1-3.4,6.1-0.8,8.6c1.5,1.5,3.2,2.8,5,3.9c3,1.8,6.2,3.4,9.3,5.1c3.1,1.7,6.2,3.4,8.9,5.7c1.8,1.5,3.5,3.2,4.5,5.4
				c3.5,7,2.8,13.8-1.6,20.1c-2.9,4.2-7,7.1-11.9,8.4c-5,1.4-10.2,2-15.4,1c-3.5-0.7-7-1.2-10.3-2.4c-3.4-1.2-4.2-0.9-3.4-5.5
				c0.3-1.6,0.3-3.3,0.4-4.9C1559.1,174.7,1559.2,174.7,1559.2,174.7z"/>
			<path class="st2" d="M1744.3,132.6c0.1,5.5,0.2,13.5,0.3,21.6c0,3.8,0,7.6,0,11.4c0,0.9,0,1.9,0,2.8c0.5,8.7,0.2,7.7,7.9,10.1
				c0.5,0.1,0.9,0.3,1.3,0.4c1.1,0.4,1.7,1.3,1.7,2.8c0,0.7,0,1.4-0.1,2.1c-0.1,0.9-1.5,2.3-2.4,2.3c-0.7,0-1.4,0.1-2.1,0
				c-8.7-0.8-17.5-0.8-26.2-0.1c-0.9,0.1-1.9-0.1-2.8-0.1c-0.7-0.1-1.9-1.1-2-1.8c-0.1-0.9-0.2-1.9-0.1-2.8c0-1,0.5-1.8,1.4-2.2
				c0.9-0.4,1.8-0.6,2.7-0.9c6.2-2.4,6.3-0.9,6.4-9c0.1-20.4,0-40.7,0-61.1c0-0.9,0-1.9-0.1-2.8c-0.2-2.2-0.8-3.5-3.6-3.2
				c-1.4,0.2-2.8,0.4-4.2,0.5c-0.6,0.1-2-0.9-2.3-1.5c-0.6-1.4-0.5-2.7-0.2-4.1c0.1-0.2,0.1-0.5,0.3-0.6c0.4-0.3,0.8-0.5,1.2-0.7
				c6.7-2.4,13.3-4.9,19.7-8.1c1.1-0.6,2.3-0.2,3.3,0.5c0.8,0.6,1.5,1.3,1.4,2.3c-0.3,7.3-0.7,14.7-1,22
				C1744.7,118.3,1744.5,124.2,1744.3,132.6z"/>
			<path class="st2" d="M632.3,153.9c0.3-6.8,0.5-12.7,0.7-18.6c0-0.9,0-1.9-0.2-2.8c-0.1-0.4-0.6-0.9-1-0.9
				c-1.9-0.2-3.8-0.2-5.6-0.3c-0.9-0.1-2.2-1.3-2.4-2.3c-0.1-0.7-0.1-1.4-0.1-2.1c0-0.9,0.2-1.9,1.2-2.4c0.8-0.4,1.6-1,2.5-1.4
				c4.2-2.4,7.5-5.8,10-9.9c1.4-2.2,2.6-4.5,3.7-6.8c1.1-2.2,4.2-2.2,6.2-1.1c0.9,0.5,1.4,1.4,1.3,2.4c-0.2,2.6-0.5,5.2-0.7,7.8
				c-0.1,1.4-0.1,2.8-0.1,4.2c0,0.5,0.8,1.4,1.3,1.4c2.8,0,5.7,0,8.5,0c1.9,0,3.8,0,5.7,0.1c1.6,0.1,2.8,2.5,2,3.8
				c-0.9,1.6-1.7,3.4-2.6,5c-0.6,1.2-1.6,1.6-2.9,1.5c-3.5-0.1-7.1-0.1-10.6-0.2c-0.9,0-1.8,0.8-1.8,1.7c-0.2,3.8-0.4,7.5-0.5,11.3
				c-0.1,6.4-0.1,12.8-0.3,19.1c-0.1,2.9,0.3,5.7,1.1,8.4c0.2,0.7,0.5,1.3,0.9,1.9c0.7,1,1.7,1.8,2.9,1.7c1.4,0,2.8-0.2,4.2-0.5
				c1.6-0.4,3.1-1.2,4.6-1.7c1-0.3,2,0.1,2.5,0.9c0.8,1.1,1.5,2.4,2.1,3.7c0.2,0.5,0,1.6-0.5,1.9c-3.5,2.4-7.2,4.5-11.1,6.1
				c-3.2,1.3-6.4,1.6-9.7,1.3c-4.7-0.5-9.2-4-10.2-8.6c-0.6-2.7-0.8-5.6-1.1-8.4c-0.1-1.6,0-3.3,0-5
				C632.3,161.1,632.3,157,632.3,153.9z"/>
			<path class="st2" d="M588.9,153.3c0.1-6.9,0.2-13.7,0.3-20.6c0-0.5-0.8-1.3-1.4-1.3c-0.7,0-1.4-0.1-2.1-0.1c-0.9,0-1.9,0-2.8,0
				c-1.3-0.1-2.5-1.3-2.7-2.8c-0.1-0.7-0.2-1.4,0-2.1c0.1-0.6,0.5-1.3,0.9-1.8c0.5-0.5,1.2-0.8,1.8-1.1c5.4-2.9,9.2-7.3,12.1-12.6
				c0.7-1.2,1.3-2.5,2-3.8c1.4-2.6,2.1-2.9,5.1-2.6c1.4,0.2,2.9,1.5,2.8,2.7c-0.1,2.4-0.2,4.7-0.5,7.1c-0.9,6.8-0.5,6.9,5.9,6.8
				c1.9,0,3.8-0.2,5.7-0.2c1.2,0,2.4,0,3.5,0.1c1.6,0.1,3,2.4,2.3,3.7c-4.4,7.7-1.4,6.8-10.4,6.6c-1.9,0-3.8-0.1-5.7-0.1
				c-1.3,0-2.1,0.8-2.2,2.2c-0.1,3.1-0.1,6.1-0.2,9.2c-0.1,6.9-0.2,13.7-0.3,20.6c0,2.4,0.2,4.7,0.5,7.1c0.2,1.1,0.7,2.2,1.2,3.3
				c0.7,1.3,2,2,3.5,2c0.9,0,1.9-0.1,2.8-0.3c0.9-0.2,1.8-0.7,2.7-1c1.5-0.4,2.9-1.8,4.7-0.8c1.8,1.1,2.4,2.9,2.9,4.7
				c0.1,0.3-0.1,1-0.4,1.2c-3.4,2.5-7.2,4.5-11.1,6.2c-2.9,1.3-5.9,1.6-9,1.5c-5.2-0.1-11.3-4.5-11.8-11.2c-0.2-2.1-0.4-4.2-0.4-6.4
				c-0.1-3.8,0-7.6,0-11.3c0-1.7,0-3.3,0-5C588.8,153.3,588.8,153.3,588.9,153.3z"/>
			<path class="st2" d="M467.6,185.5c-5,0.3-9,0.5-13.1,0.7c-0.9,0-1.9,0.1-2.8,0.1c-1.3,0-2.7-1.4-2.9-2.7
				c-0.1-0.5-0.1-0.9-0.1-1.4c0-1.8,0.6-2.8,2.1-3.3c2.3-0.7,4.5-1.3,6.8-2c1.5-0.5,2.2-1.7,2.3-3.2c0.1-1.7,0.1-3.3,0.1-5
				c0-9.9,0-19.9,0-29.8c0-0.7,0-1.4-0.1-2.1c-0.1-1.7-1-2.7-2.6-2.7c-1.9,0-3.8,0.2-5.7,0.2c-1.3,0-2.7-1.3-2.9-2.7
				c-0.1-0.9-0.1-1.9,0.1-2.8c0.1-0.7,0.4-1.3,1.3-1.5c3.2-1,6.3-1.9,9.4-3c3.8-1.3,7.4-3.1,10.8-5.2c1.5-0.9,4.3,1.3,4.3,2.6
				c-0.1,1.9-0.2,3.8-0.3,5.6c0,0.2,0.1,0.6,0.3,0.6c0.4,0.1,0.9,0.2,1.1,0c1.2-1.1,2.4-2.3,3.6-3.4c5.2-4.9,11.2-5.8,17.7-3
				c0.8,0.3,1.4,1.4,1.2,2.3c-0.8,4.4-1.6,8.8-2.4,13.2c-0.2,1-0.9,1.5-2,1.5c-0.9,0-1.9,0.1-2.8-0.1c-0.6-0.1-1.4-0.6-1.7-1.1
				c-0.5-0.8-0.6-1.8-1-2.6c-0.9-1.9-3-2.5-4.7-1.4c-5.1,3.2-8.3,7.6-9.2,13.6c-0.2,1.6-0.4,3.3-0.4,5c0.1,6.9,0.2,13.7,0.4,20.6
				c0,0.7,0.1,1.5,0.4,2.1c0.4,0.8,1,1.8,1.7,2.1c2.1,1.1,4.4,1.6,6.8,2c1.9,0.4,2.5,1.5,2.4,3.7c0,0.5-0.1,0.9-0.2,1.4
				c-0.2,1-1.5,2.2-2.5,2.2c-0.9,0-1.9,0-2.8,0C475.5,185.9,471.1,185.7,467.6,185.5z"/>
			<path class="st2" d="M977.9,185.5c-5,0.3-9.3,0.5-13.5,0.7c-0.9,0-1.9,0-2.8-0.1c-1-0.1-2.2-1.2-2.4-2.3
				c-0.1-0.7-0.2-1.4-0.2-2.1c0-1.5,0.6-2.4,1.8-2.7c2-0.6,4-1.3,6.1-1.8c2.1-0.5,3.2-1.8,3.3-4c0-0.5,0-0.9,0-1.4
				c0-10.9,0-21.7,0-32.6c0-1.2,0-2.4-0.3-3.5c-0.1-0.6-0.9-1.3-1.4-1.3c-1.9-0.1-3.7,0-5.6,0c-2.7,0.1-3.9-1.1-3.9-3.8
				c0-0.5-0.1-1,0.1-1.4c0.2-0.6,0.6-1.2,1-1.7c0.1-0.2,0.4-0.2,0.7-0.2c6.9-1.8,13.5-4.3,19.6-7.9c1.7-1,4.6,0.8,4.5,2.9
				c0,1.6-0.1,3.3-0.3,4.9c0,0.6,0.2,0.9,0.7,0.9c0.2,0,0.5,0,0.6-0.1c1.7-1.6,3.4-3.3,5.2-4.8c4.9-4,12-3.9,16.6-1.2
				c0.3,0.2,0.6,0.8,0.6,1.2c-0.8,4.9-1.6,9.8-2.6,14.6c-0.1,0.3-0.7,0.7-1.1,0.7c-1.2,0.1-2.4,0.1-3.5,0.1c-1-0.1-1.7-0.5-2-1.6
				c-0.3-0.9-0.6-1.8-1-2.6c-0.6-1.2-2.5-1.8-3.7-1.2c-0.6,0.3-1.3,0.6-1.8,1c-4.9,3.5-7.7,8.1-8.3,14.2c-0.6,6.1-0.2,12.3-0.1,18.4
				c0,2.4,0.3,4.7,0.4,7.1c0.1,1.5,0.9,2.7,2.4,3.2c2,0.7,4.1,1.2,6.1,1.7c2.2,0.6,2.9,1.7,2.6,4.3c0,0.2-0.1,0.5-0.1,0.7
				c-0.3,1.4-1.6,2.6-3,2.5c-0.9,0-1.9-0.1-2.8-0.2C985.6,185.9,981.4,185.7,977.9,185.5z"/>
			<path class="st2" d="M1035.9,144c0,9.7,0,16.8,0,23.9c0,0.9,0.1,1.9,0.1,2.8c0.3,5.2,0.6,5.6,5.9,7.4c0.7,0.2,1.4,0.3,2.1,0.5
				c2.7,0.9,3.5,2.2,2.6,5.5c-0.3,1-1.7,2-2.7,2.1c-0.5,0-0.9,0.1-1.4,0c-8.3-1-16.5-0.6-24.8,0c-1.2,0.1-2.4,0.1-3.5,0.1
				c-1.2,0-2.6-1.4-2.7-2.8c-0.1-0.5-0.1-0.9-0.1-1.4c0-1.8,0.6-2.8,2.1-3.3c2-0.6,4.1-1.2,6.1-1.9c1.2-0.4,2-1.3,2.1-2.6
				c0.2-2.8,0.5-5.7,0.5-8.5c0.1-8.3,0.1-16.6,0-24.9c0-1.7-0.2-3.3-0.3-5c-0.1-1.6-1.2-2.7-2.7-2.6c-1.4,0.1-2.8,0.2-4.2,0.3
				c-2,0.1-3.4-1.3-3.5-3.5c0-0.5,0-0.9,0-1.4c0.1-1,0.5-1.8,1.5-2.2c0.9-0.3,1.8-0.6,2.7-0.8c5.7-1.7,11.1-4,16.3-6.8
				c1.7-0.9,3.1-0.6,4.4,1c0.4,0.5,0.9,1.2,0.9,1.8c0.1,1.6-0.1,3.3-0.2,5C1036.5,133.4,1036.2,140,1035.9,144z"/>
			<path class="st2" d="M1636.1,145.1c0,8.7,0,15.6,0,22.4c0,1.9,0.1,3.8,0.4,5.7c0.2,2,1,3.6,3.3,4.1c1.8,0.4,3.6,1.1,5.4,1.7
				c1.4,0.5,2.1,1.6,1.9,3.4c0,0.7-0.1,1.4-0.4,2.1c-0.4,0.9-1.1,1.5-2.1,1.7c-0.7,0.1-1.4,0.2-2.1,0.1c-8-0.9-16.1-0.6-24.1,0
				c-0.7,0-1.4,0.1-2.1,0.2c-3.7,0.2-5.1-1.4-4.7-5.2c0.1-1,0.7-1.7,1.7-2.1c0.7-0.3,1.4-0.4,2-0.6c1.3-0.4,2.7-0.9,4-1.3
				c1.5-0.5,2.4-1.5,2.5-3c0.3-3.5,0.6-7.1,0.6-10.6c0.1-6.9,0.1-13.7,0-20.6c0-2.6-0.4-5.2-0.7-7.8c-0.1-0.7-1.3-1.7-2-1.7
				c-1.9,0-3.8,0.2-5.6,0.1c-1,0-1.8-0.7-2.2-1.6c-0.5-1.3-0.6-2.8-0.1-4.1c0.2-0.4,0.5-0.8,0.9-1c0.6-0.4,1.3-0.6,1.9-0.8
				c5.5-1.4,10.7-3.7,15.8-6.2c0.8-0.4,1.7-0.9,2.5-1.2c1.4-0.6,4.2,1.2,4.2,2.8c0.1,1.6,0,3.3-0.1,5
				C1636.8,133.2,1636.4,140.1,1636.1,145.1z"/>
			<path class="st2" d="M1786,145c0,8.9,0,16.7,0,24.5c0,1.4,0.2,2.8,0.4,4.2c0.2,1.5,0.8,2.7,2.4,3.2c1.8,0.5,3.6,1.1,5.4,1.7
				c2.4,0.8,3.4,4.3,1.7,6.4c-0.4,0.5-1.1,0.8-1.8,1c-0.7,0.2-1.4,0.2-2.1,0.1c-7.8-0.8-15.6-0.6-23.4,0c-1.2,0.1-2.4,0.2-3.5,0.2
				c-3.2,0.1-5-2.9-3.7-6c0.2-0.6,0.9-1.1,1.5-1.3c2-0.7,4-1.4,6.1-1.9c1.6-0.4,2.3-1.6,2.5-3.1c0.3-2.1,0.5-4.2,0.5-6.4
				c0.1-9.2,0.1-18.5,0.1-27.7c0-1.6-0.4-3.3-0.7-4.9c-0.1-0.8-1.3-1.7-2.1-1.7c-1.9,0-3.8,0.2-5.6,0.1c-1,0-1.8-0.7-2.2-1.6
				c-0.6-1.3-0.6-2.7-0.1-4.1c0.1-0.4,0.6-0.7,0.9-1c0.4-0.3,0.8-0.5,1.3-0.6c6.5-1.6,12.5-4.2,18.4-7.4c2.2-1.2,5.1,0.6,5,3.1
				C1786.6,130.1,1786.3,138.1,1786,145z"/>
			<path class="st2" d="M1629.3,87.1c5-0.2,8.5,3.1,8.9,8.1c0.4,4.8-4,9.2-8.7,9.2c-4.5,0-8.7-4.1-8.6-8.6
				C1621,90.9,1624.4,87,1629.3,87.1z"/>
			<path class="st2" d="M1037.9,95.5c0,4.7-3.7,8.7-8.3,8.8c-5,0.1-9.1-3.8-9-8.9c0.2-4.7,3.5-8.4,8.7-8.4
				C1034.2,87.1,1037.7,90.6,1037.9,95.5z"/>
			<path class="st2" d="M1770.6,95.4c0.1-4.6,3.8-8.5,8.7-8.3c4.8,0.2,8.6,3.8,8.6,8.4c0,4.9-4.3,9.1-9.1,8.8
				C1774.1,104,1770.5,100.1,1770.6,95.4z"/>
			<path class="st2" d="M1504.9,126.3c-0.1,0.1-0.2,0.3-0.2,0.4c-0.2-0.2-0.4-0.3-0.7-0.5c0.2-0.1,0.3-0.3,0.5-0.4
				C1504.7,126,1504.8,126.2,1504.9,126.3z"/>
		</g>
		<g>
			<path class="st2" d="M1502.8,232.5c4.7-0.1,9.6-0.3,14.6-0.3c3.6,0,7.1,0.2,10.5,1.6c5.2,2.1,8.4,5.8,9.8,11.3
				c2.1,8.6-1.2,18.1-10.3,22.7c-1.1,0.5-2.1,1-3.2,1.5c-0.6,0.3-0.8,1.1-0.3,1.8c5.2,6.8,10.4,13.5,15.5,20.3
				c1.3,1.8,3.1,2.9,5.2,3.5c2.3,0.6,4.6,1.2,6.9,1.7c1.7,0.4,2.5,2.9,1.4,4.7c-0.2,0.4-0.7,0.7-1.1,0.8c-0.9,0.1-1.9,0.2-2.8,0.1
				c-2.8,0-5.7-0.1-8.5-0.2c-2.8-0.1-5.6,0.7-8.4-0.1c-1.6-2.3-3.1-4.7-4.8-7c-4.9-6.9-10-13.8-14.8-20.8c-1.7-2.5-4-3.1-6.8-2.8
				c-0.7,0.1-1.3,0.6-1.3,1.4c0,0.5-0.1,0.9-0.1,1.4c0.1,6.2,0.2,12.3,0.4,18.5c0,1.6,0.5,2.2,1.9,2.6c2.1,0.5,4.1,1,6.2,1.4
				c1.9,0.4,2.5,1.5,2.2,3.7c-0.1,1.1-0.9,1.9-1.7,2c-0.2,0-0.5,0.1-0.7,0.1c-9.5-0.3-18.9-0.3-28.4,0c-1.9,0.1-2.9-1.1-2.7-3.2
				c0-0.2,0-0.5,0.1-0.7c0.4-0.5,0.8-1.4,1.3-1.5c2.5-0.7,5-1.3,7.6-1.9c1.1-0.3,1.5-1.1,1.5-2.1c0.1-2.8,0.3-5.7,0.3-8.5
				c0-13.5-0.1-27-0.1-40.5c0-0.2,0-0.5,0-0.7c0-3.6-0.9-3.4-3.6-4.3c-1.6-0.5-3.2-0.6-4.9-0.9c-2-0.4-2.8-2.3-1.8-4.5
				c0.2-0.4,0.6-0.9,0.9-1c0.9-0.2,1.9-0.3,2.8-0.3C1491.1,232.2,1496.8,232.4,1502.8,232.5z M1504.4,252.2c0,0-0.1,0-0.1,0
				c0,3.3,0,6.6,0,9.9c0,1,0.8,1.7,1.7,1.9c3.8,0.8,7.6,0.4,11.3-0.5c4.2-1,7-3.8,8.2-8c0.7-2.5,0.8-5.2,0.1-7.7
				c-0.9-3.4-2.9-5.8-6.3-7.1c-2.3-0.8-4.6-1.2-7-1.1c-8.5,0.3-7.9-0.6-7.9,7.6C1504.4,248.9,1504.4,250.5,1504.4,252.2z"/>
			<path class="st2" d="M815.9,232.2c5.4,0,10.9,0,16.3,0c4.7,0,9.4,0.2,14.1,1.6c6.4,1.9,11.3,5.6,14.7,11.5c1.8,3.1,3,6.5,3.5,10
				c0.9,5.9,1,11.8-0.6,17.6c-3.9,14.6-13.4,23.5-27.6,27.7c-3.9,1.1-7.8,1.8-11.9,1.7c-2.6-0.1-5.2-0.1-7.8-0.1
				c-7.6,0-15.1,0-22.7,0c-0.9,0-1.9,0.1-2.8-0.2c-0.6-0.2-1.2-0.8-1.4-1.4c-0.7-2.3,0.1-3.6,2.5-4.1c2.1-0.4,4.2-0.9,6.2-1.4
				c1-0.2,1.6-1,1.7-2c0.2-1.6,0.3-3.3,0.4-4.9c0.1-9,0.2-18,0.2-27c0-6.4-0.1-12.8-0.2-19.2c0-1.3-0.7-2.2-2-2.5
				c-2.3-0.6-4.6-1.2-6.9-1.8c-1.7-0.4-2.5-2.1-1.8-3.9c0.2-0.6,0.9-1.3,1.4-1.4c1.4-0.2,2.8-0.2,4.2-0.2c6.9,0.1,13.7,0.2,20.6,0.3
				C815.9,232.4,815.9,232.3,815.9,232.2z M812.4,267.1c0,5.7,0,11.3,0,17c0,2.6,0.1,5.2,0.2,7.8c0,1.2,1,2.2,2.2,2.4
				c4.9,0.8,9.9,1,14.8,0.3c8.8-1.2,15.1-6.1,19.1-14.1c1.5-3,2.2-6.2,2.7-9.5c1-5.9,0.6-11.8-1.1-17.5c-1.8-6.1-5.8-10.2-11.8-12.3
				c-2.2-0.8-4.6-1.2-6.9-1.5c-5.6-0.5-11.3-0.3-17,0.1c-0.2,0-0.5,0-0.7,0.2c-0.5,0.5-1.2,1-1.2,1.6c-0.2,2.6-0.3,5.2-0.4,7.8
				C812.4,255.3,812.4,261.2,812.4,267.1z"/>
			<path class="st2" d="M645.1,292c2.6,0,5.2,0,7.8,0c1.2,0,2.4,0.1,3.5,0.4c4.6,1.2,7.6,4.1,8,9.6c0.3,5.1-1.5,9.3-5.2,12.6
				c-4.5,4.1-10,6.2-15.9,7.2c-4.7,0.8-9.4,0.8-14.1,0.1c-4.1-0.5-7.7-2.1-10.5-5.3c-1.6-1.8-2.6-3.9-2.6-6.4c0-2,0.7-3.7,2.2-5
				c1.6-1.4,3.4-2.5,5-3.9c0.3-0.2,0.4-1,0.2-1.3c-0.7-1-1.5-1.8-2.3-2.7c-0.8-0.9-1.1-2.1-1.2-3.3c-0.1-1.4,0.1-2.8,1.3-3.9
				c1.6-1.4,3.2-2.8,4.7-4.2c0.8-0.7,0.8-1.5,0-2.4c-2.2-2.2-4-4.6-4.9-7.6c-2.4-7.6,1.1-18.9,12.6-22.1c3.6-1,7.4-1.6,11.2-0.6
				c5.6,1.4,11.2,1.5,16.9,1c0.5,0,0.9,0,1.4,0c1,0,2.1,1.7,1.7,2.6c-0.4,1.1-0.9,2.2-1.4,3.3c-0.6,1.4-1.6,2.2-3.3,2
				c-0.5-0.1-0.9,0-1.4,0.1c-0.7,0.1-1.2,0.7-1.1,1.4c0.3,1.9,0.8,3.7,1,5.6c0.6,8.6-5.3,15.3-12.8,17.3c-3.4,0.9-6.9,1.5-10.5,0.9
				c-1.5-0.2-2.7,0.6-3.5,2c-0.2,0.4,0,1.7,0.5,1.8c0.9,0.3,1.8,0.7,2.7,0.7C638.5,291.9,641.8,292,645.1,292
				C645.1,292.1,645.1,292,645.1,292z M642,301.3c0,0.1,0,0.1,0,0.2c-2.4,0-4.7,0-7.1,0c-1.8,0-3.2,0.8-4.3,2.1
				c-1.1,1.3-2.1,2.6-2.9,3.9c-0.8,1.3-0.3,3.4,0.9,4.5c1.6,1.5,3.6,2.3,5.7,2.6c3.3,0.5,6.6,0.5,9.9-0.1c2.8-0.5,5.5-1.5,7.6-3.4
				c1.4-1.3,2.4-2.9,2.4-4.9c0-1.9-1.3-3.9-3.1-4.1C648.1,301.7,645,301.6,642,301.3z M647.3,271.8c0-3.5-0.2-6-1.4-8.4
				c-0.9-1.7-2.2-3.1-4.1-3.8c-4-1.3-7.7,0.6-9.1,4.5c-1.6,4.5-1.1,8.9,0.9,13.1c0.3,0.6,0.8,1.1,1.3,1.7c2.5,3.1,8.7,3.1,10.9-1.1
				C647,275.7,647.3,273.4,647.3,271.8z"/>
			<path class="st2" d="M598.9,302.2c-4,0-8,0-12.1,0c-1.7,0-2.5-0.8-2.6-2.6c-0.1-1.8,0.6-2.6,2.2-3.1c1.4-0.4,2.7-0.8,4.1-1.2
				c0.7-0.2,1.2-1.1,1-1.7c-1.5-3.7-2.9-7.5-4.5-11.2c-0.4-0.9-1.2-1.5-2.2-1.5c-6.4-0.1-12.8-0.1-19.2-0.1c-1.2,0-2.4,0-3.5,0.1
				c-1,0.1-1.8,0.7-2.2,1.6c-1.1,2.4-2.1,4.8-3.1,7.2c-1.8,4.5-1.8,4.6-1.2,5.2c1.3,1.3,3,1.2,4.6,1.6c1.8,0.5,2.6,2.6,1.6,4.6
				c-0.2,0.4-0.6,0.7-1,0.9c-0.4,0.2-0.9,0.2-1.4,0.2c-6.6,0-13.2,0-19.9,0c-1.4,0-2.1-0.7-2.4-2.1c-0.3-1.8,0.3-3,1.6-3.4
				c0.4-0.1,0.9-0.2,1.4-0.3c2.7-0.6,4.7-2.2,5.9-4.7c1.5-3.2,3.1-6.4,4.6-9.6c6.6-14.9,13.1-29.9,19.6-44.8
				c0.8-1.7,1.5-3.5,2.3-5.2c0.4-0.9,1.4-1.2,2.4-1.2c2.3-0.1,3.1,0.4,3.9,2.3c3.3,7.8,6.4,15.8,9.8,23.5
				c4.9,11.2,10,22.4,15.1,33.6c0.4,0.9,0.8,1.7,1.2,2.6c0.6,1.1,1.4,1.9,2.6,2.3c1.6,0.5,3.1,1,4.7,1.5c1.4,0.5,2.1,1.9,1.8,3.4
				c-0.3,1.4-1.1,2.2-2.4,2.2c-1.2,0-2.4,0-3.5,0C605.1,302.2,602,302.2,598.9,302.2C598.9,302.2,598.9,302.2,598.9,302.2z
				 M573.7,273.8c0-0.1,0-0.2,0-0.3c2.6,0,5.2,0,7.8,0c1.1,0,1.5-0.8,1.1-1.9c-2.7-6.5-5.5-13-8.2-19.5c-0.1-0.2-0.3-0.5-0.4-0.4
				c-0.4,0.2-1.1,0.3-1.2,0.6c-2.8,6.5-5.5,13-8.2,19.5c-0.1,0.2-0.1,0.5,0,0.7c0.2,0.4,0.5,1,0.7,1
				C568,273.5,570.9,273.6,573.7,273.8z"/>
			<path class="st2" d="M1403.6,289.5c0-2.4,0-4.7,0-7.1c0.1-2.2,1.3-3.1,3.8-3.1c0.2,0,0.5-0.1,0.7,0c0.6,0.3,1.4,0.6,1.6,1.1
				c0.9,2.4,1.6,4.9,2.4,7.4c0.7,2.1,1.9,3.8,3.7,5.1c2.5,1.9,5.5,2.9,8.6,3c3.4,0.1,6.5-1,9.3-3c3.3-2.4,4.2-7.3,3.3-10.2
				c-0.8-2.6-2-4.8-4.3-6.3c-2.4-1.6-4.8-3-7.3-4.3c-2.7-1.4-5.5-2.7-8.3-3.9c-2.6-1.2-5-2.7-7.2-4.4c-6.3-4.8-7.6-12.8-5.2-19.1
				c1.6-4.1,4.1-7.4,7.8-9.8c3.6-2.3,7.6-3.8,11.9-4.2c7-0.6,13.6,0.8,20.1,3.2c0.5,0.2,1,0.9,1.2,1.5c0.2,0.6,0.1,1.4,0.1,2.1
				c-0.2,4-0.3,8-0.1,12c0.1,2.3-1.1,3.2-3.6,3.2c-0.2,0-0.5,0-0.7-0.1c-1.1-0.1-1.9-0.6-2.1-1.6c-0.6-2-1-4.1-1.8-6.1
				c-1-2.8-3-4.7-5.8-5.9c-3.2-1.4-6.5-1.6-9.7-0.7c-4.8,1.3-7.4,5.3-7.1,9.4c0.2,2.3,1,4.2,2.7,5.6c1.4,1.2,3,2.3,4.7,3.2
				c2.9,1.5,6,2.8,8.9,4.3c3.6,1.7,7.2,3.5,10.4,6c2.7,2.1,4.7,4.7,6,7.8c3.2,7.7,0.8,16.5-4.4,21.6c-4.2,4.1-9.3,6.4-15.1,7.1
				c-6.7,0.8-13.2-0.1-19.6-2.1c-1.4-0.4-2.7-0.8-4.1-1.3c-0.8-0.2-1.5-1.4-1.5-2.2c0.1-1.4,0.2-2.8,0.3-4.2c0-1.4,0-2.8,0-4.3
				C1403.5,289.5,1403.5,289.5,1403.6,289.5z"/>
			<path class="st2" d="M1045.9,272.1c0.5-10.4,0.1-19.6-0.2-28.9c0-1.5-0.8-2.2-2.1-2.3c-0.5,0-0.9,0-1.4,0c-0.5,0-0.9,0.1-1.4,0.1
				c-2.1,0-2.9-0.9-2.8-3.1c0.1-1,0.5-1.9,1.5-2.2c5-1.5,9.8-3.5,14.4-5.9c1.1-0.6,3.2,0.6,3.3,1.8c0.1,0.7,0.1,1.4,0.1,2.1
				c-0.3,7.3-0.6,14.7-0.8,22c-0.1,2.7,0.2,3.2,0.9,3.1c1.1-0.1,1.5-0.9,2.3-1.4c0.8-0.5,1.4-1.3,2.1-1.9c2.9-2.4,6.4-3.1,10-2.7
				c10.1,1.3,14.2,6.5,16,14.7c1.2,5.3,1,10.8-0.8,16.1c-3.6,10.2-10.6,16.7-21,19.3c-5.7,1.4-11.3,0.6-16.7-1.5
				c-0.9-0.3-1.7-0.8-2.6-1.2c-0.7-0.3-1.1-1.1-1.1-1.7c0-4,0.1-8,0.1-12.1C1045.8,281.3,1045.9,276.1,1045.9,272.1z M1056.6,282.5
				C1056.6,282.5,1056.6,282.5,1056.6,282.5c-0.1,3.3-0.1,6.6,0,9.9c0,1,0.7,1.8,1.7,2.1c1.6,0.5,3.2,1,4.8,1.1
				c5.2,0.5,9.9-2.1,12.1-6.8c0.7-1.5,1.2-3.1,1.5-4.7c0.7-4,0.6-8,0-12c-0.4-2.4-1.4-4.5-3.1-6.2c-2.5-2.6-5.4-3.4-9-2.5
				c-3.7,0.9-8,6-7.9,9.9C1056.6,276.3,1056.6,279.4,1056.6,282.5z"/>
			<path class="st2" d="M1613,302.2c-7.6,0-15.1,0-22.7,0c-1.2,0-2.4,0-3.5,0c-1.2,0-2-0.9-2.2-2.3c-0.3-1.7,0.4-2.9,1.9-3.2
				c2.1-0.5,4.2-0.9,6.2-1.4c1.9-0.4,2.4-1.6,2.5-3c0.1-2.4,0.2-4.7,0.2-7.1c0-14,0-27.9,0-41.9c0-0.7-0.1-1.4-0.2-2.1
				c0-0.8-0.7-1.3-1.3-1.6c-2.4-1.2-5-1.3-7.5-1.9c-1.9-0.5-2.7-2.9-1.5-4.6c0.3-0.4,0.7-0.7,1.1-0.8c0.4-0.2,0.9-0.2,1.4-0.2
				c9.7,0.4,19.4,0.3,29.1,0c1,0,1.9,0.2,2.5,1c1.3,1.6,0.6,4.1-1.4,4.5c-2.8,0.6-5.6,1.1-8.3,1.7c-1.3,0.3-2,1.3-2.1,2.5
				c-0.1,0.9-0.1,1.9-0.1,2.8c0,15.1,0,30.3,0,45.4c0,0.7,0,1.4,0.1,2.1c0.1,0.7,0.5,1.3,1.3,1.5c0.2,0.1,0.5,0.2,0.7,0.2
				c6.9,0,13.7,0,20.6,0c2.6,0,4.5-1.2,5.8-3.4c1.5-2.7,3.1-5.3,4.6-8c1-1.7,3.8-2.1,5.6-0.8c0.5,0.4,0.7,1.1,0.9,1.8
				c0.1,0.4-0.1,0.9-0.3,1.4c-0.6,1.8-1.3,3.5-2,5.3c-1.3,3.8-2.6,7.6-4,11.3c-1.7,1.1-3.7,0.6-5.5,0.6c-2.6,0.1-5.2-0.1-7.8-0.1
				C1622.5,302.1,1617.7,302.1,1613,302.2C1613,302.1,1613,302.2,1613,302.2z"/>
			<path class="st2" d="M1331.6,279.3c0,4.3-0.1,8.5,0,12.8c0,2.5,0.9,3.4,3.1,4.1c1.1,0.3,2.3,0.6,3.4,1c0.9,0.3,1.4,1.9,1.1,3.1
				c-0.2,1-1,1.8-1.9,1.9c-0.2,0-0.5,0.1-0.7,0.1c-6.9,0-13.7,0-20.6,0c-0.6,0-1.4-0.3-1.9-0.7c-1-0.9-0.6-3.9,0.5-4.5
				c0.2-0.1,0.4-0.2,0.6-0.3c5.8-1.6,5.5-2.3,5.6-7.4c0.2-6.2,0.1-12.3,0.1-18.5c0-1.9-0.3-3.8-1.2-5.5c-1-1.7-2.5-2.8-4.5-3.1
				c-5.1-0.8-10.8,3.4-11.4,8.4c-0.1,1.2-0.5,2.3-0.5,3.5c-0.5,6.4-0.1,12.8,0.5,19.1c0.1,1,0.8,1.7,1.7,2.1c1.3,0.5,2.7,0.9,4,1.4
				c1.6,0.6,2.2,2.3,1.4,4.1c-0.2,0.4-0.6,0.7-1,0.9c-0.4,0.2-0.9,0.3-1.4,0.3c-6.9,0-13.7,0-20.6,0c-0.5,0-1-0.1-1.4-0.3
				c-0.4-0.2-0.8-0.6-0.9-1c-0.9-2.5,0.1-4,2-4.4c0.7-0.1,1.4-0.3,2.1-0.5c1.9-0.6,2.7-1.5,2.7-3.6c0.1-8.8,0.1-17.5,0.1-26.3
				c0-1.3-1-2.3-2.2-2.3c-0.9,0-1.9,0.1-2.8,0.1c-0.5,0-0.9-0.1-1.4-0.1c-0.7-0.1-1.5-1.2-1.7-2.1c-0.1-1,0-1.9,0.8-2.5
				c0.4-0.3,0.8-0.6,1.2-0.7c4.8-1.2,9.4-3.2,13.9-5.4c1.6-0.7,3.2,0.3,3.5,2.2c0.1,0.5,0,1,0.1,1.4c0.1,1,0.7,1.3,1.3,0.9
				c0.7-0.6,1.4-1.2,2.2-1.8c5-3.6,10.5-4.2,16.2-2c4,1.5,6.6,4.7,7.2,9c0.4,2.6,0.4,5.2,0.5,7.8
				C1331.6,273.6,1331.6,276.5,1331.6,279.3z"/>
			<path class="st2" d="M1231.4,278.4c0.1-2.7,0.2-5.7,1.1-8.7c3.1-10.2,10-15.7,20.3-17.2c4-0.6,8-0.2,11.9,1
				c7.1,2.3,11.6,7.1,13.8,14.1c2.1,6.5,1.8,13.1-0.3,19.5c-3.4,10.2-12,16-21.8,16.4c-3.3,0.1-6.6,0-9.8-1.1
				c-6.8-2.1-11.3-6.5-13.7-13.2C1231.8,285.8,1231.4,283.5,1231.4,278.4z M1267.8,279.1c-0.2-2.5-0.3-5.1-0.7-7.6
				c-0.6-3.8-2.4-7.1-5.3-9.7c-4.2-3.8-12.6-3.5-16,2.3c-0.6,1-1.1,2.1-1.4,3.2c-2,7-1.4,14,0.7,20.9c0.4,1.3,1.2,2.6,1.9,3.8
				c4.2,6.8,15,6.3,18.7-1c0.7-1.5,1.3-3.1,1.5-4.7C1267.6,283.9,1267.6,281.6,1267.8,279.1z"/>
			<path class="st2" d="M730.3,303.6c-3,0.3-6.2-0.5-9.3-1.7c-6.3-2.5-10.4-7.3-12.1-13.9c-1.7-6.3-1.7-12.6,0.2-18.9
				c3.1-9.8,10.1-15.1,20-16.6c3.7-0.5,7.5-0.2,11.2,0.8c7.4,2.2,12.2,7,14.5,14.2c2,6.5,1.8,13.1-0.3,19.5
				C751.3,297.4,741.9,303.9,730.3,303.6z M744.1,279.6c-0.1-2.2-0.1-4.3-0.3-6.4c-0.4-3.8-1.7-7.3-4.3-10.2
				c-2.3-2.6-5.2-3.9-8.8-3.8c-4.2,0.2-7.2,2.1-9.1,5.7c-1,1.9-1.7,3.9-1.7,6.1c0,3.8-0.1,7.5,0.1,11.3c0.2,2.8,1.1,5.5,2.4,8.1
				c2.3,4.4,5.8,6.6,10.9,6.2c3.9-0.3,6.7-2.2,8.5-5.4c1.1-1.8,1.8-3.8,2-6C744,283.4,744,281.5,744.1,279.6z"/>
			<path class="st2" d="M1171.6,302.2c-6.2,0-12.3,0-18.5,0c-1.2,0-2.5-2-2.2-3.2c0.1-0.5,0.2-1,0.4-1.3c0.8-1.2,1.6-2.3,2.5-3.5
				c7-9,13.9-18,20.9-27c0.9-1.1,1.7-2.3,2.5-3.4c0.4-0.5,0-1.7-0.5-1.7c-4.3-0.4-8.5-0.1-12.7,0.3c-1,0.1-1.7,0.8-2.1,1.7
				c-0.6,1.5-1.2,3.1-1.8,4.6c-0.6,1.6-2.1,2.3-4.1,1.7c-0.6-0.2-1-0.9-1.5-1.4c-0.1-0.2-0.2-0.4-0.2-0.7c0.1-4,0.2-8,0.4-12.1
				c0-1.2,1.2-2.3,2.3-2.3c0.9,0,1.9-0.1,2.8-0.1c9.9,0.6,19.9,0.6,29.8,0c0.7,0,1.4,0,2.1,0c0.9,0,2.3,1.3,2.3,2.3
				c0,0.9,0.1,2-0.3,2.7c-1,1.6-2.2,3.1-3.4,4.6c-6.4,8.2-12.9,16.3-19.3,24.6c-1.1,1.5-2.1,3.1-3,4.7c-0.1,0.2,0.2,0.9,0.5,1.2
				c0.3,0.3,0.9,0.5,1.3,0.5c3.6,0,7.1,0,10.7-0.1c0.5,0,0.9-0.1,1.4-0.2c1.7-0.4,3.1-1.3,3.7-3c0.5-1.6,0.8-3.2,1.3-4.8
				c0.5-1.8,1.8-2.5,3.9-2.1c1.3,0.2,2.3,1.2,2.3,2.3c-0.1,4.3-0.3,8.5-0.5,12.8c-0.1,2-1.1,2.8-3.3,2.7c-5.9-0.1-11.8-0.2-17.8-0.3
				C1171.6,302.1,1171.6,302.1,1171.6,302.2z"/>
			<path class="st2" d="M1139,273.8c0.1,5,0.2,10.7,0.4,16.3c0,1,0.8,1.7,1.8,1.8c1.2,0,2.4-0.1,3.5-0.1c1.6,0,2.4,1,2.5,2.8
				c0.1,0.8-0.3,1.4-0.9,1.8c-0.6,0.4-1.2,0.8-1.9,1c-4.4,1-8.5,2.9-12.5,4.9c-2,1-3.4,0.3-4.2-2c-0.2-0.4-0.2-0.9-0.4-1.3
				c-0.3-0.8-1.6-1.2-2.4-0.8c-0.8,0.4-1.7,0.9-2.5,1.4c-4.3,2.7-8.9,2.9-13.6,1.2c-3.7-1.3-5.9-3.9-6.6-7.7
				c-0.4-1.8-0.4-3.8-0.4-5.7c-0.1-4.5,0-9,0-13.5c0-2.4,0-4.7-0.3-7.1c-0.7-6.4-0.5-5.6-6.1-6.7c-0.4-0.1-0.9-0.3-1.3-0.6
				c-0.3-0.3-0.6-0.8-0.6-1.2c0-0.4,0.4-0.9,0.7-1.1c0.3-0.3,0.8-0.4,1.3-0.4c4-0.3,8-0.6,12-1.5c1.7-0.4,3.2,0.3,2.8,2.9
				c-0.9,7.1-0.9,14.2-0.9,21.3c0,2.1,0,4.3,0.2,6.4c0.2,1.6,0.6,3.3,1.1,4.8c0.8,2.2,2.5,3.5,4.6,4c2.6,0.6,5.2,0.5,7.6-0.8
				c1.1-0.6,1.9-1.2,2.6-2.3c1.9-3.1,2.7-6.5,2.7-10.2c-0.1-5.7-0.2-11.4-0.2-17c0-1.7-1.1-2.6-2.3-3.4c-1.2-0.7-2.6-1-3.9-1.6
				c-0.3-0.1-0.6-0.7-0.6-1.1c0-0.4,0.4-1,0.8-1.1c2.9-0.8,5.5-2.5,8.7-2.5c1.9,0,3.7-0.7,5.6-1c1.7-0.3,3.3,1.2,3.2,2.9
				C1139.4,262.2,1139.2,267.7,1139,273.8z"/>
			<path class="st2" d="M919.3,303.5c-6,0.1-10.4-0.9-14.6-2.6c-1-0.4-1.4-1.2-1.3-2.2c0.2-3.1,0.5-6.1,0.7-9.2
				c0.3-3,1.7-4.1,4.7-3.3c0.4,0.1,0.9,0.4,1.1,0.8c0.6,1.3,1.1,2.6,1.6,3.9c1.8,4.2,6,6,9.8,5.4c2-0.3,3.7-1.1,4.4-3.1
				c0.8-2.1,0.6-4.2-0.9-6c-0.9-1.1-2-2-3.2-2.8c-2.2-1.4-4.6-2.5-6.8-3.8c-2.2-1.3-4.5-2.7-6.6-4.2c-1.5-1.1-2.8-2.6-3.6-4.3
				c-2.1-4.2-1.5-8.3,1.1-12.1c1.6-2.4,3.7-4.3,6.3-5.5c7.4-3.5,14.7-2.7,21.9,0.7c0.3,0.2,0.7,0.7,0.7,1.1c-0.3,3.5-0.6,7.1-1,10.6
				c-0.1,0.9-1.1,1.6-2.1,1.6c-0.9-0.1-1.9-0.2-2.8-0.4c-0.4-0.1-0.9-0.4-1-0.8c-0.3-0.9-0.4-1.8-0.7-2.7c-2-5.2-6.7-5.8-10.5-4.7
				c-1.2,0.3-2,1.3-2.6,2.3c-0.7,1.1-0.8,2.3-0.2,3.3c0.6,1,1.3,2,2.2,2.7c2.3,1.6,4.8,2.9,7.3,4.4c2.6,1.6,5.4,3,7.9,4.8
				c7.1,5.1,6.6,14.8,2,20.1c-3.1,3.5-7.1,5.4-11.7,6.1C920.2,303.6,919,303.5,919.3,303.5z"/>
			<path class="st2" d="M689.3,257.9c1.3-0.9,2.6-2,4.1-2.8c3.1-1.8,6.3-1.8,9.5-0.6c0.9,0.4,1.6,1.3,1.5,2.1c-0.5,3-1,6.1-1.5,9.1
				c-0.2,1-0.9,1.6-1.9,1.8c-1,0.1-1.9,0.1-2.6-0.7c-0.3-0.3-0.5-0.8-0.8-1.2c-1.7-2.6-3.2-2.8-5.6-0.8c-3.2,2.8-5,6.2-5.1,10.5
				c-0.2,5.9-0.2,11.8,0.3,17.7c0.1,1.3,0.9,2.2,2.1,2.6c1.5,0.6,3.2,0.9,4.7,1.4c1,0.3,1.6,1.7,1.4,2.9c-0.2,1.4-1.1,2.2-2.3,2.2
				c-7.6,0-15.1,0-22.7,0c-0.9,0-1.7-0.8-1.9-1.8c-0.4-2.2,0.2-3.2,2.2-3.8c1.1-0.3,2.3-0.6,3.4-1c1.5-0.5,2.3-1.7,2.3-3.2
				c0.1-4.5,0.3-9,0.3-13.5c0-4-0.1-8-0.2-12c-0.1-2.2-1-3.1-3-3c-0.7,0-1.4,0.2-2.1,0.3c-2.3,0.1-3.4-1.3-2.8-3.7
				c0.1-0.4,0.4-0.9,0.7-1.1c0.6-0.4,1.2-0.7,1.9-0.9c4.1-1.1,8-2.7,11.8-4.7c0.8-0.4,1.7-0.9,2.7-0.5c1.3,0.4,1.7,1.5,2.1,2.6
				c-0.2,0.9-0.4,1.7-0.5,2.6c0,0.2,0.1,0.6,0.2,0.6c0.4,0,0.8,0.1,1.1-0.1C688.8,258.8,689,258.3,689.3,257.9z"/>
			<path class="st2" d="M986.6,302.2c-3.8,0-7.6,0-11.4,0c-1,0-2-1.2-2.1-2.5c-0.1-1,0.4-2.2,1.1-2.4c1.5-0.5,3.1-1,4.7-1.6
				c1.4-0.5,2.4-1.4,2.4-3.1c0-6.2,0.1-12.3,0.1-18.5c0-2.6-0.1-5.2-0.1-7.8c0-1.6-1-2.4-2.8-2.3c-1.2,0-2.3,0.1-3.5,0.1
				c-0.6,0-1.6-1.2-1.7-2c-0.2-1-0.1-1.9,0.7-2.6c0.6-0.4,1.2-0.8,1.9-0.9c4.4-1.2,8.5-2.9,12.5-5c2-1,3.8,0,4.1,2.2
				c0.1,0.7,0,1.4,0.2,2.1c0.1,0.3,0.8,0.6,1,0.5c1.2-0.8,2.3-1.7,3.4-2.5c3.1-2.2,6.5-2.7,10.1-1.6c2,0.6,2.6,1.6,2.2,3.7
				c-0.5,2.6-0.9,5.1-1.3,7.7c-0.2,1.1-0.9,1.6-1.9,1.9c-1.1,0.3-2.6-0.2-3.1-1.1c-0.4-0.6-0.5-1.3-0.9-1.9
				c-0.8-1.2-2.5-1.5-3.8-0.7c-2.7,1.7-4.6,4-5.6,7.1c-0.4,1.1-0.8,2.3-0.8,3.4c-0.5,6.1-0.6,12.3,0.3,18.4c0.2,1.6,1.2,2.6,2.6,3.1
				c1.1,0.4,2.3,0.5,3.4,0.9c1.7,0.5,2.4,1.8,1.9,3.9c-0.2,0.7-0.7,1.3-1.4,1.4c-0.9,0.1-1.9,0.1-2.8,0.1
				C992.8,302.2,989.7,302.2,986.6,302.2C986.6,302.2,986.6,302.2,986.6,302.2z"/>
			<path class="st2" d="M947.4,278.7c0-5,0-9.9,0-14.9c0-1-0.7-1.6-1.8-1.7c-0.9-0.1-1.9,0-2.8-0.1c-1-0.2-1.7-1-1.8-1.9
				c-0.1-0.8,0.1-1.9,0.5-2.7c0.3-0.6,1.1-0.9,1.7-1.2c3.8-2.2,6.6-5.3,8.6-9.2c0.5-1,1.1-2.1,1.7-3.1c0.7-1.3,1.8-1.7,3.7-1.3
				c1,0.2,1.8,0.9,1.8,1.9c0,1.4-0.1,2.8-0.1,4.2c0,1.4-0.1,2.8-0.1,4.2c0,0.6,0.7,1.5,1.3,1.5c2.8,0,5.7,0,8.5,0.1
				c0.7,0,1.4,0.2,2,0.4c0.4,0.1,1,1.3,0.9,1.8c-0.2,1.7-1.2,3.1-2.1,4.4c-0.3,0.5-1.1,0.9-1.7,1c-0.9,0.2-1.9,0.1-2.8,0.1
				c-7.2-0.3-6.6-0.5-6.9,6.2c-0.3,5.7-0.2,11.4-0.3,17c0,2.4,0.3,4.7,1.1,7c0.4,1.2,2.2,2.3,3.4,2c1.6-0.4,3.2-0.9,4.8-1.3
				c1.7-0.5,2.4-0.1,3.5,1.5c0.1,0.2,0.2,0.4,0.4,0.6c0.5,0.9,0.4,2.1-0.3,2.5c-3.4,2.2-6.8,4.2-10.8,5.1
				c-6.1,1.4-11.6-2.3-12.3-8.5c-0.1-0.7-0.1-1.4-0.1-2.1c0-4.5,0-9,0-13.5C947.3,278.7,947.3,278.7,947.4,278.7z"/>
			<path class="st2" d="M890.4,273.8c0,6.1,0,12.3,0,18.4c0,2,1.1,3,2.8,3.6c0.9,0.3,1.8,0.5,2.7,0.8c2,0.7,2.7,2.4,1.7,4.5
				c-0.2,0.4-0.6,0.8-1,0.9c-0.4,0.2-0.9,0.1-1.4,0.1c-6.4,0-12.7,0-19.1,0c-0.9,0-1.9-0.1-2.8-0.3c-0.4-0.1-0.8-0.5-1-0.9
				c-0.9-1.7-0.4-3.6,1.2-4.2c0.2-0.1,0.4-0.2,0.7-0.2c5.4-1.2,5.7-2.4,5.8-7.2c0.1-7.8,0-15.6-0.1-23.3c0-1.5-1.1-2.4-2.8-2.4
				c-0.5,0-0.9,0-1.4,0c-0.7,0-1.4-0.1-2.1-0.2c-0.7-0.1-1.5-1.2-1.6-2.2c-0.1-1,0.1-1.9,0.8-2.6c0.2-0.2,0.4-0.3,0.6-0.4
				c5-1.3,9.8-3.4,14.4-5.8c0.7-0.4,2.7,0.6,2.9,1.5c0.2,0.7,0.3,1.4,0.3,2c-0.2,5.9-0.5,11.8-0.7,17.7
				C890.3,273.8,890.4,273.8,890.4,273.8z"/>
			<path class="st2" d="M1360.7,275.9c0.1,4.3,0.2,10.7,0.3,17.1c0,1.4,0.9,2.1,2,2.6c1.1,0.4,2.3,0.7,3.4,1.1
				c1.8,0.6,2.4,1.8,1.9,3.9c-0.2,0.6-0.7,1.1-1.3,1.5c-0.3,0.2-0.9,0.2-1.4,0.2c-6.4,0-12.8,0-19.2,0c-0.7,0-1.4-0.1-2.1-0.1
				c-1-0.1-1.6-0.7-1.8-1.9c-0.3-1.8,0.2-3,1.6-3.4c1.3-0.5,2.7-0.8,4-1.3c0.9-0.4,1.5-1.1,1.7-2.1c0.2-0.9,0.3-1.9,0.4-2.8
				c0.5-8,0.3-16.1,0-24.1c-0.1-2-1-2.7-3.2-2.8c-0.7,0-1.4,0.1-2.1,0c-1.9-0.1-2.9-1.4-2.5-3.4c0.1-0.6,0.6-1.5,1.1-1.7
				c1.7-0.7,3.6-1.1,5.3-1.9c3-1.3,6-2.7,9.1-4c1.1-0.5,3.1,0.7,3.2,1.9c0,0.7,0.1,1.4,0,2.1C1361.2,262.4,1361,268.1,1360.7,275.9z
				"/>
			<path class="st2" d="M1218.5,276.4c0.1,4,0.2,10.2,0.3,16.3c0,1.3,0.7,2.2,1.9,2.7c1.1,0.4,2.2,0.7,3.3,1.1
				c2.1,0.7,2.8,2.2,1.9,4.5c-0.2,0.4-0.5,0.8-0.9,1c-0.4,0.2-0.9,0.2-1.4,0.2c-6.6,0-13.3,0-19.9,0c-0.7,0-1.4-0.2-2.1-0.3
				c-0.9-0.1-1.1-0.9-1.2-1.5c-0.5-2.1,0.1-3.1,2.1-3.8c0.4-0.1,0.9-0.2,1.4-0.3c2.7-0.5,4.2-2,4.2-4.8c0.1-6.1,0.2-12.3,0.3-18.4
				c0-1.7-0.1-3.3-0.2-5c-0.1-3.8-0.7-4.7-4.5-4.4c-0.7,0.1-1.4-0.1-2.1-0.3c-0.4-0.1-0.8-0.5-1-0.9c-0.9-1.6-0.3-3.7,1.3-4.1
				c4.8-1.3,9.4-3.2,13.8-5.6c1.4-0.8,3.5,0.7,3.5,2.4C1219,261.5,1218.8,267.9,1218.5,276.4z"/>
			<path class="st2" d="M1024.7,302.2c-3.5,0-7.1,0-10.6,0c-1.4,0-2.5-1.3-2.4-2.9c0-1,0.5-1.8,1.5-2.2c1.5-0.6,3.1-1,4.6-1.7
				c0.9-0.4,1.6-1,1.7-2.1c0.1-0.7,0.2-1.4,0.2-2.1c0-8.3,0-16.5,0-24.8c0-1.9-0.8-2.6-2.5-2.7c-1.2-0.1-2.4,0-3.5-0.1
				c-0.9-0.1-1.9-1.4-2-2.6c0-0.9,0.6-2.2,1.2-2.4c0.9-0.3,1.8-0.5,2.7-0.8c4.1-1.3,7.9-3,11.7-5c1.3-0.7,3.6,0.8,3.6,2.3
				c0,0.7,0,1.4,0,2.1c-1.1,9.9-0.9,19.8-0.9,29.7c0,1.4,0.2,2.8,0.1,4.2c-0.1,2.8,1.4,4.4,4,5c0.7,0.2,1.4,0.3,2,0.6
				c1.4,0.5,2.2,1.9,1.8,3.4c-0.3,1.1-1.4,2-2.6,2c-2.4,0-4.7-0.1-7.1-0.1c-1.2,0-2.4,0-3.5,0
				C1024.7,302.1,1024.7,302.1,1024.7,302.2z"/>
			<path class="st2" d="M1567,303.5c-3.6-0.1-6.7-3.4-6.3-7c0.4-4,3-6.4,7-6.2c3.6,0.2,6.7,3.4,6.4,6.9
				C1573.9,300.1,1571.1,303.9,1567,303.5z"/>
			<path class="st2" d="M1464.3,303.6c-3.3,0.2-6.7-2.9-6.6-6.6c0.1-3.8,2.8-6.6,6.6-6.6c3.8,0,6.6,2.9,6.6,6.6
				C1470.9,300.8,1467.4,303.8,1464.3,303.6z"/>
			<path class="st2" d="M1664.5,303.5c-3.1,0.3-6.8-2.2-6.9-6.5c-0.1-3.6,2.5-6.4,6-6.7c4.4-0.3,7,3,7.3,6.1
				C1671.3,299.6,1668.1,303.7,1664.5,303.5z"/>
			<path class="st2" d="M1025,229.5c3.4-0.2,6.4,3.1,6.3,6.1c0,3.7-3.1,6.9-6.6,6.6c-3.2-0.2-6.3-3.5-6.1-6.6
				C1018.8,232.3,1021.7,229.5,1025,229.5z"/>
			<path class="st2" d="M1355.9,229.5c3.4,0,6.3,2.9,6.4,6.2c0.1,3.5-3.5,6.8-6.9,6.5c-3.4-0.3-5.9-3.2-5.9-6.6
				C1349.5,232.5,1352.4,229.3,1355.9,229.5z"/>
			<path class="st2" d="M1213.4,229.5c3.4-0.1,6.4,2.6,6.6,6c0.2,3.3-2.7,6.8-6.6,6.8c-3.4-0.1-6.1-3-6.2-6.4
				C1207.2,232.3,1210.4,229.3,1213.4,229.5z"/>
			<path class="st2" d="M885.6,242.3c-3.2,0.2-6.4-2.6-6.6-5.9c-0.3-3.4,2.3-6.5,5.7-6.8c3.7-0.3,7,2.5,7.1,6.2
				C891.8,238.9,888.9,242,885.6,242.3z"/>
		</g>
	</g>
</g>
</svg>
