<?xml version="1.0" encoding="UTF-8"?><svg id="Livello_2" xmlns="http://www.w3.org/2000/svg" xmlns:xlink="http://www.w3.org/1999/xlink" viewBox="0 0 762.42 314.79"><defs><style>.cls-1{clip-path:url(#clippath);}.cls-2{fill:#fff;}.cls-3{fill:#b6defe;}.cls-4{clip-path:url(#clippath-1);}.cls-5{clip-path:url(#clippath-4);}.cls-6{clip-path:url(#clippath-3);}.cls-7{clip-path:url(#clippath-2);}.cls-8{clip-path:url(#clippath-5);}</style><clipPath id="clippath"><path class="cls-3" d="M165.96,108.47h-55.61c-1.36,0-2.46,1.05-2.46,2.35v9.73c0,1.3,1.1,2.35,2.46,2.35h41.85c1.36,0,2.46,1.05,2.46,2.35v16.28c0,1.3-1.1,2.35-2.46,2.35h-41.85c-1.36,0-2.46,1.05-2.46,2.35v30.7c0,1.3-1.1,2.35-2.46,2.35h-17.09c-1.36,0-2.46-1.05-2.46-2.35V89.84c0-1.3,1.1-2.35,2.46-2.35h77.62c1.36,0,2.46,1.05,2.46,2.35v16.28c0,1.3-1.1,2.35-2.46,2.35Z"/></clipPath><clipPath id="clippath-1"><path class="cls-3" d="M283.23,179.26h-51.01c-.98,0-1.86-.55-2.25-1.41l-7.48-16.28c-.71-1.55,.48-3.29,2.25-3.29h24.06c1.78,0,2.97-1.74,2.25-3.29l-13.38-28.79c-.86-1.86-3.64-1.86-4.5,0l-24,51.66c-.39,.85-1.28,1.4-2.25,1.4h-20.64c-1.36,0-2.46-1.05-2.46-2.35v-16.28c0-1.3,1.1-2.35,2.46-2.35h5.7c.97,0,1.86-.55,2.25-1.4l31.58-67.99c.39-.85,1.28-1.4,2.25-1.4h14.68c.97,0,1.86,.55,2.25,1.4l40.47,87.07c.72,1.55-.47,3.29-2.25,3.29Z"/></clipPath><clipPath id="clippath-2"><path class="cls-3" d="M399,177.9c0,1.3-1.1,2.35-2.46,2.35h-31.93c-13.3,0-24.65-4.48-34.05-13.44-8.24-7.85-12.86-17.12-13.88-27.81-1.46-15.25,5.12-30.4,17.47-40.2,8.66-6.87,18.81-10.31,30.46-10.31h31.93c1.36,0,2.46,1.05,2.46,2.35v16.28c0,1.3-1.1,2.35-2.46,2.35h-31.93c-7.25,0-13.41,2.43-18.5,7.27-5.09,4.85-7.63,10.73-7.63,17.63s2.54,12.78,7.63,17.63c5.09,4.85,11.26,7.27,18.5,7.27h31.93c1.36,0,2.46,1.05,2.46,2.35v16.28Z"/></clipPath><clipPath id="clippath-3"><path class="cls-3" d="M461.19,180.25h-17.09c-1.36,0-2.46-1.05-2.46-2.35V90.83c0-1.3,1.1-2.35,2.46-2.35h17.09c1.36,0,2.46,1.05,2.46,2.35v87.07c0,1.3-1.1,2.35-2.46,2.35Z"/></clipPath><clipPath id="clippath-4"><path class="cls-3" d="M586.38,180.25h-77.62c-1.36,0-2.46-1.05-2.46-2.35V90.83c0-1.3,1.1-2.35,2.46-2.35h17.09c1.36,0,2.46,1.05,2.46,2.35v66.1c0,1.3,1.1,2.35,2.46,2.35h55.61c1.36,0,2.46,1.05,2.46,2.35v16.28c0,1.3-1.1,2.35-2.46,2.35Z"/></clipPath><clipPath id="clippath-5"><path class="cls-3" d="M711.58,180.25h-77.62c-1.36,0-2.46-1.05-2.46-2.35V90.83c0-1.3,1.1-2.35,2.46-2.35h77.62c1.36,0,2.46,1.05,2.46,2.35v16.28c0,1.3-1.1,2.35-2.46,2.35h-55.61c-1.36,0-2.46,1.05-2.46,2.35v9.73c0,1.3,1.1,2.35,2.46,2.35h41.85c1.36,0,2.46,1.05,2.46,2.35v16.28c0,1.3-1.1,2.35-2.46,2.35h-41.85c-1.36,0-2.46,1.05-2.46,2.35v9.73c0,1.3,1.1,2.35,2.46,2.35h55.61c1.36,0,2.46,1.05,2.46,2.35v16.28c0,1.3-1.1,2.35-2.46,2.35Z"/></clipPath></defs><g id="Livello_1-2"><g><g><path class="cls-3" d="M165.96,108.47h-55.61c-1.36,0-2.46,1.05-2.46,2.35v9.73c0,1.3,1.1,2.35,2.46,2.35h41.85c1.36,0,2.46,1.05,2.46,2.35v16.28c0,1.3-1.1,2.35-2.46,2.35h-41.85c-1.36,0-2.46,1.05-2.46,2.35v30.7c0,1.3-1.1,2.35-2.46,2.35h-17.09c-1.36,0-2.46-1.05-2.46-2.35V89.84c0-1.3,1.1-2.35,2.46-2.35h77.62c1.36,0,2.46,1.05,2.46,2.35v16.28c0,1.3-1.1,2.35-2.46,2.35Z"/><g class="cls-1"><rect class="cls-3" x="86.3" y="69.56" width="628.21" height="123.09"/></g></g><g><path class="cls-3" d="M283.23,179.26h-51.01c-.98,0-1.86-.55-2.25-1.41l-7.48-16.28c-.71-1.55,.48-3.29,2.25-3.29h24.06c1.78,0,2.97-1.74,2.25-3.29l-13.38-28.79c-.86-1.86-3.64-1.86-4.5,0l-24,51.66c-.39,.85-1.28,1.4-2.25,1.4h-20.64c-1.36,0-2.46-1.05-2.46-2.35v-16.28c0-1.3,1.1-2.35,2.46-2.35h5.7c.97,0,1.86-.55,2.25-1.4l31.58-67.99c.39-.85,1.28-1.4,2.25-1.4h14.68c.97,0,1.86,.55,2.25,1.4l40.47,87.07c.72,1.55-.47,3.29-2.25,3.29Z"/><g class="cls-4"><rect class="cls-3" x="86.3" y="69.56" width="628.21" height="123.09"/></g></g><g><path class="cls-3" d="M399,177.9c0,1.3-1.1,2.35-2.46,2.35h-31.93c-13.3,0-24.65-4.48-34.05-13.44-8.24-7.85-12.86-17.12-13.88-27.81-1.46-15.25,5.12-30.4,17.47-40.2,8.66-6.87,18.81-10.31,30.46-10.31h31.93c1.36,0,2.46,1.05,2.46,2.35v16.28c0,1.3-1.1,2.35-2.46,2.35h-31.93c-7.25,0-13.41,2.43-18.5,7.27-5.09,4.85-7.63,10.73-7.63,17.63s2.54,12.78,7.63,17.63c5.09,4.85,11.26,7.27,18.5,7.27h31.93c1.36,0,2.46,1.05,2.46,2.35v16.28Z"/><g class="cls-7"><rect class="cls-3" x="86.3" y="70.55" width="628.21" height="123.09"/></g></g><g><path class="cls-3" d="M461.19,180.25h-17.09c-1.36,0-2.46-1.05-2.46-2.35V90.83c0-1.3,1.1-2.35,2.46-2.35h17.09c1.36,0,2.46,1.05,2.46,2.35v87.07c0,1.3-1.1,2.35-2.46,2.35Z"/><g class="cls-6"><rect class="cls-3" x="86.3" y="70.55" width="628.21" height="123.09"/></g></g><g><path class="cls-3" d="M586.38,180.25h-77.62c-1.36,0-2.46-1.05-2.46-2.35V90.83c0-1.3,1.1-2.35,2.46-2.35h17.09c1.36,0,2.46,1.05,2.46,2.35v66.1c0,1.3,1.1,2.35,2.46,2.35h55.61c1.36,0,2.46,1.05,2.46,2.35v16.28c0,1.3-1.1,2.35-2.46,2.35Z"/><g class="cls-5"><rect class="cls-3" x="86.3" y="70.55" width="628.21" height="123.09"/></g></g><g><path class="cls-3" d="M711.58,180.25h-77.62c-1.36,0-2.46-1.05-2.46-2.35V90.83c0-1.3,1.1-2.35,2.46-2.35h77.62c1.36,0,2.46,1.05,2.46,2.35v16.28c0,1.3-1.1,2.35-2.46,2.35h-55.61c-1.36,0-2.46,1.05-2.46,2.35v9.73c0,1.3,1.1,2.35,2.46,2.35h41.85c1.36,0,2.46,1.05,2.46,2.35v16.28c0,1.3-1.1,2.35-2.46,2.35h-41.85c-1.36,0-2.46,1.05-2.46,2.35v9.73c0,1.3,1.1,2.35,2.46,2.35h55.61c1.36,0,2.46,1.05,2.46,2.35v16.28c0,1.3-1.1,2.35-2.46,2.35Z"/><g class="cls-8"><rect class="cls-3" x="86.3" y="70.55" width="628.21" height="123.09"/></g></g></g><g><path class="cls-2" d="M246.72,50.19h-18.62v-3.69l8.79-9.37c1.21-1.32,2.1-2.47,2.68-3.45,.58-.98,.87-1.91,.87-2.8,0-1.21-.31-2.16-.91-2.85-.61-.69-1.48-1.03-2.61-1.03-1.22,0-2.18,.42-2.88,1.26-.7,.84-1.05,1.94-1.05,3.31h-5.41c0-1.65,.4-3.16,1.18-4.53,.79-1.37,1.91-2.44,3.35-3.22,1.44-.78,3.08-1.17,4.91-1.17,2.8,0,4.97,.67,6.52,2.01,1.55,1.34,2.32,3.24,2.32,5.69,0,1.34-.35,2.71-1.05,4.1-.7,1.39-1.89,3.02-3.58,4.87l-6.17,6.51h11.68v4.35Z"/><path class="cls-2" d="M278.62,38.96c0,3.76-.78,6.63-2.33,8.62s-3.83,2.98-6.83,2.98-5.22-.98-6.79-2.93-2.37-4.75-2.41-8.39v-5c0-3.79,.78-6.67,2.36-8.64s3.84-2.95,6.8-2.95,5.22,.97,6.79,2.92c1.57,1.95,2.37,4.74,2.41,8.39v5Zm-5.39-5.5c0-2.25-.31-3.89-.92-4.92-.62-1.03-1.58-1.54-2.88-1.54s-2.2,.49-2.81,1.47c-.6,.98-.92,2.5-.96,4.58v6.61c0,2.22,.3,3.86,.91,4.94,.6,1.08,1.57,1.61,2.9,1.61s2.27-.52,2.85-1.55c.58-1.03,.89-2.61,.91-4.74v-6.46Z"/><path class="cls-2" d="M311.19,50.19h-18.62v-3.69l8.79-9.37c1.21-1.32,2.1-2.47,2.68-3.45,.58-.98,.87-1.91,.87-2.8,0-1.21-.31-2.16-.91-2.85-.61-.69-1.48-1.03-2.61-1.03-1.22,0-2.18,.42-2.88,1.26-.7,.84-1.05,1.94-1.05,3.31h-5.41c0-1.65,.4-3.16,1.18-4.53,.79-1.37,1.91-2.44,3.35-3.22,1.44-.78,3.08-1.17,4.91-1.17,2.8,0,4.97,.67,6.52,2.01,1.55,1.34,2.32,3.24,2.32,5.69,0,1.34-.35,2.71-1.05,4.1-.7,1.39-1.89,3.02-3.58,4.87l-6.17,6.51h11.68v4.35Z"/><path class="cls-2" d="M343.42,50.19h-18.62v-3.69l8.79-9.37c1.21-1.32,2.1-2.47,2.68-3.45,.58-.98,.87-1.91,.87-2.8,0-1.21-.31-2.16-.91-2.85-.61-.69-1.48-1.03-2.61-1.03-1.22,0-2.18,.42-2.88,1.26-.7,.84-1.05,1.94-1.05,3.31h-5.41c0-1.65,.4-3.16,1.18-4.53,.79-1.37,1.91-2.44,3.35-3.22,1.44-.78,3.08-1.17,4.91-1.17,2.8,0,4.97,.67,6.52,2.01,1.55,1.34,2.32,3.24,2.32,5.69,0,1.34-.35,2.71-1.05,4.1-.7,1.39-1.89,3.02-3.58,4.87l-6.17,6.51h11.68v4.35Z"/></g><path class="cls-2" d="M586.82,62.65c9.13-7.26,18.57-14.13,28.3-20.59,2.43-1.62,4.88-3.21,7.34-4.79,2.47-1.56,4.97-3.09,7.48-4.59,5.03-3.01,10.09-5.92,15.25-8.7,10.31-5.56,20.94-10.71,32.23-14.57,5.64-1.91,11.44-3.53,17.43-4.44,1.5-.2,3-.45,4.52-.57l2.27-.2,2.29-.08c1.52-.09,3.07,0,4.6,.02,.77,.01,1.54,.11,2.3,.17,.77,.08,1.53,.1,2.3,.23,1.53,.23,3.06,.42,4.57,.81,.75,.18,1.51,.32,2.26,.54l2.23,.67c.75,.2,1.47,.49,2.19,.77,.72,.28,1.45,.54,2.16,.84l2.1,.99,1.04,.5,1.01,.58c5.38,3.03,10.15,6.99,14.06,11.58,1.96,2.31,3.77,4.66,5.42,7.2l1.21,1.93c.4,.64,.71,1.33,1.06,2,.34,.67,.71,1.33,1.01,2.02l.88,2.07c2.3,5.52,3.83,11.25,4.96,17.02,2.22,11.56,2.97,23.27,3.11,34.96v2.19s.02,1.1,.02,1.1c0,.38,.03,.68-.03,1.18l-.07,.69c-.03,.23-.12,.46-.17,.68-.11,.46-.33,.89-.56,1.31-.1,.22-.26,.4-.41,.59-.15,.18-.29,.39-.47,.55-.36,.32-.71,.65-1.13,.88-1.61,1.02-3.63,1.23-5.48,.64l-.67-.29c-.11-.05-.22-.1-.33-.16l-.31-.21c-.2-.14-.41-.28-.61-.43l-.53-.52-.26-.27-.21-.3-.4-.61c-.22-.42-.4-.89-.56-1.29-1.8-5.48-3.88-10.87-6.18-16.14-2.31-5.27-4.85-10.42-7.66-15.4-1.41-2.49-2.87-4.94-4.42-7.34-1.52-2.41-3.12-4.77-4.79-7.06-3.34-4.59-6.94-8.96-10.85-13.02-3.93-4.02-8.12-7.78-12.65-11.04-9.02-6.59-19.28-11.29-30.08-13.84-10.81-2.52-22.09-3.02-33.27-1.96-11.2,1.05-22.31,3.59-33.19,7.01-10.87,3.47-21.5,7.85-31.9,12.79l-1.95,.92-1.93,.97-3.87,1.92c-2.56,1.33-5.12,2.63-7.69,4l-15.36,8.23-30.68,16.63c-.19,.1-.43,.03-.53-.16-.1-.18-.04-.39,.12-.51,9.54-6.7,19.25-13.14,29.07-19.41l7.38-4.68,7.44-4.59c2.48-1.52,5.02-3.01,7.54-4.52l3.83-2.17,1.92-1.08,1.94-1.04,3.89-2.07,3.94-1.99,1.97-.99,2-.95c1.34-.62,2.66-1.28,4.01-1.87,5.39-2.41,10.88-4.61,16.46-6.61,5.58-2.01,11.3-3.68,17.09-5.08,5.8-1.4,11.71-2.43,17.69-3.06,11.94-1.22,24.24-.71,36.04,2.33,5.88,1.53,11.64,3.6,17.11,6.27,5.45,2.69,10.65,5.89,15.44,9.58,9.63,7.35,17.71,16.46,24.24,26.41,3.29,4.97,6.19,10.16,8.77,15.48,2.59,5.32,4.88,10.76,6.91,16.28,2.05,5.52,3.79,11.13,5.38,16.77,.27,1.05,.89,1.73,1.77,2.14,.9,.33,2.05,.31,2.92-.21,.9-.48,1.42-1.37,1.53-2.44,.05-.22,.04-.65,.06-1l.03-1.08,.05-2.17c.13-5.78-.08-11.57-.5-17.33-.43-5.76-1.2-11.49-2.43-17.11-1.24-5.61-2.94-11.12-5.41-16.22l-.94-1.9c-.32-.63-.71-1.21-1.06-1.82-.37-.6-.69-1.22-1.09-1.79l-1.21-1.7-.6-.85-.68-.82-1.36-1.63c-.44-.55-.93-1.06-1.42-1.57l-1.45-1.53c-3.93-4-8.51-7.26-13.44-9.6-4.92-2.4-10.29-3.64-15.71-4.13-5.44-.46-10.98-.03-16.48,.86-5.5,.9-10.96,2.38-16.35,4.13-10.78,3.56-21.28,8.3-31.64,13.38-5.17,2.56-10.35,5.16-15.46,7.87-2.56,1.35-5.09,2.74-7.63,4.13-2.54,1.39-5.08,2.79-7.59,4.22-10.09,5.71-20.04,11.7-30.03,17.69-.19,.11-.43,.05-.54-.13-.1-.17-.06-.39,.09-.51Z"/><path class="cls-2" d="M309.02,229.64c-14.44,10.24-29.56,19.56-45.17,28-7.82,4.2-15.74,8.23-23.82,11.92-4.03,1.87-8.11,3.65-12.2,5.39-2.06,.85-4.1,1.72-6.17,2.55l-3.13,1.23-3.15,1.17c-16.85,6.1-34.49,10.04-52.37,11.75-8.94,.81-17.94,1.12-26.93,.76-4.49-.18-8.98-.51-13.45-1.03-4.47-.5-8.93-1.17-13.35-2.02-8.85-1.68-17.57-4.09-26-7.27-8.44-3.15-16.6-7.09-24.28-11.8-15.36-9.4-28.73-22.08-38.44-37.15l-1.78-2.85-1.7-2.89c-1.1-1.95-2.15-3.92-3.17-5.87-2.05-3.92-4.16-7.8-6.13-11.79-.99-1.99-1.94-4.02-2.82-6.08-.86-2.07-1.65-4.19-2.29-6.36-1.28-4.34-1.98-8.81-2.38-13.26-.1-1.11-.17-2.22-.25-3.34-.09-1.18-.03-2.39,.15-3.56,.17-1.17,.46-2.33,.87-3.45,.4-1.12,.91-2.22,1.59-3.25,.68-1.03,1.54-2,2.68-2.74,1.12-.74,2.59-1.18,4.01-1.04,1.42,.12,2.68,.69,3.74,1.38,1.07,.69,1.97,1.53,2.79,2.4,1.62,1.76,2.91,3.69,4.07,5.67,1.1,1.95,2.17,3.85,3.28,5.76,2.2,3.81,4.45,7.6,6.75,11.35,4.6,7.49,9.43,14.84,14.54,21.97,2.55,3.56,5.17,7.08,7.87,10.52,2.69,3.45,5.44,6.85,8.28,10.17,5.69,6.63,11.65,13,17.97,18.97,6.33,5.97,12.99,11.55,20.02,16.6,14.05,10.11,29.58,18.08,46.04,23.14,4.11,1.26,8.27,2.37,12.48,3.27,4.2,.92,8.44,1.68,12.7,2.26,8.53,1.13,17.16,1.65,25.79,1.49,17.28-.25,34.53-2.98,51.38-7.33,8.43-2.18,16.76-4.8,24.99-7.74,8.22-2.97,16.36-6.2,24.37-9.76,8.02-3.54,15.9-7.41,23.81-11.32,3.95-1.96,7.87-3.95,11.76-6,3.9-2.02,7.76-4.12,11.6-6.28,7.66-4.32,15.24-8.85,22.84-13.37,7.59-4.52,15.2-9.03,22.85-13.47l.42,.66c-7.27,5.03-14.55,10.05-21.86,15.02-7.32,4.96-14.64,9.94-22.16,14.66-3.76,2.36-7.55,4.69-11.4,6.91-3.84,2.23-7.72,4.4-11.6,6.53l-5.83,3.18c-1.94,1.06-3.9,2.11-5.87,3.15-3.94,2.06-7.92,4.07-11.94,5.99-8.03,3.86-16.2,7.46-24.53,10.68-8.34,3.2-16.82,6.08-25.45,8.52-17.25,4.87-35.14,7.93-53.22,8.33-9.04,.18-18.11-.31-27.09-1.56-4.49-.63-8.95-1.45-13.38-2.45-4.42-1.01-8.79-2.23-13.11-3.62-8.63-2.78-17.01-6.32-25.04-10.51-8.01-4.21-15.66-9.07-22.89-14.46-7.22-5.39-14.06-11.27-20.45-17.59-6.39-6.3-12.4-12.97-17.98-19.96-2.79-3.49-5.51-7.04-8.12-10.66-2.61-3.62-5.13-7.3-7.58-11.02-4.89-7.44-9.48-15.07-13.83-22.81-2.18-3.87-4.29-7.77-6.36-11.69l-3.07-5.88c-.97-1.89-2.07-3.71-3.37-5.27-.65-.77-1.36-1.48-2.12-2.03-.76-.54-1.58-.91-2.36-1.01-.79-.1-1.56,.09-2.3,.53-.73,.44-1.41,1.12-1.97,1.92-1.13,1.6-1.85,3.59-2.17,5.61-.16,1.02-.22,2.02-.16,3.05,.08,1.09,.14,2.18,.22,3.27,.37,4.35,.99,8.66,2.24,12.8,1.25,4.13,3.02,8.12,5.03,12.01,2,3.9,4.13,7.77,6.27,11.63,1.07,1.95,2.14,3.85,3.25,5.72,.57,.93,1.14,1.86,1.73,2.78l1.81,2.72c4.93,7.2,10.8,13.71,17.29,19.49,6.51,5.76,13.67,10.74,21.25,14.95,7.58,4.21,15.57,7.64,23.77,10.41,8.21,2.75,16.65,4.82,25.19,6.31,17.08,2.95,34.57,3.6,51.89,2.14,8.67-.7,17.28-2,25.81-3.73,4.27-.86,8.5-1.89,12.71-3.01,4.21-1.12,8.38-2.37,12.52-3.75l3.09-1.06,3.08-1.1c2.05-.75,4.1-1.55,6.16-2.32,4.09-1.59,8.17-3.21,12.22-4.93,8.09-3.43,16.13-7,24.05-10.85,1.98-.96,3.96-1.92,5.92-2.92,1.97-.97,3.95-1.95,5.9-2.96l2.94-1.5,2.92-1.54c1.95-1.02,3.89-2.07,5.83-3.12,7.77-4.17,15.42-8.57,23.04-13.05l.43,.66Z"/><g><path class="cls-2" d="M244.94,208.96c0,2.06-.47,3.71-1.41,4.94-.94,1.23-2.19,1.84-3.77,1.84-1.46,0-2.63-.48-3.51-1.44v6.32h-2.99v-18.46h2.76l.12,1.36c.88-1.07,2.07-1.6,3.59-1.6,1.63,0,2.9,.61,3.83,1.82,.92,1.21,1.39,2.89,1.39,5.05v.19Zm-2.98-.26c0-1.33-.26-2.39-.79-3.17-.53-.78-1.29-1.17-2.27-1.17-1.23,0-2.1,.51-2.64,1.52v5.92c.54,1.04,1.43,1.55,2.66,1.55,.95,0,1.7-.38,2.24-1.15,.54-.77,.81-1.93,.81-3.49Z"/><path class="cls-2" d="M253.72,208.7c0-1.31,.26-2.48,.78-3.53,.52-1.05,1.24-1.85,2.18-2.42,.94-.56,2.01-.84,3.23-.84,1.8,0,3.26,.58,4.38,1.74,1.12,1.16,1.73,2.7,1.82,4.61v.7c.01,1.31-.24,2.49-.74,3.52-.51,1.04-1.23,1.84-2.17,2.4-.94,.57-2.03,.85-3.26,.85-1.88,0-3.39-.63-4.52-1.88-1.13-1.25-1.7-2.92-1.7-5.01v-.15Zm2.99,.26c0,1.37,.28,2.45,.85,3.22,.57,.78,1.36,1.16,2.37,1.16s1.8-.39,2.36-1.18c.56-.79,.84-1.94,.84-3.46,0-1.35-.29-2.42-.87-3.2-.58-.79-1.37-1.18-2.36-1.18s-1.75,.39-2.33,1.16c-.58,.78-.86,1.94-.86,3.48Z"/><path class="cls-2" d="M287.19,211.37l2.12-9.21h2.92l-3.64,13.33h-2.46l-2.86-9.16-2.81,9.16h-2.46l-3.65-13.33h2.92l2.16,9.11,2.74-9.11h2.25l2.77,9.21Z"/><path class="cls-2" d="M306.92,215.74c-1.9,0-3.44-.6-4.62-1.79-1.18-1.2-1.77-2.79-1.77-4.78v-.37c0-1.33,.26-2.52,.77-3.57,.51-1.05,1.23-1.86,2.16-2.45s1.96-.87,3.11-.87c1.82,0,3.22,.58,4.21,1.74,.99,1.16,1.49,2.8,1.49,4.92v1.21h-8.71c.09,1.1,.46,1.97,1.1,2.61,.65,.64,1.46,.96,2.43,.96,1.37,0,2.49-.56,3.35-1.66l1.62,1.54c-.53,.8-1.25,1.41-2.14,1.85-.89,.44-1.89,.66-3,.66Zm-.36-11.42c-.82,0-1.49,.29-1.99,.86-.51,.58-.83,1.38-.97,2.4h5.71v-.22c-.07-1-.33-1.76-.8-2.27s-1.12-.77-1.95-.77Z"/><path class="cls-2" d="M328.39,204.9c-.39-.07-.8-.1-1.22-.1-1.37,0-2.3,.53-2.77,1.58v9.12h-2.99v-13.33h2.86l.07,1.49c.72-1.16,1.73-1.74,3.01-1.74,.43,0,.78,.06,1.06,.17v2.81Z"/><path class="cls-2" d="M342.97,215.74c-1.9,0-3.44-.6-4.62-1.79-1.18-1.2-1.77-2.79-1.77-4.78v-.37c0-1.33,.26-2.52,.77-3.57,.51-1.05,1.23-1.86,2.16-2.45s1.96-.87,3.11-.87c1.82,0,3.22,.58,4.21,1.74,.99,1.16,1.49,2.8,1.49,4.92v1.21h-8.71c.09,1.1,.46,1.97,1.1,2.61,.65,.64,1.46,.96,2.43,.96,1.37,0,2.49-.56,3.35-1.66l1.62,1.54c-.53,.8-1.25,1.41-2.14,1.85-.89,.44-1.89,.66-3,.66Zm-.36-11.42c-.82,0-1.49,.29-1.99,.86-.51,.58-.83,1.38-.97,2.4h5.71v-.22c-.07-1-.33-1.76-.8-2.27s-1.12-.77-1.95-.77Z"/><path class="cls-2" d="M356.89,208.73c0-2.05,.48-3.7,1.43-4.95,.95-1.25,2.23-1.87,3.83-1.87,1.41,0,2.55,.49,3.43,1.48v-6.83h2.99v18.93h-2.71l-.15-1.38c-.9,1.09-2.09,1.63-3.59,1.63s-2.82-.63-3.79-1.89c-.97-1.26-1.45-2.97-1.45-5.13Zm2.99,.26c0,1.36,.26,2.41,.78,3.17,.52,.76,1.26,1.14,2.22,1.14,1.22,0,2.12-.55,2.69-1.64v-5.69c-.55-1.07-1.44-1.6-2.66-1.6-.97,0-1.72,.38-2.24,1.15-.53,.77-.79,1.93-.79,3.47Z"/><path class="cls-2" d="M403.32,208.96c0,2.07-.46,3.72-1.39,4.94-.92,1.22-2.2,1.84-3.81,1.84s-2.78-.56-3.65-1.69l-.15,1.44h-2.71v-18.93h2.99v6.88c.86-1.02,2.03-1.53,3.49-1.53,1.63,0,2.9,.6,3.83,1.81,.93,1.21,1.39,2.9,1.39,5.07v.17Zm-2.99-.26c0-1.45-.25-2.53-.76-3.25-.51-.72-1.25-1.08-2.22-1.08-1.3,0-2.21,.57-2.74,1.7v5.5c.53,1.16,1.45,1.74,2.76,1.74,.94,0,1.66-.35,2.17-1.05,.51-.7,.77-1.75,.79-3.17v-.38Z"/><path class="cls-2" d="M417.3,211.21l2.71-9.05h3.19l-5.3,15.36c-.81,2.24-2.19,3.36-4.14,3.36-.44,0-.92-.07-1.44-.22v-2.33l.57,.04c.76,0,1.32-.14,1.71-.41,.38-.27,.68-.74,.91-1.39l.43-1.15-4.68-13.26h3.23l2.82,9.05Z"/><path class="cls-2" d="M451.72,208.59h-3.48v6.9h-3.12v-17.95h6.31c2.07,0,3.67,.47,4.79,1.39,1.13,.93,1.69,2.27,1.69,4.03,0,1.2-.29,2.21-.87,3.02-.58,.81-1.39,1.43-2.42,1.87l4.03,7.47v.16h-3.34l-3.6-6.9Zm-3.48-2.51h3.2c1.05,0,1.87-.27,2.46-.8,.59-.53,.89-1.26,.89-2.17s-.27-1.7-.82-2.23c-.55-.53-1.36-.8-2.45-.81h-3.29v6.02Z"/><path class="cls-2" d="M469.27,212.34c.56,0,.99,.16,1.29,.47,.3,.32,.46,.71,.46,1.19s-.15,.86-.46,1.16c-.3,.31-.74,.46-1.29,.46s-.96-.15-1.27-.46c-.31-.3-.47-.69-.47-1.17s.15-.87,.46-1.19c.3-.32,.73-.47,1.28-.47Z"/><path class="cls-2" d="M490.94,210.87c0-.79-.28-1.4-.83-1.82-.56-.43-1.56-.86-3-1.29-1.45-.43-2.6-.92-3.45-1.45-1.64-1.03-2.45-2.37-2.45-4.02,0-1.45,.59-2.64,1.77-3.57,1.18-.94,2.71-1.41,4.59-1.41,1.25,0,2.36,.23,3.34,.69,.98,.46,1.75,1.12,2.3,1.97,.56,.85,.84,1.79,.84,2.83h-3.11c0-.94-.29-1.67-.88-2.2-.59-.53-1.43-.79-2.52-.79-1.02,0-1.81,.22-2.37,.65-.56,.43-.84,1.04-.84,1.82,0,.66,.3,1.21,.91,1.65s1.61,.87,3.01,1.28c1.4,.41,2.52,.89,3.36,1.42,.85,.53,1.47,1.14,1.86,1.83,.4,.69,.59,1.49,.59,2.41,0,1.5-.57,2.68-1.72,3.57-1.15,.88-2.7,1.32-4.67,1.32-1.3,0-2.49-.24-3.58-.72s-1.93-1.14-2.54-1.99c-.6-.85-.91-1.83-.91-2.96h3.12c0,1.02,.34,1.81,1.01,2.37,.67,.56,1.64,.84,2.9,.84,1.08,0,1.9-.22,2.45-.66,.55-.44,.82-1.02,.82-1.75Z"/><path class="cls-2" d="M505.19,212.34c.56,0,.99,.16,1.29,.47,.3,.32,.46,.71,.46,1.19s-.15,.86-.46,1.16c-.3,.31-.74,.46-1.29,.46s-.96-.15-1.27-.46c-.31-.3-.47-.69-.47-1.17s.15-.87,.46-1.19c.3-.32,.73-.47,1.28-.47Z"/><path class="cls-2" d="M527.52,211.32h-6.95l-1.45,4.18h-3.24l6.78-17.95h2.8l6.79,17.95h-3.25l-1.47-4.18Zm-6.08-2.51h5.2l-2.6-7.44-2.6,7.44Z"/><path class="cls-2" d="M542.66,212.34c.56,0,.99,.16,1.29,.47,.3,.32,.46,.71,.46,1.19s-.15,.86-.46,1.16c-.3,.31-.74,.46-1.29,.46s-.96-.15-1.27-.46c-.31-.3-.47-.69-.47-1.17s.15-.87,.46-1.19c.3-.32,.73-.47,1.28-.47Z"/><path class="cls-2" d="M577.43,210.87c0-.79-.28-1.4-.83-1.82-.56-.43-1.56-.86-3-1.29-1.45-.43-2.6-.92-3.45-1.45-1.64-1.03-2.45-2.37-2.45-4.02,0-1.45,.59-2.64,1.77-3.57,1.18-.94,2.71-1.41,4.59-1.41,1.25,0,2.36,.23,3.34,.69s1.75,1.12,2.3,1.97c.56,.85,.84,1.79,.84,2.83h-3.11c0-.94-.29-1.67-.88-2.2-.59-.53-1.43-.79-2.52-.79-1.02,0-1.81,.22-2.37,.65-.56,.43-.84,1.04-.84,1.82,0,.66,.3,1.21,.91,1.65s1.61,.87,3.01,1.28c1.4,.41,2.52,.89,3.36,1.42,.85,.53,1.47,1.14,1.86,1.83,.4,.69,.59,1.49,.59,2.41,0,1.5-.57,2.68-1.72,3.57-1.15,.88-2.7,1.32-4.67,1.32-1.3,0-2.49-.24-3.58-.72s-1.93-1.14-2.54-1.99c-.6-.85-.91-1.83-.91-2.96h3.12c0,1.02,.34,1.81,1.01,2.37,.67,.56,1.64,.84,2.9,.84,1.08,0,1.9-.22,2.45-.66,.55-.44,.82-1.02,.82-1.75Z"/><path class="cls-2" d="M589.25,208.7c0-1.31,.26-2.48,.78-3.53,.52-1.05,1.24-1.85,2.18-2.42,.94-.56,2.01-.84,3.23-.84,1.8,0,3.26,.58,4.38,1.74,1.12,1.16,1.73,2.7,1.82,4.61v.7c.01,1.31-.24,2.49-.74,3.52-.51,1.04-1.23,1.84-2.17,2.4-.94,.57-2.03,.85-3.26,.85-1.88,0-3.39-.63-4.52-1.88-1.13-1.25-1.7-2.92-1.7-5.01v-.15Zm2.99,.26c0,1.37,.28,2.45,.85,3.22,.57,.78,1.36,1.16,2.37,1.16s1.8-.39,2.36-1.18c.56-.79,.84-1.94,.84-3.46,0-1.35-.29-2.42-.87-3.2-.58-.79-1.37-1.18-2.36-1.18s-1.75,.39-2.33,1.16-.86,1.94-.86,3.48Z"/><path class="cls-2" d="M612.05,215.5v-11.12h-2.03v-2.22h2.03v-1.22c0-1.48,.41-2.62,1.23-3.43s1.97-1.21,3.45-1.21c.53,0,1.08,.07,1.68,.22l-.07,2.34c-.33-.06-.71-.1-1.15-.1-1.43,0-2.14,.74-2.14,2.21v1.18h2.71v2.22h-2.71v11.12h-2.99Z"/><path class="cls-2" d="M630.51,198.92v3.24h2.35v2.22h-2.35v7.44c0,.51,.1,.88,.3,1.1s.56,.34,1.08,.34c.34,0,.69-.04,1.05-.12v2.32c-.68,.19-1.34,.28-1.97,.28-2.3,0-3.45-1.27-3.45-3.81v-7.55h-2.19v-2.22h2.19v-3.24h2.99Z"/><path class="cls-2" d="M653.68,211.37l2.12-9.21h2.92l-3.64,13.33h-2.46l-2.86-9.16-2.81,9.16h-2.46l-3.65-13.33h2.92l2.16,9.11,2.74-9.11h2.25l2.77,9.21Z"/><path class="cls-2" d="M675.51,215.5c-.13-.25-.25-.67-.35-1.24-.95,.99-2.12,1.49-3.5,1.49s-2.43-.38-3.28-1.15c-.85-.76-1.27-1.71-1.27-2.83,0-1.42,.53-2.51,1.58-3.27s2.57-1.14,4.53-1.14h1.84v-.87c0-.69-.19-1.24-.58-1.66-.39-.41-.97-.62-1.76-.62-.68,0-1.24,.17-1.68,.51-.44,.34-.65,.77-.65,1.3h-2.99c0-.73,.24-1.41,.73-2.05,.48-.64,1.14-1.14,1.98-1.5,.83-.36,1.76-.54,2.79-.54,1.56,0,2.81,.39,3.74,1.18,.93,.79,1.4,1.89,1.43,3.31v6.01c0,1.2,.17,2.16,.51,2.87v.21h-3.06Zm-3.29-2.16c.59,0,1.15-.14,1.67-.43,.52-.29,.91-.67,1.18-1.16v-2.51h-1.62c-1.11,0-1.94,.19-2.5,.58-.56,.39-.84,.93-.84,1.64,0,.58,.19,1.03,.57,1.37,.38,.34,.89,.51,1.54,.51Z"/><path class="cls-2" d="M694.99,204.9c-.39-.07-.8-.1-1.22-.1-1.37,0-2.3,.53-2.77,1.58v9.12h-2.99v-13.33h2.86l.07,1.49c.72-1.16,1.73-1.74,3.01-1.74,.43,0,.78,.06,1.06,.17v2.81Z"/><path class="cls-2" d="M709.57,215.74c-1.9,0-3.44-.6-4.62-1.79-1.18-1.2-1.77-2.79-1.77-4.78v-.37c0-1.33,.26-2.52,.77-3.57,.51-1.05,1.23-1.86,2.16-2.45,.93-.58,1.96-.87,3.11-.87,1.82,0,3.22,.58,4.21,1.74,.99,1.16,1.49,2.8,1.49,4.92v1.21h-8.71c.09,1.1,.46,1.97,1.1,2.61,.65,.64,1.46,.96,2.43,.96,1.37,0,2.49-.56,3.35-1.66l1.62,1.54c-.53,.8-1.25,1.41-2.14,1.85-.89,.44-1.89,.66-3,.66Zm-.36-11.42c-.82,0-1.49,.29-1.99,.86-.51,.58-.83,1.38-.97,2.4h5.71v-.22c-.07-1-.33-1.76-.8-2.27s-1.12-.77-1.95-.77Z"/></g><g><path class="cls-2" d="M506.95,313.83v-69.8h19.51c5.72,0,10.85,1.3,15.39,3.91,4.54,2.61,8.08,6.34,10.62,11.19,2.54,4.86,3.81,10.39,3.81,16.59v6.42c0,6.23-1.26,11.76-3.79,16.59-2.53,4.83-6.08,8.55-10.67,11.17-4.59,2.62-9.85,3.93-15.8,3.93h-19.08Zm5.9-64.82v59.83h13.23c7.35,0,13.25-2.44,17.69-7.32,4.44-4.88,6.66-11.48,6.66-19.79v-6.14c0-8.03-2.19-14.46-6.57-19.29s-10.15-7.26-17.31-7.29h-13.71Z"/><path class="cls-2" d="M619.19,296.67c0-3.87-1.36-6.93-4.08-9.18-2.72-2.25-7.69-4.39-14.91-6.42-7.22-2.03-12.5-4.24-15.82-6.64-4.73-3.39-7.09-7.83-7.09-13.33s2.2-9.68,6.59-13.02c4.39-3.34,10.01-5.01,16.85-5.01,4.63,0,8.78,.9,12.44,2.68,3.66,1.79,6.5,4.28,8.51,7.48,2.01,3.2,3.02,6.76,3.02,10.69h-5.94c0-4.78-1.63-8.62-4.89-11.52-3.26-2.9-7.64-4.35-13.14-4.35s-9.59,1.19-12.75,3.58c-3.16,2.38-4.75,5.5-4.75,9.34,0,3.55,1.42,6.45,4.27,8.69,2.84,2.24,7.4,4.22,13.66,5.93,6.26,1.71,11.01,3.49,14.24,5.33,3.23,1.84,5.66,4.04,7.29,6.59,1.63,2.56,2.44,5.58,2.44,9.06,0,5.5-2.2,9.91-6.59,13.23-4.39,3.32-10.19,4.99-17.38,4.99-4.92,0-9.44-.88-13.54-2.64-4.11-1.76-7.22-4.22-9.35-7.38-2.13-3.16-3.19-6.79-3.19-10.88h5.9c0,4.92,1.84,8.81,5.51,11.65,3.67,2.84,8.57,4.27,14.67,4.27,5.43,0,9.8-1.2,13.09-3.6,3.29-2.4,4.94-5.58,4.94-9.54Z"/><path class="cls-2" d="M654.1,244.03l25.74,61.6,25.84-61.6h7.86v69.8h-5.9v-30.4l.48-31.16-25.98,61.56h-4.55l-25.89-61.32,.48,30.73v30.59h-5.9v-69.8h7.81Z"/></g></g></svg>